<?xml version="1.0" encoding="UTF-8" standalone="no"?>
<!-- Generator: Adobe Illustrator 24.0.2, SVG Export Plug-In . SVG Version: 6.00 Build 0)  -->

<svg
   version="1.1"
   id="Capa_1"
   x="0px"
   y="0px"
   viewBox="44 34 336.00029 336.00035"
   xml:space="preserve"
   sodipodi:docname="favicon.svg"
   width="345"
   height="345"
   inkscape:version="1.2.1 (9c6d41e410, 2022-07-14)"
   xmlns:inkscape="http://www.inkscape.org/namespaces/inkscape"
   xmlns:sodipodi="http://sodipodi.sourceforge.net/DTD/sodipodi-0.dtd"
   xmlns:xlink="http://www.w3.org/1999/xlink"
   xmlns="http://www.w3.org/2000/svg"
   xmlns:svg="http://www.w3.org/2000/svg"><defs
   id="defs954" /><sodipodi:namedview
   id="namedview952"
   pagecolor="#ffffff"
   bordercolor="#000000"
   borderopacity="0.25"
   inkscape:showpageshadow="2"
   inkscape:pageopacity="1"
   inkscape:pagecheckerboard="true"
   inkscape:deskcolor="#d1d1d1"
   showgrid="false"
   showborder="true"
   inkscape:zoom="1.6909954"
   inkscape:cx="214.0751"
   inkscape:cy="228.26792"
   inkscape:window-width="1920"
   inkscape:window-height="1017"
   inkscape:window-x="-8"
   inkscape:window-y="-8"
   inkscape:window-maximized="1"
   inkscape:current-layer="Capa_1" />
<style
   type="text/css"
   id="style479">
	.st0{fill:none;stroke:#000000;stroke-width:4;stroke-miterlimit:10;}
	.st1{fill-rule:evenodd;clip-rule:evenodd;fill:#164F63;}
	.st2{fill:none;}
	.st3{fill:#3747BA;}
	.st4{fill:#98C3F8;}
	.st5{fill:#87B5F1;}
	.st6{fill:#75A7EA;}
	.st7{fill:#649AE3;}
	.st8{fill:#538CDC;}
	.st9{fill:#417ED5;}
	.st10{fill:#3070CE;}
	.st11{fill:#5ECCCC;}
	.st12{fill:#6BCDB5;}
	.st13{fill:#4B84DD;}
	.st14{fill:#78CD9D;}
	.st15{fill:#86CE86;}
	.st16{fill:#93CE6F;}
	.st17{fill:#C4DB60;}
	.st18{fill:#CFE173;}
	.st19{fill:#FF7C68;}
	.st20{fill:#A0CF57;}
	.st21{fill:#F9493A;}
	.st22{fill:#001033;}
	.st23{fill:#FE7461;}
	.st24{fill:#212B4F;}
	.st25{fill:#ADCF40;}
	.st26{fill:#FA5240;}
	.st27{fill:#0B193C;}
	.st28{fill:#92BD38;}
	.st29{fill:#F75647;}
	.st30{fill:#FB6655;}
	.st31{fill:#162246;}
	.st32{fill:#FFCB5B;}
	.st33{fill:#FFAF3B;}
	.st34{fill:#41466B;}
	.st35{fill:#FFDD70;}
	.st36{fill:#060807;}
	.st37{clip-path:url(#SVGID_6_);}
	.st38{clip-path:url(#SVGID_8_);}
	.st39{clip-path:url(#SVGID_10_);}
	.st40{clip-path:url(#SVGID_12_);}
	.st41{clip-path:url(#SVGID_14_);}
	.st42{clip-path:url(#SVGID_16_);}
	.st43{clip-path:url(#SVGID_18_);}
	.st44{clip-path:url(#SVGID_20_);}
	.st45{clip-path:url(#SVGID_21_);}
	.st46{clip-path:url(#SVGID_22_);}
</style>
<circle
   class="st0"
   cx="212.07101"
   cy="202.02769"
   r="165"
   id="circle481" />
<path
   id="SVGID_x5F_2_x5F_"
   class="st2"
   d="m 235.17101,6.3277102 c 116.7,9.9999998 203.4,112.6999998 193.4,229.4999998 -10,116.8 -112.7,203.4 -229.5,193.5 -116.800003,-10 -203.400003,-112.7 -193.500003,-229.5 10,-116.8 112.800003,-203.3999998 229.600003,-193.4999998 z" />
<text
   id="text488"
   transform="translate(-148.42899,-150.27229)"><textPath
   xlink:href="#SVGID_x5F_2_x5F_"
   startOffset="107.4057%"
   id="textPath486"> <tspan
   style="font-size:43.9596px;font-family:LinLibertine;letter-spacing:300"
   id="tspan484">CASA COLIBRIES</tspan></textPath></text>
<path
   id="SVGID_x5F_4_x5F_"
   class="st2"
   d="m 351.67101,372.32771 c 88.4,-77 97.6,-211.1 20.6,-299.5 -77,-88.4 -211.1,-97.6 -299.500003,-20.6 -88.4,77 -97.5,211.1 -20.5,299.5 77.000003,88.4 211.000003,97.6 299.400003,20.6 z" />

<g
   id="g949"
   transform="translate(-148.42899,-150.27229)">
	<path
   class="st4"
   d="m 262.5,257.2 c 1.6,-1 4.4,2.1 8.5,5.1 4.1,3.1 17.1,18.6 20.5,21.2 3.4,2.6 18.2,12.9 21.7,15.3 v 0.1 c -3.5,-1.5 -3.1,-1.2 -2.9,0.8 0.1,1 1.1,2.5 2.5,4 -0.5,0.5 -0.6,1.4 -0.6,1.6 -0.4,-0.1 -21.2,-9.7 -33.9,-17.9 -2.2,-1.4 -4.5,-3.3 -6.1,-4.7 -1.9,-1.8 -2.7,-2.5 -2.8,-2.6 -2.2,-2.2 -3.9,-4.1 -5.1,-5.3 -2.6,-2.6 -3.4,-16.6 -1.8,-17.6"
   id="path497" />
	<path
   class="st5"
   d="m 263.3,276.2 c 0.2,-1.4 6.1,4 6.2,4.1 2.7,2.7 5.6,5.2 8.8,7.3 12.6,8.1 33.4,17.8 33.9,17.9 -0.3,2 0.7,4.1 1.8,5.8 l -0.2,0.1 c 0,0 -16.7,-5.5 -29.5,-12 -5.8,-2.9 -9.4,-4.8 -11.8,-6.2 -3,-1.8 -4.2,-2.8 -5.6,-4.3 -2.5,-2.7 -4.1,-9.7 -3.6,-12.7"
   id="path499" />
	<path
   class="st6"
   d="m 298.3,312.4 c -5.8,-1.3 -19.7,-6.1 -22.8,-7.4 -2.6,-1.1 -6,-9.5 -5.7,-11.3 0.3,-1.4 1.8,-0.8 2.5,-0.4 0.1,-0.2 -1,-0.4 11.9,6.1 12.9,6.5 29.5,12 29.5,12 l 0.2,-0.1 c 0.3,0.5 0.6,0.9 1,1.4 0,0 -0.3,1.6 0,3.6 0,-0.1 -8.3,-2 -16.6,-3.9"
   id="path501" />
	<path
   class="st7"
   d="m 278.1,306 c 0.2,0 12.9,4.7 20.2,6.4 8.3,1.9 16.6,3.8 16.6,3.8 0.4,2.4 1.4,3.5 2.9,4.7 0,0 -0.1,1 0.1,2.1 -1.5,0.2 -22.2,-0.8 -31,-4.1 -8,-3 -10.7,-9.2 -11.2,-11.7 -0.5,-1.7 1.2,-1.5 2.4,-1.2"
   id="path503" />
	<path
   class="st8"
   d="m 287.8,319.2 v 0 c 9.4,3.1 29.1,3.9 30.1,3.8 0.1,0.8 0.4,1.7 0.9,2.4 0.7,1 1.3,1.9 2.4,2.8 -0.8,-0.1 -5.9,-0.6 -12.6,0.7 -4.8,1 -13.6,2.2 -17.6,-0.6 -3.5,-2.6 -7.2,-7.2 -6.9,-8.8 0.2,-1.3 2.8,-0.5 3.7,-0.3"
   id="path505" />
	<path
   class="st8"
   d="m 290.1,245.6 c 1.3,-4.4 5.9,8.2 16.2,22.5 3.2,4.4 18.2,24 18.2,24 -0.4,1.4 2.1,6.4 2.9,7.5 0.3,0.4 0.8,1.1 1.4,2 -0.7,-0.6 -3.2,-2.4 -4.8,-2.8 0,0 -10.7,-13.7 -14.6,-17.7 -3.8,-4 -14.6,-16.7 -17.2,-20.5 -3.6,-5.3 -3.8,-9.5 -2.1,-15"
   id="path507" />
	<path
   class="st9"
   d="m 290.6,258.2 0.1,-0.1 c 0.4,0.8 0.9,1.7 1.5,2.5 2.6,3.8 13.4,16.5 17.2,20.5 3.8,4 14.6,17.7 14.5,17.8 -0.5,-0.1 -1,-0.1 -1.2,0.2 -1,1.3 2.5,6.2 3,6.9 -1.6,-1.2 -3.1,-2.3 -4.7,-3.3 0,0 -6.6,-7.9 -16.5,-16.7 -9.5,-8.5 -11.4,-12.4 -13.5,-17.6 -1.9,-4.8 -0.4,-10.2 -0.4,-10.2"
   id="path509" />
	<path
   class="st9"
   d="m 293.2,329.5 v 0 c 4,1.2 10.1,0.5 15.3,-0.5 6.7,-1.3 11.8,-0.8 12.6,-0.7 0.3,0.3 0.8,0.6 1.2,0.9 0,0 -0.8,2.3 0.5,4.9 -0.4,0 -5.8,0.7 -9.5,1.5 -3.9,0.8 -6.4,3.1 -12.6,2.7 -0.3,0 -0.7,-0.1 -1,-0.1 -5.6,-0.8 -8.4,-4.8 -8.9,-7.1 -0.4,-2.4 2.4,-1.6 2.4,-1.6"
   id="path511" />
	<path
   class="st10"
   d="m 291.4,275.5 c 0.9,-2.3 2.3,-1.2 2.3,-1.2 l 0.1,-0.1 c 1.8,3 4.8,6.5 10.7,11.8 9.9,8.8 16.5,16.7 16.5,16.7 -2.8,-1.7 -3.8,-2 -7.8,-3.7 v -0.1 c 0,0 -11.2,-7.8 -17.7,-12.4 -0.8,-1.1 -5,-8.7 -4.1,-11"
   id="path513" />
	<path
   class="st10"
   d="m 296.9,339.9 c 0.1,-1.4 2.8,-1.8 2.8,-1.8 0.3,0.1 0.6,0.1 1,0.1 6.2,0.4 8.8,-1.9 12.6,-2.7 3.7,-0.8 9.1,-1.4 9.5,-1.5 0.6,1.2 1.6,2.6 3.4,3.7 0.3,0.2 0.6,0.4 0.9,0.5 l -0.1,0.1 c 0,0 -0.2,0.8 0.1,1.8 H 327 c 0,0 -3.3,0.3 -6.5,1.7 -5.3,2.3 -10.2,4.7 -15.6,4.7 -5.3,0.3 -8.2,-5.2 -8,-6.6"
   id="path515" />
	<path
   class="st10"
   d="m 302.5,348.8 c 0,-1.4 5.8,-2.4 5.8,-2.4 4.2,-0.7 8.2,-2.6 12.4,-4.4 3.2,-1.4 6.3,-1.6 6.6,-1.7 0.5,1.4 1.9,3.5 6.2,4.9 -0.1,0.2 -0.5,1 -0.4,2.2 -0.4,0 -2.6,-0.1 -4,0.3 -1.6,0.4 -2.2,0.1 -8.9,4.2 -2.1,1.3 -3.6,2.1 -4.7,2.6 -2.5,1.1 -3.1,0.7 -5.1,0.3 -2.9,-0.6 -7.9,-4.6 -7.9,-6"
   id="path517" />
	<path
   class="st11"
   d="m 316.8,300.5 c 4.9,2 10.8,6.7 14.6,10.3 0,0 -3.4,-3.1 -6.1,-0.6 -1.8,1.7 -0.3,4.3 0.8,5.9 0,0 -4,-3.4 -6.5,-5.6 -2,-1.7 -9.2,-8 -9.4,-10.6 -0.2,-2.6 -0.8,-2.4 6.6,0.6"
   id="path519" />
	<path
   class="st12"
   d="m 312.1,305.4 c 0,-0.3 0.2,-1.1 0.6,-1.6 2.2,2.5 5.3,5.3 6.9,6.6 2.5,2.1 6.5,5.6 6.5,5.5 0.5,0.7 1,1.2 1.1,1.2 0.2,0.1 -1.6,-0.6 -2.2,1.1 -0.3,0.9 -0.1,1.8 0.5,2.8 -4,-2.2 -9.1,-5.9 -11.6,-9.9 -1.1,-1.6 -2,-3.7 -1.8,-5.7"
   id="path521" />
	<path
   class="st13"
   d="m 315.5,354.7 v 0 c 1.1,-0.6 2.5,-1.4 4.6,-2.7 6.8,-4.1 7.3,-3.8 8.9,-4.2 1.4,-0.4 3.7,-0.3 4,-0.3 0.3,2.3 2.8,4.1 4.7,4.5 v 0.1 c 0,0 0.1,1 0.9,2.3 -0.5,0.1 -4.3,0.5 -6.9,1.5 -3.1,1.2 -10,6.4 -10.7,6.5 -2.9,1.5 -8.4,-3.1 -8.8,-4.5 -0.4,-1.3 2.9,-3 3.3,-3.2"
   id="path523" />
	<path
   class="st14"
   d="m 314.8,312.6 v 0 c 3.7,4.7 10.3,8.3 10.7,8.5 1.2,2.3 3.9,4.5 3.9,4.5 0,0 -1.6,-0.2 -1.9,0.9 -2.6,-1.2 -9.6,-4.9 -11.4,-7.2 -0.7,-1 -1.1,-2.1 -1.2,-3.1 -0.4,-1.9 -0.1,-3.6 -0.1,-3.6"
   id="path525" />
	<path
   class="st15"
   d="m 321.1,328.2 c -1.1,-0.9 -1.7,-1.8 -2.4,-2.8 -0.5,-0.7 -0.8,-1.6 -0.9,-2.4 -0.2,-1.2 -0.1,-2.1 -0.1,-2.1 3.3,2.6 9.7,5.7 9.8,5.7 0,0.1 -0.1,0.2 -0.1,0.4 -0.1,2.5 3.2,5.3 5.1,6.8 0,0 -1.8,-0.7 -6.8,-2.9 -1.5,-0.7 -3.3,-1.6 -4.6,-2.7"
   id="path527" />
	<path
   class="st8"
   d="m 331.3,367.2 c -4.8,2.1 -9.9,-0.3 -11.3,-1.5 -1.3,-1.2 0.5,-2.9 1,-3.3 0.6,-0.1 7.8,-5.5 10.7,-6.5 2.6,-0.9 6.4,-1.4 6.9,-1.5 1.2,1.9 3.6,3.6 6.4,3.5 v 0.2 c 0,0 -0.7,1 -1.3,2.6 -12.4,6.6 -11.9,6.3 -12.4,6.5"
   id="path529" />
	<path
   class="st16"
   d="m 322.3,329.1 v 0 c 1.6,1 3.8,1.9 10.2,4.6 0.8,0.6 1.4,1 1.4,1 0,0 -1.9,-0.4 -1.2,2.7 0.2,0.8 0.8,1.6 1.6,2.4 -0.3,0.3 -3.2,0.9 -7.3,-1.5 -0.3,-0.2 -0.6,-0.3 -0.9,-0.5 -1.8,-1.2 -2.9,-2.5 -3.5,-3.7 -1,-2.7 -0.3,-5 -0.3,-5"
   id="path531" />
	<path
   class="st17"
   d="m 322.7,299.2 c 0.9,-1.2 4.8,1.6 6,2.6 1.4,2.1 5,7.2 5.1,7.4 l 0.2,-0.1 c 0.6,2.8 2.1,6 2.4,6.6 -3.1,-3.1 -7.2,-6.8 -10.8,-9.6 -0.4,-0.8 -3.9,-5.6 -2.9,-6.9"
   id="path533" />
	<path
   class="st18"
   d="m 333.9,309.1 c -0.7,-1 -2.9,-4.3 -6.5,-9.4 -0.8,-1.2 -3.9,-7.4 -2.5,-7.9 1.4,-0.5 4,3.9 6.6,6.4 1.2,1.1 3.7,3.4 6.4,5.9 -0.6,-0.3 -2.5,-1 -3.7,1.3 -0.5,0.9 -0.4,2.2 -0.1,3.7 h -0.2"
   id="path535" />
	<path
   class="st19"
   d="m 325,318.3 c 0.6,-1.6 2.4,-1 2.2,-1.1 -0.1,0 -0.5,-0.5 -1.1,-1.2 -1.2,-1.5 -2.6,-4.1 -0.8,-5.8 2.6,-2.5 6.1,0.6 6.1,0.6 1.2,1.1 2.3,2.1 3.3,3.1 l -0.1,0.1 c 0,0 -2,-1.3 -3.2,0.7 -1.1,2 5.2,7.3 5.6,7.6 -0.2,-0.2 -2.8,-1.9 -3.6,0.6 -0.9,2.7 4.3,7 4.3,7 0,0 -2.3,0.4 -1.3,3.7 0.9,3.3 3.6,3 3.6,3 0,0 -1.4,2.4 -0.6,4.3 0.8,1.9 1.6,3 2.5,3.6 l -0.2,0.3 c -2.3,-1.2 -8.3,-4.8 -8.9,-7.4 -0.7,-3.1 1.2,-2.7 1.2,-2.7 -2.2,-1.4 -6.7,-4.9 -6.6,-7.7 0.1,-1.5 1.8,-1.4 2,-1.3 -1.9,-1.6 -5.2,-5.1 -4.4,-7.4"
   id="path537" />
	<path
   class="st20"
   d="m 327.1,338.5 0.1,-0.1 c 4.6,2.6 7.2,1.5 7.2,1.5 l 0.1,-0.1 c 2.6,2.6 7.3,5 7.3,5.1 0,0 -5.2,1.4 -7.8,0.6 -2.6,-0.8 -5.9,-2.5 -6.8,-5.1 -0.4,-1.2 -0.1,-1.9 -0.1,-1.9"
   id="path539" />
	<path
   class="st7"
   d="m 327.3,370.9 c 0.7,-1.8 3.2,-3.2 4,-3.7 1.2,-0.5 12.3,-6.6 12.5,-6.5 -0.6,1.7 -0.9,4 0.1,6.2 0.2,0.3 0.3,0.7 0.5,1 l -0.3,0.1 c -1.9,1.6 -7.3,6 -9.7,6.8 -2.9,1 -7.9,-1.8 -7.1,-3.9"
   id="path541" />
	<path
   class="st21"
   d="m 330.8,414.2 c 0.4,-2.1 0.1,-4.1 -0.2,-6.2 0.1,-0.1 1.2,-0.8 2.4,-2.7 0,0 0,-0.1 0.1,-0.1 0,0 0.3,1.7 2,2 0.2,0 0.5,0 0.7,0 0,0 0,3.1 -0.3,5.9 -0.3,2.7 -0.8,5 -2.9,7.3 -0.7,0.8 -1.5,1.3 -2.4,1.7 -2,0.8 0,-4.5 0.6,-7.9"
   id="path543" />
	<path
   class="st22"
   d="m 330.3,404.3 c 0,-3.4 2.3,-13.2 2.3,-13.2 h 0.2 c -0.4,2.3 -0.5,5.1 1.1,6.8 0.5,0.5 1,0.7 1.5,0.7 v 0.1 c 0,0 -1,4.5 -2.3,6.6 0,0 0,0.1 -0.1,0.1 -1.3,1.9 -2.3,2.6 -2.4,2.7 -0.2,-1.3 -0.3,-2.5 -0.3,-3.8"
   id="path545" />
	<path
   class="st23"
   d="m 351,343.1 c -6.7,1.7 -8.8,4.2 -11.6,-2.2 -0.8,-2 0.6,-4.3 0.6,-4.3 0,0 -2.6,0.3 -3.6,-3 -0.9,-3.3 1.3,-3.7 1.3,-3.7 0,0 -5.2,-4.3 -4.3,-7 0.8,-2.6 3.4,-0.8 3.6,-0.6 -0.4,-0.3 -6.7,-5.6 -5.6,-7.6 1.2,-2 3.2,-0.7 3.2,-0.7 l 0.1,-0.1 c 4.6,4.4 6.5,6.4 10.6,12.6 0,0 -3.7,-4.2 -4.6,-2.9 -0.9,1.3 3.8,6.3 4.1,6.6 -0.2,-0.1 -2.8,-1.8 -3.2,-0.3 -0.4,1.5 3.4,3.9 3.4,3.9 0,0 -2.5,-0.4 -2.5,1.2 0,1.7 3.9,3.1 3.9,3.1 0,0 -2.8,0.3 -1.7,2.4 0.9,1.7 2.8,0.9 3.4,0.5 -0.5,0.3 -1.7,1.2 -1.1,1.9 0.8,0.9 3.2,0.4 4,0.2"
   id="path547" />
	<path
   class="st22"
   d="m 344.6,451.7 c 0.1,2.3 -1.3,4.8 -2.6,6.7 -2.9,-2.5 -5.4,-14.6 -6.1,-18.3 -0.7,-9.1 -3.1,-19.4 -3.1,-19.4 l -0.2,-0.1 c 1.1,-1.2 2,-2.8 2.5,-4.6 0.2,-0.8 0.3,-1.7 0.5,-2.7 0,0 0.6,1.8 1.8,2 0.5,1 6.5,12.2 7.2,36.4"
   id="path549" />
	<path
   class="st24"
   d="m 381,385.6 h -0.1 c 0,0 -3,6.1 -6.5,5.3 -1.7,-0.3 -0.7,-0.3 -2.1,-0.2 0,0 -3.7,4.2 -7,5.7 -2.9,1.4 -8.5,1.5 -9.2,1.5 0.2,-1.4 0.1,-2.5 0.1,-2.5 0,0 0.5,1.6 2.9,-0.2 2.3,-1.7 -0.2,-10.2 -0.2,-10.2 h -0.1 c 0.1,1.8 0.1,4.6 -1.5,5.8 -3.5,2.7 -4,-1.9 -4,-1.9 0,0 0.1,1.8 -1.6,3.9 -0.7,0.8 -1.6,1.7 -3,2.4 -4,2.4 -2.6,-6 -3,-5.6 -0.3,0.4 0.5,6 -4.4,9.1 -3.2,2 -2.1,-4.6 -2.1,-4.6 0,0 -1.8,4.2 -3.8,4.3 -0.5,0 -1,-0.2 -1.5,-0.7 -1.6,-1.7 -1.6,-4.5 -1.1,-6.8 0.4,-2.3 1.3,-4.2 1.3,-4.2 -0.3,1.4 -0.3,2.6 0.3,3.1 1.6,1.6 3.3,-2.5 3.5,-2.9 -0.1,0.5 -1.1,4.5 1,4.7 2.3,0.3 4,-2.1 4.5,-4.6 0.5,-2.4 1.8,-3 2,-3.1 0,0.1 -0.4,1.1 1,1.4 1.8,0.3 3.3,-1.7 3.7,-5.8 0.3,-3.7 1.5,-6.4 1.8,-7 -3.7,0.8 -6.6,-2.3 -8.1,-5.7 -1,-2.2 -0.6,-4.5 -0.1,-6.2 0.5,-1.5 1.2,-2.6 1.2,-2.6 v -0.2 c 1.9,-0.1 3.4,-0.9 3.4,-0.9 l 1.7,-0.1 c 1.7,0.9 3.8,1 4,1 -0.2,0.1 -3.4,2 -1.8,5.4 1.7,3.6 7.6,-0.1 7.6,-0.1 0,0 -2.5,3.9 0,5.6 4.4,3 9.2,-3.7 9.2,-3.7 0,0 0.2,4.3 2.4,4.9 2.2,0.6 4.9,-1.4 7.5,-7 2.5,-5.4 1.7,-12 1.6,-12.4 0.1,-0.4 0.2,-0.8 0.2,-1.3 0.5,0.6 4,5.2 5.9,14.8 2,10.4 -1.7,23.6 -4.2,23.3 -0.8,-0.1 -1.2,-0.8 -1.4,-1.7"
   id="path551" />
	<path
   class="st6"
   d="m 335.1,374.6 v 0 c 3.1,-1.5 8.9,-6.5 8.9,-6.5 l 0.3,-0.1 c 1.8,3.4 4,4.4 5.6,4.7 v 0.2 c 0,0 -5.9,8.3 -7.8,9.5 -1.8,1.1 -8.3,-3.5 -9,-4.9 -0.7,-1.4 2,-2.9 2,-2.9"
   id="path553" />
	<path
   class="st25"
   d="m 333,347.5 c -0.1,-1.2 0.4,-2.1 0.4,-2.1 0,-0.1 -0.1,-0.1 0.6,0.1 2.6,0.8 7.8,-0.6 7.8,-0.6 l 0.2,-0.3 c 1,0.7 2.1,0.6 3.6,0.2 -0.2,0.3 -1.1,2.2 0.1,4.1 0.5,0.8 1.3,1.2 2,1.5 -0.5,0.2 -5.9,2.6 -9.9,1.6 -2,-0.5 -4.5,-2.3 -4.8,-4.5"
   id="path555" />
	<path
   class="st22"
   d="m 333.1,405.3 c 1.4,-2.1 2.3,-6.6 2.3,-6.6 v -0.1 c 2.1,-0.1 3.8,-4.3 3.8,-4.3 0,0 -1.1,6.6 2.1,4.6 4.9,-3 4.1,-8.7 4.4,-9.1 0.3,-0.4 -1,7.9 3,5.6 1.3,-0.8 2.3,-1.6 3,-2.4 l 0.1,0.1 c 0.1,2.2 -0.5,5.5 -2.2,6.9 -2.4,2.1 -4.9,-0.1 -4.9,-0.1 0,0 -0.1,5.5 -3.2,5.7 -0.2,0 -0.3,0 -0.4,0 -2.6,-0.3 -2.3,-4.4 -2.3,-4.4 -0.4,2 -1.7,6.4 -3.7,6.1 -1.7,-0.3 -2,-2 -2,-2"
   id="path557" />
	<path
   class="st26"
   d="m 334.1,305.3 c 1.2,-2.3 3.1,-1.6 3.7,-1.3 1.6,1.5 3.3,3 4.8,4.5 -0.7,-0.4 -1.9,-0.8 -2.8,0.1 -1.7,1.6 2.2,7 4.3,11.2 -0.3,-0.2 -2.4,-1.8 -3.5,-2 -1.2,-0.1 -2,-0.2 -2,-0.2 l -0.1,0.1 c -0.6,-0.7 -1.3,-1.4 -2.1,-2.1 -1.1,-2.2 -3.5,-8 -2.3,-10.3"
   id="path559" />
	<path
   class="st27"
   d="m 345.4,384.1 c -0.2,0.1 -1.5,0.7 -2,3.1 -0.5,2.6 -2.2,4.9 -4.5,4.6 -2.1,-0.2 -1.2,-4.2 -1,-4.7 -0.2,0.5 -1.9,4.6 -3.5,2.9 -0.5,-0.6 -0.5,-1.8 -0.3,-3.1 0.5,-2.9 2.2,-6.5 2.2,-6.6 2.1,1.4 4.6,2.6 5.7,2 1.9,-1.2 7.8,-9.5 7.8,-9.5 v -0.2 c 1.1,0.2 1.9,0 2,0 -0.3,0.6 -1.4,3.3 -1.8,7 -0.4,4.2 -1.9,6.2 -3.7,5.8 -1.2,-0.2 -0.9,-1.2 -0.9,-1.3"
   id="path561" />
	<path
   class="st11"
   d="m 336,446.5 c 0.1,-1.9 0,-4.2 -0.2,-6.5 0.7,3.7 3.3,15.8 6.1,18.3 -2.1,3 -5.1,5.7 -7,7 -3.1,2.3 0.6,-9.2 1.1,-18.8"
   id="path563" />
	<path
   class="st26"
   d="m 337.3,415.2 c -1.2,-0.1 -1.8,-2 -1.8,-2 0.2,-1.8 0.4,-5.7 0.3,-6 2,-0.7 3,-6 3,-6 0,0 -0.4,4.2 2.3,4.5 0.1,2.4 -0.3,6.5 -1.8,8.4 -0.1,0.1 -0.2,0.2 -0.3,0.3 -0.7,0.6 -1.2,0.8 -1.7,0.8"
   id="path565" />
	<path
   class="st27"
   d="m 338.9,414.4 c 0.4,-0.3 0.2,-0.4 0.4,-0.3 0,0 2.6,1.9 6.4,15 2.8,9.7 2.7,16 3.3,23 0,0 -0.1,2.8 -1.1,5.4 -1,2.6 -3.2,4.2 -3.2,4.2 -0.3,-3.2 -0.3,-6.8 -0.2,-8.7 0.1,-0.5 0.1,-1 0.1,-1.4 -0.7,-24.1 -6.7,-35.4 -7.3,-36.5 0.5,0.1 1,-0.1 1.6,-0.7"
   id="path567" />
	<path
   class="st28"
   d="m 338.6,354.4 c 0,0 0,0 0,0 -0.8,-1.3 -0.9,-2.3 -0.9,-2.3 V 352 c 4,1 9.4,-1.4 9.9,-1.6 1.3,0.5 2.6,0.4 2.6,0.4 0,0 -3.3,1.3 -2,4.2 0.4,0.9 1.1,1.5 1.8,1.9 l -1.7,0.1 c 0,0 -1.5,0.8 -3.4,0.9 -2.7,0.1 -5.1,-1.5 -6.3,-3.5"
   id="path569" />
	<path
   class="st29"
   d="m 344.2,319.8 c -2.2,-4.4 -6,-9.6 -4.3,-11.2 0.9,-0.9 2.1,-0.5 2.8,-0.1 4.3,4.2 5.4,5.3 10.5,13.8 0,0 -3.6,-4.4 -5.2,-3.5 -1.6,0.9 3.3,6.7 3.8,7.4 -0.4,-0.3 -2.3,-1.9 -3.2,-1.2 -1,0.9 0.3,2.2 1.5,3.3 1.1,1 2.9,2.7 3.1,2.9 -0.3,-0.2 -3.3,-1.8 -3.4,-0.3 -0.2,1.5 2.2,3.1 2.4,3.3 0.2,0.3 -1.6,-0.2 -1.6,-0.2 l -0.1,0.1 c -1.4,-2.3 -3.2,-5.1 -5.1,-7.8 -6.6,-9.6 -7,-8.4 -6.6,-8.8 0,0 0.8,0.1 2,0.2 1,0.3 3.2,1.9 3.4,2.1"
   id="path571" />
	<path
   class="st10"
   d="m 354.9,455.4 c 0.2,1.8 0.1,3.6 -0.3,5.3 -0.3,-0.1 -4.8,-1.1 -5.5,-8 -0.7,-9.4 -0.9,-15.1 -3.4,-23.5 -1,-3.3 -3.9,-12.9 -6.5,-15.1 0.7,-0.8 1.1,-2 1.4,-3.3 0,0 0.4,0.9 1,1 0.7,1.2 8.5,15.1 13.2,42.9 0.1,0.2 0.1,0.5 0.1,0.7"
   id="path573" />
	<path
   class="st30"
   d="m 345.5,402.3 c 0,1 -0.6,4.2 -1.4,6.5 -0.4,1.1 -1.4,3.3 -2.5,3 -0.6,-0.1 -1,-1 -1,-1 0.5,-2.5 0.5,-5.1 0.5,-5.2 0.1,0 0.3,0 0.4,0 3.1,-0.2 3.2,-5.7 3.2,-5.7 0,0 2.5,2.2 4.9,0.1 0.5,-0.4 0.8,-0.9 1.1,-1.4 h 0.1 c 0,0 0,1.4 0.3,2.6 H 351 c 0,0.9 -0.6,3.2 -1.4,4.6 -0.4,0.7 -1,1.4 -1.8,1.5 -1.6,0.4 -2.1,-3.4 -2.3,-5"
   id="path575" />
	<path
   class="st30"
   d="m 348.3,341.1 c 0,0 0.1,-0.1 0.1,-0.1 0,0 -0.1,0.1 -0.1,0.1 z m -0.1,0 c -0.6,0.3 -2.5,1.2 -3.4,-0.5 -1.2,-2.1 1.7,-2.4 1.7,-2.4 0,0 -3.9,-1.5 -3.9,-3.1 0,-1.7 2.5,-1.2 2.5,-1.2 0,0 -3.8,-2.4 -3.4,-3.9 0.4,-1.5 2.9,0.2 3.2,0.3 -0.3,-0.3 -5,-5.3 -4.1,-6.6 0.9,-1.3 4.6,2.9 4.6,2.8 2.7,4 5.9,9 8.3,12.9 1.1,0.5 5.6,0.6 5.9,0.6 v 0.2 c -8.1,2.8 -8,2.8 -8.4,2.9 -0.9,0.2 -3.2,0.7 -3.9,-0.1 -0.8,-0.7 0.4,-1.5 0.9,-1.9"
   id="path577" />
	<path
   class="st31"
   d="m 341.6,411.8 c 0.8,0.2 1.5,-0.8 1.8,-1.5 0,0 6.5,4.9 11.7,18.8 4.4,12 6.4,17.9 6.5,23 0,0.8 0,1.6 -0.1,2.4 -0.5,5.6 -3.6,11.7 -3.6,11.7 h -0.1 c -1.6,-4.3 -2.7,-9.6 -3,-10.9 0,-0.2 0,-0.4 -0.1,-0.7 -4.5,-27.6 -12.3,-41.5 -13.1,-42.8"
   id="path579" />
	<path
   class="st9"
   d="m 343.5,410.4 c 0.2,-0.4 0.5,-0.9 0.7,-1.5 l 0.2,0.1 c 0,0 11,8.1 17,22.2 3.9,9.2 7.6,24 5.9,33.7 l -0.3,-0.1 c 0,0 -0.4,-0.7 -2.4,-4.4 -2,-3.7 -2.9,-8.2 -2.9,-8.2 -0.1,-5 -2.1,-11 -6.5,-23 -5.2,-13.9 -11.7,-18.8 -11.7,-18.8"
   id="path581" />
	<path
   class="st24"
   d="m 368.8,434.9 c 1.8,5.3 3.3,11 2.8,16.5 -0.2,2.6 -1.4,5.5 -1.4,5.6 -2.2,-4.6 -3.8,-10 -4,-10.5 h -0.1 c -1.1,-5.4 -2.8,-10.7 -4.8,-15.3 -6,-14.1 -17,-22.2 -17,-22.2 l -0.2,-0.1 c 0.9,-2.4 1.4,-5.5 1.4,-6.5 0.1,0.8 0.4,4.5 1.8,5 l -0.1,0.2 c 2.1,1.5 17,13.6 21.6,27.3"
   id="path583" />
	<path
   class="st12"
   d="m 344.7,461.8 c 0,0 2.2,-1.7 3.2,-4.2 1.2,-3.2 1,-6.7 1.2,-4.8 0.7,6.9 5.2,7.9 5.5,8 -1.1,5.1 -4.5,9.1 -7.3,8.4 -1.5,-0.6 -2.3,-3.9 -2.6,-7.4"
   id="path585" />
	<path
   class="st32"
   d="m 347.7,350.4 c -0.8,-0.3 -1.5,-0.7 -2,-1.5 -1.2,-1.9 -0.3,-3.8 -0.1,-4.1 0.5,-0.1 1.1,-0.3 1.7,-0.5 l 0.1,0.2 c 0,0 0.1,1.6 1.8,2 1.5,0.4 2.9,0.1 3.1,0.1 -0.2,0.1 -1.3,1 0.5,2 2,1.1 5.6,-0.2 5.6,-0.2 0,0 -2,1.7 -0.4,3 1.6,1.3 8.8,-1.3 8.8,-1.3 0,0 -2.4,2.5 -0.5,3.8 1.8,1.3 6.3,-2.8 6.6,-3.1 -0.1,0.4 -1.4,5.2 0.4,6 1.9,0.8 7,-3.9 7.6,-5.9 0,-0.1 0,-0.1 0,-0.2 0.1,0.4 0.9,7 -1.6,12.4 -2.6,5.6 -5.3,7.6 -7.5,7 -2.2,-0.6 -2.4,-4.9 -2.4,-4.9 0,0 -4.8,6.7 -9.2,3.7 -2.5,-1.7 0,-5.6 0,-5.6 0,0 -5.9,3.8 -7.6,0.1 -1.6,-3.5 1.5,-5.3 1.8,-5.4 -2.2,0 -5,-0.8 -5.8,-2.9 -1.2,-2.9 2,-4.2 2,-4.2 0,0 -1.6,-0.1 -2.9,-0.5"
   id="path587" />
	<path
   class="st33"
   d="m 380.7,344.1 c 0.2,1.5 0.4,5 0,6.5 0,1.6 -5.6,6.9 -7.6,6.1 -1.8,-0.7 -0.5,-5.6 -0.4,-6 -0.3,0.3 -4.8,4.4 -6.6,3.1 -1.9,-1.3 0.5,-3.8 0.5,-3.8 0,0 -7.1,2.6 -8.8,1.3 -1.7,-1.3 0.4,-3 0.4,-3 0,0 -3.6,1.3 -5.6,0.2 -1.9,-1 -0.7,-1.9 -0.5,-2 -0.2,0 -1.6,0.3 -3.1,-0.1 -1.6,-0.5 -1.8,-2 -1.8,-2 l -0.1,-0.2 c 1.1,-0.3 2.4,-0.8 3.9,-1.1 l 0.2,0.3 c 0.1,0.4 0.7,1.7 2.9,0.4 2.2,-1.4 5.8,-1.7 4.5,-1.3 -1.3,0.4 -2.7,2.2 -1,3.3 0.8,0.6 1.9,0.4 4.8,-1.2 2.9,-1.6 3.6,-0.8 3.6,-0.8 0,0 -3.1,1.9 -1.2,2.8 1.4,0.6 2.5,0 5.1,-2.4 2.6,-2.4 4.3,-2.1 4.3,-2.1 0,0 -4.7,-1.8 -7.1,-1.8 -11.3,-0.4 -10.5,-0.3 -10.5,-0.6 0,0 1.8,-2.6 4.1,-4.6 0.6,-0.6 3.2,-2.4 5.3,-3.3 h 0.1 c -0.1,0.5 -0.2,0.8 -0.2,1.1 0,1.5 1.7,1.4 3.8,-4.4 -0.7,1.7 -1.7,5.7 -0.8,6.4 0.9,0.6 2.7,-1.2 3.2,-3.7 0.4,-2.3 1.8,-4.7 2,-5 0.1,0.5 0.3,0.9 0.7,0.9 0.1,0 0.2,0 0.2,0 0,0 -1.3,5 0.4,7.1 1.8,2.2 4.5,2.2 4.6,2.2 h 0.2 c 0,0.1 0,0.2 0,0.3 -0.1,0.8 0.2,1.5 0.5,1.9 -0.1,0.1 -2.3,1.8 -1.3,4 0.5,0.7 0.9,1.2 1.3,1.5 v 0"
   id="path589" />
	<path
   class="st8"
   d="m 347.3,407.4 c 0.4,0.1 0.7,0 1.1,-0.2 0.7,0.3 9.9,3.6 17.7,13.1 4.4,5.3 8.3,12.8 11.4,19.2 1.2,3.5 2.1,7.6 2.4,11.3 0,0 -2.1,1.2 -5.1,-1.3 -2.6,-2.2 -3.3,-3.4 -3.4,-3.7 -0.3,-2.7 -1.1,-6.2 -2.7,-10.9 -4.6,-13.7 -19.5,-25.8 -21.6,-27.4 l 0.2,-0.1"
   id="path591" />
	<path
   class="st21"
   d="m 351.7,326.3 c -0.6,-0.7 -5.4,-6.5 -3.8,-7.4 1.7,-0.9 5.2,3.5 5.3,3.5 5.1,8.4 7.3,12.5 7.6,12.8 -2.3,2 -4.1,4.6 -4.1,4.6 v 0.1 c -2.4,-0.2 -3.1,-0.5 -3.1,-0.5 -3.4,-5.8 -3.3,-5.1 -3,-5.3 0,0 1.8,0.4 1.6,0.2 -0.2,-0.3 -2.6,-1.8 -2.4,-3.3 0.2,-1.5 3.1,0.2 3.4,0.3 -0.2,-0.2 -2,-1.9 -3.1,-2.9 -1.2,-1.1 -2.5,-2.4 -1.5,-3.3 0.8,-0.8 2.7,0.8 3.1,1.2"
   id="path593" />
	<path
   class="st34"
   d="m 349.6,405.9 c 0.2,0.2 6.4,1.5 15.6,8 8.6,6 14.9,15.8 17.7,23.7 0.1,0.3 0.2,0.6 0.3,0.9 1.8,5.6 -1.2,9.5 -1.2,9.5 h -0.1 c -3.7,-6.7 -9.1,-19.8 -15.8,-27.8 -7.9,-9.5 -17,-12.8 -17.7,-13.1 0.5,-0.2 0.8,-0.7 1.2,-1.2"
   id="path595" />
	<path
   class="st7"
   d="m 365,410 c 5.5,2.9 11.6,7.2 16.6,13.5 6.2,7.7 8,14.7 7.7,19.9 0,0 -1,0.1 -3.4,-1.5 -1.3,-0.8 -2.8,-3.9 -3,-4.3 -2.8,-7.9 -9,-17.7 -17.7,-23.7 -9,-6.2 -15.6,-7.9 -15.6,-8 0.3,-0.5 0.5,-1 0.7,-1.5 0,0 6.6,1.3 14.7,5.6"
   id="path597" />
	<path
   class="st12"
   d="m 389.5,385.6 c 0,0.1 -0.1,0.2 -0.1,0.4 -1,4.1 -4,8.9 -7.8,12.3 -3.8,3.4 -5.4,2.6 -5.2,2.3 0.2,-0.3 2,-3 2,-3 v -0.2 c -0.7,0.2 -1.4,0.5 -2.1,1.3 -1.4,1.8 -3.4,5.7 -6.2,8 -3.5,2.9 -4.7,3.3 -5.1,3.3 -8,-4.3 -14.7,-5.6 -14.7,-5.6 0.5,-1.3 0.8,-2.6 0.8,-3.1 h 0.1 c 0.7,2.4 1.7,2.6 3.4,0.9 1,-0.9 1.4,-2.6 1.6,-4.1 0.7,0 6.3,-0.2 9.2,-1.5 3.3,-1.6 7,-5.7 7,-5.7 1.5,-0.1 0.5,-0.1 2.1,0.2 3.6,0.7 6.5,-5.3 6.5,-5.3 h 0.1 c 0.2,0.9 0.6,1.6 1.5,1.7 2.6,0.3 6.2,-12.9 4.2,-23.3 -1.8,-9.6 -5.3,-14.1 -5.9,-14.8 0.2,-2.2 -0.2,-5.2 -0.2,-5.2 l 0.1,-0.1 c 1.6,0.9 3.6,-0.7 3.8,-0.9 0.3,-0.3 -1.2,2.2 0.9,3.3 1.1,0.6 2.4,-0.2 3.3,-0.9 0.1,0.3 0.5,1.9 2.3,2.6 1.6,0.6 3.2,-0.3 4.2,-1 0,0 0.5,1.5 1.4,1.7 0.8,0.2 1.5,0 2.4,-0.7 -0.2,0.4 -0.6,1.4 0.1,3.9 0.9,3.1 3.9,7.4 2.6,14.8 -1.3,7.4 -4.5,10.3 -5.6,10.8 -0.8,0.4 0.2,-2.8 0.6,-4.2 -0.9,2.2 -2.3,5.2 -4,7.8 -3.2,4.7 -3.2,4.3 -3.3,4.3"
   id="path599" />
	<path
   class="st19"
   d="m 356.2,395.6 c 0.1,1.9 -0.3,5.2 -1.7,6.6 -1.9,1.8 -2.6,1.2 -3.2,-0.2 -0.3,-0.6 -0.6,-2 -0.6,-3.3 h -0.1 c 1.3,-2.3 1.1,-5.5 1.1,-5.5 l -0.1,-0.1 c 1.8,-2.1 1.6,-3.9 1.6,-3.9 0,0 0.5,4.6 4,1.9 1.6,-1.2 1.6,-4 1.5,-5.8 h 0.1 c 0,0 2.6,8.5 0.2,10.2 -2.2,1.6 -2.8,0.1 -2.8,0.1"
   id="path601" />
	<path
   class="st26"
   d="m 351,343.1 c 0.3,-0.1 -0.3,0.1 8.4,-2.9 V 340 c 1.7,0.1 4.4,0.2 7.7,0.3 2.4,0.1 7.1,1.8 7.1,1.8 0,0 -1.7,-0.3 -4.3,2.1 -2.6,2.4 -3.8,3 -5.1,2.4 -1.9,-0.9 1.2,-2.8 1.2,-2.8 0,0 -0.7,-0.8 -3.6,0.8 -2.9,1.6 -4,1.8 -4.8,1.2 -1.7,-1.2 -0.3,-2.9 1,-3.3 1.3,-0.4 -2.3,-0.1 -4.5,1.3 -2.2,1.4 -2.7,0 -2.9,-0.4 0.1,0 -0.2,-0.3 -0.2,-0.3"
   id="path603" />
	<path
   class="st14"
   d="m 358,466.3 c 0,0 3,-6.1 3.6,-11.7 0.1,-0.8 0.1,-1.6 0.1,-2.4 0,0 0.9,4.5 2.9,8.2 2,3.7 2.4,4.4 2.4,4.4 l 0.3,0.1 c -0.6,3.3 -1.8,5.9 -3.8,7.3 -2.1,1.4 -4,-1.8 -5.5,-5.8 v -0.1"
   id="path605" />
	<path
   class="st8"
   d="m 374.1,326.3 c -0.2,0.3 -1.6,2.7 -2,5 -0.4,2.4 -2.2,4.3 -3.2,3.7 -0.9,-0.6 0.2,-4.6 0.8,-6.4 -2.1,5.8 -3.8,5.9 -3.8,4.4 0,-0.2 0.1,-0.6 0.2,-1.1 0.5,-2.5 2.4,-7.7 4.9,-12.1 2.9,-5.2 10.1,-11.9 10.1,-11.9 0.2,0.3 0.9,0.2 2.4,-0.7 2.4,-1.5 4.5,-1.9 4.7,-1.9 -0.5,0.2 -6.3,3.1 -8.4,6.2 -2.2,3.2 1.1,0.7 2.4,0.3 1,-0.4 1.4,-0.5 1.6,-0.6 -0.5,0.3 -4.5,2.8 -6,5.7 -1.5,3.1 -0.1,3.4 1.8,1 0.4,-0.5 1.2,-1.2 2.1,-1.9 -0.2,0.3 -2,2.9 -3.2,5.7 -1.2,2.8 -2.4,5 -3.3,5.3 -0.5,0.2 -1,0 -1.1,-0.7"
   id="path607" />
	<path
   class="st15"
   d="m 370.2,456.9 c 1.5,-3.8 1.7,-7.1 1.2,-11.1 0.1,0.3 0.8,1.5 3.4,3.7 3,2.5 5.1,1.3 5.1,1.3 0.5,5.3 -0.3,10.1 -3.1,12.1 -2.2,1.7 -4.6,-1.8 -6.6,-6"
   id="path609" />
	<path
   class="st11"
   d="m 375.5,334.2 c -1.8,-2.2 -0.4,-7 -0.4,-7.1 1,-0.3 2.2,-2.5 3.3,-5.3 1.2,-2.9 3,-5.4 3.2,-5.8 1.5,-1.2 3.1,-2.4 3.1,-2.4 0,0 0,0.1 0,0.1 1,2.1 2.5,-0.1 5.3,-1.9 2.3,-1.4 4.3,-1.4 4.3,-1.4 -0.7,2.3 2.4,1.3 3.6,1.2 1.2,-0.1 3.5,0.6 3.7,0.7 0,0.6 0.4,1.4 0.9,1.9 1.9,1.8 3.5,2.6 5.9,2.9 2.9,0.4 5.9,0.6 6.1,0.7 -0.2,0.6 -0.5,1.1 -1.1,1.6 -1.3,1.1 -2.6,0.8 -2.8,1.1 0,-0.8 -2.5,-0.1 -3.5,-0.4 -1.1,-0.2 -3.8,-0.3 -4.4,-0.6 -0.7,-0.3 -1.6,-0.8 -1.8,-0.2 -0.4,-0.8 -1.1,-1.4 -2.6,-1.6 -1.8,-0.2 -3.2,0.7 -3.7,2.3 0,0 -1.5,0.7 -2.4,1 -0.9,0.4 -1.2,1.9 -1.2,3 0,1.3 0,2.2 -0.9,3 l 0.1,0.1 c -2.6,1.1 -2.1,1.1 -3,2.2 -0.6,0.8 -1.1,2 -1.6,2 0,0 -2.3,-0.3 -3,2.3 -0.1,0.2 -0.1,0.5 -0.1,0.7 h -0.1 c 0,0 -2.1,0.2 -2.4,2.1 h -0.2 c 0.3,0 -2.4,0 -4.3,-2.2"
   id="path611" />
	<path
   class="st6"
   d="m 394.5,310.4 v 0 c -0.1,0 -2.1,0 -4.4,1.4 -2.8,1.8 -4.3,4 -5.3,1.9 0,0 0,-0.1 0,-0.1 -1.1,0.8 -4.3,3.2 -5.2,4.3 -1.9,2.3 -3.3,2 -1.8,-1 1.4,-2.9 5.4,-5.3 6,-5.7 -0.2,0.1 -0.6,0.2 -1.6,0.6 -1.3,0.5 -4.6,2.9 -2.4,-0.3 2.2,-3.2 8,-6 8.4,-6.2 -0.2,0 -2.3,0.5 -4.7,1.9 -1.5,0.9 -2.2,1 -2.4,0.7 -0.2,-0.3 0.3,-1.2 0.9,-1.8 1.6,-1.4 5.8,-4.4 11.4,-3.3 5.7,1 10,4.3 10,4.3 -0.3,-0.4 -0.5,-2.4 1.9,-0.6 2.4,1.8 4.3,6 4.3,6 l -0.1,0.1 c -1.9,-1.6 -3.3,-3.4 -4.2,-2.8 -0.7,0.5 0.3,2.3 1.7,3.4 1.4,1.1 4.3,1.9 4.3,1.9 0,0 -2.9,-0.3 -6.7,-2.6 -2.1,-1.3 -2.8,-1 -2.8,-0.2 -0.2,-0.1 -2.5,-0.8 -3.7,-0.6 -1.3,0.1 -4.3,1.1 -3.6,-1.3"
   id="path613" />
	<path
   class="st12"
   d="m 399.2,348.2 c 0,0 0,0 0,0 -0.9,0.8 -1.6,0.9 -2.4,0.8 -1,-0.2 -1.4,-1.7 -1.5,-1.8 -1,0.7 -2.6,1.6 -4.2,1 -1.8,-0.7 -2.3,-2.3 -2.3,-2.6 -0.9,0.7 -2.2,1.5 -3.3,0.9 -2.1,-1.1 -0.6,-3.6 -0.9,-3.3 -1.9,1.6 -4,1.8 -5.1,-0.5 -1,-2.2 1.1,-3.9 1.1,-3.9 l 0.1,-0.1 c 1.2,1.5 4,1.1 4,1.1 l 0.1,-0.1 c 0.8,1.4 2.7,0.8 4,0.4 0.9,-0.3 1.6,-0.7 1.7,-0.7 -0.2,0.2 -2,2.2 -0.7,3.9 1.4,1.8 3.8,0.4 4.1,0.2 0.7,0.7 1.8,0.9 3,0.2 0,0.2 0.1,1.3 0.7,1.5 0.8,0.4 1.6,0.8 2.6,-1 0,0 0.8,2.5 -0.5,3.7 -0.1,-0.1 -0.3,0.1 -0.5,0.3"
   id="path615" />
	<path
   class="st14"
   d="m 380.3,336.7 c 0,-0.1 0,-0.2 0,-0.3 0.3,-1.9 2.4,-2.1 2.4,-2.1 h 0.1 c -0.2,2 1.9,2.7 2,2.7 -0.3,0.9 -0.1,2 0.2,2.6 l -0.1,0.1 c 0,0 -2.8,0.4 -4,-1.1 -0.5,-0.4 -0.7,-1 -0.6,-1.9"
   id="path617" />
	<path
   class="st16"
   d="m 382,448 c 0,0 3,-3.9 1.2,-9.5 -0.1,-0.3 -0.2,-0.6 -0.3,-0.9 0.2,0.4 1.6,3.5 3,4.3 2.5,1.5 3.4,1.5 3.5,1.5 -0.2,5.3 -2.5,8.5 -4.4,8.4 -0.8,-0.1 -1.8,-1.5 -3,-3.8 v 0"
   id="path619" />
	<path
   class="st14"
   d="m 385.9,331.4 c 0.1,0 0.4,0.1 2.2,0.2 -0.2,0.2 -2.4,1.5 -1.9,3.4 0,0.1 0.1,0.2 0.1,0.3 0,0 -1.2,0.3 -1.7,1.6 0,0 -2.1,-0.6 -1.9,-2.7 0,-0.2 0.1,-0.4 0.1,-0.7 0.8,-2.4 3.1,-2.1 3.1,-2.1"
   id="path621" />
	<path
   class="st14"
   d="m 384.7,337 c 0.4,-1.3 1.6,-1.6 1.6,-1.6 0.9,2.7 3.7,1.4 4.1,1.1 -0.3,0.7 -0.4,1.8 0.2,2.8 -0.1,0.1 -0.8,0.4 -1.7,0.7 -1.3,0.5 -3.2,1.1 -4,-0.4 -0.3,-0.6 -0.5,-1.7 -0.2,-2.6"
   id="path623" />
	<path
   class="st15"
   d="m 397.1,343.5 c -2.6,1.4 -4.5,-0.8 -3.4,-3.6 -0.7,0.4 -1.7,0.8 -2.7,-0.3 -0.7,-0.7 -1,-1.7 -0.5,-3.1 -1.9,1 -3.7,0.7 -4.2,-1.5 -0.5,-1.9 1.7,-3.2 1.9,-3.4 1,0.1 2.9,-0.3 4.5,-0.9 -0.3,0.3 -1.9,1.9 -0.4,3.2 1.6,1.3 3.5,0.1 4.2,-0.4 -0.8,0.6 -2.4,2.4 -0.8,3.9 1.1,1 2.4,0.3 3.4,-0.5 0,0 -1.5,2 -0.5,3.5 0.8,1.1 2.9,1 4.4,-0.7 -2.7,3.5 -2.3,3.5 -2.8,4.3 -1,1.9 -1.8,1.4 -2.5,1 -0.5,-0.3 -0.6,-1.3 -0.6,-1.5"
   id="path625" />
	<path
   class="st35"
   d="m 390.5,327.2 -0.1,-0.1 c 0.9,-0.7 0.9,-1.6 0.9,-3 -0.1,-1.2 0.3,-2.6 1.2,-3 0.9,-0.4 2.4,-1 2.4,-1 -0.1,0.4 -0.2,0.8 -0.2,1.3 0,2.6 2.1,3.9 3.5,3.8 2.4,-0.1 3.1,-1.8 3.2,-2.1 0,0 0,0.1 -0.1,0.1 0.1,-0.3 0.8,-1.5 0.4,-2.5 -0.1,-0.2 -0.4,-1 -0.6,-1.4 0.1,-0.6 1.1,-0.1 1.8,0.2 0.7,0.3 3.4,0.4 4.4,0.6 1.1,0.2 3.5,-0.4 3.5,0.4 0,0 0,0.1 0,0.1 -0.1,0.6 -0.9,1 -3.8,1.9 -3.8,1.2 -3.4,2 -5.9,4 -1.2,0.9 -2.1,1.1 -3.4,1.3 -1.6,0.2 -1.9,0.5 -3.3,1.8 -1.3,1.3 -4.8,2.1 -6.4,2 -1.2,-0.1 -1.9,-0.2 -2.1,-0.2 0.5,-0.2 0.9,-1.2 1.5,-2 1,-1.1 0.5,-1.1 3.1,-2.2"
   id="path627" />
	<path
   class="st14"
   d="m 390.6,339.3 c 0.1,-0.1 0.1,-0.1 0,0 0.8,1 1.9,1.4 3,0.6 -0.1,0.3 -0.8,2.3 0.4,3.4 -0.3,0.2 -2.7,1.7 -4.1,-0.2 -1.3,-1.7 0.6,-3.7 0.7,-3.8"
   id="path629" />
	<path
   class="st16"
   d="m 399.2,336.8 c -1,0.8 -2.4,1.5 -3.4,0.5 -1.7,-1.5 0,-3.2 0.8,-3.9 0.1,-0.1 0.1,-0.1 0.2,-0.1 -0.1,0 -0.1,0.1 -0.2,0.1 -0.8,0.6 -2.7,1.7 -4.2,0.4 -1.5,-1.3 0.1,-2.9 0.4,-3.2 0.8,-0.3 1.4,-0.7 1.9,-1.1 1.4,-1.3 1.8,-1.6 3.3,-1.8 1.2,-0.2 2.2,-0.4 3.4,-1.3 0,0 -3.3,2.7 -1.8,5 1.3,2.1 3.1,-0.1 3.5,-0.5 -0.2,0.4 -1.5,2.4 0.2,3.9 1.8,1.6 4.2,-0.5 4.4,-0.7 -0.1,0.1 -0.5,0.7 -0.6,1.2 -1.1,0.9 -2.5,2.3 -3.8,4.2 -1.5,1.7 -3.6,1.8 -4.4,0.7 -1.2,-1.4 0.3,-3.4 0.3,-3.4"
   id="path631" />
	<path
   class="st36"
   d="m 398.4,320.4 c 0,-0.6 -0.2,-1.3 -0.3,-1.2 0,0 -0.7,0.1 -0.9,1.1 -0.2,1 0.4,1.4 0.6,1.2 0.2,-0.3 0.6,-0.5 0.6,-1.1 z m 3,2.8 c 0.1,0 0.1,-0.1 0,0 0,0.2 -0.8,1.9 -3.1,2 -1.4,0 -3.5,-1.2 -3.5,-3.8 0,-2.3 1.5,-3.9 3.9,-3.6 1.4,0.2 2.1,0.9 2.6,1.6 0,0 0,0.1 0,0.1 0,0.4 0.2,0.7 0.5,0.9 0,0.1 0.1,0.2 0.1,0.3 0.3,0.9 -0.3,2.2 -0.5,2.5"
   id="path633" />
	<path
   class="st18"
   d="m 407.5,334.3 c -0.2,0.2 -2.6,2.3 -4.4,0.7 -1.7,-1.5 -0.5,-3.5 -0.2,-3.9 -0.3,0.4 -2.1,2.5 -3.5,0.5 -1.5,-2.3 1.8,-5 1.8,-5 2.5,-2 2.1,-2.8 5.9,-4 3,-0.9 3.7,-1.2 3.8,-1.8 0.4,0 1.8,0.4 3.1,1.4 1.1,0.8 2.5,1.5 4.4,1.8 -0.6,0.4 -2.6,2 -5.2,4 -3,2.3 -5.1,8.9 -6,8.4 -0.7,-0.5 -0.2,-1.5 0.3,-2.1"
   id="path635" />
	<path
   class="st8"
   d="m 402.8,314.2 c -1.3,-1.2 -1.8,-3.9 1.9,-1.7 3.8,2.3 6.7,2.6 6.7,2.6 0,0 -2.8,-0.9 -4.3,-1.9 -1.4,-1.1 -2.4,-2.9 -1.7,-3.4 1.1,-0.7 2.8,1.9 5.4,3.8 2.3,1.6 6.2,0.8 6.7,0.7 -1.9,1.5 -2.2,2.2 -2.8,3.5 h -0.1 c 0,0 -3.9,-0.3 -6,-0.6 -2.3,-0.4 -3.9,-1.2 -5.8,-3"
   id="path637" />
	<g
   id="g649">
		<defs
   id="defs640">
			<rect
   id="SVGID_1_"
   x="410"
   y="306.39999"
   width="48.400002"
   height="14.9" />
		</defs>
		<clipPath
   id="SVGID_6_">
			<use
   xlink:href="#SVGID_1_"
   style="overflow:visible"
   id="use642" />
		</clipPath>
		<g
   class="st37"
   clip-path="url(#SVGID_6_)"
   id="g647">
			<path
   class="st19"
   d="m 417.5,314.3 c 1.3,-1 1.3,-0.6 5.5,-0.3 4.8,0.3 13.2,-1.7 19.4,-4.4 6.2,-2.7 15.8,-3.1 15.4,-2.9 -0.4,0.1 -13.4,3.8 -16.8,5.3 -3.4,1.5 -12.4,5.2 -17.6,7 -4.8,1.7 -12.5,1.9 -12.6,1.8 0,0 0,-0.1 0,-0.1 0.2,-0.3 1.5,0 2.8,-1.2 1.6,-1.4 0.8,-2.8 3.9,-5.2"
   id="path645" />
		</g>
	</g>
	<path
   class="st30"
   d="m 418.5,323.8 c -1.9,-0.2 -3.4,-1 -4.4,-1.8 -1.4,-1.1 -2.8,-1.3 -2.8,-1.4 1.5,0 7.8,-0.2 12.3,-1.8 5.2,-1.8 14.2,-5.5 17.6,-7 2.7,-1.2 11.8,-3.9 15.4,-4.9 0,0 0.8,0.7 -1.5,1.5 -2.7,0.9 -16.6,5 -22.9,8.7 -8.1,4.7 -9.1,7.4 -13.7,6.7"
   id="path651" />
	<path
   d="m 337.1,322.6 c -0.1,0 -0.1,0 -0.2,-0.1 -1.2,-1 -6.9,-5.9 -5.7,-8 0.4,-0.7 0.9,-1.1 1.5,-1.2 1.1,-0.3 2.1,0.4 2.1,0.4 0.2,0.1 0.2,0.3 0.1,0.4 -0.1,0.2 -0.3,0.2 -0.4,0.1 -0.8,-0.4 -2,-0.7 -2.7,0.6 -0.7,1.3 3,5.1 5.5,7.2 0.2,0.2 0.1,0.6 -0.2,0.6"
   id="path653" />
	<path
   d="m 351.1,343.5 c -6.6,1.7 -9.1,4.3 -12,-2.4 -0.7,-1.6 0,-3.3 0.3,-4.1 -0.9,-0.1 -2.6,-0.7 -3.4,-3.3 -0.4,-1.5 -0.4,-3.2 1,-3.9 -1.2,-1.1 -4.8,-4.5 -4,-7 0.3,-0.8 0.7,-1.3 1.3,-1.5 1.3,-0.4 2.7,0.7 2.8,0.8 0.3,0.3 -0.1,0.8 -0.4,0.5 0,0 -1.3,-0.9 -2.2,-0.6 -0.4,0.1 -0.7,0.5 -0.9,1.1 -0.6,2 2.8,5.5 4.2,6.6 0.2,0.2 0.1,0.5 -0.1,0.6 0,0 -0.6,0.1 -1,0.7 -0.4,0.6 -0.4,1.5 -0.1,2.6 0.8,3 3.1,2.8 3.2,2.8 0.3,0 0.4,0.3 0.3,0.5 0,0 -1.3,2.2 -0.6,4 2.6,6.1 4.5,3.7 11.2,2 0.7,-0.2 0.8,0.4 0.4,0.6"
   id="path655" />
	<path
   d="m 397.5,320.3 c -0.1,0.6 0.1,0.8 0.1,0.9 0.3,-0.3 0.5,-0.4 0.5,-0.8 0,-0.3 0,-0.7 -0.1,-0.9 -0.2,0.1 -0.4,0.3 -0.5,0.8 z m 0.5,1.4 c -0.5,0.4 -1.4,-0.1 -1.1,-1.5 0.2,-1.1 1.1,-1.5 1.5,-1.3 0.3,0.2 0.4,1 0.4,1.5 -0.1,0.8 -0.5,1 -0.8,1.3"
   id="path657" />
	<path
   d="m 403.1,331.3 c -1.3,1.6 -2.9,2.1 -4,0.4 -1.6,-2.5 1.7,-5.3 1.9,-5.4 0.1,-0.1 0.3,-0.1 0.5,0 0.1,0.1 0.1,0.3 0,0.5 0,0 -3,2.6 -1.7,4.6 0.3,0.5 0.6,0.7 1,0.7 0.7,0 1.4,-0.6 1.9,-1.2 0.2,-0.5 0.8,0 0.4,0.4 0.1,-0.1 0,0 0,0"
   id="path659" />
	<path
   d="m 407.7,334.5 c -3.9,3.4 -7.3,-0.2 -5.1,-3.6 0.1,-0.2 0.3,-0.2 0.4,-0.1 0.1,0.1 0.2,0.3 0.1,0.4 -0.3,0.5 -1.3,2.2 0.2,3.5 1.5,1.3 3.6,-0.4 4,-0.7 0.1,-0.1 0.3,-0.1 0.5,0 0,0.2 0,0.4 -0.1,0.5"
   id="path661" />
	<path
   d="m 413.5,328.1 c -3.1,2.4 -5,9.2 -6.4,8.4 -0.9,-0.5 -0.5,-1.6 0.1,-2.4 0.1,-0.2 0.4,-0.2 0.5,-0.1 0.1,0.1 0.1,0.3 0,0.5 -0.3,0.4 -0.7,1.1 -0.4,1.4 0.7,-0.3 2.9,-6.2 5.7,-8.4 2.9,-2.2 3.2,-2.5 5.4,-4.1 0.1,-0.1 0.3,-0.1 0.5,0.1 0.1,0.1 0.1,0.3 -0.1,0.5 -2.3,1.7 -2.3,1.7 -5.3,4.1"
   id="path663" />
	<path
   d="m 380.1,336.8 c -0.1,0 -2.9,0 -4.8,-2.3 -1.9,-2.2 -0.6,-7.2 -0.5,-7.4 0.1,-0.4 0.7,-0.2 0.6,0.2 0,0 -1.3,4.8 0.4,6.8 1.7,2.1 4.2,2.1 4.3,2.1 0.2,0 0.3,0.1 0.3,0.3 0,0.1 -0.1,0.3 -0.3,0.3"
   id="path665" />
	<g
   id="g677">
		<defs
   id="defs668">
			<rect
   id="SVGID_3_"
   x="410"
   y="305.39999"
   width="48.400002"
   height="15.9" />
		</defs>
		<clipPath
   id="SVGID_8_">
			<use
   xlink:href="#SVGID_3_"
   style="overflow:visible"
   id="use670" />
		</clipPath>
		<g
   class="st38"
   clip-path="url(#SVGID_8_)"
   id="g675">
			<path
   d="m 410.9,321 c -0.2,0 -0.3,-0.2 -0.3,-0.4 0,-0.2 0.3,-0.4 0.5,-0.3 3.9,-0.1 8.7,-0.5 12.4,-1.8 5.3,-1.9 14.4,-5.6 17.5,-7 2.5,-1.1 10.2,-3.4 14.2,-4.6 -3.2,0.3 -8.5,1 -12.6,2.8 -6.6,2.9 -14.8,4.7 -19.6,4.4 -4.3,-0.3 -4.1,-0.7 -5.3,0.3 -0.3,0.3 -0.7,-0.2 -0.4,-0.5 1.4,-1.1 1.5,-0.7 5.7,-0.4 4.6,0.3 12.9,-1.6 19.3,-4.4 5.9,-2.6 15.4,-3.2 15.7,-2.9 0.2,0.2 0.1,0.5 -0.1,0.6 -0.4,0.2 -13.3,3.8 -16.8,5.3 -3.2,1.4 -12.3,5.2 -17.6,7 -3.5,1.4 -9,1.9 -12.6,1.9"
   id="path673" />
		</g>
	</g>
	<path
   d="m 411.2,320.7 c -0.2,0.3 -0.7,0 -0.5,-0.3 0.1,-0.3 0.4,-0.3 0.8,-0.4 0.5,-0.1 1.3,-0.2 2.1,-0.9 0.6,-0.5 0.8,-1 1,-1.5 0.6,-1.4 1.1,-2.2 2.9,-3.6 0.1,-0.1 0.3,-0.1 0.5,0.1 0.1,0.1 0.1,0.3 0,0.5 -1.7,1.4 -2.1,2 -2.7,3.3 -0.2,0.6 -0.5,1.2 -1.2,1.7 -1.4,1 -2.6,1 -2.9,1.1"
   id="path679" />
	<path
   d="m 416.8,317.9 c -0.2,0.4 -0.8,0.1 -0.6,-0.3 0,0 0.6,-1.2 1.8,-1.6 1.2,-0.3 1.9,0.5 1.6,1.4 -0.1,0.4 -0.7,0.3 -0.6,-0.2 0.1,-0.5 -0.1,-0.8 -0.8,-0.6 -0.9,0.3 -1.4,1.3 -1.4,1.3"
   id="path681" />
	<path
   d="m 411.4,314.8 c 0.4,0.1 0.3,0.7 -0.1,0.6 -0.1,0 -3,-0.3 -6.8,-2.6 -1.6,-1 -2.1,-0.8 -2.2,-0.8 0,0 -0.1,0.1 -0.1,0.3 0,0.2 -0.1,0.3 -0.3,0.3 -0.2,0 -0.3,-0.1 -0.3,-0.3 0,-0.4 0.2,-0.7 0.5,-0.9 0.6,-0.3 1.5,0 2.9,0.8 0.6,0.4 1.2,0.7 1.8,1 -1.1,-0.9 -1.9,-2.1 -1.8,-3 0,-0.4 0.2,-0.7 0.4,-0.8 1.4,-0.9 3.1,1.9 5.8,3.8 2.2,1.6 6,0.8 6.5,0.7 0.5,-0.1 0.6,0.5 0.1,0.6 -0.5,0.1 -4.5,0.9 -7,-0.8 -2.4,-1.7 -4.3,-4.3 -5.1,-3.8 0,0 -0.1,0.1 -0.1,0.2 0,0.6 0.7,1.8 1.8,2.6 1.3,1.2 4,2.1 4,2.1"
   id="path683" />
	<path
   d="m 414.7,318 c -0.1,0 -4.2,-0.4 -6.1,-0.6 -2.5,-0.3 -4.1,-1.1 -6,-3 -0.6,-0.6 -1,-1.5 -1,-2.1 0,-0.2 0.1,-0.3 0.3,-0.3 0.2,0 0.3,0.1 0.3,0.3 0,0.5 0.4,1.2 0.8,1.6 3.1,3 5,2.8 11.7,3.4 0.4,0.1 0.4,0.7 0,0.7"
   id="path685" />
	<path
   d="m 419.6,324.2 c -2.1,0 -4.1,-0.6 -5.8,-1.9 -1.3,-1 -2.7,-1.3 -2.7,-1.3 -0.4,-0.1 -0.3,-0.7 0.1,-0.6 0.1,0 1.5,0.3 2.9,1.4 1.9,1.4 4,1.9 6.3,1.7 1.7,-0.1 3,-1.1 5.3,-2.7 6.4,-4.5 9.8,-6.6 27.3,-12.1 0.9,-0.3 3,-0.9 3.1,-1.4 0,0 0,-0.1 0,-0.1 -0.1,-0.1 -0.1,-0.3 0,-0.5 0.3,-0.3 0.8,0.1 0.7,0.7 -0.2,1 -2.3,1.5 -3.6,1.9 -17.2,5.5 -20.6,7.4 -27.1,12.1 -2.6,1.9 -3.9,2.8 -6.5,2.8"
   id="path687" />
	<path
   d="m 410,312.3 c 0.2,0.4 -0.4,0.7 -0.6,0.3 0,0 -1.9,-4.1 -4.2,-5.8 -0.9,-0.7 -1.3,-0.7 -1.4,-0.6 -0.2,0.1 -0.1,0.7 0,0.8 0.1,0.2 0.1,0.3 -0.1,0.4 -0.2,0.1 -0.4,0.1 -0.5,-0.1 -0.2,-0.3 -0.4,-1.2 0.1,-1.7 0.7,-0.6 1.9,0.3 2.3,0.6 2.4,1.8 4.3,5.9 4.4,6.1"
   id="path689" />
	<path
   d="m 383.6,307.4 c -0.8,0.5 -2.4,1.4 -2.8,0.6 -0.4,-0.6 0.3,-1.6 1,-2.2 2,-1.7 6.2,-4.4 11.7,-3.4 5.7,1 10,4.3 10.2,4.4 0.1,0.1 0.2,0.3 0.1,0.5 -0.1,0.1 -0.3,0.2 -0.5,0.1 0,0 -4.4,-3.3 -9.9,-4.3 -5.3,-0.9 -9.3,1.6 -11.2,3.3 -0.6,0.6 -0.9,1.2 -0.9,1.3 0,0 0.4,0.2 1.9,-0.8 2.3,-1.4 4.3,-1.8 4.8,-1.9 0.1,-0.1 0.3,0 0.4,0.1 0.2,0.2 0.1,0.6 -0.2,0.6 0.1,-0.1 -2.1,0.3 -4.6,1.7"
   id="path691" />
	<path
   d="m 379.2,313.4 c -0.2,0 -0.3,-0.1 -0.4,-0.2 -0.3,-0.3 -0.1,-0.8 0.7,-2 2.2,-3.2 7.9,-6 8.6,-6.4 0.2,-0.1 0.4,0 0.4,0.1 0.1,0.2 0,0.4 -0.1,0.4 -0.3,0.1 -6.2,3 -8.3,6.1 -0.4,0.6 -0.6,0.9 -0.6,1.1 0.3,-0.1 1,-0.5 1.4,-0.7 0.6,-0.3 1.1,-0.6 2.9,-1.2 0.3,-0.2 0.6,0.3 0.4,0.5 -0.1,0.1 0,0 -1.7,0.7 -1,0.5 -2.6,1.6 -3.3,1.6"
   id="path693" />
	<path
   d="m 379.8,318.1 c -0.6,0.7 -1.9,2.1 -2.7,1.6 -0.4,-0.3 -0.7,-1 0.3,-2.9 1.3,-2.6 4.7,-4.9 6.1,-5.8 l 0.3,0.6 c -1.3,0.8 -4.6,3 -5.8,5.5 -0.8,1.5 -0.6,2.1 -0.6,2.1 0.1,0.1 0.8,-0.1 1.8,-1.4 0.3,-0.4 1,-1.1 2.1,-1.9 0.1,-0.1 0.3,-0.1 0.5,0.1 0.1,0.1 0.1,0.3 -0.1,0.5 -0.9,0.6 -1.6,1.2 -1.9,1.6"
   id="path695" />
	<path
   d="m 381.8,316.2 c -0.3,0.3 -0.7,-0.2 -0.4,-0.5 1.5,-1.2 3.1,-2.4 3.1,-2.4 0.1,-0.1 0.3,-0.1 0.5,0.1 0.1,0.1 0.1,0.3 -0.1,0.5 0,0 -1.6,1.2 -3.1,2.3"
   id="path697" />
	<path
   d="m 374.8,327.4 c -0.6,0 -1,-0.4 -1.1,-1.1 -0.1,-0.9 0.2,-2.3 1,-3.6 0.1,-0.2 0.3,-0.2 0.4,-0.1 0.2,0.1 0.2,0.3 0.1,0.4 -0.7,1.2 -1.1,2.4 -0.9,3.2 0.1,0.5 0.3,0.6 0.5,0.6 0.8,-0.3 1.9,-2.2 3.2,-5.2 1.1,-2.8 2.9,-5.3 3.3,-5.9 0.3,-0.3 0.8,0.1 0.5,0.4 -0.3,0.5 -2,2.9 -3.1,5.7 -0.6,1.5 -2.3,5.6 -3.9,5.6"
   id="path699" />
	<path
   d="m 390.3,312.1 c -2.5,1.6 -4.6,4.3 -5.8,1.7 0,0 0,-0.1 -0.1,-0.1 -0.7,-1.9 2.3,-3.5 4.3,-4.2 0.2,-0.1 0.4,0 0.4,0.2 0.1,0.2 0,0.4 -0.2,0.4 -0.9,0.3 -3.3,1.4 -3.8,2.5 -0.1,0.3 -0.1,0.6 0,0.9 0.2,0.4 0.4,0.6 0.6,0.7 0.8,0.2 2.2,-1.4 4.2,-2.7 2.4,-1.5 4.4,-1.5 4.5,-1.5 0.2,0 0.3,0.1 0.3,0.3 0,0.2 -0.1,0.3 -0.3,0.3 0,0.1 -2,0.2 -4.1,1.5"
   id="path701" />
	<path
   d="m 402.1,312.1 c 0.3,0.3 -0.1,0.7 -0.4,0.5 -0.9,-0.3 -2.6,-0.7 -3.5,-0.6 -1.1,0.1 -3.1,0.7 -3.8,-0.1 -0.3,-0.3 -0.4,-0.8 -0.1,-1.5 0.8,-2.5 6.1,-0.8 6.7,-0.6 0.2,0.1 0.3,0.2 0.2,0.4 -0.1,0.2 -0.2,0.3 -0.4,0.2 -1.5,-0.5 -5.4,-1.3 -5.9,0.3 -0.1,0.4 -0.1,0.7 0,0.9 0.5,0.5 2.5,0 3.3,-0.1 1.1,-0.1 2.8,0.4 3.9,0.7 -0.1,-0.2 -0.1,-0.2 0,-0.1"
   id="path703" />
	<path
   d="m 369.9,335.3 c -0.4,0.2 -0.8,0.2 -1.1,-0.1 -1.4,-1 0.7,-6.7 0.7,-6.7 0.7,-1.7 2.4,-6.1 2.4,-6.1 l 0.6,0.2 c 0,0 -1.7,4.4 -2.4,6.1 -0.9,2.3 -1.5,5.6 -1,6 0.1,0.1 0.3,0.1 0.5,0 0.8,-0.3 1.8,-1.7 2.1,-3.5 0.4,-2.3 1.7,-4.6 2,-5.1 0.1,-0.5 0.8,-0.2 0.6,0.3 0,0 -1.5,2.5 -1.9,4.9 -0.3,2 -1.5,3.6 -2.5,4"
   id="path705" />
	<path
   d="m 392.6,331 c -0.4,0 -0.5,-0.5 -0.1,-0.6 0.8,-0.3 1.4,-0.7 1.8,-1 1.4,-1.3 1.8,-1.6 3.5,-1.8 2.3,-0.3 3.3,-1.2 4.9,-2.8 1,-1 1.6,-1.7 4.3,-2.5 2.7,-0.8 3.5,-1.2 3.6,-1.6 0,0 0,-0.1 0,-0.1 -0.1,-0.2 -1.1,-0.1 -1.6,-0.1 -1.8,0.1 -1,0 -3.6,-0.2 -1.1,-0.1 -2.1,-0.2 -2.7,-0.5 -0.3,-0.1 -1,-0.5 -1.2,-0.4 0,0.1 0,0.1 0,0.1 -0.1,0.6 0.7,0.8 1.3,0.9 1,0.1 1.4,0.8 1.5,1.1 0,0.2 -0.1,0.3 -0.3,0.4 -0.2,0 -0.3,-0.1 -0.4,-0.3 0,-0.1 -0.1,-0.5 -0.9,-0.6 -1,-0.1 -2,-0.5 -1.9,-1.6 0,-0.2 0.1,-0.5 0.4,-0.6 0.4,-0.2 0.7,-0.1 1.9,0.4 0.6,0.3 3.3,0.3 4.4,0.6 1.2,0.2 3.7,-0.6 3.8,0.7 0,0.1 0,0.1 0,0.2 -0.1,0.9 -1.1,1.2 -4,2.1 -2.5,0.8 -3,1.3 -4,2.3 -1.8,1.8 -2.9,2.7 -5.3,3 -1.5,0.2 -1.8,0.4 -3.1,1.7 -0.8,0.7 -2.1,1.2 -2.3,1.2"
   id="path707" />
	<path
   d="m 384.7,336.7 c 0.4,0.1 0.2,0.8 -0.2,0.6 -0.8,-0.2 -2.3,-1.2 -2.1,-3 0,-0.2 0.1,-0.5 0.1,-0.7 0.8,-2.8 3.4,-2.5 3.4,-2.5 0.1,0 0.4,0.1 2.3,0.2 0.9,0.1 2.7,-0.3 4.3,-0.9 0.2,-0.1 0.4,0 0.4,0.2 0.1,0.2 0,0.4 -0.2,0.4 -1.5,0.6 -3.5,1 -4.6,0.9 -1.4,-0.1 -2.1,-0.2 -2.2,-0.2 -0.1,0 -2,-0.2 -2.7,2.1 -0.1,0.2 -0.1,0.4 -0.1,0.6 -0.2,1.7 1.6,2.3 1.6,2.3"
   id="path709" />
	<path
   d="m 366.5,334.1 c -0.6,0 -0.8,-0.6 -0.8,-1.2 0,-0.3 0.1,-0.7 0.2,-1.2 0.6,-2.7 2.6,-8 4.9,-12.2 2.9,-5.2 10.1,-11.9 10.1,-12 0.3,-0.3 0.8,0.2 0.4,0.5 -0.1,0.1 -7.2,6.7 -10,11.8 -2.5,4.6 -4.3,9.8 -4.8,12 -0.1,0.4 -0.1,0.8 -0.1,1 0,0.3 0.1,0.5 0.2,0.5 0.3,0 1.4,-0.7 3,-5.2 0,-0.1 0.1,-0.2 0.1,-0.2 0.1,-0.4 0.7,-0.2 0.6,0.2 -0.5,1.6 -2.2,6 -3.8,6"
   id="path711" />
	<path
   d="m 356.7,340.1 c -0.3,0 -0.4,-0.3 -0.3,-0.5 0.1,-0.1 1.8,-2.7 4.1,-4.6 0.7,-0.7 3.3,-2.4 5.4,-3.4 0.2,-0.1 0.4,0 0.4,0.2 0.1,0.2 0,0.4 -0.2,0.4 -2.2,1 -4.6,2.6 -5.2,3.2 l -0.2,-0.2 0.1,0.3 c -2.2,1.9 -4,4.5 -4,4.5 0.1,0 0,0.1 -0.1,0.1"
   id="path713" />
	<path
   d="m 381.6,329.4 c -0.7,0 -1.4,-0.4 -2,-1 -1.9,-2.2 0.6,-5.5 0.7,-5.6 0.1,-0.1 0.3,-0.2 0.5,-0.1 0.1,0.1 0.2,0.3 0.1,0.5 0,0 -2.2,3 -0.7,4.8 0.5,0.5 1,0.8 1.5,0.8 1.1,0 2.1,-1.2 2.1,-1.2 0.1,-0.1 0.3,-0.2 0.5,0 0.1,0.1 0.2,0.3 0,0.5 -0.1,-0.1 -1.3,1.3 -2.7,1.3"
   id="path715" />
	<path
   d="m 401.5,323.4 c -0.3,0 -0.4,-0.3 -0.3,-0.5 0.5,-0.7 0.3,-0.9 1.6,-1 0.7,-0.1 0.8,-0.2 0.8,-0.2 0,-0.2 0.2,-0.3 0.3,-0.3 0.2,0 0.3,0.1 0.3,0.3 0,0.2 -0.1,0.7 -1.4,0.8 -0.7,0.1 -0.7,0.1 -0.9,0.4 -0.1,0.3 -0.2,0.5 -0.4,0.5"
   id="path717" />
	<path
   d="m 401.7,323.4 c -0.2,0.4 -0.8,0.1 -0.5,-0.4 0.3,-0.5 0.8,0 0.5,0.4"
   id="path719" />
	<path
   d="m 401.2,323 c 0.6,-1.1 0.5,-1.8 0.4,-2.2 0,-0.1 -0.4,-1 -0.6,-1.3 -0.4,-0.6 -0.9,-1.3 -2.3,-1.5 -3.6,-0.5 -4.4,3.9 -2.5,5.8 0.6,0.6 1.4,1 2.2,0.9 2,0.1 2.7,-1.5 2.8,-1.7 z m -3,2.5 c -1.8,0 -3.8,-1.6 -3.8,-4.2 0,-2.5 1.6,-4.3 4.2,-3.9 1.9,0.3 2.6,1.2 3.2,2.7 0.3,0.7 0.7,1.4 -0.1,3 0,0 0,0.1 0,0.1 -0.3,1.2 -1.7,2.3 -3.5,2.3"
   id="path721" />
	<path
   d="m 401.5,323.4 c -0.2,0 -0.3,-0.1 -0.3,-0.3 0,-0.3 0.4,-0.5 0.6,-0.2 0.1,0.2 0,0.5 -0.3,0.5"
   id="path723" />
	<path
   d="m 390.7,327.3 c -0.3,0.3 -0.7,-0.2 -0.4,-0.5 0.8,-0.6 0.8,-1.4 0.8,-2.7 -0.1,-1.3 0.4,-2.9 1.4,-3.3 0.9,-0.4 2.4,-1 2.4,-1 l 0.3,0.6 c 0,0 -1.5,0.7 -2.4,1 -0.7,0.3 -1,1.6 -1,2.7 -0.1,1.3 -0.1,2.4 -1.1,3.2"
   id="path725" />
	<path
   d="m 386.2,331.7 c -0.4,0.3 -0.8,-0.4 -0.3,-0.6 0.2,-0.1 0.5,-0.6 0.8,-1 0.7,-1.1 0.4,-0.5 0.9,-1.3 0.7,-1.1 1.2,-1.2 2.4,-1.7 1.6,-0.7 2.6,-1.2 4.1,-2 0.2,-0.1 0.4,0 0.4,0.1 0.1,0.2 0,0.4 -0.1,0.4 -0.2,0.1 -2.6,1.3 -4.2,2 -1.2,0.6 -1.6,0.6 -2.1,1.5 -0.5,0.8 -0.2,0.3 -0.9,1.3 -0.4,0.6 -0.7,1.1 -1,1.3"
   id="path727" />
	<path
   d="m 392.3,330.7 c 0,-0.1 0,-0.1 0.1,-0.2 -0.1,0.1 -0.1,0.1 -0.1,0.2 z m 4.4,3 c -1.5,1.1 -3.2,1.6 -4.6,0.4 -1.3,-1.1 -0.8,-2.6 0.4,-3.7 0.3,-0.3 0.8,0.2 0.4,0.5 -0.2,0.2 -0.9,1 -0.9,1.8 0,0.4 0.2,0.7 0.5,1 1.4,1.2 3.1,0.1 3.8,-0.4 0,0 0.1,-0.1 0.1,-0.1 0.1,-0.1 0.1,-0.1 0.2,-0.2 0.3,-0.3 0.7,0.1 0.5,0.5 -0.1,0 -0.4,0.2 -0.4,0.2"
   id="path729" />
	<path
   d="m 397,338.1 c -1.2,0 -2.3,-1.1 -2.3,-2.2 0,-1.1 1,-2.2 1.8,-2.8 0.1,-0.1 0.3,-0.1 0.5,0.1 0.1,0.1 0.1,0.3 -0.1,0.5 -1.3,1.1 -2.2,2.4 -0.9,3.5 0.9,0.8 2.2,0.2 3,-0.5 0.8,-0.7 1.4,-1.4 1.4,-1.4 0.1,-0.1 0.3,-0.2 0.5,-0.1 0.1,0.1 0.2,0.3 0.1,0.5 -1,1 -2.6,2.4 -4,2.4"
   id="path731" />
	<path
   d="m 405.3,337.4 c -0.3,0.3 -0.8,-0.1 -0.5,-0.4 1,-1.1 1.8,-1.7 1.9,-1.8 0.3,-0.3 0.7,0.2 0.4,0.5 0,0 -0.8,0.7 -1.8,1.7"
   id="path733" />
	<path
   d="m 403.3,339.7 c -0.3,0 -0.4,-0.4 -0.2,-0.6 0.1,-0.1 0.6,-0.9 1.8,-2.2 0.1,-0.1 0.3,-0.1 0.5,0 0.1,0.1 0.1,0.3 0,0.5 -1.7,1.7 -1.8,2.3 -2.1,2.3"
   id="path735" />
	<path
   d="m 400.3,341.4 c -2.5,0 -2.9,-2.7 -1.4,-4.7 0.1,-0.1 0.3,-0.2 0.5,-0.1 0.1,0.1 0.2,0.3 0.1,0.5 0,0 -1.3,1.8 -0.5,3.1 0.6,0.8 2.4,0.9 3.9,-0.7 0.3,-0.3 0.8,0.1 0.5,0.4 -0.9,0.9 -2,1.5 -3.1,1.5"
   id="path737" />
	<path
   d="m 398.8,345.6 c -0.4,0 -0.7,-0.2 -1.1,-0.3 -0.2,-0.1 -0.8,-0.3 -1,-1.9 0,-0.2 0.1,-0.3 0.3,-0.3 0.2,0 0.3,0.2 0.3,0.3 0.1,1 0.4,1.2 0.5,1.2 l 0.1,0.1 c 0.7,0.3 1.2,0.6 2,-0.9 0.1,-0.2 0.2,-0.5 0.4,-0.8 0.6,-1.3 3.9,-5.4 4.5,-6 0.3,-0.3 0.7,0.1 0.5,0.5 -0.6,0.7 -3.9,4.7 -4.4,5.9 -0.4,0.9 -1,2.2 -2.1,2.2"
   id="path739" />
	<path
   d="m 397.2,343.8 c -2.8,1.6 -5.1,-0.9 -3.9,-4 0.2,-0.4 0.8,-0.2 0.6,0.2 -1,2.4 0.6,4.5 2.9,3.2 0.6,-0.3 1,-0.7 1,-0.7 0.1,-0.1 0.3,-0.1 0.5,0 0.1,0.1 0.1,0.3 0,0.5 0,0 -0.4,0.4 -1.1,0.8"
   id="path741" />
	<path
   d="m 393.7,340.2 c -0.2,0 -0.4,-0.3 -0.3,-0.5 0.1,-0.3 0.6,-0.2 0.6,0.1 0,0.2 -0.1,0.4 -0.3,0.4"
   id="path743" />
	<path
   d="m 392.5,340.6 c -0.5,0 -1.1,-0.2 -1.7,-0.8 -0.9,-0.9 -1,-2.2 -0.6,-3.4 0.2,-0.6 0.5,-1 0.5,-1.1 0.1,-0.1 0.3,-0.2 0.5,-0.1 0.1,0.1 0.2,0.3 0.1,0.5 0,0 -0.3,0.4 -0.5,0.9 -0.3,1 -0.3,2 0.4,2.7 0.7,0.7 1.5,0.8 2.3,0.3 0,0 0,0 0.1,-0.1 0.4,-0.3 0.7,-0.6 0.7,-0.6 0.3,-0.3 0.8,0.1 0.5,0.4 -0.6,0.7 -1.5,1.3 -2.3,1.3"
   id="path745" />
	<path
   d="m 390.6,336.8 c -2.1,1.1 -4.1,0.7 -4.7,-1.7 -0.5,-1.9 1.4,-3.3 2,-3.7 0.2,-0.2 0.6,-0.1 0.6,0.2 0,0.1 -0.1,0.2 -0.2,0.3 -0.5,0.3 -2.1,1.6 -1.8,3 0.2,0.7 0.5,1.4 1.2,1.6 1,0.4 2.3,-0.2 2.5,-0.4 0,0 0.1,-0.1 0.1,-0.1 0.2,-0.1 0.3,0 0.4,0.2 0.2,0.3 0.1,0.5 -0.1,0.6"
   id="path747" />
	<path
   d="m 386.6,340.8 c -1.4,0 -2.1,-0.8 -2.3,-2.2 -0.3,-1.8 0.6,-3.2 2,-3.6 0.2,0 0.3,0.1 0.4,0.2 0,0.2 -0.1,0.4 -0.2,0.4 -1,0.3 -1.7,1.4 -1.5,2.9 0.4,2.7 3.1,1.5 5.6,0.4 0.3,-0.2 0.7,0.2 0.4,0.5 0,0 -0.1,0.1 -0.1,0.1 -1.2,0.5 -3,1.3 -4.3,1.3"
   id="path749" />
	<path
   d="m 394.2,343.6 c -3.9,2.5 -6.8,-1.5 -3.8,-4.6 0.1,-0.1 0.3,-0.1 0.5,0 0.1,0.1 0.1,0.3 0,0.5 0,0 -1.9,1.9 -0.7,3.5 1.2,1.6 3.3,0.4 3.7,0.1 0.4,-0.3 0.7,0.3 0.3,0.5"
   id="path751" />
	<path
   d="m 383.9,340.1 c -2.3,0 -4.1,-1 -4,-3.3 0,-0.1 0,-0.3 0,-0.3 0.2,-1.7 1.8,-2.3 2.6,-2.4 0.4,-0.1 0.5,0.6 0.1,0.6 0,0 -1.8,0.2 -2.1,1.9 0,0 0,0.1 0,0.2 -0.1,2.3 1.9,2.8 4.2,2.6 0.2,0 0.3,0.1 0.4,0.3 0,0.2 -0.1,0.3 -0.3,0.4 0,-0.1 -0.4,0 -0.9,0"
   id="path753" />
	<path
   d="m 390.1,344.8 c -1.1,1.3 -3.1,2.8 -4.7,1.9 -1.4,-0.7 -1.4,-2 -1.3,-2.9 -2,1.3 -3.9,1 -4.9,-1.1 -1.1,-2.4 1.2,-4.2 1.2,-4.3 0.1,-0.1 0.3,-0.1 0.5,0.1 0.1,0.1 0.1,0.3 -0.1,0.5 -0.1,0.1 -1.9,1.6 -1,3.5 1,2.1 2.8,1.9 4.6,0.4 0.1,-0.1 0.3,-0.1 0.4,0 0.2,0.1 0.2,0.4 0.1,0.6 -0.3,0.9 -0.4,2.1 0.8,2.7 0.9,0.5 2.1,-0.2 2.9,-0.9 0.6,-0.5 1,-0.9 1,-0.9 0.1,-0.1 0.3,-0.1 0.5,0 0.2,0.1 0.1,0.3 0,0.4"
   id="path755" />
	<path
   d="m 392.3,348.6 c -1.8,0 -3.4,-1.4 -3.8,-3 -0.2,-0.5 0.4,-0.7 0.6,-0.3 0.1,0.1 0.3,1.8 2.2,2.4 1.5,0.6 3.1,-0.3 3.9,-0.9 0.6,-0.4 0.9,-0.8 0.9,-0.8 0.1,-0.1 0.3,-0.1 0.5,0 0.1,0.1 0.1,0.3 0,0.5 -1.2,1.1 -2.7,2.1 -4.3,2.1"
   id="path757" />
	<path
   d="m 399.2,348.5 c -0.3,0 -0.4,-0.4 -0.2,-0.6 0.2,-0.1 0.4,-0.3 0.6,-0.5 1.1,-1 0.4,-3.3 0.4,-3.3 -0.1,-0.2 0,-0.4 0.2,-0.4 0.2,-0.1 0.4,0 0.4,0.2 0,0.1 0.9,2.7 -0.6,4 -0.2,0.2 -0.4,0.4 -0.6,0.5 0,0.1 -0.1,0.1 -0.2,0.1"
   id="path759" />
	<path
   d="m 399.4,348.4 c -0.9,0.7 -1.7,1 -2.7,0.8 -1.1,-0.2 -1.7,-1.9 -1.7,-2 -0.1,-0.2 0,-0.3 0.2,-0.4 0.2,-0.1 0.4,0 0.4,0.2 0.1,0.4 0.6,1.4 1.2,1.5 0.6,0.1 1.3,0.1 2.2,-0.7 0.1,-0.1 0.3,-0.1 0.5,0 0.1,0.3 0.1,0.5 -0.1,0.6"
   id="path761" />
	<path
   d="m 361,334.9 c 0.2,0.4 -0.4,0.7 -0.6,0.3 -2.1,-3.8 -10.7,-18.5 -13.6,-21.9 -0.9,-1.1 -2.4,-2.6 -4.4,-4.6 -0.1,-0.1 -0.1,-0.3 0,-0.5 0.1,-0.1 0.3,-0.1 0.5,0 2.1,2 3.5,3.5 4.4,4.6 3,3.7 11.4,18.1 13.7,22.1"
   id="path763" />
	<path
   d="m 342.7,308.9 c -0.3,0 0.5,0.4 -8.3,-7.6 -3.6,-3.3 -3.7,-3.4 -5.9,-6.1 -1.3,-1.6 -2.8,-3.5 -3.5,-3.2 0,0 -0.1,0.1 -0.1,0.1 -0.3,1.2 1.8,5.5 2.7,7 0.1,0.2 0,0.4 -0.1,0.4 -0.1,0.1 -0.3,0 -0.4,-0.1 0,-0.1 -3.3,-5.8 -2.7,-7.5 0.1,-0.3 0.3,-0.5 0.5,-0.6 1.1,-0.4 2.5,1.3 4.2,3.4 2.2,2.7 2.3,2.7 5.9,6 2.4,2.2 5.8,5.2 8.1,7.5 0,0.3 -0.2,0.7 -0.4,0.7"
   id="path765" />
	<path
   d="m 329,301.5 c 0.2,0.4 -0.3,0.7 -0.5,0.4 -0.7,-1 -1.1,-1.7 -1.4,-2 -0.2,-0.4 0.3,-0.7 0.6,-0.3 0.2,0.3 0.6,0.9 1.3,1.9"
   id="path767" />
	<path
   d="m 334.1,308.9 c 0.3,0.3 -0.3,0.7 -0.5,0.4 -0.1,-0.1 -3.8,-5.4 -5.2,-7.4 -0.1,-0.1 -0.1,-0.3 0.1,-0.5 0.2,-0.1 0.4,-0.1 0.5,0.1 3,4.3 4.5,6.4 4.9,7.1 0,0 0.1,0.1 0.1,0.1 l 0.1,0.2"
   id="path769" />
	<path
   d="m 333.1,308.3 c -0.3,0 0.1,0.3 -6,-8.5 -0.2,-0.3 0.3,-0.7 0.5,-0.4 l 5.8,8.4 c 0.1,0.2 0,0.5 -0.3,0.5"
   id="path771" />
	<path
   d="m 327.3,300 c -0.2,0 -0.3,-0.2 -0.4,-0.4 -0.1,-0.2 0,-0.4 0.1,-0.4 0.2,-0.1 0.4,0 0.4,0.1 0,0.1 0.1,0.1 0.2,0.2 0.2,0.2 0,0.5 -0.3,0.5"
   id="path773" />
	<path
   d="m 326,305.9 c 0.3,0.4 -0.3,0.8 -0.6,0.3 -5.5,-7.3 -3.8,-10.4 3.5,-4.8 0.1,0 0.1,0.1 0.1,0.1 0.4,0.3 -0.1,0.9 -0.5,0.4 -0.1,0 -2.9,-2.3 -4.8,-2.8 -2.5,-0.6 0.6,4.5 2.3,6.8 0,0 0,0 0,0"
   id="path775" />
	<path
   d="m 336.8,315.5 c 0.2,0.4 -0.4,0.7 -0.6,0.3 0,0 -1.8,-3.5 -2.4,-6.6 -0.4,-1.8 -0.4,-3.1 0.1,-3.9 1,-1.9 2.8,-2.2 4.4,-1.3 0.2,0.1 0.2,0.3 0.1,0.4 -0.1,0.2 -0.3,0.2 -0.4,0.1 0,0 -0.1,0 -0.2,-0.1 -0.6,-0.3 -2.2,-0.9 -3.3,1.1 -1.2,2.1 1.2,7.8 2.3,10"
   id="path777" />
	<path
   d="m 336.5,316 c -0.3,0 -0.5,-0.6 -0.1,-0.7 0.2,-0.1 0.4,0 0.4,0.2 0.1,0.3 0,0.5 -0.3,0.5"
   id="path779" />
	<path
   d="m 344,320 c 0,0 -0.1,0 0,0 -2.4,-4.8 -6.2,-9.8 -4.3,-11.6 0.8,-0.8 1.9,-0.8 3.1,-0.2 0.1,0 0.6,0.4 0.8,0.5 0.3,0.3 -0.1,0.8 -0.4,0.5 0,0 -0.2,-0.2 -0.6,-0.4 -0.7,-0.4 -1.6,-0.7 -2.4,0 -1.4,1.3 2.3,6.7 4.4,10.8 L 344,320"
   id="path781" />
	<path
   d="m 344,320.1 c -1.5,-1.1 -2.7,-1.8 -3.3,-1.9 -1.2,-0.1 -2,-0.2 -2,-0.2 -0.2,0 -0.3,-0.2 -0.3,-0.4 0,-0.2 0.2,-0.3 0.4,-0.3 0,0 0.8,0.1 2,0.2 1,0.1 2.5,1.1 3.7,2 -0.3,0.4 -0.2,0.3 -0.5,0.6"
   id="path783" />
	<path
   d="m 352,326.1 c 0.2,0.3 -0.2,0.7 -0.6,0.4 -1.4,-1.6 -5.6,-6.8 -3.7,-7.9 1.9,-1 5.3,3.1 5.6,3.6 0.1,0.1 0.1,0.3 0,0.5 -0.1,0.1 -0.3,0.1 -0.5,0 -1.3,-1.6 -3.8,-4 -4.8,-3.4 -0.1,0 -0.1,0.1 -0.1,0.2 -0.2,1.3 3.7,6.1 4.1,6.6"
   id="path785" />
	<path
   d="m 353.4,331.1 c 0.3,0.3 -0.1,0.8 -0.5,0.4 -0.3,-0.3 -2.9,-2.7 -3.1,-2.9 -1.2,-1.1 -2.8,-2.7 -1.5,-3.8 1.1,-0.9 2.9,0.5 3.6,1.2 0.1,0.1 0.1,0.3 0,0.5 -0.1,0.1 -0.3,0.1 -0.5,0 -0.9,-0.8 -2.2,-1.6 -2.8,-1.1 -0.2,0.1 -0.2,0.3 -0.2,0.5 0,0.7 1,1.7 1.8,2.3 0.3,0.1 2.8,2.6 3.2,2.9"
   id="path787" />
	<path
   d="m 351.9,334.7 c -0.3,0 -0.7,-0.1 -1.5,-0.3 -0.2,0 -0.3,-0.2 -0.2,-0.4 0,-0.2 0.2,-0.3 0.4,-0.2 0.2,0 0.4,0.1 0.6,0.1 -0.8,-0.7 -1.9,-1.8 -1.8,-3 0.1,-0.4 0.3,-0.7 0.5,-0.8 0.8,-0.4 2.3,0.2 3.4,0.9 l -0.3,0.6 c -1.3,-0.7 -2.4,-1 -2.8,-0.8 -0.1,0 -0.1,0.1 -0.1,0.3 -0.2,1.3 2,2.8 2.3,3.1 0.1,0.1 0.1,0.3 0.1,0.4 -0.2,0 -0.2,0.1 -0.6,0.1"
   id="path789" />
	<path
   d="m 323.9,299.2 c -0.1,0 -0.2,0 -0.3,-0.1 -0.1,-0.1 -10.8,-13.7 -14.5,-17.7 -3.8,-4 -14.6,-16.7 -17.2,-20.6 -3.7,-5.5 -3.8,-9.8 -2.1,-15.3 0.1,-0.3 0.3,-1 0.9,-1.1 1.1,-0.1 2.5,2.1 5.8,7.7 8.4,14.4 9.9,15.7 28.2,39.8 0.3,0.3 -0.2,0.7 -0.5,0.4 -18.5,-24.2 -19.9,-25.6 -28.2,-39.8 -2.3,-4 -4.3,-7.4 -5.2,-7.4 -0.1,0 -0.3,0.3 -0.4,0.6 -1.6,5.4 -1.5,9.5 2,14.8 2.6,3.8 13.4,16.5 17.2,20.5 3.8,4 14.5,17.6 14.6,17.8 0.2,0.1 0,0.4 -0.3,0.4"
   id="path791" />
	<path
   d="m 321.1,303 c -0.1,0 -0.2,0 -0.2,-0.1 -0.1,-0.1 -6.7,-8 -16.5,-16.7 -9.5,-8.5 -11.5,-12.4 -13.6,-17.8 -1.9,-4.8 -0.5,-10.2 -0.5,-10.4 0,-0.2 0.2,-0.3 0.4,-0.2 0.2,0 0.3,0.2 0.2,0.4 0,0.1 -1.4,5.4 0.4,10 2.1,5.2 4,9.1 13.4,17.5 9.8,8.7 16.5,16.7 16.5,16.7 0.3,0.3 0.1,0.6 -0.1,0.6"
   id="path793" />
	<path
   d="m 295.8,286.3 c 0.3,0.3 -0.2,0.7 -0.5,0.4 -0.9,-1.1 -5.2,-8.7 -4.2,-11.3 0.7,-1.8 1.9,-2 2.8,-1.3 0.1,0.1 0.2,0.3 0.1,0.5 -0.1,0.1 -0.3,0.2 -0.5,0.1 0,0 -0.4,-0.3 -0.8,-0.2 -0.4,0.1 -0.7,0.5 -1,1.3 -0.8,1.9 3.2,9.3 4.1,10.5"
   id="path795" />
	<path
   d="m 353.6,339.7 c -0.3,0 0,0.2 -3.5,-5.3 -2.8,-4.4 -7.4,-11.5 -10.8,-15.4 -1.1,-1.2 -3,-3 -3.1,-3.2 -4.3,-4.3 -10.2,-9.6 -15.4,-12.8 -2.8,-1.7 -3.8,-2 -7.7,-3.7 -1.5,-0.7 -2.5,-1 -2.7,-1 -0.1,0.1 0,0.8 0.1,1.4 0.2,2.5 7.4,8.8 9.3,10.4 l 6.5,5.6 -0.4,0.5 c -5.3,-4.6 -10.1,-8.5 -13.4,-12.2 -1.6,-1.9 -2.5,-3.3 -2.6,-4.2 -0.1,-1 -0.2,-1.7 0.2,-2 0.6,-0.4 1.7,0.2 6.8,2.3 7.4,3 16.3,11.6 21.9,17.3 l -0.2,0.2 0.3,-0.2 c 4.2,4.2 12,16.6 15,21.6 0.1,0.4 -0.1,0.7 -0.3,0.7"
   id="path797" />
	<path
   d="m 365.8,347.2 c -0.7,0 -1.8,-0.4 -1.9,-1.3 0,-0.7 0.8,-1.5 1.4,-2 -2.3,0.1 -5.8,3.6 -7.9,2.2 -1.3,-0.9 -1.1,-2.2 -0.1,-3.2 -0.9,0.2 -2.1,0.6 -3,1.2 -1.4,0.9 -2.8,1 -3.3,-0.6 -0.1,-0.2 0,-0.4 0.2,-0.4 0.2,-0.1 0.4,0 0.4,0.2 0.1,0.3 0.3,0.6 0.6,0.7 0.4,0.1 1,0 1.8,-0.5 1.7,-1.1 4.7,-1.7 5.1,-1.4 0.1,0.1 0.2,0.2 0.2,0.3 0,0.2 -0.3,0.3 -0.5,0.4 -0.8,0.2 -1.5,0.9 -1.6,1.6 -0.1,0.5 0.1,0.8 0.6,1.2 0.6,0.4 1.5,0.4 4.5,-1.2 3,-1.6 3.9,-0.9 4,-0.7 0.1,0.1 0.1,0.4 -0.1,0.5 -0.7,0.4 -1.7,1.3 -1.7,1.8 0,0.1 0,0.3 0.4,0.5 2.4,1.1 4.6,-3.3 8,-4.3 -4.6,-1.5 -5.3,-1.4 -8.9,-1.5 -2.3,-0.1 -9.1,-0.2 -10.6,-0.8 -0.2,-0.1 -0.2,-0.3 -0.2,-0.4 0.1,-0.2 0.3,-0.2 0.4,-0.2 2,0.7 9,0.7 13.5,0.9 2.4,0.1 7,1.8 7.2,1.8 0.4,0.1 0.2,0.7 -0.2,0.6 -3.2,-0.2 -5.6,4.6 -8.3,4.6"
   id="path799" />
	<path
   d="m 325.5,321.4 c -0.1,0 -0.1,0 -0.2,0 -4,-2.2 -9.2,-6 -11.7,-10 -1.1,-1.8 -2.1,-4 -1.8,-6 0.1,-1.1 0.6,-1.6 0.6,-1.7 0.1,-0.1 0.3,-0.1 0.5,0 0.1,0.1 0.2,0.3 0,0.5 0,0 -0.4,0.4 -0.5,1.3 -0.2,1.9 0.7,4 1.7,5.6 2.5,4 7.6,7.6 11.5,9.8 0.3,0.1 0.2,0.5 -0.1,0.5"
   id="path801" />
	<path
   d="m 327.5,326.8 c -0.3,0 -9.6,-4.6 -11.6,-7.4 -0.7,-0.9 -1.1,-2 -1.3,-3.2 -0.3,-1.9 -0.1,-3.6 0,-3.7 0.1,-0.4 0.7,-0.3 0.6,0.1 -0.3,1.9 -0.1,4.6 1.2,6.4 1.7,2.3 8.7,5.9 11.2,7.1 0.3,0.3 0.2,0.7 -0.1,0.7"
   id="path803" />
	<path
   d="m 332.6,334.1 c -0.1,0 0.1,0.1 -7,-3 -4.4,-1.9 -5.5,-3.2 -6.9,-5.1 -0.6,-0.8 -1,-1.5 -1.2,-2.9 -0.2,-1.2 -0.1,-2.2 -0.1,-2.2 0,-0.4 0.7,-0.4 0.6,0.1 0,0 -0.1,0.9 0.1,2.1 0.2,1.4 0.6,2 1.1,2.7 1.3,1.8 2.3,3.1 6.6,4.9 5,2.2 6.8,2.9 6.8,2.9 0.4,0 0.3,0.5 0,0.5"
   id="path805" />
	<path
   d="m 322.8,334.4 c -0.1,0 -0.2,-0.1 -0.3,-0.2 -1.3,-2.7 -0.5,-5.1 -0.5,-5.2 0.1,-0.2 0.2,-0.3 0.4,-0.2 0.2,0.1 0.3,0.2 0.2,0.4 0,0 -0.7,2.2 0.5,4.7 0.1,0.2 0,0.5 -0.3,0.5"
   id="path807" />
	<path
   d="m 332.8,340.4 c -1.3,0 -3.3,-0.3 -5.8,-1.8 -1.9,-1.2 -3.5,-2.4 -4.4,-4.4 -0.1,-0.2 0,-0.4 0.2,-0.4 0.2,-0.1 0.4,0 0.4,0.2 0.6,1.4 1.8,2.6 3.3,3.6 0.3,0.2 0.4,0.3 0.8,0.5 4.4,2.5 6.9,1.5 7,1.5 0.2,-0.1 0.4,0 0.4,0.2 0.1,0.2 0,0.4 -0.2,0.4 0,0 -0.6,0.2 -1.7,0.2"
   id="path809" />
	<path
   d="m 341.8,345.2 c -2,0.5 -5.8,1.2 -7.9,0.6 -2.7,-0.8 -6.1,-2.6 -7,-5.3 -0.4,-1.2 -0.1,-2 -0.1,-2 0,-0.2 0.2,-0.3 0.4,-0.2 0.2,0 0.3,0.2 0.2,0.4 -0.5,3.3 3.5,5.6 6.7,6.6 2.5,0.8 7.5,-0.5 7.6,-0.6 0.2,0 0.3,0.1 0.4,0.2 0,0 -0.1,0.2 -0.3,0.3"
   id="path811" />
	<path
   d="m 339.9,352.5 c -1.3,0 -2.6,-0.2 -3.7,-0.8 -2.6,-1.4 -3.3,-3.1 -3.5,-4.2 -0.2,-1.3 0.4,-2.3 0.4,-2.3 0.1,-0.2 0.3,-0.2 0.4,-0.1 0.2,0.1 0.2,0.3 0.1,0.4 0,0 -0.5,0.8 -0.3,1.9 0.2,1.4 1.3,2.7 3.1,3.7 3,1.6 8,0.3 11,-1.1 0.3,-0.2 0.7,0.2 0.4,0.5 -0.1,0.3 -4.4,2 -7.9,2"
   id="path813" />
	<path
   d="m 338.9,354.2 c 0.2,0.4 -0.3,0.7 -0.6,0.3 -0.8,-1.3 -0.9,-2.4 -0.9,-2.4 0,-0.4 0.6,-0.5 0.6,-0.1 0,0.1 0.1,1.1 0.9,2.2"
   id="path815" />
	<path
   d="m 344.6,358.2 c -2.7,0 -5.1,-1.6 -6.3,-3.6 -0.1,-0.2 0,-0.4 0.1,-0.4 0.2,-0.1 0.4,0 0.5,0.1 1.1,1.8 3.4,3.4 6.1,3.3 1.8,-0.1 3.2,-0.8 3.2,-0.8 0.2,-0.1 0.4,0 0.4,0.1 0.1,0.2 0,0.4 -0.1,0.4 -0.9,0.5 -2.4,0.9 -3.9,0.9"
   id="path817" />
	<path
   d="m 341.9,344.6 c 0.4,0.2 0.1,0.8 -0.3,0.6 -2.5,-1.3 -8.4,-4.9 -9.1,-7.6 -0.3,-1.1 -0.4,-2.5 0.6,-3 -2.3,-1.6 -6.2,-4.8 -6,-7.6 0.1,-0.9 0.6,-1.4 1.5,-1.6 -1.2,-1.1 -2.7,-2.8 -3.4,-4.1 -1.4,-2.6 -0.3,-4.3 1.2,-4.4 -1.8,-2.1 -3.3,-5.1 -1.3,-6.9 2.8,-2.7 6.5,0.6 6.5,0.6 0.1,0.1 0.1,0.3 0,0.5 -0.1,0.1 -0.3,0.1 -0.5,0 -0.1,-0.1 -3.2,-2.9 -5.6,-0.6 -1.6,1.5 -0.2,4 0.9,5.4 0.5,0.7 0.9,1.1 1,1.1 0.1,0.1 0.2,0.3 0.2,0.4 -0.1,0.2 -0.3,0.2 -0.4,0.2 -0.9,-0.2 -1.5,0.1 -1.8,0.9 -0.8,2.1 2.6,5.5 4.3,7 0.2,0.2 0.1,0.6 -0.2,0.6 -0.2,0 -1.5,-0.1 -1.6,1 -0.1,2.4 3.5,5.3 5,6.5 0.8,0.6 1.4,1 1.4,1 0.3,0.2 0.1,0.7 -0.2,0.6 0,0 -0.4,-0.1 -0.7,0.2 -0.3,0.3 -0.4,1.1 -0.1,2.1 0.4,2.3 6.3,5.8 8.6,7.1"
   id="path819" />
	<path
   d="m 344.8,330.5 c -0.1,0 -0.2,0 -0.2,-0.1 0,0 -0.1,-0.1 -0.1,-0.1 -2.3,-2.5 -4.9,-5.7 -4.1,-7 1,-1.5 3.9,1.5 5.1,2.8 0.1,0.1 0.1,0.3 0,0.5 -0.1,0.1 -0.3,0.1 -0.5,0 -1,-1.2 -3,-3 -3.9,-3 -0.1,0 -0.2,0 -0.2,0.1 -0.3,0.5 0.8,2.6 4.1,6.2 0.2,0.3 0.1,0.6 -0.2,0.6"
   id="path821" />
	<path
   d="m 348.4,341.4 c -1.5,0.8 -3.1,0.8 -3.9,-0.6 -0.7,-1.2 -0.3,-2.2 1,-2.7 -1.2,-0.6 -3.2,-1.7 -3.2,-3.1 0,-1 0.7,-1.5 1.7,-1.6 -1.2,-0.9 -2.9,-2.4 -2.6,-3.6 0.1,-0.4 0.3,-0.6 0.6,-0.8 0.8,-0.3 2.1,0.3 3,0.9 l -0.4,0.5 c -0.8,-0.5 -2.4,-1.4 -2.7,-0.5 -0.3,1 1.9,2.7 3.3,3.5 0.3,0.2 0.1,0.7 -0.2,0.6 -0.3,-0.1 -1.4,-0.1 -1.8,0.3 -0.2,0.1 -0.3,0.4 -0.2,0.6 0,1 2.3,2.3 3.7,2.8 0.3,0.1 0.3,0.6 -0.1,0.6 -0.3,0 -1.3,0.3 -1.6,0.8 -0.1,0.3 -0.1,0.7 0.2,1.1 0.8,1.3 2.2,0.8 3,0.4 0.2,-0.1 0.4,0 0.4,0.1 0,0.4 -0.1,0.6 -0.2,0.7"
   id="path823" />
	<path
   d="m 348.6,341.3 c -0.5,0.4 -0.8,-0.3 -0.5,-0.5 0.1,0 0.1,-0.1 0.2,-0.1 0.1,-0.1 0.3,-0.1 0.4,0 0.1,0.2 0.1,0.5 -0.1,0.6"
   id="path825" />
	<path
   d="m 348.3,341.4 c -0.3,0 -0.4,-0.4 -0.2,-0.6 0.1,0 0.1,-0.1 0.1,-0.1 0.4,-0.2 0.7,0.4 0.3,0.6 h -0.1 c 0,0.1 -0.1,0.1 -0.1,0.1"
   id="path827" />
	<path
   d="m 348.4,341.4 c -0.4,0.3 -0.8,-0.3 -0.4,-0.5 0.5,-0.3 0.8,0.3 0.4,0.5"
   id="path829" />
	<path
   d="m 348.7,343.8 c -2.1,0 -3,-1.4 -0.6,-2.9 0.2,-0.1 0.3,-0.1 0.5,0.1 0.1,0.2 0.1,0.3 -0.1,0.5 -0.4,0.3 -1.4,1 -1,1.4 0.5,0.6 2.4,0.4 3.9,-0.1 l 8.1,-2.8 c 0.2,-0.1 0.4,0 0.4,0.2 0.1,0.2 0,0.4 -0.2,0.4 l -8.1,2.8 c -0.7,0.1 -2,0.4 -2.9,0.4"
   id="path831" />
	<path
   d="m 352.2,346.9 c 0.1,0 0.1,0 0.1,-0.1 0,0.1 -0.1,0.1 -0.1,0.1 z m -1.6,0.2 c -0.6,0 -1.2,-0.1 -1.7,-0.2 -1.8,-0.5 -2,-2.2 -2,-2.3 0,-0.4 0.6,-0.5 0.6,-0.1 0,0.1 0.2,1.3 1.5,1.7 0.6,0.2 1.6,0.3 2.9,0.1 0.2,-0.1 0.4,0.1 0.4,0.3 0,0.2 -0.1,0.3 -0.3,0.3 -0.1,0.1 -1,0.2 -1.4,0.2"
   id="path833" />
	<path
   d="m 366.9,354.4 c -1,0 -1.8,-0.8 -1.9,-1.7 -0.1,-0.7 0.3,-1.5 0.6,-2 -2.1,0.7 -6.7,2 -8,0.9 -0.9,-0.7 -1,-1.7 -0.4,-2.6 -1.3,0.3 -3.4,0.6 -4.8,-0.2 -1.6,-0.9 -1.5,-1.9 -0.6,-2.6 0.1,-0.1 0.3,-0.1 0.5,0.1 0.1,0.1 0.1,0.3 -0.1,0.5 -0.7,0.5 -0.3,1 0.5,1.5 1.9,1 5.3,-0.2 5.4,-0.2 0.3,-0.1 0.6,0.3 0.3,0.6 0,0 -0.9,0.8 -0.9,1.6 0,0.3 0.2,0.6 0.5,0.9 1.1,0.8 5.8,-0.4 8.4,-1.4 0.3,-0.1 0.6,0.3 0.3,0.5 -0.3,0.4 -1.2,1.5 -1.1,2.4 0,0.4 0.2,0.7 0.6,0.9 1.1,0.8 3.9,-1 6.1,-3 0.2,-0.4 0.9,0.1 0.4,0.5 -1.4,1.3 -4,3.3 -5.8,3.3"
   id="path835" />
	<path
   d="m 373.6,357.1 c -2.4,0 -1.8,-4.1 -1.2,-6.4 l 0.6,0.2 c -0.6,2.3 -0.9,5.1 0.2,5.5 1.6,0.7 6.6,-3.8 7.1,-5.7 0,0 0,-0.1 0,-0.1 0,-0.2 0.2,-0.3 0.3,-0.3 0.2,0 0.3,0.1 0.3,0.3 0.1,1.6 -4.8,6.5 -7.3,6.5"
   id="path837" />
	<path
   d="m 380.7,350.9 c -0.2,0 -0.4,-0.2 -0.3,-0.4 0.4,-1.4 0.1,-4.9 0,-6.4 0,-0.4 0.6,-0.5 0.6,-0.1 0.2,1.5 0.4,5.1 0,6.6 0,0.2 -0.2,0.3 -0.3,0.3"
   id="path839" />
	<path
   d="m 372.4,370.4 c -2.3,0 -3.1,-2.3 -3.5,-4.5 -1.4,1.6 -5.4,5.7 -9.2,3.1 -1.9,-1.3 -1.2,-3.7 -0.6,-5 -2.6,1.3 -5.9,2.1 -7.1,-0.5 -1.7,-3.7 1.5,-5.6 1.9,-5.9 0.1,0 0.1,0 0.2,0 0.3,0 0.4,0.5 0.1,0.6 -0.6,0.3 -3,2 -1.6,5 0.3,0.7 0.8,1.1 1.4,1.3 2.2,0.7 5.7,-1.5 5.7,-1.5 0.3,-0.2 0.6,0.2 0.4,0.4 0,0 -2.3,3.7 -0.1,5.1 4.1,2.8 8.7,-3.5 8.8,-3.6 0.2,-0.3 0.6,-0.1 0.6,0.2 0,0 0.3,4.1 2.2,4.6 2.3,0.6 4.8,-1.8 7.1,-6.8 2.5,-5.4 1.6,-12 1.6,-12.3 0,-0.2 0.1,-0.3 0.3,-0.3 0.2,0 0.3,0.1 0.3,0.3 0,0.3 0.9,7.1 -1.7,12.6 -2,4.6 -4.5,7.2 -6.8,7.2"
   id="path841" />
	<path
   d="m 354,358.1 c -5.9,0 -8.2,-4.7 -4.9,-7.1 -1.5,-0.2 -3,-0.7 -3.8,-1.9 -1.4,-2.1 -0.3,-4.2 -0.2,-4.4 0.1,-0.3 0.4,-0.3 0.6,-0.2 0.1,0.1 0.2,0.3 0,0.5 -0.1,0.2 -1.1,2 0.1,3.8 0.4,0.6 1,1.1 1.9,1.3 1.2,0.4 2.5,0.4 2.5,0.4 0.4,0 0.5,0.5 0.1,0.6 0,0 -1.4,0.6 -1.9,1.8 -0.3,0.6 -0.2,1.3 0.1,2 0.8,1.9 3.5,2.7 5.5,2.7 0.2,0 0.3,0.1 0.3,0.3 0.1,0.1 -0.1,0.2 -0.3,0.2"
   id="path843" />
	<path
   d="m 313.4,298.6 c 0.3,0.2 0,0.8 -0.4,0.5 -3.5,-2.4 -18.3,-12.7 -21.7,-15.3 -3.4,-2.7 -16.5,-18.2 -20.5,-21.2 -3.8,-2.9 -6.7,-6 -8.1,-5.1 -0.1,0 -0.4,0.3 -0.5,1.8 -0.5,4.2 0.4,13.4 2.3,15.4 1.3,1.3 2.9,3.1 5.1,5.3 0.1,0.1 0.1,0.3 0,0.5 -0.1,0.1 -0.3,0.1 -0.5,0 -2.2,-2.2 -3.8,-4 -5.1,-5.3 -2.2,-2.3 -3,-12 -2.5,-15.9 0.2,-1.7 0.6,-2.1 0.8,-2.3 1.9,-1.2 4.6,1.9 8.9,5.2 4.1,3.1 17.1,18.6 20.5,21.2 3.9,2.9 21.6,15.1 21.7,15.2"
   id="path845" />
	<path
   d="m 272.2,283.2 c -0.1,0 -0.2,0 -0.2,-0.1 -0.9,-0.8 -1.8,-1.7 -2.7,-2.6 -0.3,-0.3 0.1,-0.8 0.5,-0.5 0.9,0.9 1.8,1.7 2.7,2.5 0.1,0.3 -0.1,0.7 -0.3,0.7"
   id="path847" />
	<path
   d="m 312,305.8 c -0.4,0 -21.8,-10 -34,-17.9 -1.8,-1.2 -3.8,-2.7 -5.8,-4.4 -0.3,-0.3 0.1,-0.8 0.4,-0.5 2,1.7 3.9,3.2 5.7,4.4 13.3,8.6 33.6,17.7 33.8,17.8 0.4,0.1 0.3,0.6 -0.1,0.6"
   id="path849" />
	<path
   d="m 313.7,311.7 c -0.5,0 -18.4,-6.3 -29.7,-12 -5.6,-2.9 -9.4,-4.8 -11.8,-6.2 -3.1,-1.8 -4.3,-2.9 -5.6,-4.3 -2.5,-2.8 -4,-10.1 -3.6,-13 0,-0.2 0.2,-0.4 0.4,-0.5 0.5,-0.2 1.7,0.2 6.3,4.3 0.5,0.5 2.5,2.3 3.1,3 0.1,0.1 0.1,0.3 0,0.5 -0.1,0.1 -0.3,0.1 -0.5,0 0.1,0.1 -1.1,-1.1 -3,-2.8 -0.1,-0.1 -0.1,-0.1 -0.1,-0.1 -4.5,-4 -5.4,-4.2 -5.6,-4.2 -0.4,2.8 1.1,9.8 3.4,12.4 1.3,1.4 2.5,2.5 5.5,4.2 2.4,1.4 6.2,3.3 11.8,6.2 12.7,6.4 29.3,11.9 29.5,12 0.3,0 0.2,0.5 -0.1,0.5"
   id="path851" />
	<path
   d="m 278.1,306.3 c -0.2,0 -2.5,-0.9 -2.8,-1.1 -2.6,-1.2 -6.3,-9.6 -5.9,-11.6 0.3,-1.8 2.3,-1.1 3.4,-0.5 0.2,0.1 0.2,0.3 0.1,0.4 -0.1,0.2 -0.3,0.2 -0.5,0.1 0,0 -0.1,-0.1 -0.3,-0.2 -0.8,-0.4 -1.4,-0.5 -1.7,-0.3 -0.2,0.1 -0.3,0.3 -0.3,0.5 -0.3,1.6 3.1,9.8 5.5,10.9 0.5,0.2 1.5,0.6 2.6,1 0.4,0.3 0.3,0.8 -0.1,0.8"
   id="path853" />
	<path
   d="m 314.9,316.5 c -0.2,0 -16.5,-3.8 -16.7,-3.8 -4.9,-1.1 -14.8,-4.5 -20,-6.3 -0.2,-0.1 -0.3,-0.2 -0.2,-0.4 0.1,-0.2 0.2,-0.3 0.4,-0.2 5.1,1.9 15,5.2 19.9,6.3 8.3,1.9 16.6,3.8 16.6,3.8 0.4,0 0.4,0.6 0,0.6"
   id="path855" />
	<path
   d="m 317.7,323.3 c -7,0 -23.6,-1.4 -31,-4.2 -7.7,-2.9 -10.8,-8.9 -11.4,-12 -0.1,-0.6 0,-1.1 0.3,-1.4 0.5,-0.4 1.4,-0.5 2.6,-0.2 0.1,0 1.1,0.3 1.4,0.4 0.2,0.1 0.2,0.3 0.2,0.4 -0.1,0.2 -0.3,0.2 -0.4,0.2 0,0 -0.5,-0.2 -1.1,-0.4 -0.3,-0.1 -1.8,-0.4 -2.2,0 -0.2,0.1 -0.2,0.4 -0.1,0.8 0.6,3 3.6,8.7 11,11.5 7.5,2.8 23.2,4 30.8,4.1 0.3,0.2 0.3,0.8 -0.1,0.8"
   id="path857" />
	<path
   d="m 308.6,329.3 c -4.9,1 -13.8,2.3 -17.9,-0.7 -3.5,-2.6 -7.4,-7.3 -7,-9.1 0.4,-1.7 3.5,-0.8 4.4,-0.4 0.2,0.1 0.2,0.3 0.2,0.4 -0.1,0.2 -0.3,0.2 -0.4,0.2 0,0 -0.1,0 -0.2,-0.1 -0.9,-0.3 -3.1,-0.9 -3.3,0.1 -0.3,1.3 3,5.7 6.8,8.5 3.9,2.8 12.6,1.5 17.3,0.6 6.6,-1.3 11.7,-0.9 12.7,-0.8 0,0 0.1,0 0.1,0 0.2,0 0.3,0.1 0.3,0.3 0,0.2 -0.1,0.3 -0.3,0.3 -0.2,0 -5.2,-0.8 -12.7,0.7"
   id="path859" />
	<path
   d="m 302.2,338.6 c -0.8,0 -1.8,0 -2.5,-0.2 -7.1,-1 -10.4,-7.4 -8.8,-9 0.8,-0.7 2.2,-0.3 2.4,-0.3 0.4,0.1 0.2,0.7 -0.2,0.6 -0.3,-0.1 -1.4,-0.3 -1.8,0.1 -0.2,0.2 -0.3,0.6 -0.2,1.1 0.4,1.9 2.9,6 8.6,6.8 0.3,0.1 0.6,0.1 1,0.1 6.1,0.4 8.6,-1.8 12.5,-2.7 3.8,-0.8 9.5,-1.4 9.6,-1.5 0.4,0 0.4,0.6 0,0.6 -0.1,0 -5.7,0.6 -9.5,1.4 -3.4,1 -5.9,3 -11.1,3"
   id="path861" />
	<path
   d="m 304.9,347 c -3,0 -5,-1.6 -6.2,-2.9 -1.5,-1.6 -2.2,-3.4 -2.2,-4.3 0.2,-1.6 2.8,-2 3.1,-2.1 0.4,-0.1 0.5,0.6 0.1,0.6 -0.7,0.1 -2.5,0.6 -2.6,1.5 -0.1,0.6 0.6,2.3 2,3.8 1.1,1.2 3.1,2.7 5.8,2.7 5.3,-0.1 10.3,-2.5 15.5,-4.7 3.2,-1.4 6.4,-1.7 6.6,-1.7 0.4,-0.1 0.5,0.6 0.1,0.6 0,0 -3.3,0.3 -6.4,1.6 -5,2.4 -10.3,4.9 -15.8,4.9"
   id="path863" />
	<path
   d="m 312.8,355.7 c -0.8,0 -1.5,-0.2 -2.5,-0.5 -2.9,-0.7 -8.1,-4.8 -8.1,-6.4 0,-1.5 4.6,-2.5 6,-2.7 0.2,0 0.3,0.1 0.4,0.3 0.1,0.2 -0.1,0.3 -0.3,0.4 -2.6,0.5 -5.5,1.4 -5.5,2.1 0,1.1 4.7,5.1 7.6,5.7 2.9,0.6 3,1.1 9.5,-2.9 5.8,-3.5 7.1,-3.8 8.4,-4.1 0.9,-0.2 1.8,-0.5 4.8,-0.5 0,0.4 0,0.2 -0.1,0.6 -2.7,-0.1 -3.5,0.2 -4.6,0.4 -4.9,1.3 -12,7.6 -15.6,7.6"
   id="path865" />
	<path
   d="m 321.1,362.7 c -1.1,0.6 -2.5,0.3 -3.7,-0.2 -2.6,-1.1 -5.2,-3.5 -5.5,-4.6 -0.4,-1.3 1.6,-2.7 3.4,-3.6 0.3,-0.1 0.5,0 0.5,0.3 0,0.2 -0.1,0.3 -0.3,0.3 0.1,0 0.1,0 0.1,0 -2.1,1.1 -3.3,2.2 -3.1,2.8 0.2,0.8 2.6,3.1 5.1,4.1 0.9,0.4 2.2,0.7 3.2,0.2 1.7,-0.9 7.8,-5.4 10.8,-6.6 2.7,-1 6.6,-1.4 7,-1.5 0.5,-0.1 0.5,0.5 0.2,0.6 -0.1,0 -4.1,0.5 -6.9,1.5 -3.2,1.3 -10.4,6.7 -10.8,6.7"
   id="path867" />
	<path
   d="m 327.2,368.4 c -3.5,0 -6.5,-1.6 -7.5,-2.4 -1.2,-1.1 -0.2,-2.7 1,-3.8 0.1,-0.1 0.1,-0.1 0.1,-0.1 0.1,-0.1 0.3,-0.1 0.5,0 0.1,0.1 0.1,0.3 0,0.5 0,0 0,0 -0.1,0.1 -0.9,0.7 -1.9,2 -1,2.8 1.2,1.1 6.2,3.5 11,1.5 0.5,-0.2 -0.1,0.1 12.4,-6.5 l 0.3,0.6 c 0,0 -6.7,3.6 -11.7,6.2 -1.6,0.7 -3.2,1.1 -5,1.1"
   id="path869" />
	<path
   d="m 333.1,375.4 c -1.9,0 -4.2,-1 -5.4,-2.3 -0.7,-0.8 -1,-1.6 -0.7,-2.3 0.8,-2.1 3.9,-3.8 4.4,-4 0.2,-0.1 0.4,0 0.4,0.2 0.1,0.2 0,0.3 -0.2,0.4 0,0 -0.1,0 -0.2,0.1 -0.9,0.5 -3.2,1.9 -3.8,3.5 -0.7,1.8 4.1,4.4 6.6,3.5 2.3,-0.8 7.7,-5.2 9.6,-6.8 0.1,-0.1 0.3,-0.1 0.5,0 0.1,0.1 0.1,0.3 0,0.5 -0.2,0.2 -5.9,5 -9,6.5 -0.8,0.5 -1.3,0.7 -2.2,0.7"
   id="path871" />
	<path
   d="m 342.2,382.6 c -1.4,0.9 -4.6,-1 -6,-2 -1.4,-1 -3.1,-2.3 -3.4,-3 -0.7,-1.5 1.9,-3.1 2.2,-3.3 0.2,-0.1 0.4,0 0.4,0.1 0.1,0.2 0,0.4 -0.1,0.4 -0.6,0.4 -2.3,1.6 -1.9,2.4 0.2,0.4 1.5,1.6 3.2,2.8 2.5,1.7 4.6,2.4 5.3,2 1.8,-1.1 7.6,-9.3 7.7,-9.4 0.2,-0.3 0.8,0 0.5,0.4 -0.3,0.4 -6,8.4 -7.9,9.6"
   id="path873" />
	<path
   d="m 350.8,373 c -3.5,0 -5.9,-2.8 -7.3,-6 -1.1,-2.4 -0.6,-4.8 -0.1,-6.5 0.5,-1.6 1.2,-2.6 1.3,-2.7 0.1,-0.2 0.3,-0.2 0.4,-0.1 0.1,0.1 0.2,0.3 0.1,0.5 0,0 -0.7,1 -1.2,2.5 -0.5,1.5 -0.9,3.8 0.1,6 1.1,2.6 3,5 5.8,5.5 0.6,0.1 1.3,0.1 1.9,0 0.5,-0.2 0.6,0.5 0.2,0.6 -0.1,0.1 -0.7,0.2 -1.2,0.2"
   id="path875" />
	<path
   d="m 335.2,390.8 c -0.3,0 -0.7,-0.1 -1,-0.5 -1.6,-1.7 0.9,-7.9 1.9,-10 0.1,-0.2 0.3,-0.2 0.4,-0.2 0.2,0.1 0.2,0.3 0.2,0.4 -0.8,1.7 -3.3,8 -2,9.3 0.3,0.3 0.5,0.3 0.7,0.3 0.7,-0.1 1.5,-1.3 2.3,-3.1 0.1,-0.5 0.8,-0.3 0.6,0.2 -0.7,1.3 -1.8,3.6 -3.1,3.6"
   id="path877" />
	<path
   d="m 343.7,387.3 c -0.5,2.6 -2.2,5.2 -4.9,4.9 -2,-0.2 -1.8,-3.2 -1.3,-5.1 0,-0.2 0.2,-0.3 0.4,-0.2 0.2,0 0.3,0.2 0.2,0.4 -0.4,1.4 -0.7,4.1 0.7,4.3 2.2,0.2 3.7,-2 4.1,-4.4 0.6,-2.6 2,-3.3 2.2,-3.4 0.2,-0.1 0.4,0 0.4,0.2 0.1,0.2 0,0.4 -0.2,0.4 0.2,0 -1.1,0.5 -1.6,2.9"
   id="path879" />
	<path
   d="m 346.8,385.8 c -0.6,0 -1.3,-0.2 -1.6,-0.7 -0.3,-0.4 -0.2,-1.1 0,-1.2 0.2,-0.3 0.7,0 0.5,0.3 -0.1,0.4 0.1,0.8 0.8,1 0.5,0.1 1,0 1.4,-0.3 1,-0.8 1.7,-2.6 1.9,-5.2 0.4,-4.3 1.8,-7.1 1.8,-7.2 0.1,-0.4 0.7,-0.2 0.6,0.2 0,0.1 -1.4,2.9 -1.8,7.1 -0.2,2.4 -1.1,6 -3.6,6"
   id="path881" />
	<path
   d="m 340.3,399.6 c -1.5,0 -1.6,-2.2 -1.6,-3.6 -1.3,2.3 -3.3,4.1 -5,2.2 -1.4,-1.5 -1.8,-3.9 -1.2,-7.1 0.4,-2.3 1.2,-4.2 1.3,-4.3 0.1,-0.2 0.3,-0.2 0.4,-0.2 0.2,0.1 0.2,0.3 0.2,0.4 0,0 -0.8,1.9 -1.2,4.2 -0.4,2 -0.5,4.8 1,6.5 0.4,0.4 0.8,0.6 1.2,0.6 1.5,-0.1 3.1,-3 3.5,-4.1 0.2,-0.4 0.7,-0.2 0.6,0.2 -0.2,1.5 -0.3,4 0.4,4.5 0.3,0.2 0.7,0.1 1.2,-0.2 4.8,-3 3.8,-8.4 4.3,-9 0.1,-0.1 0.3,-0.2 0.4,-0.1 0.3,0.1 0.3,0.3 0.2,1.1 0,1.2 -0.1,4.1 0.9,4.7 0.4,0.2 0.9,0.1 1.5,-0.3 1.2,-0.7 2.1,-1.5 2.9,-2.4 1.6,-1.9 1.5,-3.6 1.5,-3.6 0,-0.4 0.6,-0.5 0.6,-0.1 0,0 0.2,1.9 1.3,2.4 0.6,0.2 1.3,0 2.2,-0.7 1.7,-1.3 1.5,-5.1 1.1,-7.1 -0.1,-0.4 0.6,-0.5 0.6,-0.1 0,0 0.1,0.7 0.2,1.6 0.2,2.1 0,4.9 -1.6,6.1 -1.7,1.3 -3.3,1.3 -4.1,-0.6 -0.7,2.2 -2.5,3.9 -4.5,5.1 -1.9,1.2 -3,0.1 -3.3,-2.2 -0.5,1.9 -1.5,4.1 -4.1,5.7 -0.1,0.3 -0.6,0.4 -0.9,0.4"
   id="path883" />
	<path
   d="m 382.6,387.7 c -0.8,0 -1.6,-0.6 -1.9,-2 -0.3,-1.8 0.2,-4.2 0.3,-4.3 0.1,-0.4 0.7,-0.2 0.6,0.2 -0.4,1.8 -0.9,5.2 0.9,5.5 0.3,0 0.6,-0.2 0.8,-0.4 2.4,-2.6 4.8,-13.7 3.1,-22.5 -1.8,-9.6 -5.4,-14.1 -5.8,-14.7 -0.1,-0.1 -0.1,-0.3 0,-0.5 0.1,-0.1 0.3,-0.1 0.5,0 0,0 0,0 0.1,0.1 0.7,0.8 4.1,5.4 5.9,14.9 1.8,9.7 -1.3,23.7 -4.5,23.7"
   id="path885" />
	<path
   d="m 375,391.4 c -0.5,0 -1.3,-0.2 -1.9,-0.4 -2.5,-0.8 -2.6,-2 -2.6,-2.2 0,-0.2 0.1,-0.3 0.3,-0.3 0.2,0 0.3,0.1 0.3,0.3 0,0 0.1,0.9 2.2,1.6 0.3,0.1 0.7,0.2 1.1,0.3 3.3,0.7 6.1,-5.1 6.2,-5.2 0.1,-0.2 0.3,-0.2 0.4,-0.2 0.2,0.1 0.2,0.3 0.2,0.4 -0.1,0.3 -2.7,5.7 -6.2,5.7"
   id="path887" />
	<path
   d="m 356,398.4 c -0.2,0 -0.3,-0.1 -0.3,-0.3 0,-0.2 0.2,-0.3 0.3,-0.3 0.2,0 6.1,-0.1 9,-1.5 3.2,-1.5 6.9,-5.6 6.9,-5.7 0.1,-0.1 0.3,-0.1 0.5,0 0.1,0.1 0.1,0.3 0,0.5 -0.2,0.2 -3.8,4.2 -7.1,5.8 -2.9,1.3 -8.6,1.5 -9.3,1.5"
   id="path889" />
	<path
   d="m 352.6,403.6 c -1.6,0 -2.2,-3.3 -2.2,-4.9 0,-0.2 0.1,-0.3 0.3,-0.3 0.2,0 0.3,0.1 0.3,0.3 0,0 0,1.3 0.4,2.6 0.2,0.5 0.5,1.6 1.1,1.7 0.4,0.1 1,-0.3 1.8,-1 1.3,-1.3 1.7,-4.5 1.6,-6.3 0,-0.4 0.5,-0.5 0.6,-0.1 0.5,0.9 1.7,0.1 2.4,-0.3 1.8,-1.3 0.4,-7.6 -0.3,-9.9 -0.1,-0.4 0.5,-0.6 0.6,-0.2 0.3,0.9 2.6,8.8 0.1,10.6 -0.8,0.6 -1.9,1.2 -2.8,0.7 -0.1,1.9 -0.5,4.7 -1.8,6 -0.8,0.7 -1.5,1.1 -2.1,1.1"
   id="path891" />
	<path
   d="m 335.3,407.6 c -1.1,0 -2.3,-1 -2.5,-2.3 0,-0.2 0.1,-0.3 0.3,-0.4 0.2,0 0.3,0.1 0.4,0.3 0,0.1 0.3,1.5 1.7,1.7 1.7,0.3 3,-4.1 3.3,-5.8 0,-0.2 0.2,-0.3 0.4,-0.3 0.2,0 0.3,0.2 0.3,0.3 -0.1,1.9 0.4,4.3 2.3,4.1 2.7,-0.1 2.9,-5.3 2.9,-5.4 0,-0.3 0.3,-0.4 0.5,-0.2 0.1,0.1 2.3,1.9 4.5,0.1 1.6,-1.4 2.2,-4.5 2.1,-6.7 0,-0.2 0.1,-0.3 0.3,-0.3 0.2,0 0.3,0.1 0.3,0.3 0.1,2.4 -0.5,5.6 -2.3,7.2 -1.9,1.7 -3.9,0.8 -4.8,0.3 -0.2,2.7 -1.2,5.7 -3.9,5.4 -1.5,-0.2 -2.2,-1.4 -2.4,-2.6 -0.6,1.6 -1.6,4.3 -3.4,4.3"
   id="path893" />
	<path
   d="m 329.9,422.5 c -2,0 0,-4.9 0.6,-8.3 0.6,-3.3 -0.6,-6.5 -0.5,-9.9 0,-3.4 2.3,-12.9 2.4,-13.3 0.1,-0.4 0.7,-0.3 0.6,0.2 0,0.1 -2.3,9.8 -2.3,13.1 0,3.3 1.1,6.6 0.5,10 -0.4,2.5 -1.9,7 -1.3,7.5 0.1,0 0.2,0 0.4,0 2.3,-0.9 4,-3.6 4.6,-6 0.5,-2.2 0.7,-6.3 0.7,-8.5 0,-0.2 0.1,-0.3 0.3,-0.3 0.2,0 0.3,0.1 0.3,0.3 0,0 0,3.2 -0.3,5.9 -0.3,2.8 -0.9,5.2 -3,7.5 -0.8,0.8 -1.6,1.4 -2.5,1.7 -0.2,0.1 -0.4,0.1 -0.5,0.1"
   id="path895" />
	<path
   d="m 330.6,408.4 c -0.3,0 -0.4,-0.3 -0.2,-0.6 0.1,-0.1 1.1,-0.7 2.4,-2.7 0,0 0.1,-0.1 0.1,-0.1 1.3,-2 2.3,-6.4 2.3,-6.4 0,-0.2 0.2,-0.3 0.4,-0.2 0.2,0 0.3,0.2 0.2,0.4 0,0.2 -1,4.6 -2.4,6.7 0,0 0,0.1 -0.1,0.1 -1.4,2.1 -2.5,2.8 -2.5,2.8 -0.1,0 -0.2,0 -0.2,0"
   id="path897" />
	<path
   d="m 337.5,415.5 c -1.1,0 -1.9,-1.2 -2.2,-2.2 -0.1,-0.2 0,-0.4 0.2,-0.4 0.2,-0.1 0.4,0 0.4,0.2 0.1,0.5 0.7,1.7 1.5,1.8 0.4,0 0.9,-0.2 1.4,-0.6 0.1,-0.1 0.2,-0.2 0.3,-0.3 0.5,-0.7 1,-1.7 1.3,-3.1 0.5,-2.4 0.5,-5 0.5,-5.1 0,-0.2 0.1,-0.3 0.3,-0.3 0.2,0 0.3,0.1 0.3,0.3 0.1,2.4 -0.3,6.7 -1.9,8.6 -0.1,0.2 -0.2,0.3 -0.4,0.4 -0.6,0.4 -1.2,0.7 -1.7,0.7"
   id="path899" />
	<path
   d="m 341.8,412.2 c -0.7,0 -1.3,-0.6 -1.5,-1.2 -0.2,-0.4 0.4,-0.6 0.6,-0.3 0.1,0.2 0.4,0.7 0.8,0.8 0.6,0.1 1.2,-0.8 1.5,-1.3 1.1,-1.8 2,-6.4 2,-7.9 0,-0.2 0.1,-0.3 0.3,-0.3 0.2,0 0.3,0.1 0.3,0.3 0.1,1.8 -1.5,9.9 -4,9.9"
   id="path901" />
	<path
   d="m 350.5,404.5 c -1.6,4.5 -4.9,4.8 -5.3,-2.2 -0.1,-0.5 0.7,-0.6 0.7,0 0.1,1.5 0.6,4.4 1.6,4.8 0.3,0.1 0.6,0 0.8,-0.1 0.8,-0.5 1.4,-1.8 1.7,-2.6 0.5,-1.2 0.7,-2.6 0.7,-3 0,-0.2 0.1,-0.3 0.3,-0.3 0.2,0 0.3,0.1 0.3,0.3 0,0.5 -0.3,1.9 -0.8,3.1"
   id="path903" />
	<path
   d="m 335.9,440.3 c -0.2,0 -0.3,-0.1 -0.3,-0.3 -0.7,-8.9 -3.1,-19.3 -3.1,-19.4 -0.1,-0.4 0.5,-0.6 0.6,-0.1 0,0.1 2.4,10.5 3.1,19.5 0,0.2 -0.1,0.3 -0.3,0.3"
   id="path905" />
	<path
   d="m 334.3,466 c -2.5,0 0.9,-10.2 1.4,-19.5 0.1,-1.8 0,-3.9 -0.2,-6.5 0,-0.4 0.6,-0.5 0.6,-0.1 0.2,2.5 0.3,4.7 0.2,6.5 -0.4,7.5 -3.1,18.1 -2.1,18.8 0.4,0.3 4.8,-3.5 7.4,-7.1 1.3,-1.8 2.6,-4.3 2.6,-6.5 -0.7,-23.9 -6.6,-35.2 -7.2,-36.3 -0.1,-0.1 -0.1,-0.1 -0.1,-0.1 -0.2,-0.4 0.4,-0.7 0.6,-0.3 v 0.1 c 0.7,1.2 6.6,12.6 7.3,36.7 0.1,4.8 -5.8,11.3 -9.7,14 -0.2,0.1 -0.5,0.3 -0.8,0.3"
   id="path907" />
	<path
   d="m 342,458.7 c -0.1,0 -0.2,0 -0.2,-0.1 -2.9,-2.5 -5.5,-14.6 -6.2,-18.4 0,-0.3 0,-0.2 0,-0.3 -0.1,-0.4 0.5,-0.6 0.6,-0.2 0,0 0,0.2 0.1,0.3 0.7,3.7 3.2,15.6 6,18.1 0.1,0.2 0,0.6 -0.3,0.6"
   id="path909" />
	<path
   d="m 350,468.8 c -0.8,0.5 -1.8,0.8 -2.8,0.5 -3.6,-1 -3.3,-13.9 -3.1,-17.6 0,-0.2 0.2,-0.3 0.3,-0.3 0.2,0 0.3,0.2 0.3,0.3 0,0 0,0.5 -0.1,1.4 -0.1,3 -0.2,14.8 2.7,15.6 3.4,0.9 8.3,-6.6 7.1,-13.9 -4.7,-27.6 -12.3,-41.3 -13.2,-42.8 0,-0.1 -0.1,-0.1 -0.1,-0.1 -0.2,-0.4 0.4,-0.7 0.6,-0.3 v 0.1 c 0.9,1.5 8.6,15.3 13.2,43 0,0.2 0.1,0.5 0.1,0.7 1,5.6 -1.8,11.5 -5,13.4"
   id="path911" />
	<path
   d="m 354.6,461 c -0.2,0 -5.1,-1.1 -5.8,-8.3 -0.7,-7.2 -0.5,-13.5 -3.4,-23.4 -3.7,-12.7 -6.2,-14.8 -6.2,-14.8 -0.1,-0.1 -0.2,-0.3 -0.1,-0.5 0.1,-0.1 0.3,-0.2 0.5,-0.1 0.1,0.1 2.7,2.1 6.5,15.2 2.9,10 2.7,16.8 3.4,23.5 0.7,6.8 5.1,7.7 5.2,7.7 0.2,0 0.3,0.1 0.3,0.3 -0.1,0.2 -0.3,0.4 -0.4,0.4"
   id="path913" />
	<path
   d="m 344.9,462 c -0.3,0.3 -0.7,-0.3 -0.4,-0.5 0,0 2.2,-1.6 3.1,-4.1 1,-2.5 1,-5.2 1,-5.3 0,-0.2 0.1,-0.3 0.3,-0.3 0.2,0 0.3,0.1 0.3,0.3 0,0.1 -0.1,2.9 -1.1,5.5 -0.9,2.7 -3.1,4.3 -3.2,4.4"
   id="path915" />
	<path
   d="m 358.3,466.4 c -0.2,0.4 -0.8,0.1 -0.6,-0.3 0,-0.1 3,-6.1 3.5,-11.6 0.1,-0.8 0.1,-1.6 0.1,-2.4 -0.1,-5.1 -2.2,-11.2 -6.5,-22.9 -5.1,-13.7 -11.5,-18.6 -11.6,-18.7 -0.3,-0.3 0,-0.8 0.4,-0.5 0.3,0.2 6.7,5.1 11.8,19 4.3,11.8 6.4,17.9 6.5,23.1 0,0.8 0,1.7 -0.1,2.5 -0.4,5.7 -3.4,11.8 -3.5,11.8"
   id="path917" />
	<path
   d="m 367,465.1 c -0.1,0 -0.2,-0.1 -0.3,-0.2 -2.4,-4.4 -4.1,-7.2 -5.3,-12.7 0,-0.2 0.1,-0.3 0.3,-0.4 0.2,0 0.3,0.1 0.4,0.3 0,0 0.9,4.5 2.9,8.1 l 2.4,4.4 c 0,0.2 -0.2,0.5 -0.4,0.5"
   id="path919" />
	<path
   d="m 363.6,472.4 c -4.4,3 -8,-11.7 -9,-16.9 0,-0.2 -0.1,-0.3 -0.1,-0.3 0,-0.2 0.1,-0.3 0.2,-0.4 0.2,0 0.3,0.1 0.4,0.2 0,0 0,0.1 0.1,0.3 0.9,4.3 4.4,19 8,16.5 1.9,-1.2 3.1,-3.6 3.7,-7.1 1.7,-9.6 -2,-24.4 -5.9,-33.5 -5.9,-13.9 -16.8,-22 -16.9,-22.1 -0.1,-0.1 -0.2,-0.3 -0.1,-0.5 0.1,-0.2 0.3,-0.2 0.5,-0.1 0.1,0.1 11.2,8.3 17.1,22.3 3.9,9.3 7.6,24.1 5.9,33.9 -0.5,3.8 -1.9,6.4 -3.9,7.7"
   id="path921" />
	<path
   d="m 371.5,446.1 c -0.8,0 0.2,-1.4 -3,-11.1 -4.4,-13.2 -18.7,-25 -21.4,-27.2 -0.2,-0.1 -0.3,-0.2 -0.3,-0.2 -0.1,-0.1 -0.1,-0.3 0,-0.5 0.1,-0.1 0.3,-0.2 0.5,0 0,0 0.1,0.1 0.2,0.2 2.8,2.2 17.2,14.1 21.7,27.5 1.5,4.3 2.3,7.9 2.7,11 -0.1,0.1 -0.2,0.3 -0.4,0.3"
   id="path923" />
	<path
   d="m 370.2,457.3 c -0.2,0 -0.4,-0.2 -0.3,-0.4 1.3,-3.5 1.8,-6.5 1.2,-11 -0.1,-0.4 0.6,-0.5 0.6,-0.1 0.5,3.9 0.3,7.5 -1.3,11.3 0.1,0.1 0,0.2 -0.2,0.2"
   id="path925" />
	<path
   d="m 378.6,451.4 c -1,0 -2.3,-0.3 -3.9,-1.7 -1,-0.8 -3.1,-2.7 -3.5,-3.9 -0.2,-0.3 0.4,-0.7 0.6,-0.2 0.2,0.4 0.9,1.5 3.3,3.5 2.8,2.3 4.6,1.3 4.7,1.3 0.2,-0.1 0.4,0 0.4,0.1 0,0.1 0,0.4 -0.1,0.4 0,0.2 -0.6,0.5 -1.5,0.5"
   id="path927" />
	<path
   d="m 382.2,448.2 c -0.3,0.3 -0.8,-0.1 -0.5,-0.4 0,0 2.9,-3.9 1.2,-9.2 -0.1,-0.3 -0.2,-0.6 -0.3,-0.9 -2.4,-6.9 -8.5,-17.3 -17.5,-23.6 -8.8,-6.1 -15.4,-7.9 -15.5,-7.9 -0.4,-0.1 -0.3,-0.7 0.2,-0.6 0.1,0 6.8,1.8 15.7,8 9.2,6.4 15.3,16.9 17.8,23.9 0.1,0.3 0.2,0.6 0.3,0.9 1.7,5.6 -1.2,9.6 -1.4,9.8"
   id="path929" />
	<path
   d="m 377,463.2 c -2.8,2 -5.6,-3 -7.1,-6.1 -2.1,-4.5 -4,-10.5 -4,-10.7 0,-0.2 0.1,-0.3 0.3,-0.3 0.2,0 0.3,0.1 0.3,0.3 1.4,4.5 6.4,19.1 10.1,16.3 2.4,-1.8 3.5,-6 3,-11.8 -0.3,-3.6 -1.1,-7.6 -2.4,-11.3 -0.1,-0.2 0,-0.4 0.2,-0.4 0.2,-0.1 0.4,0 0.4,0.2 1.3,3.7 2.2,7.8 2.5,11.4 0.5,6.1 -0.6,10.5 -3.3,12.4"
   id="path931" />
	<path
   d="m 386.8,451.3 c -0.5,0.5 -1.2,0.8 -1.9,0.8 -3.3,-0.3 -9.7,-20.4 -19,-31.6 -7.7,-9.2 -16.7,-12.7 -17.6,-13 -0.4,-0.1 -0.3,-0.6 0.1,-0.6 0,0 0.1,0 0.2,0 1,0.3 10,3.7 17.9,13.2 9,10.8 15.9,31.1 18.6,31.4 0.5,0 1,-0.2 1.4,-0.6 1.2,-1 2.5,-3.5 2.6,-7.5 0.2,-3.6 -0.6,-10.9 -7.7,-19.6 -4.3,-5.4 -9.9,-9.9 -16.5,-13.4 -7.9,-4.2 -14.6,-5.5 -14.6,-5.5 -0.4,-0.1 -0.3,-0.7 0.1,-0.6 0.1,0 6.8,1.3 14.8,5.6 6.7,3.6 12.3,8.1 16.7,13.6 7.2,8.9 8,16.4 7.8,20.1 -0.2,3.9 -1.6,6.5 -2.9,7.7"
   id="path933" />
	<path
   d="m 389.3,443.7 c -0.2,0 -1.3,-0.1 -3.6,-1.5 -1.1,-0.7 -2.3,-2.8 -3.1,-4.4 -0.1,-0.3 0.1,-0.5 0.3,-0.5 0.2,0 0.3,0.1 0.3,0.3 0,-0.1 0,-0.1 0,0 1,2.1 2,3.6 2.8,4.1 2.3,1.4 3.2,1.4 3.3,1.4 0.4,-0.1 0.5,0.5 0,0.6"
   id="path935" />
	<path
   d="m 396.4,377.9 c -0.2,0.1 -0.4,0.1 -0.6,0 -0.3,-0.2 -0.5,-0.8 0.7,-4.6 l 0.2,-0.7 c 0.1,-0.4 0.8,-0.2 0.6,0.2 -0.3,0.9 -1.1,3.5 -1.1,4.4 1.1,-0.7 4,-3.6 5.2,-10.5 1.3,-7.3 -1.7,-11.6 -2.5,-14.6 -0.7,-2.5 -0.3,-3.6 0,-4.2 0.3,-0.6 0.9,0 0.6,0.3 0,0 0,0 0,0.1 -0.2,0.3 -0.5,1.3 0.1,3.6 0.8,3 3.9,7.4 2.6,14.9 -1.4,7.6 -4.6,10.6 -5.8,11.1"
   id="path937" />
	<path
   d="m 389.6,386 c -0.4,0 -0.5,-0.5 -0.1,-0.6 0.2,-0.1 0.8,-0.8 3.1,-4.3 1.9,-2.8 3.3,-6.1 4,-7.8 0.8,-1.8 1.2,-3.2 1.2,-3.2 0.1,-0.2 0.2,-0.3 0.4,-0.2 0.2,0.1 0.3,0.2 0.2,0.4 0,0 -0.5,1.4 -1.2,3.2 -0.7,1.7 -2.2,5 -4.1,7.9 -2.8,4.2 -3.3,4.6 -3.5,4.6"
   id="path939" />
	<path
   d="m 377,401.2 c -0.8,0 -1.1,-0.5 -0.8,-0.8 0.2,-0.3 2,-3 2,-3 l 0.5,0.4 c 0,0 -1.4,2.1 -1.9,2.8 2.5,0.5 10.3,-7.1 12.2,-14.7 0.2,-0.8 1.1,-4.2 1.9,-4.7 0.4,-0.2 0.7,0.3 0.4,0.5 -0.6,0.5 -1.4,3.8 -1.6,4.3 -1.1,4.2 -4.1,9.1 -7.9,12.5 -2.3,2.1 -3.9,2.7 -4.8,2.7"
   id="path941" />
	<path
   d="m 364.9,410.3 c -0.4,0 -0.5,-0.3 -0.4,-0.5 0.1,-0.2 0.3,-0.2 0.4,-0.1 0.2,0 1.2,-0.2 5,-3.2 2.8,-2.3 4.9,-6.3 6.2,-7.9 0.6,-0.7 1.3,-1.2 2.2,-1.4 0.9,-0.2 1.6,-0.1 1.6,-0.1 0.2,0 0.3,0.2 0.3,0.4 0,0.2 -0.2,0.3 -0.4,0.3 0,0 -0.6,-0.1 -1.3,0.1 -0.8,0.2 -1.4,0.6 -1.9,1.2 -1.4,1.8 -3.4,5.6 -6.3,8 -1,0.7 -4.1,3.2 -5.4,3.2"
   id="path943" />
	<path
   d="m 366,404.8 c -2,0 -2.5,-3.3 0.8,-4.7 0.2,-0.1 0.4,0 0.4,0.2 0.1,0.2 0,0.4 -0.2,0.4 -2.3,1 -2.3,3 -1.4,3.4 1.8,0.9 4.4,-4.9 5.7,-4.7 0.3,0.1 0.3,0.6 -0.1,0.6 -1,0.5 -3.1,4.8 -5.2,4.8"
   id="path945" />
	<path
   d="m 392.6,371.8 c -0.3,0 -0.5,-0.1 -0.6,-0.3 -0.5,-0.9 0.5,-3.2 0.4,-5.6 -0.2,-2.3 -0.8,-4.3 -0.8,-4.5 0,-0.2 0.1,-0.3 0.3,-0.3 0.2,0 0.3,0.1 0.3,0.3 0.2,0.7 0.7,2.6 0.8,4.5 0.1,1.3 -0.1,2.5 -0.3,3.5 -0.1,0.7 -0.2,1.5 -0.2,1.8 0.4,-0.2 1.5,-1.8 2.1,-4.4 0.6,-3 -0.3,-6.4 -0.3,-6.4 -0.1,-0.4 0.5,-0.6 0.6,-0.2 0,0.1 1,3.5 0.3,6.7 -0.4,2.5 -1.7,4.8 -2.6,4.9"
   id="path947" />
</g>
<path
   style="fill:#ffffff;stroke-width:0.591368"
   d="M 199.53979,364.28398 C 143.20847,359.90319 92.751334,326.07378 66.969383,275.40105 51.239009,244.48403 45.908197,209.22197 51.742402,174.67816 60.758479,121.29477 96.338073,75.630312 146.3167,53.297221 c 19.37442,-8.657516 38.9922,-13.056996 61.00741,-13.681513 28.40867,-0.805884 53.24923,4.744905 78.41263,17.521822 47.07817,23.904318 78.83422,68.08294 87.38929,121.5749 1.49532,9.34972 1.8087,30.6785 0.60389,41.10006 -8.29181,71.72367 -61.36057,128.80917 -132.20303,142.20937 -11.67102,2.20764 -29.99396,3.19481 -41.9871,2.26212 z m 17.34007,-43.33036 c 1.82278,-2.16625 2.76357,-6.34115 2.7756,-12.31724 l 0.009,-4.554 2.25157,4.13958 c 1.25073,2.2995 2.94324,4.52847 3.80762,5.01448 1.42354,0.80041 1.69683,0.77051 3.2094,-0.35108 2.27534,-1.68718 3.05928,-4.34836 3.09841,-10.51797 l 0.0333,-5.26319 1.77781,2.4542 c 2.00346,2.76569 3.37604,3.06612 5.1336,1.12362 2.56939,-2.83974 3.26663,-8.64162 1.73138,-14.40719 -2.17076,-8.15224 -9.8538,-18.09197 -18.00422,-23.2925 -2.29385,-1.46364 -4.18625,-2.82538 -4.20534,-3.02609 -0.0191,-0.20073 1.00343,-1.05194 2.27225,-1.8916 1.2688,-0.83966 3.17673,-2.73783 4.23982,-4.21816 1.45335,-2.02376 2.31926,-2.6915 3.49024,-2.6915 3.33281,0 9.19138,-5.98952 11.94294,-12.20986 1.73716,-3.92707 6.41303,-10.85348 7.32699,-10.85348 1.22931,0 3.62962,-3.30287 5.04307,-6.93935 1.94583,-5.0062 1.84547,-10.90288 -0.28903,-16.98155 -1.55717,-4.43455 -1.59727,-4.79224 -0.70626,-6.30061 0.51956,-0.87953 0.94748,-2.35644 0.95094,-3.28201 0.007,-1.92199 3.72077,-6.98699 5.9305,-8.08866 0.77109,-0.38443 2.32366,-2.25245 3.45015,-4.15116 2.22949,-3.75782 7.29656,-8.07112 9.4816,-8.07112 1.62845,0 2.67802,-0.54226 8.63006,-4.45866 5.41051,-3.56009 9.34045,-5.31052 19.92798,-8.87612 7.06139,-2.37809 10.75605,-4.42106 9.45242,-5.22674 -1.23081,-0.76068 -10.77641,1.07511 -16.89049,3.24834 -8.01984,2.85064 -14.25768,4.16299 -19.26512,4.05312 -2.12818,-0.0467 -4.73799,0.10343 -5.7996,0.3336 -2.7779,0.6023 -5.1835,-0.6176 -6.86036,-3.47893 -1.89989,-3.24194 -3.70213,-4.80338 -5.61221,-4.86237 -0.86029,-0.0266 -2.89475,-0.65587 -4.52101,-1.39844 -1.68342,-0.76869 -4.64657,-1.48038 -6.88035,-1.65255 -3.34082,-0.25748 -4.40927,-0.08 -7.19416,1.19496 -1.88006,0.86072 -3.7235,2.21245 -4.33577,3.17926 -0.58583,0.92505 -2.88118,3.64982 -5.10081,6.05503 -3.99765,4.33191 -7.6345,10.72019 -9.30239,16.34002 -0.54187,1.82582 -1.2531,2.68011 -3.05139,3.66512 l -2.34482,1.28439 -1.59302,-2.70884 c -7.06105,-12.0069 -11.38002,-18.28243 -15.46338,-22.46846 -7.72595,-7.92021 -18.0209,-17.71639 -18.98437,-18.06461 -1.64915,-0.59604 -19.82213,-25.3313 -26.18437,-35.63957 -3.41122,-5.526949 -6.61765,-10.311046 -7.1254,-10.631327 -1.38635,-0.874488 -2.07557,0.176885 -2.7956,4.264553 -0.50673,2.876764 -0.45952,4.250584 0.23233,6.760584 0.47756,1.73257 0.73955,4.29162 0.58221,5.68675 -0.31701,2.81084 0.53477,6.85414 2.14684,10.19073 1.01835,2.10773 1.01718,2.20966 -0.0328,2.86538 -1.41598,0.8843 -1.3736,3.23725 0.11752,6.52378 0.64915,1.43075 1.08105,2.70058 0.95978,2.82185 -0.12127,0.12126 -4.94411,-4.70696 -10.71743,-10.72938 -10.49795,-10.95112 -16.61449,-16.27876 -18.68907,-16.27876 -0.60683,0 -1.37881,0.51474 -1.71551,1.14386 -0.8908,1.66449 -0.72738,8.02151 0.32026,12.4576 0.49928,2.11414 0.88035,5.30753 0.84682,7.09641 -0.0932,4.96928 1.90783,10.69068 4.58143,13.09963 1.71914,1.54898 2.17188,2.36142 2.02509,3.63401 -0.25493,2.20996 1.49306,6.60198 3.86344,9.70733 1.06899,1.40046 1.94361,3.1792 1.94361,3.95275 0,1.93534 3.35079,6.74486 6.20936,8.91256 1.83829,1.394 2.3262,2.13106 2.18925,3.30714 -0.18843,1.61811 3.71196,7.12981 5.85834,8.27852 0.78949,0.42252 1.02946,1.00206 0.79754,1.92609 -0.4345,1.73119 1.76503,5.00002 4.60868,6.84917 1.25904,0.81872 2.00665,1.69302 1.76986,2.06979 -1.13082,1.79932 1.54302,6.19211 4.51953,7.42502 1.56957,0.65014 1.69537,0.87436 1.0709,1.90878 -0.6225,1.03114 -0.40092,1.4466 1.84248,3.45468 1.40254,1.25543 3.74378,2.73847 5.20276,3.29566 1.74208,0.6653 2.54779,1.28642 2.34712,1.80936 -0.4471,1.16512 2.96235,4.7705 5.31612,5.62163 1.48999,0.53879 2.02927,1.0862 2.02927,2.05988 0,1.7331 1.83633,2.96402 5.71758,3.83261 2.50802,0.56127 3.01144,0.86238 2.49074,1.48979 -1.54387,1.86024 1.42764,5.53264 4.47672,5.53264 0.57596,0 0.91642,0.5333 0.91642,1.4355 0,0.81787 0.62154,1.92439 1.44461,2.57182 l 1.44461,1.13633 -1.7775,5.52736 c -2.92248,9.08781 -4.06519,15.77704 -3.91286,22.90515 0.0745,3.48764 -0.10098,8.00438 -0.39002,10.0372 -0.48993,3.44568 -0.44772,3.69605 0.62317,3.69605 0.63179,0 1.46804,-0.31934 1.85835,-0.70964 0.3903,-0.3903 0.70964,-0.54981 0.70964,-0.35445 0,0.19536 0.51133,3.37543 1.13629,7.06685 1.98884,11.74735 2.0753,15.58788 0.58962,26.19087 -1.2679,9.04863 -1.27957,11.56758 -0.0536,11.56758 0.85642,0 6.06518,-4.80977 7.79541,-7.19828 l 1.59944,-2.20797 0.37406,4.42511 c 0.4972,5.88185 1.56816,7.93798 4.13459,7.93798 2.46118,0 4.7581,-2.28823 6.2548,-6.23111 l 1.0886,-2.86783 0.44413,2.03616 c 0.58698,2.69112 3.05091,8.23004 4.25088,9.55599 1.41869,1.56763 3.42393,1.29175 5.10143,-0.70185 z"
   id="path2214" /><path
   style="fill:#ffffff;stroke-width:0.591368"
   d="M 199.53979,364.28398 C 132.36269,359.05973 74.818588,312.23524 55.885172,247.39007 44.475613,208.31341 48.157885,166.87199 66.31626,129.99537 c 13.6098,-27.63922 35.42482,-51.287637 62.25941,-67.49186 20.13319,-12.157549 41.71383,-19.394605 66.23318,-22.211266 10.36972,-1.191222 30.50862,-0.879993 40.213,0.621458 23.7067,3.667873 46.96468,12.478038 65.9375,24.97724 39.30063,25.891078 64.58574,65.420448 72.16668,112.821488 1.49532,9.34972 1.8087,30.6785 0.60389,41.10006 -8.29677,71.76658 -61.33453,128.81912 -132.20303,142.21035 -11.68083,2.2072 -29.99706,3.19359 -41.9871,2.26114 z m 17.38171,-43.50732 c 1.87612,-2.45971 2.68462,-5.99136 2.73878,-11.96334 l 0.0429,-4.73094 1.68235,3.25642 c 1.77791,3.44143 4.43879,6.50115 5.65371,6.50115 1.45247,0 3.81663,-2.47098 4.41071,-4.61 0.33464,-1.2049 0.60992,-4.42611 0.61173,-7.15824 l 0.004,-4.96751 1.77781,2.4542 c 1.91771,2.64732 3.39669,3.06843 4.90871,1.39766 4.24681,-4.69268 3.44433,-14.31052 -1.96236,-23.51906 -2.53498,-4.31753 -11.10359,-12.94197 -15.24239,-15.34172 -1.68286,-0.97576 -3.06504,-1.93833 -3.07149,-2.13904 -0.006,-0.20073 1.02638,-1.05194 2.29519,-1.8916 1.26881,-0.83966 3.17674,-2.73783 4.23983,-4.21816 1.41783,-1.9743 2.33106,-2.6915 3.42711,-2.6915 3.30788,0 9.28821,-6.06569 11.98005,-12.15106 1.75831,-3.97549 6.43249,-10.91228 7.35273,-10.91228 1.23577,0 3.6347,-3.31293 5.02484,-6.93935 1.93116,-5.03775 1.82265,-10.94587 -0.31115,-16.94064 -1.58,-4.43891 -1.61282,-4.73852 -0.69007,-6.3006 0.53284,-0.90204 0.97164,-2.39736 0.9751,-3.32293 0.007,-1.91681 3.71769,-6.98462 5.91927,-8.08448 0.76492,-0.38214 2.28487,-2.22553 3.37766,-4.09643 2.16982,-3.7148 7.36452,-8.13003 9.56532,-8.13003 1.63416,0 2.69606,-0.5505 8.63633,-4.47709 5.51882,-3.64801 7.93318,-4.74388 18.26271,-8.28939 12.30846,-4.22475 15.03722,-6.77123 5.9383,-5.54165 -2.58068,0.34875 -7.75248,1.66483 -11.49288,2.92464 -10.00713,3.37051 -10.79278,3.53665 -19.65242,4.1557 -9.41263,0.65769 -10.39746,0.40524 -12.51506,-3.20817 -1.88259,-3.2124 -3.68943,-4.77297 -5.5943,-4.8318 -0.86029,-0.0266 -2.89475,-0.65587 -4.52101,-1.39844 -1.69833,-0.77549 -4.64818,-1.48039 -6.93063,-1.65614 -3.48588,-0.26842 -4.37801,-0.10822 -7.26612,1.3048 -1.8108,0.88594 -3.73956,2.31823 -4.28615,3.18286 -0.54658,0.86464 -2.66306,3.39793 -4.70327,5.62953 -4.26162,4.66141 -6.43827,8.274 -8.81928,14.63738 -1.42428,3.80645 -2.02645,4.6988 -3.89754,5.77565 l -2.21298,1.27364 -1.37563,-2.22745 c -0.7566,-1.2251 -3.40458,-5.55389 -5.88441,-9.61954 -5.17647,-8.48676 -8.65844,-12.69473 -16.51842,-19.96257 -3.07551,-2.84381 -6.76852,-6.46458 -8.2067,-8.04617 -1.43817,-1.58159 -3.17725,-3.08944 -3.86463,-3.35078 -1.92712,-0.73269 -19.53002,-24.51149 -26.46969,-35.75646 -6.2863,-10.18626 -7.53931,-11.722314 -8.65342,-10.608204 -1.20613,1.206127 -1.86749,7.050044 -1.14227,10.093264 0.37698,1.58188 0.7228,5.00508 0.76849,7.6071 0.0656,3.73588 0.40666,5.42621 1.62153,8.03657 1.48236,3.18511 1.4981,3.33083 0.4318,3.99674 -1.43473,0.89601 -1.39914,3.23169 0.0996,6.53498 0.64915,1.43075 1.07648,2.70515 0.94963,2.832 -0.12686,0.12685 -4.3229,-4.07666 -9.32455,-9.34114 -9.95344,-10.476 -17.07877,-16.91506 -19.34876,-17.48479 -2.57961,-0.64744 -3.21855,1.04341 -2.83236,7.49542 0.18494,3.0899 0.62461,6.5494 0.97704,7.68778 0.35243,1.13839 0.70817,4.06566 0.79054,6.50505 0.17722,5.24849 1.94188,9.81749 4.74097,12.27518 1.39137,1.22166 1.80061,2.02828 1.6582,3.26835 -0.25463,2.21736 1.49088,6.60648 3.86344,9.7147 1.069,1.40046 1.94362,3.1792 1.94362,3.95275 0,1.93534 3.35079,6.74486 6.20936,8.91256 1.61067,1.22139 2.31088,2.17481 2.19439,2.98787 -0.21644,1.5106 2.98952,6.39974 5.25369,8.01196 1.28781,0.91701 1.63782,1.55263 1.39271,2.52923 -0.41849,1.66736 1.73338,4.92127 4.47744,6.77049 1.53239,1.03268 2.00761,1.73906 1.87104,2.7812 -0.27981,2.13527 1.43051,4.85878 3.96853,6.31948 1.98251,1.14099 2.19762,1.46362 1.61764,2.42618 -0.57276,0.95059 -0.3023,1.43837 1.88114,3.39278 1.40254,1.25543 3.74378,2.73847 5.20276,3.29566 1.74208,0.6653 2.54779,1.28642 2.34712,1.80936 -0.4471,1.16512 2.96235,4.7705 5.31612,5.62163 1.48999,0.53879 2.02927,1.0862 2.02927,2.05988 0,1.7331 1.83633,2.96402 5.71758,3.83261 2.50802,0.56127 3.01144,0.86238 2.49074,1.48979 -1.48068,1.7841 1.53399,5.53264 4.44949,5.53264 0.60479,0 0.94365,0.51548 0.94365,1.4355 0,0.81787 0.62154,1.92439 1.44461,2.57182 l 1.44461,1.13633 -1.76382,5.48485 c -2.94664,9.16291 -3.68194,13.37329 -3.77243,21.60104 -0.0465,4.22827 -0.30621,9.351 -0.57711,11.38382 -0.45768,3.43436 -0.41122,3.69605 0.65615,3.69605 0.63179,0 1.46804,-0.31934 1.85835,-0.70964 0.3903,-0.3903 0.70964,-0.54981 0.70964,-0.35445 0,0.19536 0.51507,3.37543 1.14461,7.06685 1.92391,11.28117 2.05716,16.3261 0.67473,25.54639 -1.39357,9.29456 -1.49656,11.3849 -0.5886,11.94604 0.84632,0.52306 4.38754,-2.37783 7.41161,-6.07145 l 2.433,-2.97166 0.36995,4.37655 c 0.47604,5.63162 1.59217,7.88942 3.90007,7.88942 2.44147,0 5.09839,-2.49723 6.41656,-6.03088 1.06609,-2.85788 1.14912,-2.93554 1.52739,-1.4284 0.80931,3.22454 2.81227,7.99464 3.98064,9.47999 1.6709,2.1242 3.67011,1.97617 5.48731,-0.40631 z"
   id="path2216" /></svg>
