<?xml version="1.0" encoding="utf-8"?>
<!-- Generator: Adobe Illustrator 24.0.2, SVG Export Plug-In . SVG Version: 6.00 Build 0)  -->
<svg version="1.1" id="Capa_1" xmlns="http://www.w3.org/2000/svg" xmlns:xlink="http://www.w3.org/1999/xlink" x="0px" y="0px"
	 viewBox="0 0 700 700" style="enable-background:new 0 0 700 700;" xml:space="preserve">
<style type="text/css">
	.st0{fill:none;stroke:#000000;stroke-width:4;stroke-miterlimit:10;}
	.st1{fill-rule:evenodd;clip-rule:evenodd;fill:#164F63;}
	.st2{fill:#3747BA;}
	.st3{fill:#98C3F8;}
	.st4{fill:#87B5F1;}
	.st5{fill:#75A7EA;}
	.st6{fill:#649AE3;}
	.st7{fill:#538CDC;}
	.st8{fill:#417ED5;}
	.st9{fill:#3070CE;}
	.st10{fill:#5ECCCC;}
	.st11{fill:#6BCDB5;}
	.st12{fill:#4B84DD;}
	.st13{fill:#78CD9D;}
	.st14{fill:#86CE86;}
	.st15{fill:#93CE6F;}
	.st16{fill:#C4DB60;}
	.st17{fill:#CFE173;}
	.st18{fill:#FF7C68;}
	.st19{fill:#A0CF57;}
	.st20{fill:#F9493A;}
	.st21{fill:#001033;}
	.st22{fill:#FE7461;}
	.st23{fill:#212B4F;}
	.st24{fill:#ADCF40;}
	.st25{fill:#FA5240;}
	.st26{fill:#0B193C;}
	.st27{fill:#92BD38;}
	.st28{fill:#F75647;}
	.st29{fill:#FB6655;}
	.st30{fill:#162246;}
	.st31{fill:#FFCB5B;}
	.st32{fill:#FFAF3B;}
	.st33{fill:#41466B;}
	.st34{fill:#FFDD70;}
	.st35{fill:#060807;}
	.st36{clip-path:url(#SVGID_2_);}
	.st37{clip-path:url(#SVGID_4_);}
	.st38{clip-path:url(#SVGID_6_);}
	.st39{clip-path:url(#SVGID_8_);}
	.st40{clip-path:url(#SVGID_10_);}
	.st41{clip-path:url(#SVGID_12_);}
	.st42{clip-path:url(#SVGID_14_);}
	.st43{clip-path:url(#SVGID_16_);}
	.st44{clip-path:url(#SVGID_18_);}
	.st45{clip-path:url(#SVGID_20_);}
</style>
<g>
	<path class="st3" d="M125.2,121.3c3.8-2.2,10.2,4.4,19.6,11.1c9.4,6.7,39.7,40.2,47.5,45.9c7.9,5.7,42.1,27.9,50.2,33.2l-0.1,0.2
		c-8-3.2-7.2-2.6-6.8,1.8c0.2,2.1,2.6,5.3,5.8,8.7c-1.1,1-1.4,3-1.4,3.4c-1-0.1-49.1-20.9-78.5-38.6c-5-3-10.4-7-14.1-10.2
		c-4.4-4-6.3-5.4-6.5-5.7c-5-4.6-9-8.9-11.8-11.5C123.3,153.8,121.4,123.5,125.2,121.3"/>
	<path class="st4" d="M126.8,162.4c0.5-3,14,8.8,14.3,8.9c6.2,5.7,12.9,11.3,20.3,15.7c29.1,17.6,77.4,38.5,78.5,38.6
		c-0.6,4.3,1.7,8.9,4.1,12.6l-0.4,0.3c0,0-38.6-11.9-68.4-26c-13.4-6.3-21.7-10.3-27.4-13.4c-7-3.8-9.8-6.1-12.9-9.3
		C129.4,184.1,125.8,168.8,126.8,162.4"/>
	<path class="st5" d="M207.9,240.6c-13.5-2.9-45.5-13.1-52.8-16.1c-5.9-2.5-14-20.5-13.2-24.3c0.6-3,4.1-1.7,5.8-1
		c0.3-0.5-2.2-0.8,27.5,13.2c29.9,14,68.4,26,68.4,26l0.4-0.3c0.7,1,1.4,2,2.2,3c0,0-0.7,3.6,0.1,7.7
		C246.3,248.8,227.2,244.7,207.9,240.6"/>
	<path class="st6" d="M161.2,226.8c0.5,0.1,29.8,10.2,46.7,13.8c19.2,4.1,38.4,8.2,38.4,8.2c0.9,5.1,3.2,7.7,6.6,10.1
		c0,0-0.2,2.1,0.2,4.6c-3.4,0.4-51.3-1.7-71.9-8.9c-18.5-6.5-24.8-19.8-26-25.3C154.6,225.8,158.4,226.1,161.2,226.8"/>
	<path class="st7" d="M183.6,255.4L183.6,255.4c21.8,6.7,67.3,8.4,69.6,8.1c0.3,1.7,0.9,3.7,2.1,5.2c1.6,2.2,2.9,4,5.5,6
		c-1.9-0.2-13.7-1.3-29.1,1.6c-11.1,2.1-31.5,4.9-40.8-1.3c-8.2-5.6-16.8-15.6-15.9-19C175.6,253.1,181.7,254.8,183.6,255.4"/>
	<path class="st7" d="M189,96.2c3.1-9.4,13.7,17.8,37.5,48.6c7.3,9.5,42.1,51.9,42.2,51.9c-1,3,4.9,13.9,6.6,16.3
		c0.6,0.9,1.7,2.5,3.1,4.4c-1.7-1.2-7.4-5.2-11-6c0,0-24.9-29.6-33.7-38.3c-8.9-8.7-33.8-36-39.9-44.3
		C185.4,117.3,185.1,108.1,189,96.2"/>
	<path class="st8" d="M190.1,123.4l0.2-0.1c0.9,1.8,2.1,3.6,3.5,5.5c6.1,8.3,31,35.6,39.9,44.3c8.8,8.7,33.7,38.3,33.7,38.4
		c-1.3-0.3-2.3-0.2-2.9,0.5c-2.3,2.9,5.8,13.3,7,14.9c-3.6-2.6-7.3-5-10.8-7.2c0,0-15.3-17-38.2-36.1c-22-18.3-26.4-26.7-31.3-38.1
		C186.8,135.3,190.1,123.4,190.1,123.4"/>
	<path class="st8" d="M196.2,277.6L196.2,277.6c9.2,2.5,23.3,1.1,35.4-1.1c15.4-2.9,27.2-1.8,29.1-1.6c0.8,0.6,1.8,1.3,2.9,2
		c0,0-1.8,5,1.1,10.7c-0.8,0.1-13.4,1.4-22,3.1c-8.9,1.8-14.9,6.8-29.3,5.9c-0.8-0.1-1.6-0.1-2.3-0.3c-12.9-1.7-19.6-10.4-20.5-15.2
		C189.6,275.8,196.2,277.6,196.2,277.6"/>
	<path class="st9" d="M192,160.9c2.2-5,5.4-2.6,5.4-2.6l0.3-0.2c4.3,6.4,11.2,14.1,24.8,25.5c22.9,19.1,38.2,36.1,38.1,36.2
		c-6.5-3.8-8.7-4.3-18.2-8.1l0.1-0.2c0,0-25.9-16.8-40.9-26.9C199.6,182.3,189.9,166,192,160.9"/>
	<path class="st9" d="M204.7,300.1c0.3-3,6.6-3.9,6.6-3.9c0.7,0.1,1.5,0.2,2.3,0.3c14.3,0.9,20.3-4.1,29.3-5.9
		c8.6-1.7,21.2-3.1,22-3.1c1.3,2.7,3.8,5.5,8,8.1c0.7,0.4,1.3,0.8,2,1.1l-0.2,0.3c0,0-0.5,1.7,0.3,4l-0.2,0.1c0,0-7.7,0.6-15,3.6
		c-12.2,4.9-23.6,10.1-36.2,10.2C211,314.9,204.4,303.1,204.7,300.1"/>
	<path class="st9" d="M217.7,319.4c0.1-3,13.3-5.2,13.3-5.2c9.7-1.6,19-5.6,28.7-9.6c7.5-3,14.5-3.4,15.2-3.7
		c1.1,3.1,4.4,7.5,14.4,10.7c-0.1,0.4-1.2,2.1-0.9,4.8c-0.9,0-6-0.2-9.3,0.6c-3.6,0.9-5,0.3-20.6,9.1c-4.9,2.7-8.3,4.5-10.8,5.6
		c-5.7,2.5-7.3,1.6-11.8,0.6C229.2,331.1,217.6,322.4,217.7,319.4"/>
	<path class="st10" d="M250.8,215c11.3,4.3,25,14.6,33.7,22.2c0,0-8-6.7-14-1.4c-4.1,3.7-0.8,9.3,1.8,12.7c0,0-9.2-7.5-15-12
		c-4.6-3.7-21.2-17.2-21.7-22.9C235.2,208,233.8,208.4,250.8,215"/>
	<path class="st11" d="M240,225.6c0.1-0.6,0.4-2.4,1.4-3.4c5.2,5.5,12.4,11.4,15.9,14.2c5.7,4.6,15,12,15,12
		c1.3,1.6,2.4,2.6,2.5,2.7c0.4,0.2-3.6-1.2-5,2.3c-0.7,1.8-0.1,4,1.1,6.1c-9.3-4.8-21.1-12.9-26.9-21.4
		C241.7,234.5,239.4,229.9,240,225.6"/>
	<path class="st12" d="M247.7,332l-0.1-0.2c2.6-1.1,5.9-2.9,10.8-5.6c15.7-8.8,17-8.2,20.6-9.1c3.3-0.8,8.5-0.7,9.3-0.6
		c0.6,4.9,6.4,8.8,10.9,9.8l-0.1,0.3c0,0,0.2,2.2,2,5c-1.1,0.1-10,1.2-15.9,3.2c-7.3,2.5-23.2,13.7-24.8,14.1
		c-6.7,3.3-19.3-6.8-20.3-9.8C239.2,336.1,246.8,332.4,247.7,332"/>
	<path class="st13" d="M246.3,241.1L246.3,241.1c8.6,10.2,23.9,18,24.7,18.4c2.8,5,9,9.7,9,9.7s-3.6-0.4-4.5,1.9
		c-6.1-2.7-22.3-10.6-26.3-15.6c-1.6-2.1-2.5-4.5-2.9-6.7C245.6,244.7,246.3,241.1,246.3,241.1"/>
	<path class="st14" d="M260.8,274.8c-2.6-2-3.8-3.9-5.5-6c-1.2-1.6-1.8-3.5-2.1-5.2c-0.4-2.5-0.2-4.6-0.2-4.6
		c7.8,5.7,22.5,12.2,22.6,12.3c-0.1,0.3-0.1,0.5-0.2,0.9c-0.2,5.3,7.4,11.4,11.9,14.7c0,0-4.1-1.6-15.8-6.3
		C268,279.1,263.7,277.1,260.8,274.8"/>
	<path class="st7" d="M284.3,359.2c-11.1,4.4-23-0.6-26.2-3.3c-2.9-2.5,1.2-6.2,2.4-7.1c1.3-0.3,18-11.8,24.8-14.1
		c5.9-2,14.9-3.1,16-3.2c2.8,4.2,8.3,7.7,14.7,7.5l0,0.5c0,0-1.6,2.2-2.9,5.6C284.3,359.3,285.6,358.7,284.3,359.2"/>
	<path class="st15" d="M263.6,276.8L263.6,276.8c3.8,2.2,8.9,4.2,23.7,9.9c1.9,1.3,3.2,2.1,3.2,2.1s-4.4-0.8-2.7,5.9
		c0.4,1.6,1.8,3.4,3.8,5.2c-0.7,0.6-7.3,2-16.9-3.2c-0.6-0.4-1.3-0.7-2-1.1c-4.2-2.6-6.6-5.4-8-8.1
		C261.8,281.8,263.6,276.8,263.6,276.8"/>
	<path class="st16" d="M264.5,212c2-2.6,11.2,3.5,14,5.5c3.3,4.5,11.6,15.5,11.9,16l0.4-0.1c1.4,6.1,4.9,13,5.6,14.2
		c-7.2-6.7-16.6-14.8-24.9-20.7C270.2,225.3,262.1,214.9,264.5,212"/>
	<path class="st17" d="M290.3,233.5c-1.6-2.1-6.8-9.3-15.1-20.4c-1.8-2.6-9.1-16.1-5.9-17.1c3.3-1.1,9.2,8.3,15.3,13.8
		c2.7,2.4,8.6,7.3,14.9,12.8c-1.4-0.6-5.8-2.2-8.6,2.7c-1.1,1.9-0.9,4.8-0.2,8L290.3,233.5"/>
	<path class="st18" d="M269.8,253.4c1.4-3.5,5.5-2.1,5-2.3c-0.2-0.1-1.3-1.1-2.5-2.7c-2.7-3.3-6-9-1.9-12.6c6.1-5.3,14,1.4,14.1,1.3
		c2.7,2.3,5.3,4.5,7.8,6.8l-0.1,0.1c0,0-4.7-2.8-7.4,1.6c-2.6,4.2,12.1,15.7,13,16.4c-0.5-0.3-6.5-4.2-8.4,1.4
		c-2,5.8,10,15.1,10,15.1s-5.3,0.9-3.1,8.1c2.2,7.2,8.3,6.6,8.3,6.6s-3.3,5.1-1.3,9.3c1.9,4.2,3.7,6.6,5.7,7.8l-0.4,0.6
		c-5.4-2.7-19.2-10.4-20.6-16.1c-1.7-6.7,2.7-5.9,2.7-5.9c-5.2-3-15.5-10.7-15.2-16.7c0.3-3.2,4.1-2.9,4.6-2.9
		C275.7,265.9,267.9,258.3,269.8,253.4"/>
	<path class="st19" d="M274.6,297l0.2-0.3c10.6,5.7,16.8,3.3,16.8,3.3l0.2-0.1c6,5.5,16.8,10.9,16.8,10.9c0,0-12,3-18,1.2
		c-6.1-1.6-13.8-5.3-15.7-11C274.1,298.6,274.6,297,274.6,297"/>
	<path class="st6" d="M275.2,367.1c1.6-3.9,7.4-7,9.2-7.9c2.9-1.1,28.6-14.2,28.9-14.2c-1.3,3.6-2.2,8.6,0.2,13.5
		c0.4,0.8,0.7,1.5,1.1,2.2l-0.6,0.3c-4.4,3.5-16.9,13-22.5,14.7C285,377.7,273.2,371.7,275.2,367.1"/>
	<path class="st20" d="M283.2,460.8c0.9-4.5,0.2-8.9-0.5-13.3c0.3-0.2,2.7-1.7,5.7-5.9c0-0.1,0.1-0.1,0.2-0.1c0,0,0.6,3.6,4.7,4.3
		c0.5,0.1,1.1,0,1.6,0c0,0,0,6.7-0.7,12.7c-0.7,5.8-1.9,10.9-6.7,15.7c-1.7,1.7-3.6,2.9-5.5,3.6
		C277.1,479.5,281.8,468.1,283.2,460.8"/>
	<path class="st21" d="M282,439.3c0.1-7.3,5.4-28.6,5.4-28.6l0.4,0.1c-1,5-1.1,11,2.6,14.7c1.2,1.1,2.3,1.6,3.4,1.5l0,0.2
		c0,0-2.3,9.7-5.4,14.2c-0.1,0.1-0.1,0.1-0.1,0.2c-3,4.1-5.3,5.7-5.7,5.9C282.3,444.8,282,442.1,282,439.3"/>
	<path class="st22" d="M330.1,307.1c-15.4,3.6-20.5,9.1-26.9-4.7c-1.9-4.2,1.3-9.3,1.3-9.3s-6.1,0.6-8.3-6.6
		c-2.2-7.2,3.1-8.1,3.1-8.1s-12-9.2-10-15.1c1.9-5.5,7.9-1.7,8.4-1.4c-0.9-0.7-15.6-12.2-13-16.4c2.7-4.3,7.4-1.6,7.4-1.6l0.1-0.1
		c10.6,9.5,14.9,13.9,24.5,27.1c0,0-8.5-9.1-10.6-6.2c-2.1,2.8,8.8,13.6,9.5,14.3c-0.5-0.3-6.4-3.9-7.4-0.7c-1,3.3,7.9,8.4,7.9,8.4
		s-5.8-0.9-5.7,2.7c0.1,3.6,9,6.8,9,6.8s-6.6,0.7-3.8,5.3c2.2,3.6,6.5,1.9,8,1.1c-1.2,0.7-3.9,2.6-2.6,4
		C322.7,308.6,328.1,307.5,330.1,307.1"/>
	<path class="st21" d="M315.2,541.7c0.1,5-3,10.4-6.1,14.4c-6.6-5.4-12.5-31.6-14.1-39.6c-1.7-19.6-7.2-42-7.2-42l-0.4-0.3
		c2.6-2.6,4.7-6.1,5.7-9.9c0.4-1.6,0.7-3.7,1.1-5.8c0,0,1.4,4,4.1,4.3C299.8,465.1,313.5,489.5,315.2,541.7"/>
	<path class="st23" d="M399.6,398.9l-0.2,0.1c0,0-6.9,13.1-15.1,11.5c-3.8-0.7-1.5-0.7-4.9-0.5c0,0-8.7,9-16.3,12.4
		c-6.7,3-19.7,3.3-21.2,3.3c0.4-2.9,0.3-5.4,0.3-5.4s1.2,3.4,6.7-0.4c5.4-3.8-0.5-22.1-0.5-22.1l-0.3,0c0.3,3.9,0.2,10-3.4,12.6
		c-8,5.9-9.3-4-9.3-4s0.3,3.9-3.8,8.4c-1.6,1.7-3.8,3.6-6.9,5.3c-9.2,5.1-6.1-12.9-6.9-12c-0.8,0.9,1.2,13.1-10.2,19.6
		c-7.5,4.3-5-10-5-10s-4.1,9-8.8,9.3c-1.1,0.1-2.3-0.3-3.4-1.5c-3.7-3.7-3.6-9.7-2.6-14.7c1-5.1,2.9-9.2,3.1-9.1
		c-0.6,3-0.7,5.6,0.6,6.8c3.6,3.5,7.6-5.3,8.1-6.3c-0.3,1.1-2.6,9.6,2.4,10.1c5.4,0.6,9.2-4.4,10.4-10c1.2-5.2,4.3-6.6,4.7-6.7
		c-0.1,0.2-0.8,2.4,2.3,3c4.2,0.8,7.7-3.6,8.6-12.6c0.8-8,3.5-13.9,4.1-15.2c-8.5,1.7-15.2-4.9-18.7-12.3c-2.3-4.8-1.5-9.8-0.2-13.5
		c1.2-3.3,2.8-5.6,2.8-5.6l0-0.5c4.5-0.1,7.8-1.9,7.8-1.9l4-0.3c3.9,2,8.8,2.1,9.3,2.1c-0.6,0.3-7.8,4.2-4.1,11.8
		c3.8,7.9,17.6-0.3,17.6-0.3s-5.7,8.5,0,12.1c10.3,6.5,21.4-8,21.4-8s0.6,9.3,5.6,10.6c5,1.3,11.4-2.9,17.4-15
		c5.8-11.7,3.9-26,3.8-26.8c0.2-0.8,0.4-1.8,0.4-2.8c1.2,1.4,9.3,11.2,13.5,32c4.5,22.4-3.8,51-9.8,50.3
		C400.9,402.4,399.9,400.9,399.6,398.9"/>
	<path class="st5" d="M293.3,375L293.3,375c7.2-3.3,20.6-14.1,20.6-14.1l0.6-0.3c4.1,7.3,9.2,9.6,12.9,10.2l-0.1,0.5
		c0,0-13.7,17.9-18,20.4c-4.2,2.5-19.2-7.5-20.8-10.6C287,378.4,293.3,375,293.3,375"/>
	<path class="st24" d="M288.4,316.4c-0.3-2.7,0.8-4.6,0.8-4.6c0.1-0.3-0.1-0.2,1.3,0.2c6,1.8,18-1.2,18-1.2l0.4-0.6
		c2.3,1.5,4.9,1.3,8.3,0.5c-0.4,0.7-2.6,4.8,0.3,8.9c1.2,1.7,2.9,2.6,4.7,3.2c-1.3,0.5-13.8,5.6-23,3.5
		C294.9,325.2,289.1,321.3,288.4,316.4"/>
	<path class="st21" d="M288.5,441.4c3.2-4.5,5.4-14.2,5.4-14.2l0-0.2c4.7-0.3,8.8-9.3,8.8-9.3s-2.5,14.3,5,10
		c11.4-6.6,9.4-18.7,10.2-19.6c0.8-0.9-2.3,17.1,6.9,12c3.1-1.7,5.3-3.5,6.9-5.3l0.2,0.2c0.2,4.9-1.2,11.8-5.2,15
		c-5.6,4.5-11.4-0.2-11.4-0.2s-0.2,12-7.3,12.3c-0.4,0-0.7,0-1,0c-6-0.6-5.2-9.6-5.2-9.6c-0.9,4.3-3.8,13.9-8.5,13.2
		C289.2,445.1,288.6,441.5,288.5,441.4"/>
	<path class="st25" d="M290.9,225.3c2.8-4.9,7.3-3.4,8.6-2.7c3.7,3.2,7.6,6.5,11.1,9.8c-1.6-0.8-4.3-1.7-6.4,0.2
		c-3.8,3.4,5.2,15,10.1,24.1c-0.6-0.4-5.6-4-8.2-4.3c-2.8-0.3-4.6-0.5-4.6-0.5l-0.2,0.2c-1.5-1.4-3.1-3-4.9-4.6
		C293.8,242.7,288.2,230.2,290.9,225.3"/>
	<path class="st26" d="M317.1,395.6c-0.4,0.1-3.5,1.5-4.7,6.7c-1.3,5.6-5,10.6-10.4,10c-4.9-0.5-2.7-9-2.4-10.1
		c-0.5,1-4.5,9.8-8.1,6.3c-1.3-1.2-1.2-3.8-0.6-6.8c1.3-6.2,5.1-14.1,5.2-14.2c4.9,3.1,10.7,5.7,13.1,4.3c4.3-2.6,18-20.4,18-20.4
		l0.1-0.5c2.5,0.4,4.3,0,4.7-0.1c-0.6,1.3-3.3,7.2-4.1,15.2c-0.9,9-4.4,13.4-8.6,12.6C316.3,398,317,395.8,317.1,395.6"/>
	<path class="st10" d="M295.3,530.5c0.2-4.2,0.1-9-0.4-14c1.7,8,7.5,34.2,14.1,39.6c-5,6.5-11.8,12.4-16.1,15.1
		C285.6,576,294.2,551.2,295.3,530.5"/>
	<path class="st25" d="M298.3,462.8c-2.8-0.3-4.1-4.3-4.2-4.3c0.4-3.8,0.9-12.3,0.7-12.9c4.7-1.6,6.9-13.1,6.9-13.1s-0.8,9,5.2,9.7
		c0.1,5.2-0.7,14.1-4.2,18.2c-0.2,0.3-0.4,0.5-0.7,0.7C300.6,462.5,299.4,462.9,298.3,462.8"/>
	<path class="st26" d="M302.1,461.2c0.9-0.8,0.5-0.9,0.9-0.6c0,0,5.9,4.1,14.7,32.4c6.5,21,6.2,34.6,7.6,49.6c0,0-0.1,6.1-2.4,11.6
		c-2.3,5.5-7.4,9.2-7.5,9.2c-0.7-7-0.6-14.6-0.5-18.7c0.3-1.1,0.3-2.1,0.3-3.1c-1.7-52.2-15.4-76.5-16.8-78.9
		C299.4,462.9,300.6,462.5,302.1,461.2"/>
	<path class="st27" d="M301.3,331.4C301.3,331.4,301.3,331.4,301.3,331.4c-1.8-2.7-2-5-2-5l0.1-0.3c9.2,2.1,21.7-2.9,23-3.5
		c3,1,6,0.8,6,0.8s-7.6,2.7-4.7,9.1c0.8,1.9,2.4,3.2,4.2,4.1l-4,0.3c0,0-3.4,1.7-7.8,1.9C309.6,339.2,304.1,335.7,301.3,331.4"/>
	<path class="st28" d="M314.3,256.7c-5.1-9.6-13.9-20.8-10.1-24.1c2.1-1.9,4.8-1,6.5-0.2c10.1,9.1,12.5,11.4,24.2,29.8
		c0,0-8.2-9.5-12.1-7.5c-3.6,1.9,7.6,14.5,8.9,16c-0.9-0.7-5.3-4.1-7.4-2.5c-2.4,1.8,0.7,4.7,3.5,7.1c2.6,2.2,6.7,5.9,7.2,6.3
		c-0.7-0.4-7.5-3.9-8-0.7c-0.4,3.3,5,6.6,5.6,7.2c0.5,0.6-3.6-0.3-3.6-0.3l-0.3,0.2c-3.3-4.9-7.5-10.9-11.8-16.8
		c-15.2-20.7-16.3-18.1-15.3-19c0,0,1.8,0.2,4.6,0.5C308.7,252.7,313.7,256.3,314.3,256.7"/>
	<path class="st9" d="M339,549.7c0.5,3.9,0.2,7.8-0.7,11.4c-0.8-0.1-11.2-2.3-12.8-17.3c-1.7-20.3-2.2-32.6-7.8-50.8
		c-2.2-7.1-9-27.8-15-32.6c1.5-1.8,2.5-4.4,3.2-7.1c0,0,0.8,1.9,2.3,2.2c1.7,2.7,19.7,32.7,30.5,92.7C339,548.7,339,549.2,339,549.7
		"/>
	<path class="st29" d="M317.4,435c0,2.1-1.3,9-3.3,14.1c-0.9,2.4-3.1,7-5.8,6.4c-1.5-0.3-2.3-2.2-2.4-2.2c1.2-5.4,1.1-11.1,1.1-11.2
		c0.3,0,0.6,0.1,1,0c7.1-0.3,7.3-12.3,7.3-12.3s5.8,4.6,11.4,0.2c1.1-0.8,1.9-1.9,2.6-3.1l0.2,0.1c0,0,0,2.9,0.8,5.7l-0.2,0.1
		c0,1.9-1.4,6.8-3.3,9.9c-0.9,1.5-2.3,3.1-4.1,3.3C318.9,446.5,317.6,438.5,317.4,435"/>
	<path class="st29" d="M323.7,302.6c0.1-0.1,0.2-0.1,0.2-0.1C323.9,302.5,323.8,302.6,323.7,302.6z M323.6,302.7
		c-1.5,0.8-5.8,2.5-8-1.1c-2.7-4.5,3.8-5.3,3.8-5.3s-9-3.2-9-6.8c-0.1-3.6,5.7-2.7,5.7-2.7s-8.8-5.1-7.9-8.4
		c0.9-3.2,6.8,0.4,7.4,0.7c-0.7-0.7-11.6-11.5-9.5-14.3c2.1-2.9,10.6,6.2,10.7,6.1c6.3,8.6,13.7,19.5,19.1,28
		c2.6,1.1,13,1.4,13.6,1.4l0,0.4c-18.8,6.1-18.6,6-19.4,6.2c-2,0.5-7.4,1.6-9.1-0.3C319.7,305.3,322.4,303.4,323.6,302.7"/>
	<path class="st30" d="M308.3,455.5c1.8,0.4,3.4-1.7,4.3-3.1c0,0,15.1,10.6,27.1,40.7c10.3,25.9,14.8,38.8,15.1,49.6
		c0.1,1.8,0,3.5-0.2,5.2c-1.3,12.2-8.3,25.3-8.3,25.3l-0.3,0.1c-3.8-9.4-6.4-20.8-7-23.6c0-0.5-0.1-1-0.2-1.4
		C328,488.3,310,458.2,308.3,455.5"/>
	<path class="st8" d="M312.5,452.4c0.6-0.9,1.1-2,1.6-3.3l0.4,0.2c0,0,25.5,17.5,39.4,48c9,19.8,17.6,51.9,13.7,72.8L367,570
		c0,0-0.9-1.6-5.5-9.6c-4.6-8-6.8-17.7-6.8-17.7c-0.3-10.9-4.8-23.7-15.1-49.6C327.7,463,312.6,452.4,312.5,452.4"/>
	<path class="st23" d="M371.2,505.4c4.1,11.5,7.6,23.8,6.6,35.6c-0.5,5.6-3.2,12-3.3,12.1c-5.1-9.8-8.8-21.5-9.2-22.7l-0.2,0
		c-2.6-11.6-6.5-23.2-11-33.1c-13.9-30.5-39.4-48-39.4-48l-0.4-0.2c2-5.1,3.3-12,3.3-14.1c0.1,1.7,0.9,9.8,4.2,10.9l-0.3,0.4
		C326,449.7,360.6,475.8,371.2,505.4"/>
	<path class="st11" d="M315.4,563.5c0,0,5.1-3.6,7.4-9.2c2.9-6.9,2.4-14.5,2.7-10.5c1.6,14.9,12,17.2,12.8,17.3
		c-2.6,11.1-10.5,19.7-16.8,18.1C317.9,578.3,316.2,571.2,315.4,563.5"/>
	<path class="st31" d="M322.3,322.7c-1.8-0.6-3.6-1.5-4.7-3.2c-2.9-4-0.7-8.1-0.3-8.9c1.2-0.3,2.5-0.7,3.8-1.1l0.1,0.5
		c0,0,0.3,3.4,4.1,4.3c3.5,0.9,6.7,0.3,7.2,0.2c-0.4,0.3-3.1,2.1,1.2,4.4c4.7,2.4,13-0.4,13-0.4s-4.7,3.7-0.9,6.4
		c3.8,2.7,20.3-2.9,20.3-2.9s-5.5,5.4-1.1,8.2c4.2,2.7,14.5-6.1,15.3-6.7c-0.2,0.8-3.2,11.3,0.9,12.9c4.3,1.7,16.2-8.4,17.5-12.8
		c0-0.1,0.1-0.3,0.1-0.4c0.1,0.9,2,15.1-3.8,26.8c-5.9,12.1-12.3,16.4-17.4,15c-5.1-1.4-5.6-10.6-5.6-10.6s-11.1,14.5-21.4,8
		c-5.7-3.6,0-12.1,0-12.1s-13.8,8.2-17.6,0.3c-3.7-7.5,3.5-11.5,4.1-11.8c-5.1,0-11.5-1.8-13.5-6.2c-2.9-6.3,4.7-9.1,4.7-9.1
		S325.3,323.7,322.3,322.7"/>
	<path class="st32" d="M398.8,309.2c0.4,3.3,0.9,10.8-0.1,14c0,3.4-13,15-17.6,13.2c-4.1-1.6-1.1-12.1-0.9-12.9
		c-0.7,0.6-11.1,9.5-15.3,6.7c-4.3-2.8,1.1-8.2,1.1-8.2s-16.5,5.6-20.3,2.9c-3.8-2.7,0.9-6.4,0.9-6.4s-8.3,2.8-13,0.4
		c-4.3-2.2-1.6-4.1-1.2-4.4c-0.5,0.1-3.8,0.8-7.2-0.2c-3.8-1-4.1-4.3-4.1-4.3l-0.1-0.5c2.6-0.8,5.5-1.7,9-2.5l0.5,0.7
		c0.3,0.8,1.5,3.8,6.6,0.8c5.1-2.9,13.4-3.7,10.4-2.8c-3.1,0.8-6.3,4.7-2.4,7.2c1.9,1.2,4.4,0.8,11.2-2.7c6.8-3.4,8.4-1.8,8.4-1.8
		s-7.1,4.1-2.8,6.1c3.1,1.4,5.9-0.1,11.9-5.2c6-5.1,10-4.5,10-4.5s-10.9-3.8-16.4-4c-26.2-0.9-24.3-0.7-24.3-1.2
		c0,0,4.1-5.6,9.5-9.8c1.5-1.4,7.5-5.2,12.3-7.2l0.2,0.1c-0.2,1-0.4,1.8-0.4,2.3c0.1,3.3,3.9,3.1,8.8-9.5c-1.6,3.7-4,12.4-2,13.7
		c2.1,1.3,6.3-2.7,7.3-7.9c1-5,4.1-10.1,4.6-10.8c0.2,1.2,0.8,1.8,1.7,1.8c0.2,0,0.4,0,0.5-0.1c0,0-3.1,10.8,1,15.4
		c4.2,4.8,10.5,4.8,10.6,4.8l0.4,0.1c-0.1,0.2-0.1,0.4-0.1,0.6c-0.1,1.8,0.4,3.1,1.2,4.1c-0.3,0.2-5.3,3.8-2.9,8.6
		c0.8,1.6,1.8,2.6,2.9,3.1L398.8,309.2"/>
	<path class="st7" d="M321.6,445.9c0.8,0.3,1.7,0.1,2.5-0.4c1.7,0.6,22.8,7.8,41,28.3c10.2,11.4,19.1,27.7,26.4,41.6
		c2.9,7.6,4.9,16.4,5.6,24.5c0,0-4.8,2.5-11.7-2.9c-6-4.6-7.6-7.3-7.9-8c-0.8-5.9-2.6-13.4-6.2-23.6c-10.6-29.7-45.2-55.7-49.9-59.2
		L321.6,445.9"/>
	<path class="st20" d="M331.7,270.6c-1.3-1.5-12.5-14.1-8.9-16c3.9-2,12.1,7.5,12.3,7.5c11.9,18.1,16.8,26.9,17.6,27.8
		c-5.3,4.2-9.5,9.8-9.5,9.8l0,0.3c-5.6-0.4-7.2-1.1-7.2-1.1c-8-12.6-7.7-11-7.1-11.4c0,0,4.1,0.9,3.6,0.3c-0.5-0.6-6-3.9-5.6-7.2
		c0.4-3.1,7.2,0.4,8,0.7c-0.5-0.4-4.6-4-7.2-6.3c-2.7-2.4-5.8-5.2-3.5-7.1C326.4,266.4,330.8,269.9,331.7,270.6"/>
	<path class="st33" d="M326.7,442.7c0.5,0.3,14.8,3.3,36.2,17.2c20,12.9,34.5,34.3,40.9,51.3c0.3,0.6,0.5,1.3,0.7,1.9
		c4.2,12.1-2.8,20.6-2.8,20.6l-0.2,0.1c-8.6-14.5-21.1-42.7-36.5-60c-18.2-20.4-39.3-27.7-41-28.3
		C325,444.9,325.9,443.9,326.7,442.7"/>
	<path class="st6" d="M362.4,451.5c12.7,6.3,26.8,15.6,38.5,29.1c14.3,16.5,18.4,31.8,17.8,42.9c0,0-2.3,0.1-8-3.2
		c-3.1-1.8-6.5-8.5-7-9.3c-6.4-17-20.9-38.3-40.9-51.3c-20.8-13.5-36.1-17.1-36.2-17.2c0.6-1,1.1-2.1,1.6-3.1
		C328.3,439.5,343.8,442.3,362.4,451.5"/>
	<path class="st11" d="M419,398.8c-0.1,0.3-0.2,0.5-0.2,0.8c-2.4,8.8-9.3,19.2-18,26.6c-8.7,7.4-12.5,5.7-11.9,5
		c0.5-0.7,4.7-6.5,4.7-6.5l-0.1-0.4c-1.6,0.3-3.3,1.1-4.8,2.8c-3.2,3.8-7.8,12.2-14.4,17.3c-8.1,6.2-11,7.1-11.9,7.2
		c-18.6-9.3-34.1-12-34.1-12c1.2-2.8,1.8-5.7,1.8-6.8l0.2-0.1c1.6,5.2,3.8,5.5,7.8,1.9c2.2-2,3.2-5.7,3.7-8.8
		c1.5,0,14.5-0.4,21.2-3.3c7.6-3.4,16.3-12.4,16.3-12.4c3.4-0.2,1.1-0.2,4.9,0.5c8.3,1.5,15.1-11.5,15.1-11.5l0.2-0.1
		c0.4,1.9,1.3,3.5,3.4,3.7c5.9,0.7,14.3-27.9,9.8-50.3c-4.2-20.7-12.3-30.6-13.5-32c0.4-4.8-0.4-11.2-0.4-11.2l0.1-0.2
		c3.8,2,8.3-1.5,8.9-2c0.7-0.6-2.7,4.8,2.2,7.2c2.6,1.3,5.6-0.4,7.6-1.9c0.1,0.6,1.2,4.1,5.4,5.6c3.7,1.3,7.4-0.6,9.7-2.1
		c0,0,1.1,3.3,3.3,3.8c1.8,0.3,3.5,0,5.6-1.6c-0.5,0.8-1.4,3.1,0.2,8.4c2,6.6,8.9,15.9,5.9,32c-3.1,16-10.5,22.2-12.9,23.3
		c-1.8,0.8,0.4-6,1.4-9.1c-2.1,4.8-5.3,11.3-9.3,16.9C419.5,399.8,419.4,398.9,419,398.8"/>
	<path class="st18" d="M342.1,420.4c0.2,4.2-0.8,11.2-4,14.2c-4.4,4-6,2.5-7.3-0.5c-0.6-1.3-1.3-4.3-1.3-7.1l-0.2-0.1
		c2.9-5,2.6-11.9,2.6-11.9l-0.2-0.2c4.1-4.5,3.8-8.4,3.8-8.4s1.2,9.9,9.3,4c3.6-2.6,3.7-8.7,3.4-12.6l0.3,0c0,0,5.9,18.4,0.5,22.1
		C343.3,423.7,342.1,420.4,342.1,420.4"/>
	<path class="st25" d="M330.1,307c0.8-0.2-0.7,0.3,19.4-6.2l0-0.4c4,0.1,10.2,0.3,17.9,0.6c5.5,0.2,16.4,4,16.4,4s-4-0.6-10,4.5
		c-6,5.1-8.8,6.6-11.9,5.2c-4.4-2,2.8-6.1,2.8-6.1s-1.6-1.7-8.4,1.8c-6.8,3.4-9.3,3.9-11.2,2.7c-3.9-2.5-0.7-6.4,2.4-7.2
		c3.1-0.8-5.3-0.1-10.4,2.8c-5.1,2.9-6.3,0-6.6-0.8C330.6,307.7,330.1,307.1,330.1,307"/>
	<path class="st13" d="M346.3,573.2c0,0,7-13.1,8.3-25.3c0.2-1.7,0.2-3.4,0.2-5.2c0,0,2.2,9.6,6.8,17.7c4.6,8,5.5,9.6,5.5,9.6
		l0.7,0.1c-1.3,7.2-4.2,12.8-8.9,15.7c-4.8,3-9.3-3.9-12.8-12.5L346.3,573.2"/>
	<path class="st7" d="M383.5,270.6c-0.4,0.6-3.6,5.8-4.6,10.8c-1,5.3-5.2,9.3-7.3,7.9c-2.1-1.4,0.4-10,1.9-13.8
		c-4.9,12.6-8.7,12.8-8.7,9.5c0-0.5,0.1-1.4,0.4-2.3c1.2-5.4,5.6-16.7,11.2-26.2c6.7-11.2,23.3-25.7,23.4-25.7
		c0.4,0.6,2,0.4,5.5-1.5c5.6-3.1,10.4-4.1,11-4.1c-1.1,0.5-14.6,6.7-19.5,13.5c-5.1,6.9,2.6,1.6,5.6,0.6c2.3-0.8,3.2-1.1,3.6-1.2
		c-1.3,0.7-10.5,6-13.8,12.2c-3.6,6.6-0.2,7.3,4.1,2.2c0.9-1,2.7-2.5,4.7-4c-0.5,0.7-4.7,6.2-7.4,12.4c-2.7,6.1-5.5,10.9-7.8,11.6
		C384.8,272.7,383.8,272.2,383.5,270.6"/>
	<path class="st14" d="M374.6,553c3.4-8.1,4-15.4,2.9-24c0.3,0.6,1.9,3.3,7.9,8c6.9,5.4,11.7,2.9,11.7,2.9
		c1.1,11.5-0.7,21.8-7.2,26.2C384.7,569.5,379,562.1,374.6,553"/>
	<path class="st10" d="M386.8,287.8c-4.2-4.6-1-15.2-1-15.4c2.2-0.7,5.1-5.5,7.8-11.6c2.7-6.2,6.9-11.7,7.4-12.4
		c3.4-2.6,7.2-5.1,7.2-5.1c0,0.1,0,0.1,0.1,0.2c2.3,4.6,5.8-0.2,12.3-4c5.3-3.1,10-3.1,10.1-2.9c-1.6,4.9,5.5,2.9,8.4,2.5
		c2.8-0.3,8.2,1.3,8.7,1.4c0,1.2,1,3,2.2,4.1c4.4,4,8.1,5.5,13.6,6.2c6.7,0.9,13.7,1.2,14.2,1.5c-0.5,1.2-1.1,2.4-2.5,3.5
		c-3,2.4-6.1,1.8-6.5,2.4c0-1.7-5.7-0.3-8.1-0.8c-2.4-0.5-8.7-0.6-10.3-1.3c-1.5-0.7-3.8-1.7-4.1-0.3c-1-1.7-2.6-3.1-5.9-3.5
		c-4.2-0.5-7.5,1.5-8.6,5c0,0-3.6,1.4-5.6,2.2c-2,0.8-2.9,4-2.8,6.5c0.1,2.8,0.1,4.8-2,6.4l0.1,0.3c-6,2.4-5,2.5-6.9,4.9
		c-1.5,1.8-2.7,4.3-3.7,4.3c0,0-5.3-0.6-7.1,4.9c-0.2,0.5-0.3,1-0.3,1.4h-0.2c0,0-4.8,0.4-5.4,4.6l-0.4-0.1
		C397.3,292.6,391,292.6,386.8,287.8"/>
	<path class="st5" d="M430.6,236.4l-0.1-0.1c0,0-4.7,0-10,3.1c-6.5,3.8-10,8.6-12.3,4c0-0.1-0.1-0.1-0.1-0.2c-2.6,1.7-10,6.9-12,9.2
		c-4.3,5.1-7.7,4.4-4.1-2.2c3.3-6.2,12.6-11.5,13.8-12.2c-0.4,0.1-1.3,0.5-3.6,1.2c-3,1-10.7,6.4-5.6-0.6c5-6.8,18.5-13,19.5-13.5
		c-0.6,0.1-5.4,1-11,4.1c-3.5,2-5.1,2.2-5.5,1.5c-0.5-0.7,0.7-2.6,2.2-3.8c3.7-2.9,13.3-9.4,26.5-7.2c13.2,2.2,23.3,9.4,23.3,9.4
		c-0.7-1-1.1-5.2,4.4-1.4c5.5,3.8,9.9,12.9,9.9,12.9l-0.3,0.3c-4.3-3.5-7.5-7.3-9.7-6c-1.7,1.1,0.6,5,3.9,7.3
		c3.3,2.3,9.9,4.2,9.9,4.2s-6.7-0.6-15.4-5.6c-4.9-2.8-6.5-2.1-6.5-0.5c-0.5-0.1-5.9-1.7-8.7-1.4C436.1,239.4,429,241.4,430.6,236.4
		"/>
	<path class="st11" d="M441.7,317.9C441.7,317.9,441.7,317.9,441.7,317.9c-2.2,1.7-3.8,2-5.6,1.6c-2.3-0.4-3.3-3.8-3.4-3.8
		c-2.3,1.6-6,3.4-9.6,2.1c-4.2-1.5-5.3-4.9-5.4-5.6c-2,1.6-5,3.2-7.6,1.9c-4.9-2.4-1.5-7.7-2.2-7.2c-4.4,3.4-9.2,3.8-11.7-1.2
		c-2.4-4.7,2.6-8.4,2.6-8.4l0.3-0.2c2.8,3.2,9.3,2.3,9.3,2.3l0.3-0.2c1.8,3.1,6.2,1.8,9.2,0.8c2.1-0.7,3.7-1.4,4-1.5
		c-0.4,0.4-4.7,4.7-1.6,8.4c3.3,4,8.8,0.8,9.5,0.4c1.6,1.5,4.1,1.9,7.1,0.3c0.1,0.4,0.3,2.7,1.6,3.2c1.8,0.8,3.6,1.8,5.9-2.2
		c0,0,1.9,5.3-1.1,7.9C442.6,317.2,442.1,317.6,441.7,317.9"/>
	<path class="st13" d="M397.8,293.2c0-0.2,0-0.4,0.1-0.6c0.6-4.2,5.4-4.6,5.4-4.6h0.2c-0.4,4.4,4.4,5.7,4.5,5.8
		c-0.7,1.9-0.3,4.3,0.5,5.6l-0.3,0.2c0,0-6.5,0.9-9.3-2.3C398.2,296.4,397.7,295.1,397.8,293.2"/>
	<path class="st15" d="M401.7,533.7c0,0,7-8.5,2.8-20.6c-0.2-0.6-0.4-1.3-0.6-2c0.4,0.8,3.8,7.5,6.9,9.3c5.7,3.3,8,3.2,8,3.2
		c-0.5,11.4-5.9,18.5-10.2,18.2c-1.7-0.1-4.1-3.2-7-8L401.7,533.7"/>
	<path class="st13" d="M410.9,281.7c0.3,0,1,0.3,5.2,0.5c-0.5,0.3-5.5,3.3-4.4,7.3c0.1,0.3,0.1,0.5,0.2,0.7c0,0-2.8,0.7-3.9,3.5
		c0,0-4.8-1.3-4.4-5.7c0-0.4,0.1-0.9,0.3-1.4C405.6,281.1,410.9,281.7,410.9,281.7"/>
	<path class="st13" d="M408.1,293.8c1-2.8,3.8-3.5,3.8-3.5c2.1,5.9,8.5,2.9,9.5,2.4c-0.6,1.6-1,3.9,0.4,6c-0.3,0.1-2,0.9-4,1.5
		c-2.9,1-7.4,2.3-9.2-0.8C407.7,298.1,407.4,295.7,408.1,293.8"/>
	<path class="st14" d="M436.7,307.8c-6,3.1-10.5-1.7-7.9-7.7c-1.5,1-3.9,1.6-6.3-0.7c-1.6-1.5-2.2-3.7-1.2-6.6
		c-4.4,2.2-8.6,1.5-9.7-3.1c-1.1-4,3.9-7,4.4-7.3c2.2,0.1,6.7-0.6,10.3-2c-0.7,0.7-4.3,4.2-0.8,6.9c3.6,2.8,8.1,0.3,9.8-0.9
		c-1.7,1.4-5.6,5.2-1.8,8.3c2.5,2.1,5.6,0.6,8-1.1c0,0-3.5,4.4-1.1,7.5c1.8,2.4,6.8,2.1,10.2-1.5c-6.4,7.5-5.4,7.6-6.5,9.3
		c-2.2,4-4.1,3-5.8,2.2C437,310.5,436.8,308.2,436.7,307.8"/>
	<path class="st34" d="M421.5,272.6l-0.1-0.3c2.1-1.6,2.1-3.6,2-6.4c-0.1-2.5,0.8-5.7,2.8-6.5c2-0.8,5.6-2.2,5.6-2.2
		c-0.3,0.8-0.4,1.7-0.4,2.8c0,5.7,5,8.4,8.2,8.3c5.5-0.2,7.2-4,7.4-4.5c-0.1,0.1-0.1,0.1-0.2,0.1c0.3-0.6,1.9-3.3,0.9-5.3
		c-0.1-0.3-1-2.1-1.5-2.9c0.3-1.4,2.6-0.3,4.1,0.3c1.6,0.7,7.9,0.8,10.3,1.3c2.4,0.5,8.1-0.9,8.1,0.9c0,0.1,0,0.2,0,0.3
		c-0.2,1.4-2,2.1-8.8,4c-8.8,2.6-7.8,4.4-13.6,8.7c-2.7,1.9-4.9,2.5-7.8,2.8c-3.6,0.5-4.5,1-7.7,3.8c-3,2.7-11.1,4.6-14.8,4.4
		c-2.7-0.2-4.4-0.4-4.9-0.5c1.1-0.5,2.1-2.6,3.5-4.3C416.5,275.1,415.5,275,421.5,272.6"/>
	<path class="st13" d="M421.8,298.7C421.8,298.7,421.8,298.7,421.8,298.7c2,2.3,4.4,3,7,1.4c-0.3,0.6-1.9,4.9,0.8,7.4
		c-0.7,0.4-6.2,3.6-9.5-0.4C417.1,303.4,421.4,299.1,421.8,298.7"/>
	<path class="st15" d="M441.5,293.4c-2.3,1.7-5.5,3.2-8,1.1c-3.8-3.2,0-6.9,1.8-8.3c0.2-0.1,0.3-0.2,0.4-0.3
		c-0.1,0.1-0.2,0.2-0.4,0.3c-1.8,1.2-6.2,3.8-9.8,0.9c-3.5-2.7,0.1-6.3,0.9-6.9c1.8-0.6,3.4-1.5,4.4-2.4c3.2-2.8,4.1-3.4,7.7-3.8
		c2.9-0.4,5.1-0.9,7.8-2.8c0,0-7.5,5.9-4.1,10.8c3.1,4.5,7.3-0.2,8-1c-0.6,0.8-3.4,5.2,0.5,8.4c4.1,3.4,9.7-1.2,10.2-1.6
		c-0.2,0.3-1.1,1.5-1.3,2.6c-2.5,1.9-5.8,5-8.9,9c-3.4,3.6-8.4,3.8-10.2,1.5C438.1,297.8,441.5,293.4,441.5,293.4"/>
	<path class="st35" d="M439.8,257.9c0.1-1.4-0.4-2.9-0.8-2.7c0,0-1.6,0.2-2.1,2.4c-0.5,2.2,0.8,3,1.4,2.6
		C438.9,259.7,439.7,259.3,439.8,257.9z M446.8,263.9c0.1,0,0.1-0.1,0.2-0.1c-0.2,0.5-1.9,4.3-7.4,4.5c-3.2,0.1-8.2-2.6-8.2-8.3
		c0-5,3.5-8.5,8.9-7.8c3.3,0.4,4.9,1.8,5.9,3.5c0,0.1,0,0.1,0,0.2c-0.1,0.9,0.4,1.6,1.2,2c0.1,0.2,0.2,0.4,0.3,0.7
		C448.6,260.6,447.1,263.3,446.8,263.9"/>
	<path class="st17" d="M460.8,287.9c-0.5,0.4-6,5-10.2,1.6c-3.9-3.2-1.1-7.6-0.5-8.4c-0.7,0.8-4.9,5.5-8,1
		c-3.4-4.9,4.1-10.8,4.1-10.9c5.8-4.3,4.8-6.1,13.6-8.7c6.8-2,8.6-2.6,8.9-4c0.8,0,4.3,0.9,7.2,3c2.5,1.7,5.9,3.3,10.3,3.8
		c-1.3,0.9-6.1,4.4-12,8.7c-7,5.1-11.9,19.3-13.9,18.2C458.6,291.3,459.8,289.3,460.8,287.9"/>
	<path class="st7" d="M449.9,244.5c-2.9-2.7-4.1-8.5,4.4-3.6c8.7,5,15.4,5.6,15.4,5.6s-6.5-1.9-9.9-4.2c-3.3-2.3-5.6-6.3-3.9-7.3
		c2.6-1.6,6.6,4.2,12.6,8.2c5.4,3.5,14.3,1.8,15.5,1.6c-4.3,3.2-5.2,4.8-6.4,7.5l-0.2-0.1c0,0-9-0.7-14-1.4
		C458,250.1,454.3,248.5,449.9,244.5"/>
	<g>
		<defs>
			<rect id="SVGID_13_" x="466.5" y="227.7" width="112" height="32.2"/>
		</defs>
		<clipPath id="SVGID_2_">
			<use xlink:href="#SVGID_13_"  style="overflow:visible;"/>
		</clipPath>
		<g class="st36">
			<path class="st18" d="M484.1,244.7c2.9-2.2,3-1.3,12.7-0.8c11.2,0.6,30.6-3.7,45-9.6c14.5-5.9,36.5-6.6,35.6-6.3
				c-1,0.3-31.1,8.3-38.9,11.5c-7.8,3.2-28.7,11.2-40.6,15.2c-11.2,3.6-29,4.1-29.2,3.8c0-0.1,0-0.2,0-0.3c0.4-0.7,3.5-0.1,6.5-2.5
				C478.7,253,476.7,249.9,484.1,244.7"/>
		</g>
	</g>
	<path class="st29" d="M486.2,265.3c-4.4-0.5-7.8-2.1-10.3-3.8c-3.3-2.3-6.5-2.9-6.5-3c3.4,0,18-0.4,28.5-3.8
		c12-3.9,32.8-11.9,40.6-15.2c6.4-2.6,27.4-8.3,35.6-10.6c0,0,1.8,1.5-3.5,3.2c-6.3,2-38.4,10.9-53.1,18.8
		C499.2,260.9,496.9,266.7,486.2,265.3"/>
	<path d="M297.8,262.7c-0.2,0-0.3-0.1-0.5-0.2c-2.7-2.1-16-12.7-13.1-17.3c0.9-1.4,2-2.3,3.5-2.6c2.5-0.6,4.8,0.8,4.9,0.8
		c0.4,0.2,0.4,0.6,0.2,1c-0.2,0.3-0.7,0.4-1,0.2c-1.8-0.8-4.5-1.6-6.3,1.3c-1.7,2.8,6.9,11,12.8,15.5
		C298.8,261.8,298.5,262.7,297.8,262.7"/>
	<path d="M330.3,307.8c-15.3,3.6-21.1,9.3-27.7-5.1c-1.6-3.4-0.1-7.2,0.8-9c-2.1-0.2-6.1-1.4-7.8-7c-1-3.3-0.8-6.9,2.4-8.5
		c-2.9-2.4-11-9.8-9.3-15c0.6-1.7,1.6-2.8,3.1-3.3c3-0.9,6.3,1.4,6.6,1.6c0.7,0.7-0.3,1.7-1,1c0,0-2.9-2-5.1-1.3
		c-0.9,0.3-1.7,1.1-2.1,2.4c-1.5,4.4,6.5,11.8,9.7,14.3c0.5,0.4,0.3,1.1-0.3,1.2c-0.1,0-1.4,0.3-2.3,1.6c-0.9,1.3-0.9,3.2-0.2,5.6
		c2,6.5,7.2,6.1,7.5,6.1c0.7,0,1,0.6,0.7,1.1c0,0-3.1,4.8-1.3,8.7c6.1,13.2,10.4,7.9,26,4.3C330.9,306.2,331.3,307.5,330.3,307.8"/>
	<path d="M437.6,257.8c-0.3,1.3,0.2,1.8,0.2,1.9c0.7-0.6,1.2-0.9,1.2-1.8c0-0.7-0.1-1.5-0.2-1.8
		C438.4,256.2,437.9,256.7,437.6,257.8z M438.8,260.7c-1.1,0.9-3.3-0.2-2.7-3.2c0.5-2.5,2.7-3.3,3.4-2.8c0.8,0.5,1,2.3,0.9,3.3
		C440.4,259.6,439.5,260.2,438.8,260.7"/>
	<path d="M450.7,281.5c-2.9,3.4-6.7,4.6-9.2,1c-3.7-5.3,4-11.5,4.3-11.7c0.3-0.3,0.8-0.2,1.1,0.1c0.3,0.3,0.2,0.7-0.1,1
		c-0.1,0.1-7,5.6-4,9.9c0.7,1,1.5,1.5,2.3,1.6c1.5,0,3.3-1.3,4.4-2.7c0.7-1.1,2,0,1.3,0.7C450.8,281.4,450.7,281.4,450.7,281.5"/>
	<path d="M461.3,288.4c-9,7.4-16.9-0.5-11.8-7.8c0.2-0.3,0.7-0.4,1-0.2c0.3,0.2,0.4,0.6,0.2,1c-0.8,1.1-2.9,4.8,0.4,7.5
		c3.5,2.8,8.3-0.8,9.2-1.6c0.3-0.3,0.8-0.2,1.1,0.1C461.6,287.7,461.6,288.2,461.3,288.4"/>
	<path d="M474.6,274.5c-7.3,5.2-11.6,19.9-14.8,18.3c-2.1-1.1-1-3.4,0.3-5.3c0.2-0.4,0.8-0.5,1.2-0.1c0.3,0.3,0.3,0.7,0,1
		c-0.6,0.8-1.6,2.4-0.9,3.1c1.7-0.5,6.8-13.4,13.3-18.1c6.7-4.8,7.4-5.3,12.4-8.9c0.3-0.2,0.8-0.2,1.1,0.1c0.3,0.3,0.2,0.7-0.1,1
		C481.8,269.4,481.8,269.4,474.6,274.5"/>
	<path d="M397.4,293.3c-0.3,0-6.8-0.1-11.2-5c-4.3-4.9-1.3-15.6-1.2-16c0.3-0.9,1.7-0.5,1.4,0.4c0,0.1-3,10.5,0.9,14.8
		c4,4.5,9.8,4.5,10.1,4.5c0.4,0,0.8,0.3,0.8,0.7C398.2,293,397.8,293.3,397.4,293.3"/>
	<g>
		<defs>
			<rect id="SVGID_15_" x="466.5" y="225.5" width="112" height="34.4"/>
		</defs>
		<clipPath id="SVGID_4_">
			<use xlink:href="#SVGID_15_"  style="overflow:visible;"/>
		</clipPath>
		<g class="st37">
			<path d="M468.7,259.3c-0.5,0-0.8-0.4-0.8-0.8c0-0.5,0.7-0.8,1.1-0.6c9.1-0.2,20.1-1,28.7-3.8c12.3-4,33.2-12.1,40.6-15.1
				c5.8-2.4,23.6-7.3,33-9.9c-7.3,0.6-19.7,2.2-29.1,6c-15.2,6.2-34.2,10.2-45.4,9.6c-9.9-0.6-9.6-1.4-12.2,0.6
				c-0.8,0.6-1.7-0.5-1-1.1c3.2-2.5,3.6-1.5,13.3-0.9c10.7,0.7,29.9-3.5,44.7-9.5c13.8-5.6,35.6-6.9,36.4-6.3c0.5,0.3,0.3,1-0.2,1.2
				c-1,0.3-30.9,8.2-38.8,11.4c-7.4,3-28.4,11.1-40.7,15.2C489.8,258.1,477,259.3,468.7,259.3"/>
		</g>
	</g>
	<path d="M469.3,258.6c-0.5,0.7-1.7,0-1.3-0.7c0.3-0.6,1-0.7,1.9-0.8c1.2-0.2,3-0.5,4.7-1.9c1.3-1,1.8-2.1,2.3-3.2
		c1.4-3.1,2.5-4.7,6.6-7.8c0.3-0.2,0.8-0.2,1.1,0.1s0.2,0.7-0.1,1c-4,3-4.9,4.4-6.2,7.2c-0.5,1.2-1.1,2.5-2.7,3.7
		C472.9,258.5,470.1,258.3,469.3,258.6"/>
	<path d="M482.3,252.4c-0.4,0.8-1.8,0.2-1.3-0.6c0.1-0.1,1.4-2.7,4.2-3.4c2.8-0.7,4.3,1.1,3.8,3c-0.2,0.9-1.7,0.6-1.5-0.3
		c0.3-1-0.3-1.7-2-1.3C483.5,250.3,482.3,252.4,482.3,252.4"/>
	<path d="M469.9,245.8c0.8,0.3,0.6,1.4-0.3,1.4c-0.3,0-7-0.7-15.8-5.7c-3.8-2.2-4.9-1.8-5.1-1.7c-0.1,0-0.3,0.1-0.3,0.6
		c0,0.4-0.3,0.7-0.7,0.7s-0.7-0.3-0.7-0.7c0-0.8,0.4-1.5,1-1.9c1.3-0.7,3.5-0.1,6.6,1.7c1.5,0.8,2.9,1.6,4.2,2.2
		c-2.5-1.9-4.3-4.6-4.3-6.4c0-0.9,0.5-1.4,0.9-1.7c3.3-2,7.2,4,13.5,8.2c5.2,3.4,14,1.7,15,1.4c1.1-0.3,1.3,1.1,0.3,1.4
		c-1,0.2-10.4,2-16.1-1.7c-5.6-3.7-9.9-9.3-11.8-8.1c-0.1,0-0.2,0.1-0.2,0.5c0,1.3,1.7,3.9,4.2,5.6
		C463.5,243.9,469.9,245.8,469.9,245.8"/>
	<path d="M477.5,252.8c-0.3,0-9.7-0.8-14.1-1.4c-5.8-0.7-9.6-2.5-14-6.4c-1.4-1.3-2.4-3.2-2.4-4.6c0-0.4,0.3-0.7,0.7-0.7
		s0.7,0.3,0.7,0.7c0,1,0.9,2.6,1.9,3.6c7.1,6.4,11.6,6,27.1,7.4C478.5,251.5,478.4,252.8,477.5,252.8"/>
	<path d="M488.9,266.2c-4.9,0-9.5-1.4-13.5-4.1c-3.1-2.2-6.1-2.7-6.2-2.7c-1-0.2-0.7-1.6,0.3-1.4c0.1,0,3.4,0.6,6.8,3
		c4.4,3,9.3,4.1,14.6,3.7c3.9-0.3,7-2.4,12.2-5.8c14.8-9.8,22.6-14.2,63.2-26.2c2.1-0.6,7-1.9,7.3-3c0-0.1,0-0.2,0-0.2
		c-0.3-0.3-0.3-0.7-0.1-1c0.7-0.7,1.8,0.3,1.6,1.4c-0.5,2.1-5.2,3.2-8.3,4.1C527,245.8,519.2,250,504,260
		C497.8,264.1,494.9,266.2,488.9,266.2"/>
	<path d="M466.6,240.4c0.4,0.8-1,1.4-1.4,0.6c0-0.1-4.5-8.9-9.7-12.6c-2.1-1.5-3.1-1.6-3.3-1.3c-0.4,0.3-0.2,1.4,0.1,1.8
		c0.2,0.3,0.1,0.8-0.2,1c-0.4,0.2-0.8,0.1-1-0.2c-0.5-0.7-0.9-2.7,0.2-3.6c1.5-1.3,4.3,0.6,5.3,1.3C462,231.1,466.4,240,466.6,240.4
		"/>
	<path d="M405.6,229.9c-1.8,1-5.4,3-6.5,1.3c-0.9-1.3,0.8-3.5,2.3-4.7c4.6-3.7,14.3-9.5,27.1-7.4c13.2,2.2,23.2,9.2,23.6,9.5
		c0.3,0.2,0.4,0.7,0.1,1c-0.3,0.3-0.7,0.4-1.1,0.1c-0.1-0.1-10.1-7.1-22.9-9.3c-12.2-2-21.5,3.6-25.9,7.1c-1.5,1.2-2.1,2.6-2.1,2.9
		c0,0,0.8,0.3,4.5-1.7c5.3-3,9.9-4,11.1-4.2c0.3-0.1,0.6-0.1,0.8,0.1c0.5,0.4,0.1,1.2-0.4,1.2C416.3,225.9,411.3,226.7,405.6,229.9"
		/>
	<path d="M395.4,242.9c-0.4,0-0.7-0.1-0.9-0.4c-0.7-0.7-0.3-1.8,1.5-4.2c5.1-6.9,18.3-13.1,19.8-13.7c0.4-0.2,0.8,0,1,0.3
		c0.2,0.4,0,0.8-0.3,0.9c-0.6,0.3-14.3,6.5-19.3,13.3c-0.9,1.3-1.3,2-1.5,2.3c0.8-0.2,2.3-1,3.2-1.5c1.4-0.7,2.6-1.4,6.6-2.6
		c0.7-0.4,1.5,0.6,0.9,1.1c-0.2,0.1-0.1,0.1-4,1.4C400.7,240.5,396.9,242.9,395.4,242.9"/>
	<path d="M396.7,252.9c-1.4,1.6-4.3,4.5-6.1,3.4c-0.9-0.6-1.5-2.1,0.7-6.4c3.1-5.7,10.9-10.6,14.1-12.5l0.8,1.2
		c-3.1,1.8-10.6,6.5-13.5,11.9c-1.8,3.3-1.5,4.4-1.3,4.5c0.2,0.1,1.8-0.3,4.2-3c0.8-0.9,2.4-2.3,4.9-4.1c0.3-0.2,0.8-0.2,1.1,0.1
		c0.3,0.3,0.2,0.7-0.1,1C399,250.7,397.4,252.1,396.7,252.9"/>
	<path d="M401.4,248.9c-0.8,0.6-1.7-0.5-0.9-1.1c3.4-2.6,7.2-5.1,7.3-5.1c0.3-0.2,0.8-0.2,1.1,0.2c0.2,0.3,0.2,0.8-0.2,1
		C408.6,243.9,404.8,246.4,401.4,248.9"/>
	<path d="M385.2,273.2c-1.3,0-2.2-0.9-2.5-2.4c-0.3-2,0.5-4.9,2.3-7.8c0.2-0.3,0.7-0.4,1-0.3c0.4,0.2,0.5,0.6,0.3,1
		c-1.6,2.6-2.4,5.2-2.2,6.9c0.1,1,0.6,1.4,1.3,1.2c1.7-0.6,4.5-4.7,7.3-11.2c2.6-6,6.7-11.5,7.6-12.7c0.7-0.7,1.8,0.3,1.1,0.9
		c-0.8,1-4.7,6.4-7.3,12.3C392.8,264.2,388.8,273.2,385.2,273.2"/>
	<path d="M420.9,240c-5.9,3.4-10.6,9.3-13.4,3.7c0-0.1-0.1-0.2-0.1-0.3c-1.7-4.1,5.4-7.6,9.9-9c0.4-0.1,0.8,0.1,1,0.4
		c0.1,0.4-0.1,0.8-0.5,0.9c-2,0.7-7.6,2.9-8.9,5.5c-0.3,0.6-0.3,1.2,0,1.9c0.4,0.9,0.9,1.4,1.4,1.5c1.7,0.4,5.2-3,9.8-5.8
		c5.5-3.2,10.2-3.2,10.4-3.2c0.4,0,0.7,0.3,0.7,0.7c0,0.4-0.3,0.7-0.7,0.7C430.5,237.1,426,237.1,420.9,240"/>
	<path d="M448.3,240c0.7,0.6-0.1,1.6-0.9,1.1c-2.1-0.6-6-1.6-8.2-1.3c-2.5,0.3-7.1,1.6-8.9-0.3c-0.7-0.7-0.8-1.8-0.3-3.3
		c1.9-5.3,14.2-1.8,15.6-1.4c0.4,0.1,0.6,0.5,0.5,0.9c-0.1,0.4-0.5,0.6-0.9,0.5c-3.4-1-12.5-2.9-13.7,0.5c-0.3,0.9-0.3,1.5,0.1,1.8
		c1.1,1.2,5.7,0,7.6-0.2c2.5-0.3,6.6,0.8,9,1.4C448,239.8,448.2,239.9,448.3,240"/>
	<path d="M373.9,290c-0.9,0.4-1.8,0.4-2.7-0.1c-3.3-2.2,1.6-14.4,1.7-14.6c1.6-3.7,5.5-13.2,5.5-13.2l1.4,0.5c0,0-3.9,9.4-5.5,13.2
		c-2.1,4.9-3.5,12.1-2.2,12.9c0.3,0.2,0.7,0.2,1.2,0c1.8-0.7,4.2-3.8,4.9-7.5c0.9-4.9,4-9.9,4.6-10.9c0.3-1,2-0.3,1.3,0.6
		c0,0.1-3.5,5.4-4.5,10.5C378.9,285.9,376.1,289.2,373.9,290"/>
	<path d="M426.4,280.9c-0.8,0-1-1.1-0.3-1.4c1.8-0.7,3.3-1.4,4.1-2.2c3.2-2.9,4.2-3.5,8.1-4c5.3-0.7,7.6-2.5,11.4-6.1
		c2.3-2.2,3.8-3.6,9.9-5.3c6.2-1.8,8.2-2.5,8.3-3.4c0-0.1,0-0.2,0-0.2c-0.3-0.3-2.5-0.2-3.6-0.1c-4.2,0.3-2.3,0-8.4-0.5
		c-2.5-0.2-4.8-0.3-6.3-1c-0.6-0.3-2.3-1-2.7-0.8c0,0.1,0,0.2,0,0.3c-0.1,1.4,1.6,1.8,3.1,1.9c2.4,0.2,3.3,1.7,3.4,2.4
		c0.1,0.4-0.2,0.7-0.6,0.8c-0.4,0.1-0.8-0.2-0.9-0.6c0-0.1-0.3-1.2-2.1-1.3c-2.4-0.2-4.7-1.1-4.4-3.4c0-0.5,0.3-1.1,0.9-1.4
		c0.8-0.4,1.7-0.2,4.3,0.9c1.4,0.6,7.7,0.7,10.2,1.3c2.7,0.5,8.7-1.3,8.7,1.6c0,0.1,0,0.3,0,0.3c-0.3,1.9-2.4,2.6-9.4,4.6
		c-5.7,1.7-7,2.9-9.2,5c-4.1,3.9-6.6,5.8-12.3,6.5c-3.5,0.4-4.2,0.9-7.2,3.6C429.8,279.7,426.8,280.9,426.4,280.9"/>
	<path d="M408.2,293.1c1,0.3,0.5,1.6-0.4,1.3c-1.9-0.5-5.3-2.6-5-6.5c0-0.5,0.2-1.1,0.3-1.6c1.9-6,7.8-5.4,7.8-5.4
		c0.3,0,0.9,0.3,5.2,0.5c2,0.1,6.4-0.6,10-1.9c0.4-0.1,0.8,0,1,0.4c0.2,0.4,0,0.8-0.4,0.9c-3.5,1.3-8.1,2.2-10.8,2
		c-3.2-0.2-4.8-0.5-5.1-0.5c-0.2,0-4.7-0.4-6.3,4.4c-0.1,0.4-0.2,0.8-0.3,1.3C403.9,291.9,408,293.1,408.2,293.1"/>
	<path d="M366,287.6c-1.4,0-1.9-1.2-2-2.5c0-0.6,0.1-1.5,0.4-2.5c1.4-5.9,6-17.3,11.3-26.4c6.7-11.2,23.3-25.7,23.4-25.8
		c0.7-0.6,1.8,0.4,1,1c-0.2,0.1-16.6,14.5-23.2,25.5c-5.8,9.8-10,21.1-11.2,26c-0.2,0.9-0.3,1.7-0.3,2.2c0,0.7,0.2,1.1,0.5,1.1
		c0.6,0,3.3-1.6,6.9-11.2c0.1-0.2,0.1-0.3,0.2-0.5c0.3-0.9,1.7-0.5,1.4,0.4C373.6,277.9,369.5,287.6,366,287.6"/>
	<path d="M343.2,300.4c-0.6,0-1-0.6-0.6-1.1c0.2-0.2,4.2-5.7,9.5-9.9c1.5-1.4,7.6-5.3,12.5-7.3c0.4-0.2,0.8,0,1,0.4
		c0.2,0.4,0,0.8-0.4,0.9c-5,2.1-10.6,5.6-12,6.9l-0.5-0.5l0.3,0.7c-5.2,4.1-9.3,9.6-9.3,9.7C343.7,300.3,343.4,300.4,343.2,300.4"/>
	<path d="M400.8,277.3c-1.7,0-3.3-0.8-4.6-2.2c-4.3-4.7,1.3-11.9,1.6-12.2c0.3-0.3,0.7-0.4,1.1-0.2c0.3,0.2,0.4,0.7,0.2,1
		c-0.1,0.1-5.2,6.6-1.6,10.4c1.1,1.2,2.2,1.8,3.5,1.8c2.6,0,4.9-2.5,4.9-2.6c0.3-0.3,0.8-0.3,1.1-0.1c0.3,0.3,0.4,0.7,0.1,1
		C406.8,274.4,404.2,277.3,400.8,277.3"/>
	<path d="M447,264.4c-0.6,0-1-0.6-0.6-1.1c1.1-1.4,0.7-1.9,3.7-2.2c1.5-0.2,1.9-0.5,1.9-0.5c0-0.4,0.4-0.7,0.8-0.7
		c0.4,0,0.7,0.3,0.7,0.7c0,0.4-0.2,1.5-3.2,1.8c-1.7,0.2-1.7,0.2-2,0.8C447.7,263.9,447.5,264.4,447,264.4"/>
	<path d="M447.4,264.3c-0.4,0.8-1.9,0.2-1.2-0.8C446.9,262.5,448.2,263.5,447.4,264.3"/>
	<path d="M446.1,263.5c1.3-2.5,1.2-3.9,0.8-4.7c-0.1-0.3-0.9-2.1-1.4-2.8c-0.8-1.3-2.1-2.7-5.4-3.2c-8.3-1-10.2,8.5-5.7,12.6
		c1.4,1.3,3.3,2.1,5,2C444.5,267.4,446,264,446.1,263.5L446.1,263.5z M439.4,268.9c-4.2,0-8.8-3.5-8.8-9c0-5.4,3.8-9.2,9.8-8.5
		c4.3,0.6,6,2.5,7.5,5.8c0.7,1.6,1.6,3-0.2,6.5c0,0.1,0,0.1,0,0.2C446.6,266.6,443.5,268.9,439.4,268.9"/>
	<path d="M446.9,264.5c-0.4,0-0.8-0.3-0.8-0.7c0-0.6,0.8-1,1.3-0.5C447.9,263.7,447.6,264.5,446.9,264.5"/>
	<path d="M421.9,272.9c-0.8,0.6-1.7-0.5-1-1.1c1.8-1.4,1.8-3,1.7-5.8c-0.1-2.9,0.9-6.3,3.2-7.2c2-0.8,5.6-2.2,5.6-2.2l0.6,1.3
		c0,0-3.6,1.4-5.5,2.2c-1.6,0.6-2.4,3.5-2.3,5.8C424.2,268.7,424.3,271,421.9,272.9"/>
	<path d="M411.4,282.4c-1,0.6-1.7-0.8-0.7-1.3c0.5-0.2,1.2-1.2,1.8-2.1c1.7-2.4,0.9-1.1,2.2-2.9c1.6-2.3,2.9-2.5,5.6-3.7
		c3.7-1.6,6-2.7,9.6-4.3c0.4-0.2,0.8,0,1,0.3c0.2,0.3,0,0.8-0.3,0.9c-0.5,0.3-6.1,2.8-9.6,4.4c-2.8,1.2-3.7,1.4-5,3.2
		c-1.2,1.6-0.6,0.6-2.1,2.9C413,280.9,412.3,282,411.4,282.4"/>
	<path d="M425.7,280.2c0-0.1,0-0.3,0.1-0.4C425.7,279.9,425.7,280,425.7,280.2z M435.8,286.8c-3.4,2.3-7.5,3.4-10.8,0.9
		c-3-2.3-1.8-5.6,0.9-8.1c0.7-0.7,1.9,0.5,0.9,1.1c-0.5,0.5-2.2,2.2-2.1,3.8c0,0.8,0.4,1.4,1.2,2.1c3.2,2.5,7.3,0.1,8.9-1
		c0,0,0.3-0.2,0.3-0.2c0.2-0.2,0.3-0.2,0.5-0.4c0.7-0.6,1.7,0.3,1.1,1C436.6,286.2,435.9,286.7,435.8,286.8"/>
	<path d="M436.4,296.2c-2.8,0-5.2-2.4-5.2-4.8c0-2.3,2.2-4.8,4.1-6.1c0.3-0.2,0.8-0.2,1.1,0.1c0.2,0.3,0.2,0.7-0.2,1
		c-2.9,2.3-5,5.2-2.1,7.6c2.2,1.8,5,0.4,7-1.1c1.9-1.4,3.2-3,3.2-3c0.3-0.3,0.7-0.4,1.1-0.1c0.3,0.2,0.4,0.7,0.1,1
		C443.5,293.1,439.7,296.2,436.4,296.2"/>
	<path d="M455.8,294.7c-0.7,0.7-1.8-0.3-1.1-1c2.3-2.3,4.2-3.8,4.3-3.8c0.8-0.6,1.7,0.5,1,1.1C459.9,291,458,292.5,455.8,294.7"/>
	<path d="M451.1,299.7c-0.7,0-1-0.8-0.5-1.2c0.3-0.3,1.3-2,4.1-4.7c0.3-0.3,0.8-0.3,1.1,0c0.3,0.3,0.3,0.7,0,1
		C452,298.4,451.9,299.7,451.1,299.7"/>
	<path d="M444.1,303.2c-5.8,0-6.7-5.9-3.2-10.2c0.3-0.3,0.7-0.4,1.1-0.1c0.3,0.2,0.4,0.7,0.2,1c0,0-3.1,4-1.1,6.7
		c1.3,1.7,5.6,2,9-1.5c0.7-0.7,1.8,0.2,1.1,0.9C449.2,302,446.6,303.2,444.1,303.2"/>
	<path d="M440.7,312.5c-0.9,0-1.7-0.4-2.4-0.7c-0.5-0.2-1.8-0.6-2.3-4.1c0-0.4,0.3-0.7,0.7-0.7c0.4,0,0.8,0.3,0.8,0.7
		c0.3,2.1,0.9,2.6,1.1,2.6l0.3,0.1c1.6,0.7,2.8,1.2,4.6-2c0.3-0.4,0.5-1,0.8-1.7c1.3-2.8,9-11.6,10.4-13.1c0.7-0.6,1.7,0.3,1.1,1
		c-1.5,1.6-9,10.2-10.1,12.6C444.7,309.5,443.2,312.5,440.7,312.5"/>
	<path d="M437.1,308.4c-6.5,3.4-11.9-1.9-8.9-8.6c0.4-0.9,1.8-0.3,1.4,0.5c-2.3,5.3,1.4,9.7,6.8,6.8c1.3-0.7,2.2-1.5,2.2-1.5
		c0.3-0.3,0.8-0.3,1.1,0c0.3,0.3,0.3,0.7,0,1C439.6,306.7,438.6,307.7,437.1,308.4"/>
	<path d="M428.8,300.7c-0.6,0-0.9-0.6-0.7-1c0.3-0.7,1.4-0.5,1.4,0.3C429.6,300.3,429.3,300.7,428.8,300.7"/>
	<path d="M426,301.7c-1.2,0-2.6-0.5-4-1.8c-2.1-2-2.3-4.7-1.3-7.4c0.5-1.3,1.2-2.2,1.2-2.3c0.2-0.3,0.7-0.4,1-0.2
		c0.3,0.2,0.4,0.7,0.2,1c0,0-0.6,0.8-1,1.9c-0.8,2.2-0.7,4.3,1,5.9c1.6,1.6,3.4,1.8,5.2,0.7c0-0.1,0.1-0.1,0.2-0.1
		c0.9-0.5,1.5-1.2,1.5-1.2c0.6-0.7,1.8,0.1,1.2,0.9C430,300.4,428,301.7,426,301.7"/>
	<path d="M421.7,293.3c-4.8,2.4-9.5,1.6-10.8-3.6c-1.1-4.1,3.3-7.2,4.6-8c0.5-0.5,1.3-0.2,1.3,0.5c0,0.3-0.2,0.5-0.4,0.6
		c-1.2,0.7-4.9,3.4-4.1,6.6c0.4,1.5,1.2,3,2.7,3.5c2.3,0.9,5.3-0.5,5.8-0.8c0,0,0.2-0.1,0.2-0.1c0.4-0.2,0.7,0,0.9,0.3
		C422.3,292.7,422.1,293.1,421.7,293.3"/>
	<path d="M412.5,302.1c-3.2,0-4.9-1.8-5.4-4.7c-0.7-3.9,1.5-6.9,4.5-7.8c0.4-0.1,0.8,0.1,0.9,0.5c0.1,0.4-0.1,0.8-0.5,0.9
		c-2.3,0.6-4,3-3.5,6.2c1,5.7,7.1,3.2,12.9,0.9c0.7-0.5,1.6,0.5,0.9,1.1c-0.1,0.1-0.2,0.1-0.3,0.2
		C419.6,300.4,415.4,302.1,412.5,302.1"/>
	<path d="M430,308.1c-8.9,5.4-15.8-3.3-8.7-9.9c0.3-0.3,0.8-0.3,1.1,0c0.3,0.3,0.3,0.7,0,1c0,0-4.3,4.1-1.6,7.5
		c2.8,3.4,7.5,0.8,8.6,0.2C430.2,306.4,431,307.6,430,308.1"/>
	<path d="M406.2,300.4c-5.4,0-9.5-2.1-9.2-7.2c0-0.3,0-0.5,0.1-0.7c0.6-3.8,4.3-5.1,6.1-5.2c1-0.1,1.2,1.3,0.1,1.4
		c0,0-4.2,0.4-4.8,4.2c0,0.1-0.1,0.2-0.1,0.4c-0.3,4.9,4.4,6.1,9.7,5.7c0.4-0.1,0.8,0.2,0.9,0.6c0.1,0.4-0.2,0.7-0.6,0.8
		C408.3,300.3,407.5,300.4,406.2,300.4"/>
	<path d="M420.5,310.7c-2.6,2.8-7.3,6-10.9,4.2c-3.3-1.6-3.3-4.4-2.9-6.2c-4.6,2.7-8.9,2.2-11.3-2.5c-2.6-5.1,2.8-9.2,2.8-9.2
		c0.3-0.2,0.8-0.2,1.1,0.1c0.3,0.3,0.2,0.7-0.1,1c-0.2,0.1-4.5,3.4-2.4,7.5c2.3,4.5,6.5,4.1,10.5,0.9c0.3-0.2,0.7-0.3,1-0.1
		c0.5,0.3,0.4,0.8,0.2,1.3c-0.6,2-1,4.5,1.9,5.9c2.2,1.1,4.9-0.4,6.8-1.9c1.3-1,2.3-2,2.3-2c0.3-0.3,0.7-0.3,1.1-0.1
		C420.8,309.9,420.8,310.4,420.5,310.7"/>
	<path d="M425.6,319c-4.1,0-7.8-2.9-8.7-6.5c-0.5-1,1-1.4,1.4-0.6c0.2,0.3,0.8,3.8,5.1,5.3c3.5,1.2,7.1-0.8,8.9-2
		c1.3-0.9,2.2-1.8,2.2-1.8c0.3-0.3,0.8-0.3,1.1,0c0.3,0.3,0.3,0.7,0,1C432.9,316.8,429.3,319,425.6,319"/>
	<path d="M441.7,318.6c-0.7,0-1-0.8-0.5-1.3c0.4-0.3,0.9-0.6,1.3-1.1c2.6-2.3,0.9-7.2,0.9-7.2c-0.1-0.4,0.1-0.8,0.5-0.9
		s0.8,0.1,1,0.5c0.1,0.2,2,5.8-1.3,8.6c-0.5,0.5-1,0.8-1.4,1.2C442,318.6,441.9,318.6,441.7,318.6"/>
	<path d="M442.1,318.5c-2,1.5-3.8,2.2-6.2,1.7c-2.7-0.5-3.8-4.1-3.9-4.2c-0.1-0.4,0.1-0.8,0.5-0.9c0.4-0.1,0.8,0.1,0.9,0.5
		c0.3,0.8,1.3,3,2.8,3.3c1.5,0.3,2.9,0.1,5-1.5c0.3-0.2,0.8-0.2,1.1,0.1C442.5,317.8,442.5,318.3,442.1,318.5"/>
	<path d="M353.1,289.3c0.5,0.8-0.8,1.5-1.3,0.7c-5-8.3-24.8-40.1-31.4-47.3c-2.1-2.3-5.5-5.6-10.2-9.9c-0.3-0.3-0.3-0.7,0-1
		c0.3-0.3,0.8-0.3,1.1,0c4.7,4.3,8.1,7.6,10.3,10C328.5,249.4,347.9,280.7,353.1,289.3"/>
	<path d="M310.7,233.1c-0.7,0,1.2,0.9-19.2-16.4c-8.4-7.1-8.6-7.3-13.7-13.1c-3.1-3.5-6.6-7.5-8.1-6.9c-0.1,0-0.2,0.1-0.2,0.3
		c-0.8,2.5,4.1,11.9,6.1,15.2c0.2,0.3,0.1,0.8-0.3,1c-0.3,0.2-0.8,0.1-1-0.3c-0.1-0.1-7.5-12.5-6.3-16.3c0.2-0.6,0.6-1.1,1.2-1.3
		c2.6-0.9,5.8,2.7,9.8,7.3c5.1,5.9,5.3,5.9,13.6,13c5.6,4.8,13.3,11.3,18.7,16.2C311.7,232.3,311.4,233.1,310.7,233.1"/>
	<path d="M279,217.1c0.6,0.8-0.7,1.5-1.2,0.8c-1.6-2.2-2.6-3.6-3.2-4.4c-0.5-0.8,0.8-1.5,1.3-0.7C276.4,213.5,277.4,214.9,279,217.1
		"/>
	<path d="M291,233.1c0.6,0.8-0.7,1.6-1.2,0.8c-0.2-0.3-8.7-11.7-11.9-16c-0.2-0.3-0.1-0.8,0.2-1c0.4-0.2,0.8-0.1,1.1,0.2
		c6.9,9.3,10.3,13.8,11.4,15.4c0.1,0.1,0.1,0.1,0.2,0.2L291,233.1"/>
	<path d="M288.6,231.8c-0.7,0,0.2,0.6-14-18.4c-0.6-0.8,0.7-1.6,1.2-0.8l13.4,18.1C289.6,231.2,289.2,231.8,288.6,231.8"/>
	<path d="M275.2,213.8c-0.5,0-0.7-0.4-1-0.9c-0.2-0.3-0.1-0.8,0.3-1c0.4-0.2,0.8-0.1,1,0.2c0.1,0.1,0.2,0.3,0.4,0.5
		C276.2,213.2,275.8,213.8,275.2,213.8"/>
	<path d="M272.2,226.6c0.7,0.8-0.6,1.8-1.3,0.7c-12.8-15.9-8.9-22.5,8.1-10.3c0.2,0.1,0.2,0.2,0.3,0.3c0.9,0.6-0.2,1.9-1.1,0.9
		c-0.3-0.1-6.8-5.1-11.1-6c-6.1-1.5,1.1,9.5,5,14.3C272.1,226.5,272.2,226.6,272.2,226.6"/>
	<path d="M297.1,247.3c0.4,0.8-0.9,1.5-1.3,0.6c0-0.1-4.1-7.6-5.6-14.4c-0.9-3.8-0.8-6.7,0.2-8.5c2.3-4.1,6.4-4.8,10.1-2.8
		c0.4,0.2,0.5,0.6,0.3,1c-0.2,0.3-0.7,0.4-1,0.3c0,0-0.1-0.1-0.4-0.2c-1.5-0.7-5.2-1.9-7.6,2.4C289,230.2,294.7,242.6,297.1,247.3"
		/>
	<path d="M296.5,248.5c-0.8,0-1.2-1.2-0.3-1.5c0.4-0.1,0.8,0.1,1,0.5C297.4,248,297,248.5,296.5,248.5"/>
	<path d="M313.8,257.1c0,0-0.1-0.1-0.1-0.2c-5.5-10.3-14.3-21.1-9.9-25c1.9-1.6,4.4-1.8,7.2-0.3c0.3,0.1,1.5,0.9,1.8,1.1
		c0.8,0.6-0.2,1.7-1,1.1c0,0-0.5-0.4-1.4-0.9c-1.6-0.8-3.8-1.5-5.5,0.1c-3.3,2.8,5.4,14.4,10.2,23.3L313.8,257.1"/>
	<path d="M313.8,257.2c-3.5-2.4-6.3-3.9-7.7-4.1c-2.8-0.3-4.6-0.5-4.6-0.5c-0.4,0-0.7-0.4-0.7-0.8c0-0.4,0.4-0.7,0.8-0.6
		c0,0,1.8,0.2,4.6,0.5c2.2,0.2,5.8,2.5,8.6,4.4C314.2,256.8,314.4,256.6,313.8,257.2"/>
	<path d="M332.4,270.3c0.6,0.6-0.4,1.6-1.3,0.8c-3.1-3.5-13-14.8-8.7-17c4.3-2.2,12.2,6.7,13.1,7.7c0.3,0.3,0.2,0.7-0.1,1
		c-0.3,0.2-0.8,0.2-1.1-0.1c-3-3.5-8.7-8.6-11.2-7.4c-0.1,0.1-0.3,0.2-0.3,0.4C322.3,258.8,331.3,269.2,332.4,270.3"/>
	<path d="M335.5,281c0.7,0.6-0.3,1.7-1.1,1c-0.7-0.6-6.8-5.9-7.2-6.3c-2.8-2.4-6.4-5.8-3.4-8.1c2.5-1.9,6.7,1.1,8.4,2.5
		c0.3,0.3,0.3,0.7,0.1,1c-0.3,0.3-0.7,0.3-1.1,0.1c-2.2-1.8-5.2-3.5-6.5-2.5c-0.4,0.3-0.6,0.6-0.6,1c0,1.5,2.4,3.6,4.1,5
		C328.8,275.1,334.8,280.4,335.5,281"/>
	<path d="M332.2,288.8c-0.6,0-1.7-0.1-3.5-0.5c-0.4-0.1-0.7-0.5-0.6-0.8c0.1-0.4,0.5-0.6,0.9-0.5c0.4,0.1,0.9,0.2,1.3,0.3
		c-1.9-1.5-4.5-3.9-4.1-6.5c0.1-1,0.7-1.4,1.2-1.6c1.8-0.9,5.3,0.5,7.9,1.8l-0.8,1.2c-3-1.5-5.6-2.2-6.5-1.8
		c-0.1,0.1-0.3,0.2-0.3,0.6c-0.4,2.9,4.7,6,5.4,6.7c0.2,0.2,0.3,0.7,0.1,0.9C333,288.6,332.9,288.8,332.2,288.8"/>
	<path d="M267.3,212.2c-0.2,0-0.4-0.1-0.6-0.3c-0.2-0.3-24.9-29.7-33.6-38.3c-8.8-8.6-33.9-36.2-39.9-44.4
		c-8.6-11.9-8.7-21.3-4.9-33.1c0.2-0.6,0.7-2.2,2.2-2.4c2.6-0.3,5.9,4.6,13.5,16.7c19.4,31.1,22.8,34,65.2,85.9
		c0.6,0.7-0.6,1.6-1.2,0.9c-42.8-52.4-46.1-55.4-65.3-86.1c-5.4-8.6-10-16-12-16c-0.3,0-0.7,0.6-0.9,1.4
		c-3.8,11.6-3.5,20.6,4.7,31.9c6,8.2,31,35.7,39.8,44.3c8.8,8.6,33.5,38.1,33.7,38.4C268.3,211.5,268,212.2,267.3,212.2"/>
	<path d="M260.7,220.4c-0.2,0-0.4-0.1-0.6-0.3c-0.1-0.2-15.5-17.2-38.1-36c-22-18.3-26.5-26.8-31.5-38.4c-4.4-10.3-1.2-22-1.1-22.5
		c0.1-0.4,0.5-0.6,0.9-0.5c0.4,0.1,0.6,0.5,0.5,0.9c0,0.1-3.2,11.7,1,21.6c4.8,11.2,9.2,19.6,31.1,37.9c22.7,18.9,38.1,36,38.3,36.2
		C261.7,219.7,261.3,220.4,260.7,220.4"/>
	<path d="M202.2,184.1c0.6,0.7-0.6,1.6-1.2,0.9c-2-2.3-12.1-18.9-9.7-24.4c1.7-3.9,4.4-4.3,6.5-2.9c0.3,0.2,0.4,0.7,0.1,1
		c-0.3,0.3-0.7,0.3-1.1,0.1c0,0-0.8-0.6-1.8-0.4c-0.9,0.2-1.7,1.2-2.4,2.7C190.7,165.7,200.1,181.7,202.2,184.1"/>
	<path d="M335.9,299.6c-0.7,0,0,0.4-8-11.5c-6.4-9.5-17.1-24.8-25-33.2c-2.5-2.6-6.9-6.6-7.1-6.9c-9.9-9.2-23.7-20.8-35.6-27.7
		c-6.5-3.7-8.8-4.3-17.8-7.9c-3.6-1.4-5.8-2.2-6.2-2.1c-0.2,0.3,0,1.8,0.2,3.1c0.5,5.4,17.1,19,21.4,22.5l15,12.1l-1,1.1
		c-12.2-9.9-23.4-18.4-30.9-26.3c-3.8-4-5.8-7.1-6-9.1c-0.2-2.1-0.6-3.6,0.4-4.3c1.4-1,4,0.5,15.7,5.1c17.1,6.6,37.7,25,50.7,37.4
		l-0.5,0.5l0.7-0.4c9.7,9.1,27.7,35.8,34.7,46.7C336.9,299.1,336.5,299.6,335.9,299.6"/>
	<path d="M364.2,315.8c-1.7,0-4.3-0.9-4.4-2.7c-0.1-1.6,1.8-3.3,3.2-4.3c-5.3,0.2-13.5,7.7-18.3,4.7c-2.9-1.9-2.7-4.8-0.3-6.8
		c-2.1,0.5-4.7,1.3-6.9,2.5c-3.3,1.9-6.4,2.1-7.7-1.2c-0.1-0.4,0.1-0.8,0.4-0.9c0.4-0.1,0.8,0.1,1,0.4c0.2,0.6,0.6,1.3,1.4,1.5
		c1,0.3,2.4,0,4.1-1c4-2.3,10.9-3.7,11.8-3.1c0.2,0.2,0.4,0.5,0.4,0.7c-0.1,0.5-0.7,0.7-1.2,0.8c-1.8,0.5-3.4,2-3.6,3.4
		c-0.2,1,0.3,1.8,1.4,2.5c1.5,0.9,3.5,0.8,10.4-2.7c6.9-3.5,9-2,9.3-1.6c0.3,0.3,0.2,0.8-0.2,1.1c-1.6,0.9-3.9,2.8-3.8,3.9
		c0,0.1,0,0.5,1,1c5.5,2.5,10.7-7,18.4-9.4c-10.6-3.3-12.2-2.9-20.5-3.2c-5.2-0.2-21.2-0.4-24.6-1.8c-0.4-0.2-0.5-0.6-0.4-0.9
		c0.2-0.3,0.6-0.5,1-0.4c4.6,1.4,20.9,1.6,31.2,1.9c5.5,0.2,16.2,3.8,16.6,4c0.9,0.3,0.5,1.5-0.4,1.4
		C376.1,305.6,370.4,315.8,364.2,315.8"/>
	<path d="M270.9,260.2c-0.1,0-0.3,0-0.4-0.1c-9.3-4.8-21.2-12.9-27.1-21.6c-2.5-3.8-4.8-8.6-4.2-13c0.3-2.4,1.4-3.5,1.4-3.6
		c0.3-0.3,0.7-0.3,1.1-0.1c0.3,0.3,0.4,0.7,0.1,1c0,0-0.8,0.9-1.1,2.9c-0.6,4.1,1.7,8.6,3.9,12.1c5.9,8.6,17.6,16.5,26.6,21.1
		C272,259.2,271.7,260.2,270.9,260.2"/>
	<path d="M275.5,271.9c-0.7,0-22.2-10-26.9-15.9c-1.5-1.9-2.5-4.3-3-7c-0.8-4.2-0.1-7.8-0.1-7.9c0.2-0.9,1.7-0.6,1.5,0.2
		c-0.7,4.1-0.1,10,2.8,13.9c3.9,5,20.1,12.8,26,15.4C276.5,270.9,276.3,271.9,275.5,271.9"/>
	<path d="M287.3,287.5c-0.3,0,0.2,0.2-16.1-6.4c-10.2-4.1-12.8-7-15.9-11.1c-1.3-1.7-2.3-3.2-2.8-6.3c-0.4-2.6-0.2-4.7-0.2-4.8
		c0.1-0.9,1.6-0.8,1.5,0.2c0,0-0.2,2,0.2,4.4c0.5,3.1,1.5,4.3,2.6,5.7c2.9,3.9,5.3,6.6,15.3,10.7c11.7,4.7,15.8,6.3,15.8,6.3
		C288.3,286.5,288.1,287.5,287.3,287.5"/>
	<path d="M264.8,288.2c-0.3,0-0.5-0.1-0.7-0.4c-3-5.9-1.2-11-1.2-11.2c0.1-0.4,0.6-0.6,1-0.4c0.4,0.1,0.6,0.5,0.5,0.9
		c0,0-1.7,4.8,1.1,10.1C265.7,287.6,265.3,288.2,264.8,288.2"/>
	<path d="M287.8,301.2c-3,0-7.6-0.7-13.5-3.9c-4.4-2.5-8-5.1-10.3-9.5c-0.2-0.4,0-0.8,0.4-0.9c0.4-0.2,0.8,0,1,0.3
		c1.5,2.9,4.1,5.6,7.7,7.8c0.6,0.4,1,0.6,2,1.1c10.1,5.4,16,3.3,16.1,3.3c0.4-0.2,0.8,0,1,0.4c0.2,0.4,0,0.8-0.4,0.9
		C291.7,300.7,290.3,301.2,287.8,301.2"/>
	<path d="M308.7,311.5c-4.6,1.2-13.5,2.6-18.4,1.2c-6.3-1.7-14.2-5.6-16.2-11.5c-0.9-2.5-0.3-4.3-0.3-4.4c0.1-0.4,0.5-0.6,0.9-0.5
		s0.6,0.5,0.5,0.9c-1.3,7.1,8,12.1,15.5,14.2c5.7,1.7,17.4-1.2,17.5-1.2c0.4-0.1,0.8,0.1,0.9,0.5C309.4,311,309.1,311.3,308.7,311.5
		"/>
	<path d="M304.3,327.4c-3,0-6-0.4-8.6-1.8c-6-3-7.7-6.7-8-9.1c-0.4-2.9,0.9-4.9,0.9-5c0.2-0.3,0.7-0.5,1-0.3
		c0.4,0.2,0.5,0.6,0.3,0.9c0,0-1.1,1.8-0.8,4.2c0.4,3.1,2.9,5.9,7.2,8.1c6.9,3.4,18.4,0.6,25.6-2.3c0.7-0.5,1.6,0.5,0.9,1.1
		C322.4,323.6,312.5,327.4,304.3,327.4"/>
	<path d="M301.9,331.1c0.5,0.8-0.8,1.5-1.3,0.7c-1.9-2.8-2.1-5.2-2.1-5.3c-0.1-0.9,1.4-1,1.5-0.1C300,326.4,300.2,328.5,301.9,331.1
		"/>
	<path d="M315.3,339.6c-6.3,0-11.8-3.5-14.7-7.8c-0.2-0.3-0.1-0.8,0.2-1c0.4-0.2,0.8-0.1,1,0.2c2.6,4,8,7.4,14,7.2
		c4.2-0.1,7.5-1.8,7.5-1.8c0.4-0.2,0.8-0.1,1,0.3c0.2,0.3,0.1,0.8-0.3,1C322.1,338.7,318.6,339.6,315.3,339.6"/>
	<path d="M308.9,310.1c0.9,0.4,0.2,1.7-0.7,1.2c-5.7-2.8-19.5-10.6-21-16.5c-0.6-2.3-0.9-5.3,1.4-6.4c-5.3-3.5-14.3-10.3-14-16.3
		c0.2-2,1.4-3.1,3.5-3.4c-2.8-2.4-6.3-6-7.8-8.8c-3.2-5.6-0.7-9.2,2.7-9.5c-4.1-4.5-7.7-10.9-3.1-15c6.5-5.7,15,1.3,15.1,1.4
		c0.3,0.3,0.3,0.7,0,1c-0.3,0.3-0.7,0.3-1.1,0.1s-7.5-6.2-13-1.4c-3.8,3.3-0.4,8.7,2,11.7c1.2,1.5,2.2,2.4,2.3,2.5
		c0.3,0.2,0.5,0.5,0.4,0.9c-0.1,0.3-0.7,0.5-1,0.4c-2.1-0.4-3.4,0.3-4.1,1.9c-1.8,4.6,6,11.9,9.9,15.1c0.6,0.4,0.2,1.3-0.6,1.2
		c-0.5,0-3.6-0.3-3.8,2.2c-0.2,5.2,8.1,11.5,11.7,14c1.8,1.3,3.2,2.1,3.2,2.1c0.7,0.4,0.3,1.4-0.5,1.3c0,0-0.9-0.2-1.5,0.4
		c-0.7,0.7-0.8,2.4-0.3,4.6C290.1,299.9,303.7,307.4,308.9,310.1"/>
	<path d="M315.7,279.8c-0.2,0-0.4-0.1-0.5-0.2c0,0-0.2-0.2-0.2-0.2c-5.4-5.4-11.4-12.4-9.4-15.1c2.3-3.2,9.1,3.2,11.8,6.1
		c0.3,0.3,0.2,0.7-0.1,1c-0.3,0.3-0.8,0.2-1.1-0.1c-2.4-2.5-6.9-6.5-8.9-6.5c-0.2,0-0.4,0.1-0.5,0.3c-0.8,1.1,1.8,5.7,9.4,13.4
		C316.7,279.1,316.3,279.8,315.7,279.8"/>
	<path d="M323.9,303.3c-3.4,1.7-7.1,1.8-9-1.4c-1.6-2.6-0.6-4.7,2.2-5.8c-2.8-1.2-7.5-3.7-7.5-6.6c-0.1-2.1,1.6-3.2,3.9-3.4
		c-2.7-1.9-6.8-5.2-6-7.8c0.2-0.8,0.7-1.4,1.5-1.6c1.9-0.7,4.8,0.6,7,1.9l-0.9,1.1c-1.8-1-5.6-2.9-6.1-1.1c-0.6,2.1,4.3,5.8,7.5,7.7
		c0.7,0.4,0.3,1.4-0.5,1.3c-0.8-0.1-3.2-0.3-4.2,0.6c-0.4,0.3-0.6,0.8-0.6,1.4c0,2.3,5.3,5,8.5,6.1c0.7,0.3,0.6,1.3-0.2,1.4
		c-0.8,0.1-3,0.6-3.6,1.8c-0.3,0.6-0.2,1.5,0.4,2.4c1.8,2.9,5.1,1.8,6.9,0.8c0.4-0.2,0.8-0.1,1,0.3
		C324.4,302.7,324.3,303.1,323.9,303.3"/>
	<path d="M324.4,303.1c-1.2,0.8-1.8-0.6-1.1-1c0.1-0.1,0.2-0.1,0.4-0.2c0.3-0.2,0.7-0.2,1,0.1C325,302.2,324.9,302.8,324.4,303.1"/>
	<path d="M323.7,303.3c-0.7,0-1-0.9-0.4-1.3c0.1-0.1,0.3-0.2,0.3-0.2c0.9-0.4,1.5,0.8,0.7,1.3l-0.1,0.1
		C324,303.3,323.9,303.3,323.7,303.3"/>
	<path d="M324.1,303.2c-1,0.6-1.8-0.7-0.8-1.2C324.2,301.5,325,302.8,324.1,303.2"/>
	<path d="M324.6,308.5c-5,0-6.9-3.1-1.4-6.4c0.4-0.2,0.8-0.1,1,0.2c0.2,0.3,0.1,0.8-0.2,1c-1,0.6-3.2,2.1-2.4,3
		c1.1,1.2,5.5,0.9,9-0.2l18.7-6c0.4-0.1,0.8,0.1,1,0.4c0.1,0.4-0.1,0.8-0.5,0.9l-18.7,6C329.7,307.9,326.7,308.5,324.6,308.5"/>
	<path d="M332.8,315.2c0.1,0,0.2-0.1,0.3-0.1C333,315.1,332.9,315.1,332.8,315.2z M329.2,315.5c-1.4,0-2.8-0.2-4-0.5
		c-4.2-1.1-4.6-4.8-4.6-5c-0.1-0.9,1.4-1.1,1.5-0.1c0,0.1,0.4,2.9,3.6,3.7c1.4,0.4,3.7,0.7,6.8,0.2c0.5-0.2,1,0.2,1,0.6
		c0,0.3-0.3,0.6-0.6,0.7C332.1,315.4,330.1,315.5,329.2,315.5"/>
	<path d="M366.9,331.5c-2.4,0-4.1-1.7-4.3-3.6c-0.2-1.6,0.6-3.2,1.4-4.4c-4.9,1.5-15.4,4.3-18.6,2c-2.1-1.5-2.3-3.6-0.9-5.6
		c-2.9,0.7-7.8,1.4-11.2-0.3c-3.6-1.9-3.4-4.1-1.3-5.6c0.3-0.2,0.8-0.2,1,0.2c0.3,0.3,0.2,0.7-0.2,1c-1.7,1.2-0.7,2.2,1.1,3.2
		c4.3,2.2,12.3-0.4,12.4-0.4c0.8-0.3,1.4,0.7,0.7,1.2c0,0-2.2,1.7-2.1,3.5c0,0.7,0.4,1.3,1.2,1.9c2.5,1.8,13.3-0.9,19.6-3
		c0.8-0.3,1.3,0.6,0.8,1.1c-0.8,0.8-2.8,3.2-2.6,5.2c0.1,0.8,0.5,1.4,1.3,2c2.6,1.7,8.9-2.2,14.2-6.6c0.6-0.8,2.1,0.1,1,1.1
		C377,327.1,371.1,331.5,366.9,331.5"/>
	<path d="M382.3,337.3c-5.5,0-4.1-8.9-2.8-13.9l1.4,0.4c-1.3,4.9-2,11,0.5,12c3.7,1.4,15.2-8.2,16.5-12.3c0,0,0.1-0.3,0.1-0.3
		c0-0.4,0.4-0.7,0.8-0.7c0.4,0,0.7,0.3,0.7,0.7C399.5,326.7,388,337.3,382.3,337.3"/>
	<path d="M398.8,323.9c-0.5,0-0.9-0.4-0.7-0.9c0.9-3.1,0.3-10.5,0-13.7c-0.1-0.9,1.4-1.1,1.5-0.2c0.4,3.3,0.9,11-0.1,14.3
		C399.4,323.7,399.1,323.9,398.8,323.9"/>
	<path d="M379.5,366c-5.3,0-7.3-4.9-8-9.8c-3.2,3.5-12.5,12.3-21.3,6.8c-4.4-2.8-2.8-8-1.4-10.9c-6,2.9-13.6,4.6-16.5-1.2
		c-3.9-7.9,3.5-12.2,4.4-12.7c0.1-0.1,0.2-0.1,0.4-0.1c0.8,0,1,1,0.3,1.3c-1.3,0.7-7,4.3-3.7,10.9c0.7,1.4,1.8,2.3,3.3,2.8
		c5.1,1.4,13.2-3.3,13.2-3.3c0.7-0.4,1.5,0.3,1,1c-0.1,0.1-5.2,8-0.2,11.1c9.5,6,20.2-7.7,20.3-7.8c0.4-0.5,1.3-0.3,1.4,0.4
		c0,0.1,0.6,8.8,5.1,10c5.2,1.4,11.2-3.9,16.5-14.6c5.7-11.6,3.8-25.8,3.7-26.6c0-0.4,0.3-0.7,0.8-0.7s0.7,0.3,0.7,0.7
		c0.1,0.6,2,15.3-3.8,27.2C390.7,360.4,384.9,366,379.5,366"/>
	<path d="M337.1,339.5c-13.7,0-18.9-10.2-11.4-15.4c-3.4-0.4-6.8-1.5-8.7-4.2c-3.2-4.5-0.6-9.1-0.4-9.5c0.2-0.7,0.9-0.7,1.3-0.4
		c0.3,0.3,0.4,0.7,0.1,1c-0.3,0.4-2.5,4.3,0.2,8.1c0.9,1.3,2.4,2.3,4.3,2.9c2.9,0.9,5.7,0.8,5.7,0.8c0.9,0,1.1,1.1,0.3,1.4
		c0,0-3.3,1.2-4.5,3.8c-0.6,1.3-0.5,2.8,0.2,4.4c1.8,4.1,8,5.8,12.8,5.8c0.4,0,0.7,0.3,0.7,0.7C337.8,339.2,337.5,339.5,337.1,339.5
		"/>
	<path d="M243,210.9c0.8,0.5,0,1.7-0.9,1.1c-8.1-5.2-42.4-27.5-50.2-33.2c-7.9-5.7-38.2-39.2-47.5-45.9c-8.8-6.2-15.6-13-18.8-11.1
		c-0.1,0.1-0.8,0.6-1.3,3.9c-1.2,9.1,1,29,5.4,33.3c2.9,2.9,6.6,6.7,11.8,11.5c0.3,0.3,0.3,0.7,0,1c-0.3,0.3-0.8,0.3-1.1,0
		c-5.1-4.7-8.9-8.7-11.8-11.5c-5.1-5-7-25.9-5.8-34.5c0.5-3.6,1.3-4.5,2-4.9c4.3-2.6,10.7,4.2,20.5,11.1
		c9.5,6.8,39.7,40.2,47.5,45.9C201.7,184.2,242.7,210.7,243,210.9"/>
	<path d="M147.4,177.5c-0.2,0-0.4-0.1-0.5-0.2c-2.1-1.8-4.2-3.6-6.3-5.5c-0.7-0.6,0.3-1.7,1.1-1c2,1.9,4.2,3.7,6.2,5.5
		C148.5,176.7,148.1,177.5,147.4,177.5"/>
	<path d="M239.8,226.3c-1,0-50.5-21.7-78.7-38.7c-4.3-2.6-8.8-5.8-13.4-9.6c-0.8-0.6,0.3-1.7,1-1.1c4.6,3.8,9,6.9,13.2,9.5
		c30.8,18.6,77.7,38.3,78.2,38.5C240.8,225.2,240.6,226.3,239.8,226.3"/>
	<path d="M243.6,239.1c-1.1,0-42.5-13.7-68.8-26c-13-6.2-21.7-10.3-27.4-13.4c-7.1-3.9-10-6.2-13-9.4c-5.9-6.1-9.3-21.7-8.3-28
		c0.1-0.5,0.4-0.9,0.9-1c1.2-0.4,3.9,0.5,14.5,9.3c1.2,1.1,5.7,4.9,7.3,6.4c0.3,0.3,0.3,0.7,0,1c-0.3,0.3-0.8,0.3-1.1,0
		c0.3,0.3-2.6-2.4-6.9-6.1c-0.2-0.1-0.3-0.2-0.3-0.3c-10.4-8.7-12.6-9.1-12.9-9.2c-1,6,2.5,21.3,7.9,26.9c3,3.1,5.7,5.3,12.7,9.1
		c5.7,3.1,14.3,7.2,27.3,13.4c29.5,13.9,67.9,25.8,68.3,25.9C244.6,238,244.4,239.1,243.6,239.1"/>
	<path d="M161.2,227.5c-0.4,0-5.8-2-6.4-2.3c-6-2.5-14.5-20.7-13.7-25.1c0.8-3.8,5.4-2.4,7.8-1c0.4,0.2,0.5,0.6,0.2,1
		c-0.2,0.3-0.7,0.4-1,0.2c0,0-0.3-0.2-0.8-0.4c-1.8-0.8-3.2-1-4-0.7c-0.4,0.2-0.6,0.6-0.8,1.1c-0.7,3.4,7.2,21.2,12.8,23.6
		c1.2,0.5,3.4,1.3,6.1,2.2C162.3,226.4,162.1,227.5,161.2,227.5"/>
	<path d="M246.3,249.5c-0.4,0-38.3-8.2-38.6-8.2c-11.4-2.5-34.4-9.6-46.3-13.7c-0.4-0.1-0.6-0.5-0.4-0.9c0.1-0.4,0.6-0.6,1-0.4
		c11.9,4.1,34.7,11.2,46.1,13.7c19.2,4.1,38.4,8.2,38.4,8.2C247.4,248.3,247.2,249.5,246.3,249.5"/>
	<path d="M252.9,264.3c-16.2,0-54.6-3-71.9-9c-17.8-6.2-25-19.2-26.5-25.9c-0.3-1.3,0-2.3,0.7-3c1.1-1,3.1-1.1,6.1-0.4
		c0.3,0.1,2.6,0.7,3.1,1c0.4,0.2,0.6,0.6,0.4,0.9c-0.2,0.4-0.6,0.5-1,0.4c0,0-1-0.4-2.5-0.8c-0.8-0.3-4.1-0.9-5.1-0.1
		c-0.4,0.3-0.4,0.9-0.3,1.7c1.4,6.4,8.3,18.8,25.5,24.8c17.3,6.1,53.7,8.6,71.4,8.9C253.9,262.9,253.9,264.3,252.9,264.3"/>
	<path d="M231.8,277.1c-11.4,2.1-31.9,4.9-41.3-1.5c-8.1-5.5-17.2-15.7-16.2-19.7c0.9-3.8,8-1.8,10.3-0.9c0.4,0.2,0.6,0.6,0.4,0.9
		c-0.2,0.4-0.6,0.5-1,0.4c0,0-0.2-0.1-0.5-0.2c-2.1-0.7-7.2-1.9-7.7,0.1c-0.7,2.8,7,12.4,15.7,18.3c9,6.1,29.3,3.3,40.2,1.2
		c15.2-2.9,27.1-1.9,29.4-1.6c0,0,0.2,0,0.2,0c0.4,0,0.7,0.3,0.7,0.7c0,0.4-0.3,0.7-0.7,0.7C260.7,275.7,249.2,273.9,231.8,277.1"/>
	<path d="M217,297.3c-1.8,0-4.1-0.1-5.9-0.4c-16.4-2.2-24.2-16.1-20.3-19.4c1.8-1.5,5.2-0.7,5.6-0.6c1,0.2,0.5,1.6-0.4,1.3
		c-0.8-0.2-3.1-0.6-4.2,0.3c-0.5,0.4-0.6,1.2-0.4,2.3c0.8,4,6.8,12.9,19.9,14.7c0.7,0.1,1.5,0.2,2.2,0.3c14.2,0.9,19.8-4,29-5.8
		c8.8-1.8,21.9-3.1,22.2-3.1c1,0,1,1.4,0.1,1.4c-0.1,0-13.2,1.4-21.9,3.1C234.8,292.9,229,297.3,217,297.3"/>
	<path d="M223.3,315.5c-6.8,0-11.6-3.4-14.4-6.2c-3.4-3.4-5.2-7.4-5-9.3c0.4-3.4,6.5-4.4,7.2-4.5c1-0.1,1.2,1.2,0.2,1.4
		c-1.6,0.2-5.7,1.2-5.9,3.2c-0.1,1.3,1.4,5,4.6,8.2c2.6,2.7,7.2,5.8,13.5,5.7c12.3-0.1,23.9-5.3,35.9-10.1c7.4-3,14.9-3.6,15.2-3.6
		c1-0.1,1.1,1.3,0.1,1.4c-0.1,0-7.6,0.7-14.8,3.5C248.4,309.9,235.9,315.5,223.3,315.5"/>
	<path d="M241.5,334.1c-1.8,0-3.5-0.5-5.8-1c-6.7-1.4-18.8-10.3-18.8-13.8c0.1-3.3,10.7-5.3,14-5.9c0.4-0.1,0.8,0.2,0.9,0.6
		c0.1,0.4-0.2,0.7-0.6,0.8c-6.1,1-12.7,3.1-12.7,4.5c0,2.3,10.8,11,17.6,12.4c6.6,1.4,7,2.3,22.1-6.2c13.5-7.6,16.5-8.3,19.4-8.9
		c2.1-0.4,4.2-1.2,11.1-1c0,0.8,0,0.5-0.1,1.4c-6.2-0.2-8.2,0.4-10.6,1C266.3,320.5,249.8,334.1,241.5,334.1"/>
	<path d="M260.8,349.4c-2.7,1.3-5.8,0.7-8.6-0.4c-6-2.3-12-7.6-12.8-9.8c-0.9-2.8,3.8-5.7,8-7.8c0.6-0.3,1.2,0.1,1.2,0.6
		c0,0.4-0.3,0.7-0.7,0.7c0.1,0,0.2,0,0.1,0c-4.8,2.4-7.6,4.7-7.1,6.1c0.6,1.7,6.1,6.7,11.9,8.9c2.1,0.8,5.1,1.5,7.3,0.4
		c4-2,18-11.8,24.9-14.2c6.2-2.1,15.2-3.1,16.1-3.2c1.1-0.2,1.2,1.1,0.4,1.4c-0.3,0.1-9.5,1-16,3.2
		C278.5,337.7,261.7,349.4,260.8,349.4"/>
	<path d="M274.8,361.7c-8.1,0-15-3.4-17.3-5.3c-2.8-2.4-0.5-5.9,2.4-8.1c0.1-0.1,0.2-0.2,0.2-0.2c0.3-0.3,0.8-0.3,1.1,0
		c0.3,0.3,0.3,0.7,0,1c0,0-0.1,0.1-0.3,0.3c-2,1.6-4.4,4.3-2.4,6c2.8,2.3,14.4,7.6,25.4,3.2c1.2-0.5-0.2,0.2,28.7-14.2l0.7,1.2
		c0,0-15.5,7.7-27.1,13.4C282.8,360.8,279,361.7,274.8,361.7"/>
	<path d="M288.5,376.8c-4.5,0-9.8-2.2-12.5-4.9c-1.7-1.7-2.3-3.5-1.6-5c1.9-4.4,9.1-8.2,10.1-8.6c0.4-0.2,0.8,0,1,0.4
		c0.2,0.4,0,0.8-0.4,0.9c0,0-0.2,0.1-0.5,0.2c-2.2,1.1-7.4,4.1-8.8,7.6c-1.6,3.9,9.4,9.5,15.3,7.7c5.4-1.7,17.9-11.2,22.2-14.6
		c0.3-0.2,0.8-0.2,1.1,0.1c0.3,0.3,0.2,0.7-0.1,1c-0.6,0.4-13.6,10.8-20.8,14.1C291.8,376.4,290.5,376.8,288.5,376.8"/>
	<path d="M309.6,392.4c-3.3,1.9-10.7-2.2-13.9-4.3c-3.2-2.1-7.1-5-7.9-6.6c-1.7-3.3,4.4-6.7,5.1-7.1c0.4-0.2,0.8-0.1,1,0.3
		c0.2,0.3,0.1,0.8-0.3,1c-1.5,0.8-5.4,3.4-4.5,5.3c0.5,1,3.4,3.5,7.4,6c5.7,3.6,10.6,5.3,12.3,4.2c4.2-2.5,17.7-20.1,17.8-20.3
		c0.6-0.8,1.8,0.1,1.2,0.8C327.3,372.5,314,389.8,309.6,392.4"/>
	<path d="M329.6,371.7c-8,0-13.7-6.1-16.9-12.9c-2.5-5.1-1.5-10.4-0.2-14c1.2-3.4,2.8-5.6,2.9-5.7c0.2-0.3,0.7-0.4,1-0.2
		c0.3,0.2,0.4,0.7,0.2,1c0,0-1.6,2.2-2.7,5.4c-1.2,3.3-2.1,8.2,0.1,12.9c2.6,5.5,7,10.9,13.4,11.9c1.5,0.3,3,0.2,4.4-0.1
		c1.1-0.3,1.4,1.1,0.5,1.3C332,371.5,330.8,371.7,329.6,371.7"/>
	<path d="M293.3,410c-0.7,0-1.5-0.2-2.4-1c-3.7-3.6,2.2-17.1,4.4-21.7c0.2-0.4,0.6-0.5,1-0.4c0.4,0.2,0.5,0.6,0.4,0.9
		c-1.8,3.6-7.7,17.3-4.7,20.1c0.7,0.6,1.2,0.6,1.5,0.6c1.5-0.3,3.6-2.8,5.3-6.7c0.3-1,1.9-0.6,1.4,0.5
		C299.1,405.1,296.4,410,293.3,410"/>
	<path d="M313.2,402.4c-1.2,5.6-5.2,11.2-11.2,10.6c-4.7-0.5-4.3-6.8-3-11c0.1-0.4,0.5-0.6,0.9-0.5c0.4,0.1,0.6,0.5,0.5,0.9
		c-0.9,3-1.7,8.9,1.7,9.3c5.1,0.5,8.5-4.4,9.6-9.5c1.3-5.7,4.7-7.1,5.1-7.2c0.4-0.1,0.8,0,1,0.4c0.1,0.4-0.1,0.8-0.4,0.9
		C317.3,396.2,314.3,397.4,313.2,402.4"/>
	<path d="M320.3,399.3c-1.3,0-3-0.4-3.7-1.6c-0.6-1-0.5-2.3-0.1-2.7c0.5-0.6,1.5,0,1.2,0.7c-0.3,1,0.1,1.8,1.8,2.1
		c1.1,0.2,2.2,0,3.2-0.7c2.4-1.6,3.9-5.6,4.5-11.3c0.9-9.2,4.2-15.3,4.2-15.6c0.3-0.9,1.7-0.4,1.4,0.5c-0.1,0.3-3.3,6.2-4.2,15.3
		C328.2,391.4,326.1,399.3,320.3,399.3"/>
	<path d="M305.2,429.2c-3.4,0-3.8-4.7-3.6-7.8c-3.1,4.9-7.5,8.8-11.6,4.6c-3.2-3.3-4.2-8.4-2.8-15.3c1-5.1,2.9-9.1,3-9.3
		c0.2-0.4,0.6-0.5,1-0.4c0.4,0.2,0.6,0.6,0.4,0.9c0,0-1.9,4.1-2.9,9c-0.9,4.4-1.2,10.5,2.4,14.1c0.9,0.9,1.8,1.3,2.8,1.3
		c3.5-0.2,7.1-6.5,8.2-8.9c0.4-0.8,1.6-0.4,1.4,0.4c-0.6,3.2-0.8,8.7,1,9.8c0.6,0.4,1.5,0.2,2.8-0.5c11.2-6.5,8.9-18.1,10-19.5
		c0.2-0.2,0.6-0.4,0.9-0.3c0.6,0.2,0.6,0.6,0.6,2.5c-0.1,2.7-0.2,8.9,2.1,10.2c0.8,0.4,2,0.2,3.5-0.6c2.7-1.5,5-3.2,6.7-5.1
		c3.8-4.2,3.6-7.8,3.6-7.9c-0.1-0.8,1.4-1.1,1.5-0.1c0,0,0.5,4.1,3,5.1c1.3,0.5,3,0,5.1-1.5c4-2.9,3.5-10.9,2.6-15.4
		c-0.2-0.9,1.3-1.2,1.5-0.3c0,0.1,0.3,1.5,0.5,3.6c0.4,4.5,0.1,10.5-3.7,13.2c-4,2.9-7.6,2.8-9.5-1.3c-1.6,4.7-5.8,8.5-10.4,11
		c-4.5,2.5-7,0.2-7.7-4.7c-1.1,4.1-3.5,8.9-9.4,12.3C307,428.9,306,429.2,305.2,429.2"/>
	<path d="M403.2,403.3c-1.8,0-3.7-1.2-4.3-4.3c-0.8-3.8,0.6-9,0.6-9.3c0.2-0.9,1.7-0.5,1.5,0.3c-0.9,3.8-2,11.3,2.1,11.8
		c0.6,0.1,1.3-0.5,1.8-0.9c5.6-5.6,11-29.5,7.2-48.5c-4.2-20.7-12.5-30.6-13.5-31.8c-0.3-0.3-0.3-0.7,0-1c0.3-0.3,0.8-0.3,1.1,0
		c0,0,0.1,0.1,0.2,0.2c1.5,1.8,9.5,11.6,13.7,32.3C417.7,373.1,410.5,403.3,403.2,403.3"/>
	<path d="M385.6,411.4c-1.3,0-3.1-0.5-4.3-0.8c-5.9-1.7-6.1-4.4-6.1-4.7c0-0.4,0.3-0.7,0.7-0.7c0.4,0,0.7,0.3,0.8,0.7
		c0,0,0.2,2,5.1,3.4c0.8,0.2,1.7,0.4,2.7,0.6c7.6,1.4,14.2-11,14.3-11.2c0.2-0.4,0.6-0.5,1-0.3c0.4,0.2,0.5,0.6,0.4,0.9
		C399.7,399.8,393.6,411.4,385.6,411.4"/>
	<path d="M341.6,426.5c-0.4,0-0.7-0.3-0.7-0.7c0-0.4,0.4-0.7,0.8-0.7c0.6,0,14.2-0.3,20.9-3.3c7.4-3.3,16-12.1,16.1-12.2
		c0.3-0.3,0.8-0.3,1.1-0.1c0.3,0.3,0.3,0.7,0.1,1c-0.4,0.4-8.9,9.2-16.5,12.6C356.4,426.1,343.3,426.4,341.6,426.5"/>
	<path d="M333.7,437.7c-3.8,0-5.1-7.1-5.1-10.7c0-0.4,0.3-0.7,0.8-0.7c0.4,0,0.7,0.3,0.7,0.7c0,0,0,2.9,0.8,5.6
		c0.4,1.1,1.2,3.4,2.5,3.6c0.9,0.2,2.3-0.6,4.1-2.2c3.1-2.8,3.9-9.8,3.8-13.7c0-0.8,1.2-1,1.5-0.3c1.1,2,4,0.3,5.5-0.7
		c4.1-2.8,0.8-16.4-0.8-21.4c-0.3-0.9,1.2-1.3,1.4-0.4c0.6,1.9,5.9,19,0.2,22.9c-1.8,1.3-4.4,2.5-6.4,1.6c-0.1,4.2-1,10.1-4.2,13
		C336.6,436.8,335.1,437.7,333.7,437.7"/>
	<path d="M293.7,446.5c-2.6,0-5.4-2.2-5.9-4.9c-0.1-0.4,0.2-0.7,0.6-0.8c0.4-0.1,0.8,0.2,0.9,0.6c0,0.1,0.6,3.2,4,3.7
		c4,0.6,6.9-8.9,7.6-12.6c0.1-0.4,0.4-0.6,0.8-0.6c0.4,0,0.7,0.4,0.6,0.7c-0.3,4.2,1,9.2,5.4,8.9c6.3-0.3,6.6-11.5,6.6-11.6
		c0-0.6,0.8-0.9,1.2-0.5c0.2,0.2,5.4,4.2,10.4,0.2c3.8-3,5.1-9.8,4.9-14.4c0-0.4,0.3-0.7,0.7-0.7c0.4,0,0.8,0.3,0.8,0.7
		c0.2,5.1-1.2,12.2-5.4,15.5c-4.5,3.6-9.1,1.8-11.2,0.6c-0.5,5.8-2.8,12.2-9.1,11.7c-3.6-0.4-5-3.1-5.6-5.7
		C300.1,440.7,297.7,446.5,293.7,446.5"/>
	<path d="M281.1,478.6c-4.6,0,0-10.7,1.4-18c1.4-7.1-1.3-14-1.2-21.3c0.1-7.3,5.2-27.8,5.5-28.7c0.2-0.9,1.7-0.6,1.5,0.3
		c0,0.2-5.3,21.2-5.4,28.4c-0.1,7.2,2.6,14.2,1.2,21.6c-1,5.3-4.4,15.2-3.1,16.3c0.1,0.1,0.4,0.1,0.8-0.1c5.3-1.9,9.4-7.9,10.7-13
		c1.2-4.8,1.7-13.7,1.7-18.4c0-0.4,0.3-0.7,0.8-0.7c0.4,0,0.7,0.3,0.7,0.7c0,0.1,0,6.8-0.7,12.8c-0.7,6-2,11.2-6.9,16.1
		c-1.8,1.8-3.8,3.1-5.7,3.8C281.8,478.6,281.4,478.6,281.1,478.6"/>
	<path d="M282.7,448.1c-0.7,0-1-0.7-0.5-1.2c0.3-0.3,2.5-1.4,5.6-5.7c0-0.1,0.1-0.2,0.1-0.2c3-4.3,5.3-13.8,5.3-13.9
		c0.1-0.4,0.5-0.6,0.9-0.5c0.4,0.1,0.7,0.5,0.6,0.8c-0.1,0.4-2.4,9.8-5.5,14.4c0,0-0.1,0.1-0.1,0.2c-3.2,4.4-5.7,6-5.8,6
		C283.1,448.1,282.9,448.1,282.7,448.1"/>
	<path d="M298.7,463.5c-2.6,0-4.4-2.6-5.2-4.8c-0.1-0.4,0.1-0.8,0.5-0.9c0.4-0.1,0.8,0.1,1,0.5c0.3,1,1.6,3.6,3.5,3.8
		c1,0.1,2-0.4,3.1-1.4c0.2-0.2,0.4-0.4,0.6-0.7c1.3-1.5,2.3-3.8,3-6.8c1.2-5.2,1.1-10.9,1.1-10.9c0-0.4,0.3-0.7,0.7-0.7
		c0.4-0.1,0.8,0.3,0.8,0.7c0.1,5.3-0.8,14.4-4.3,18.6c-0.2,0.3-0.5,0.6-0.8,0.9C301.3,462.9,300,463.5,298.7,463.5"/>
	<path d="M308.8,456.3c-1.6,0-2.9-1.4-3.5-2.7c-0.4-0.9,1-1.4,1.4-0.5c0.2,0.4,0.9,1.6,1.8,1.8c1.3,0.3,2.8-1.7,3.4-2.8
		c2.4-4,4.7-13.8,4.7-17.1c0-0.4,0.3-0.7,0.8-0.7s0.8,0.3,0.8,0.7C318.1,438.8,314.6,456.3,308.8,456.3"/>
	<path d="M329,439.7c-3.7,9.7-11.3,10.3-12.3-4.9c-0.2-1.1,1.5-1.3,1.5,0.1c0.2,3.2,1.3,9.5,3.7,10.3c0.6,0.2,1.3,0,1.8-0.3
		c1.8-1.1,3.2-3.8,3.9-5.7c1.1-2.7,1.7-5.5,1.7-6.5c0-0.4,0.3-0.7,0.7-0.7s0.8,0.3,0.8,0.7C330.8,434,330.1,437,329,439.7"/>
	<path d="M295,517.2c-0.4,0-0.7-0.3-0.7-0.6c-1.6-19.3-7.1-41.6-7.2-41.9c-0.2-0.9,1.2-1.2,1.5-0.3c0.1,0.2,5.6,22.7,7.2,42.1
		C295.8,516.8,295.4,517.1,295,517.2"/>
	<path d="M291.4,572.5c-5.8,0,2-22.1,3.2-42c0.2-3.8,0.1-8.5-0.4-14c-0.1-0.9,1.4-1.1,1.5-0.1c0.5,5.5,0.6,10.2,0.4,14.1
		c-0.9,16.2-7.3,39.1-4.8,40.5c1,0.6,11.2-7.5,17.2-15.4c2.9-3.9,6.1-9.2,5.9-14c-1.7-51.7-15.2-76-16.7-78.6
		c-0.1-0.2-0.2-0.3-0.2-0.3c-0.4-0.8,0.9-1.4,1.3-0.6l0.1,0.2c1.6,2.6,15.3,27.2,16.9,79.2c0.3,10.4-13.4,24.3-22.5,30.2
		C292.7,572.3,292,572.5,291.4,572.5"/>
	<path d="M309.2,556.8c-0.2,0-0.4-0.1-0.5-0.2c-6.8-5.5-12.7-31.5-14.3-39.7c-0.1-0.6-0.1-0.5-0.1-0.6c-0.2-0.9,1.2-1.2,1.5-0.3
		c0,0,0.1,0.5,0.1,0.7c1.6,8,7.4,33.6,13.9,39C310.2,556.1,309.8,556.8,309.2,556.8"/>
	<path d="M327.8,578.7c-1.9,1.1-4.2,1.7-6.4,1.1c-8.3-2.1-7.6-30.1-7.1-38.1c0-0.4,0.4-0.7,0.8-0.7s0.7,0.3,0.7,0.7
		c0,0-0.1,1.1-0.1,3c-0.2,6.5-0.5,32.1,6.1,33.7c7.8,1.9,19.3-14.3,16.3-30.1c-10.8-59.8-28.5-89.3-30.5-92.5
		c-0.1-0.2-0.1-0.2-0.1-0.2c-0.4-0.8,0.9-1.4,1.3-0.6l0.1,0.2c2,3.2,19.8,33,30.6,93c0.1,0.5,0.2,1,0.2,1.5
		C341.5,561.8,335,574.6,327.8,578.7"/>
	<path d="M338.2,561.8c-0.5-0.1-11.7-2.3-13.4-17.9c-1.7-15.5-1.2-29.3-7.8-50.6c-8.5-27.4-14.3-32-14.4-32.1
		c-0.3-0.2-0.4-0.7-0.2-1c0.3-0.3,0.7-0.4,1.1-0.2c0.3,0.2,6.2,4.6,15,32.8c6.7,21.5,6.3,36.3,7.9,50.9
		c1.6,14.6,11.8,16.6,12.1,16.7c0.4,0,0.7,0.3,0.7,0.7C339.1,561.5,338.6,561.8,338.2,561.8"/>
	<path d="M315.9,564c-0.8,0.5-1.7-0.6-0.9-1.1c0,0,5-3.6,7.2-8.9c2.2-5.4,2.4-11.3,2.4-11.4c0-0.4,0.3-0.7,0.8-0.7
		c0.4,0,0.7,0.3,0.7,0.7c0,0.3-0.2,6.2-2.5,11.8C321.2,560.2,316.1,563.9,315.9,564"/>
	<path d="M347,573.6c-0.4,0.8-1.8,0.2-1.3-0.6c0.1-0.1,6.9-13.1,8.2-25c0.2-1.7,0.2-3.4,0.2-5.1c-0.3-11-5-24.1-15-49.4
		c-11.7-29.6-26.7-40.3-26.8-40.4c-0.8-0.6,0.1-1.7,0.9-1.1c0.6,0.4,15.5,11,27.4,41c10.1,25.4,14.8,38.6,15.1,49.9
		c0.1,1.8,0,3.6-0.2,5.3C354,560.2,347,573.4,347,573.6"/>
	<path d="M367,570.7c-0.3,0-0.5-0.1-0.7-0.4c-5.5-9.6-9.5-15.6-12.3-27.4c-0.1-0.4,0.2-0.7,0.6-0.8c0.4-0.1,0.8,0.2,0.9,0.6
		c0,0.1,2.2,9.6,6.7,17.5l5.5,9.6C368,570.1,367.6,570.7,367,570.7"/>
	<path d="M359.2,586.4c-10.3,6.4-18.4-25.3-20.9-36.6c-0.1-0.4-0.1-0.6-0.1-0.6c-0.1-0.4,0.2-0.8,0.5-0.9c0.4-0.1,0.8,0.1,0.9,0.5
		c0,0,0.1,0.2,0.2,0.7c2.1,9.4,10.1,41,18.6,35.7c4.3-2.6,7.2-7.8,8.6-15.3c3.8-20.8-4.7-52.8-13.7-72.4
		c-13.6-30-38.9-47.5-39.2-47.7c-0.3-0.2-0.4-0.7-0.2-1c0.3-0.3,0.7-0.4,1-0.2c0.3,0.2,25.9,17.9,39.6,48.3
		c9.1,20,17.6,52.2,13.8,73.2C366.9,578.1,363.8,583.6,359.2,586.4"/>
	<path d="M377.4,529.7c-1.8,0,0.5-3.1-7-24.1c-10.2-28.6-43.2-54-49.6-58.8c-0.4-0.3-0.6-0.4-0.6-0.4c-0.3-0.3-0.3-0.7-0.1-1
		c0.3-0.3,0.7-0.3,1.1-0.1c0,0,0.2,0.1,0.5,0.3c6.6,4.9,39.8,30.5,50.2,59.5c3.4,9.4,5.4,17.2,6.3,23.7
		C378.2,529.3,377.9,529.6,377.4,529.7"/>
	<path d="M374.6,553.7c-0.5,0-0.9-0.5-0.7-1c3-7.5,4.1-14.1,2.8-23.7c-0.1-0.9,1.4-1.1,1.5-0.2c1.1,8.3,0.6,16.2-2.9,24.4
		C375.1,553.6,374.9,553.7,374.6,553.7"/>
	<path d="M394,541.1c-2.2,0-5.4-0.7-9.1-3.6c-2.2-1.7-7.1-5.8-8.2-8.3c-0.4-0.7,0.9-1.5,1.5-0.4c0.4,0.8,2.1,3.3,7.7,7.6
		c6.4,5,10.7,2.9,10.9,2.8c0.4-0.2,0.8-0.1,1,0.3c0.2,0.3,0.1,0.8-0.3,0.9C397.3,540.5,396.1,541.1,394,541.1"/>
	<path d="M402.3,534.1c-0.6,0.7-1.8-0.1-1.2-0.9c0.1-0.1,6.7-8.3,2.7-20c-0.2-0.6-0.4-1.3-0.7-1.9c-5.6-15-19.6-37.3-40.6-50.9
		c-20.4-13.2-35.7-17-35.9-17c-0.9-0.2-0.6-1.6,0.4-1.4c0.2,0,15.7,3.9,36.3,17.2c21.3,13.8,35.5,36.4,41.2,51.6
		c0.3,0.7,0.5,1.3,0.7,2C409.5,525.2,402.6,533.7,402.3,534.1"/>
	<path d="M390.3,566.6c-6.5,4.4-13.1-6.5-16.5-13.2c-5-9.7-9.3-22.7-9.3-23.1c0-0.4,0.3-0.7,0.7-0.7s0.8,0.3,0.8,0.7
		c3.1,9.7,14.8,41.3,23.5,35.3c5.6-3.8,8.1-12.9,6.9-25.6c-0.7-7.8-2.7-16.4-5.6-24.3c-0.1-0.4,0.1-0.8,0.5-0.9
		c0.4-0.1,0.8,0.1,1,0.4c3,8,5,16.8,5.7,24.7C399,552.9,396.3,562.5,390.3,566.6"/>
	<path d="M413,540.8c-1.2,1-2.8,1.8-4.5,1.7c-7.7-0.6-22.6-44.2-44-68.3c-17.8-20-38.7-27.4-40.7-28.1c-0.9-0.2-0.7-1.4,0.2-1.4
		c0.1,0,0.3,0.1,0.4,0.1c2.3,0.8,23.1,8,41.3,28.5c20.8,23.4,36.8,67.3,43,67.8c1.1,0.1,2.2-0.4,3.3-1.3c2.7-2.2,5.7-7.7,6.1-16.2
		c0.4-7.7-1.4-23.6-17.7-42.5c-10-11.6-22.9-21.3-38.2-29c-18.3-9.1-33.7-11.9-33.9-11.9c-1-0.2-0.7-1.5,0.3-1.4
		c0.1,0,15.8,2.8,34.3,12.1c15.6,7.7,28.6,17.6,38.7,29.3c16.6,19.3,18.4,35.5,18.1,43.4C419.1,532.6,415.9,538.4,413,540.8"/>
	<path d="M418.7,524.3c-0.5,0-2.9-0.2-8.3-3.3c-2.6-1.5-5.3-6-7.2-9.6c-0.3-0.6,0.1-1.1,0.6-1.1c0.4,0,0.7,0.3,0.8,0.7
		c0-0.1,0-0.2,0-0.1c2.4,4.6,4.7,7.8,6.5,8.9c5.3,3.1,7.5,3.1,7.5,3.1C419.6,522.8,419.8,524.3,418.7,524.3"/>
	<path d="M435.2,382.2c-0.5,0.2-1,0.2-1.3-0.1c-0.7-0.5-1.1-1.7,1.7-9.8l0.5-1.5c0.3-0.9,1.7-0.4,1.4,0.5c-0.8,2-2.6,7.5-2.6,9.5
		c2.6-1.4,9.3-7.9,12.1-22.6c3-15.8-3.9-25-5.9-31.6c-1.6-5.3-0.7-7.9,0-9c0.7-1.3,2.1,0,1.3,0.7c0,0.1-0.1,0.1-0.1,0.2
		c-0.4,0.6-1.2,2.8,0.3,7.8c2,6.5,9,16,5.9,32.3C445.4,374.6,437.8,381.1,435.2,382.2"/>
	<path d="M419.3,399.6c-0.9,0-1.2-1.1-0.2-1.4c0.4-0.3,1.9-1.8,7.2-9.2c4.4-6.1,7.7-13.1,9.3-16.8c1.8-4,2.8-6.9,2.8-6.9
		c0.1-0.4,0.6-0.6,1-0.4c0.4,0.1,0.6,0.5,0.5,0.9c0,0-1.1,2.9-2.8,7c-1.6,3.7-5,10.8-9.4,17C421,398.9,419.9,399.6,419.3,399.6"/>
	<path d="M390.2,432.6c-1.9,0-2.5-1-1.9-1.8c0.5-0.7,4.7-6.5,4.7-6.5l1.2,0.8c0,0-3.3,4.5-4.4,6.1c5.7,1,23.9-15.3,28.3-31.7
		c0.5-1.8,2.6-9.1,4.3-10.1c0.9-0.5,1.7,0.7,0.8,1.2c-1.4,1.2-3.3,8.1-3.7,9.3c-2.4,9.1-9.6,19.7-18.2,26.9
		C395.9,431.3,392.2,432.6,390.2,432.6"/>
	<path d="M362.2,452.2c-1,0-1.2-0.7-0.9-1.2c0.2-0.3,0.7-0.5,1-0.2c0.4,0,2.9-0.4,11.5-7c6.4-5,11.3-13.6,14.3-17.2
		c1.3-1.6,3.1-2.6,5.2-3.1c2-0.5,3.6-0.2,3.7-0.2c0.4,0.1,0.7,0.4,0.6,0.8c-0.1,0.4-0.5,0.6-0.9,0.6c0,0-1.4-0.2-3.1,0.2
		c-1.8,0.4-3.2,1.2-4.4,2.6c-3.2,3.8-7.8,12.2-14.5,17.4C372.3,446.8,365.2,452.2,362.2,452.2"/>
	<path d="M364.7,440.4c-4.6,0-5.9-7.1,1.8-10.2c0.4-0.2,0.8,0,1,0.4c0.2,0.4,0,0.8-0.4,0.9c-5.3,2.2-5.4,6.4-3.2,7.3
		c4.3,1.8,10.3-10.7,13.1-10.1c0.8,0.2,0.7,1.3-0.1,1.4C374.4,431.2,369.5,440.4,364.7,440.4"/>
	<path d="M426.4,369.1c-0.6,0.1-1.1-0.2-1.3-0.6c-1.1-1.8,1.2-7,0.8-12.2c-0.4-5.1-1.9-9.3-1.9-9.7c0-0.4,0.3-0.8,0.8-0.8
		s0.7,0.3,0.7,0.7c0.5,1.6,1.6,5.6,1.9,9.7c0.2,2.7-0.3,5.4-0.7,7.6c-0.3,1.6-0.6,3.2-0.4,3.9c0.9-0.5,3.5-3.9,4.8-9.6
		c1.4-6.6-0.7-13.8-0.7-13.8c-0.3-0.9,1.2-1.3,1.4-0.4c0.1,0.3,2.3,7.6,0.7,14.5C431.4,363.8,428.5,368.8,426.4,369.1"/>
</g>
</svg>
