<?xml version="1.0" encoding="UTF-8" standalone="no"?>
<!-- Generator: Adobe Illustrator 24.0.2, SVG Export Plug-In . SVG Version: 6.00 Build 0)  -->

<svg
   version="1.1"
   id="Capa_1"
   x="0px"
   y="0px"
   viewBox="100 250 520 180"
   xml:space="preserve"
   sodipodi:docname="Nav.svg"
   inkscape:version="1.2.1 (9c6d41e410, 2022-07-14)"
   width="520"
   height="180"
   xmlns:inkscape="http://www.inkscape.org/namespaces/inkscape"
   xmlns:sodipodi="http://sodipodi.sourceforge.net/DTD/sodipodi-0.dtd"
   xmlns:xlink="http://www.w3.org/1999/xlink"
   xmlns="http://www.w3.org/2000/svg"
   xmlns:svg="http://www.w3.org/2000/svg"><defs
   id="defs933" /><sodipodi:namedview
   id="namedview931"
   pagecolor="#ffffff"
   bordercolor="#000000"
   borderopacity="0.25"
   inkscape:showpageshadow="2"
   inkscape:pageopacity="0.0"
   inkscape:pagecheckerboard="0"
   inkscape:deskcolor="#d1d1d1"
   showgrid="false"
   inkscape:zoom="0.82226418"
   inkscape:cx="785.63559"
   inkscape:cy="29.1877"
   inkscape:window-width="1920"
   inkscape:window-height="1017"
   inkscape:window-x="-8"
   inkscape:window-y="-8"
   inkscape:window-maximized="1"
   inkscape:current-layer="Capa_1" />
<style
   type="text/css"
   id="style472">
	.st0{fill:none;stroke:#000000;stroke-width:4;stroke-miterlimit:10;}
	.st1{fill-rule:evenodd;clip-rule:evenodd;fill:#164F63;}
	.st2{fill:#3747BA;}
	.st3{fill:#98C3F8;}
	.st4{fill:#87B5F1;}
	.st5{fill:#75A7EA;}
	.st6{fill:#649AE3;}
	.st7{fill:#538CDC;}
	.st8{fill:#417ED5;}
	.st9{fill:#3070CE;}
	.st10{fill:#5ECCCC;}
	.st11{fill:#6BCDB5;}
	.st12{fill:#4B84DD;}
	.st13{fill:#78CD9D;}
	.st14{fill:#86CE86;}
	.st15{fill:#93CE6F;}
	.st16{fill:#C4DB60;}
	.st17{fill:#CFE173;}
	.st18{fill:#FF7C68;}
	.st19{fill:#A0CF57;}
	.st20{fill:#F9493A;}
	.st21{fill:#001033;}
	.st22{fill:#FE7461;}
	.st23{fill:#212B4F;}
	.st24{fill:#ADCF40;}
	.st25{fill:#FA5240;}
	.st26{fill:#0B193C;}
	.st27{fill:#92BD38;}
	.st28{fill:#F75647;}
	.st29{fill:#FB6655;}
	.st30{fill:#162246;}
	.st31{fill:#FFCB5B;}
	.st32{fill:#FFAF3B;}
	.st33{fill:#41466B;}
	.st34{fill:#FFDD70;}
	.st35{fill:#060807;}
	.st36{clip-path:url(#SVGID_2_);}
	.st37{clip-path:url(#SVGID_4_);}
	.st38{clip-path:url(#SVGID_6_);}
	.st39{clip-path:url(#SVGID_8_);}
	.st40{clip-path:url(#SVGID_10_);}
	.st41{clip-path:url(#SVGID_12_);}
	.st42{clip-path:url(#SVGID_14_);}
	.st43{clip-path:url(#SVGID_16_);}
	.st44{font-family:'LinLibertine';}
	.st45{font-size:28.8763px;}
	.st46{letter-spacing:11;}
	.st47{clip-path:url(#SVGID_18_);}
	.st48{clip-path:url(#SVGID_20_);}
</style>
<text
   class="st44 st45 st46"
   id="text474"
   style="font-style:normal;font-variant:normal;font-weight:bold;font-stretch:normal;font-size:28.8763px;font-family:'Linux Libertine';-inkscape-font-specification:'Linux Libertine, Bold';font-variant-ligatures:normal;font-variant-caps:normal;font-variant-numeric:normal;font-variant-east-asian:normal;letter-spacing:11"
   x="234.97679"
   y="358.62674">CASA COLIBRIES</text>
<g
   id="g928">
	<path
   class="st3"
   d="m 113.6,270.7 c 1.2,-0.7 3.2,1.5 6.1,3.7 2.9,2.2 12.3,13.3 14.7,15.2 2.4,1.9 13,9.2 15.5,11 v 0.1 c -2.5,-1 -2.2,-0.9 -2.1,0.6 0.1,0.7 0.8,1.8 1.8,2.9 -0.3,0.3 -0.4,1 -0.4,1.1 -0.3,0 -15.2,-6.9 -24.2,-12.8 -1.5,-1 -3.2,-2.3 -4.3,-3.4 -1.3,-1.3 -1.9,-1.8 -2,-1.9 -1.5,-1.5 -2.8,-2.9 -3.6,-3.8 -2.1,-1.9 -2.7,-11.9 -1.5,-12.7"
   id="path476" />
	<path
   class="st4"
   d="m 114.1,284.3 c 0.2,-1 4.3,2.9 4.4,3 1.9,1.9 4,3.7 6.3,5.2 9,5.8 23.9,12.7 24.2,12.8 -0.2,1.4 0.5,2.9 1.3,4.2 l -0.1,0.1 c 0,0 -11.9,-3.9 -21.1,-8.6 -4.1,-2.1 -6.7,-3.4 -8.4,-4.4 -2.2,-1.3 -3,-2 -4,-3.1 -1.8,-2 -2.9,-7.1 -2.6,-9.2"
   id="path478" />
	<path
   class="st5"
   d="m 139.1,310.2 c -4.2,-1 -14.1,-4.3 -16.3,-5.3 -1.8,-0.8 -4.3,-6.8 -4.1,-8 0.2,-1 1.3,-0.6 1.8,-0.3 0.1,-0.2 -0.7,-0.3 8.5,4.4 9.2,4.6 21.1,8.6 21.1,8.6 l 0.1,-0.1 c 0.2,0.3 0.4,0.7 0.7,1 0,0 -0.2,1.2 0,2.5 0.1,-0.1 -5.8,-1.5 -11.8,-2.8"
   id="path480" />
	<path
   class="st6"
   d="m 124.7,305.6 c 0.2,0 9.2,3.4 14.4,4.6 5.9,1.4 11.9,2.7 11.9,2.7 0.3,1.7 1,2.5 2.1,3.3 0,0 -0.1,0.7 0.1,1.5 -1.1,0.1 -15.8,-0.6 -22.2,-2.9 -5.7,-2.1 -7.7,-6.6 -8,-8.4 -0.3,-1.1 0.8,-1 1.7,-0.8"
   id="path482" />
	<path
   class="st7"
   d="m 131.6,315.1 v 0 c 6.7,2.2 20.8,2.8 21.5,2.7 0.1,0.6 0.3,1.2 0.6,1.7 0.5,0.7 0.9,1.3 1.7,2 -0.6,-0.1 -4.2,-0.4 -9,0.5 -3.4,0.7 -9.7,1.6 -12.6,-0.4 -2.5,-1.8 -5.2,-5.1 -4.9,-6.3 0.3,-1 2.1,-0.4 2.7,-0.2"
   id="path484" />
	<path
   class="st7"
   d="m 133.3,262.4 c 0.9,-3.1 4.2,5.9 11.6,16.1 2.3,3.1 13,17.2 13,17.2 -0.3,1 1.5,4.6 2,5.4 0.2,0.3 0.5,0.8 1,1.4 -0.5,-0.4 -2.3,-1.7 -3.4,-2 0,0 -7.7,-9.8 -10.4,-12.7 -2.7,-2.9 -10.4,-11.9 -12.3,-14.7 -2.6,-3.7 -2.7,-6.7 -1.5,-10.7"
   id="path486" />
	<path
   class="st8"
   d="m 133.6,271.4 v 0 c 0.4,0.5 0.7,1.1 1.1,1.8 1.9,2.7 9.6,11.8 12.3,14.7 2.7,2.9 10.4,12.7 10.4,12.7 -0.4,-0.1 -0.7,-0.1 -0.9,0.2 -0.7,1 1.8,4.4 2.2,4.9 -1.1,-0.9 -2.2,-1.7 -3.3,-2.4 0,0 -4.7,-5.6 -11.8,-11.9 -6.8,-6.1 -8.2,-8.8 -9.7,-12.6 -1.3,-3.5 -0.3,-7.4 -0.3,-7.4"
   id="path488" />
	<path
   class="st8"
   d="m 135.5,322.4 v 0 c 2.8,0.8 7.2,0.4 10.9,-0.4 4.8,-1 8.4,-0.6 9,-0.5 0.2,0.2 0.5,0.4 0.9,0.7 0,0 -0.6,1.7 0.3,3.5 -0.3,0 -4.1,0.5 -6.8,1 -2.8,0.6 -4.6,2.2 -9,1.9 -0.2,0 -0.5,0 -0.7,-0.1 -4,-0.6 -6,-3.4 -6.3,-5 -0.3,-1.7 1.7,-1.1 1.7,-1.1"
   id="path490" />
	<path
   class="st9"
   d="m 134.2,283.8 c 0.7,-1.7 1.7,-0.9 1.7,-0.9 l 0.1,-0.1 c 1.3,2.1 3.5,4.7 7.7,8.4 7.1,6.3 11.8,11.9 11.8,12 -2,-1.2 -2.7,-1.4 -5.6,-2.7 v -0.1 c 0,0 -8,-5.5 -12.6,-8.9 -0.7,-0.6 -3.8,-6 -3.1,-7.7"
   id="path492" />
	<path
   class="st9"
   d="m 138.1,329.9 c 0.1,-1 2,-1.3 2,-1.3 0.2,0 0.5,0.1 0.7,0.1 4.4,0.3 6.3,-1.3 9,-1.9 2.7,-0.6 6.5,-1 6.8,-1 0.4,0.9 1.2,1.8 2.5,2.7 0.2,0.1 0.4,0.3 0.6,0.4 l -0.1,0.1 c 0,0 -0.2,0.5 0.1,1.3 h -0.1 c 0,0 -2.4,0.2 -4.6,1.2 -3.8,1.6 -7.3,3.3 -11.2,3.4 -3.7,-0.1 -5.8,-4 -5.7,-5"
   id="path494" />
	<path
   class="st9"
   d="m 142.1,336.2 c 0,-1 4.1,-1.7 4.1,-1.7 3,-0.5 5.9,-1.9 8.9,-3.2 2.3,-1 4.5,-1.1 4.7,-1.2 0.3,1 1.4,2.5 4.5,3.5 0,0.1 -0.4,0.7 -0.3,1.6 -0.3,0 -1.9,-0.1 -2.9,0.2 -1.1,0.3 -1.5,0.1 -6.4,3 -1.5,0.9 -2.5,1.5 -3.3,1.9 -1.8,0.8 -2.2,0.5 -3.6,0.2 -2.1,-0.4 -5.7,-3.3 -5.7,-4.3"
   id="path496" />
	<path
   class="st10"
   d="m 152.4,301.7 c 3.5,1.4 7.7,4.8 10.4,7.3 0,0 -2.5,-2.2 -4.3,-0.5 -1.3,1.2 -0.2,3.1 0.6,4.2 0,0 -2.9,-2.5 -4.6,-4 -1.4,-1.2 -6.5,-5.7 -6.7,-7.6 -0.3,-1.7 -0.7,-1.6 4.6,0.6"
   id="path498" />
	<path
   class="st11"
   d="m 149,305.2 c 0,-0.2 0.1,-0.8 0.4,-1.1 1.6,1.8 3.8,3.8 4.9,4.7 1.8,1.5 4.6,4 4.6,4 0.4,0.5 0.7,0.9 0.8,0.9 0.1,0.1 -1.1,-0.4 -1.6,0.8 -0.2,0.6 0,1.3 0.3,2 -2.9,-1.6 -6.5,-4.3 -8.3,-7.1 -0.6,-1.3 -1.3,-2.8 -1.1,-4.2"
   id="path500" />
	<path
   class="st12"
   d="m 151.4,340.4 v 0 c 0.8,-0.4 1.8,-1 3.3,-1.9 4.8,-2.9 5.2,-2.7 6.4,-3 1,-0.3 2.6,-0.2 2.9,-0.2 0.2,1.6 2,2.9 3.4,3.2 v 0.1 c 0,0 0.1,0.7 0.6,1.6 -0.3,0 -3.1,0.4 -4.9,1.1 -2.2,0.8 -7.2,4.5 -7.7,4.7 -2.1,1.1 -6,-2.3 -6.3,-3.2 -0.3,-1 2,-2.2 2.3,-2.4"
   id="path502" />
	<path
   class="st13"
   d="m 151,310.4 v 0 c 2.7,3.4 7.4,5.9 7.6,6.1 0.9,1.6 2.8,3.2 2.8,3.2 0,0 -1.1,-0.1 -1.4,0.6 -1.9,-0.9 -6.9,-3.5 -8.1,-5.2 -0.5,-0.7 -0.8,-1.5 -0.9,-2.2 -0.2,-1.4 0,-2.5 0,-2.5"
   id="path504" />
	<path
   class="st14"
   d="m 155.4,321.5 c -0.8,-0.7 -1.2,-1.3 -1.7,-2 -0.4,-0.5 -0.6,-1.2 -0.6,-1.7 -0.1,-0.8 -0.1,-1.5 -0.1,-1.5 2.4,1.9 6.9,4.1 7,4.1 0,0.1 0,0.2 -0.1,0.3 -0.1,1.8 2.3,3.8 3.7,4.9 0,0 -1.3,-0.5 -4.9,-2.1 -1,-0.6 -2.4,-1.2 -3.3,-2"
   id="path506" />
	<path
   class="st7"
   d="m 162.7,349.4 c -3.4,1.5 -7.1,-0.2 -8.1,-1.1 -0.9,-0.8 0.4,-2 0.7,-2.3 0.4,-0.1 5.6,-3.9 7.7,-4.7 1.8,-0.7 4.6,-1 4.9,-1.1 0.8,1.4 2.6,2.6 4.5,2.5 v 0.2 c 0,0 -0.5,0.7 -0.9,1.8 -8.8,4.7 -8.4,4.5 -8.8,4.7"
   id="path508" />
	<path
   class="st15"
   d="m 156.3,322.2 v 0 c 1.2,0.7 2.7,1.4 7.3,3.3 0.6,0.4 1,0.7 1,0.7 0,0 -1.4,-0.3 -0.8,1.9 0.1,0.5 0.6,1.1 1.2,1.7 -0.2,0.2 -2.3,0.7 -5.2,-1 -0.2,-0.1 -0.4,-0.2 -0.6,-0.4 -1.3,-0.8 -2,-1.8 -2.5,-2.7 -0.9,-1.9 -0.4,-3.5 -0.4,-3.5"
   id="path510" />
	<path
   class="st16"
   d="m 156.6,300.7 c 0.6,-0.9 3.5,1.2 4.3,1.8 1,1.5 3.6,5.1 3.7,5.3 h 0.1 c 0.4,2 1.5,4.3 1.7,4.7 -2.2,-2.2 -5.1,-4.9 -7.7,-6.9 -0.3,-0.5 -2.8,-3.9 -2.1,-4.9"
   id="path512" />
	<path
   class="st17"
   d="m 164.6,307.8 c -0.5,-0.7 -2.1,-3.1 -4.7,-6.8 -0.6,-0.8 -2.8,-5.3 -1.8,-5.7 1,-0.4 2.8,2.8 4.7,4.6 0.8,0.8 2.6,2.4 4.6,4.2 -0.4,-0.2 -1.8,-0.7 -2.7,0.9 -0.3,0.6 -0.3,1.6 0,2.7 l -0.1,0.1"
   id="path514" />
	<path
   class="st18"
   d="m 158.2,314.4 c 0.4,-1.2 1.7,-0.7 1.6,-0.8 0,0 -0.4,-0.4 -0.8,-0.9 -0.8,-1.1 -1.9,-3 -0.6,-4.2 1.9,-1.8 4.3,0.5 4.3,0.4 0.8,0.8 1.6,1.5 2.4,2.2 v 0 c 0,0 -1.4,-0.9 -2.3,0.5 -0.8,1.4 3.7,5.2 4,5.4 -0.1,-0.1 -2,-1.4 -2.6,0.5 -0.6,1.9 3.1,5 3.1,5 0,0 -1.6,0.3 -1,2.7 0.7,2.4 2.6,2.2 2.6,2.2 0,0 -1,1.7 -0.4,3.1 0.6,1.4 1.2,2.2 1.8,2.6 l -0.1,0.2 c -1.7,-0.9 -5.9,-3.5 -6.4,-5.3 -0.5,-2.2 0.8,-1.9 0.8,-1.9 -1.6,-1 -4.8,-3.5 -4.7,-5.5 0.1,-1.1 1.3,-1 1.4,-1 -1.3,-1 -3.7,-3.5 -3.1,-5.2"
   id="path516" />
	<path
   class="st19"
   d="m 159.7,328.8 v 0 c 3.3,1.8 5.2,1 5.2,1 v 0 c 1.9,1.8 5.2,3.6 5.2,3.6 0,0 -3.7,1 -5.5,0.4 -1.9,-0.5 -4.2,-1.8 -4.8,-3.7 -0.3,-0.7 -0.1,-1.3 -0.1,-1.3"
   id="path518" />
	<path
   class="st6"
   d="m 159.9,352 c 0.5,-1.3 2.3,-2.3 2.8,-2.6 0.9,-0.4 8.8,-4.7 8.9,-4.7 -0.4,1.2 -0.7,2.9 0,4.5 0.1,0.2 0.2,0.5 0.3,0.7 l -0.2,0.1 c -1.4,1.2 -5.2,4.3 -6.9,4.9 -1.9,0.6 -5.5,-1.4 -4.9,-2.9"
   id="path520" />
	<path
   class="st20"
   d="m 162.4,383 c 0.3,-1.5 0,-2.9 -0.1,-4.4 0.1,-0.1 0.8,-0.6 1.7,-1.9 0,0 0,0 0.1,0 0,0 0.2,1.2 1.4,1.4 0.2,0 0.3,0 0.5,0 0,0 0,2.2 -0.2,4.2 -0.2,1.9 -0.6,3.6 -2.1,5.2 -0.5,0.5 -1.1,1 -1.7,1.2 -1.5,0.5 -0.1,-3.3 0.4,-5.7"
   id="path522" />
	<path
   class="st21"
   d="m 162,375.9 c 0,-2.4 1.7,-9.4 1.7,-9.4 h 0.1 c -0.3,1.7 -0.3,3.6 0.8,4.9 0.4,0.4 0.7,0.5 1.1,0.5 v 0.1 c 0,0 -0.7,3.2 -1.7,4.7 0,0 0,0 0,0.1 -0.9,1.4 -1.7,1.9 -1.7,1.9 -0.2,-1 -0.3,-1.9 -0.3,-2.8"
   id="path524" />
	<path
   class="st22"
   d="m 176.9,332.2 c -4.8,1.2 -6.3,3 -8.3,-1.5 -0.6,-1.4 0.4,-3.1 0.4,-3.1 0,0 -1.9,0.2 -2.6,-2.2 -0.7,-2.4 1,-2.7 1,-2.7 0,0 -3.7,-3.1 -3.1,-5 0.6,-1.8 2.4,-0.6 2.6,-0.5 -0.3,-0.2 -4.8,-4 -4,-5.4 0.8,-1.4 2.3,-0.5 2.3,-0.5 v 0 c 3.3,3.1 4.6,4.6 7.6,9 0,0 -2.6,-3 -3.3,-2 -0.6,0.9 2.7,4.5 2.9,4.7 -0.2,-0.1 -2,-1.3 -2.3,-0.2 -0.3,1.1 2.4,2.8 2.4,2.8 0,0 -1.8,-0.3 -1.8,0.9 0,1.2 2.8,2.2 2.8,2.2 0,0 -2,0.2 -1.2,1.7 0.7,1.2 2,0.6 2.5,0.4 -0.4,0.2 -1.2,0.9 -0.8,1.3 0.6,0.6 2.2,0.2 2.9,0.1"
   id="path526" />
	<path
   class="st21"
   d="m 172.2,409.8 c 0,1.6 -0.9,3.4 -1.9,4.8 -2,-1.8 -3.9,-10.5 -4.4,-13.1 -0.5,-6.5 -2.2,-13.9 -2.2,-13.9 l -0.1,-0.1 c 0.8,-0.9 1.5,-2 1.8,-3.3 0.1,-0.5 0.2,-1.2 0.3,-1.9 0,0 0.4,1.3 1.3,1.4 0.5,0.8 4.7,8.8 5.2,26.1"
   id="path528" />
	<path
   class="st23"
   d="m 198.3,362.6 v 0 c -0.1,0 -2.2,4.3 -4.7,3.8 -1.2,-0.2 -0.5,-0.2 -1.5,-0.2 0,0 -2.7,3 -5,4.1 -2.1,1 -6.1,1.1 -6.6,1.1 0.1,-1 0.1,-1.8 0.1,-1.8 0,0 0.4,1.1 2.1,-0.1 1.7,-1.2 -0.1,-7.3 -0.1,-7.3 h -0.1 c 0.1,1.3 0.1,3.3 -1,4.2 -2.5,1.9 -2.9,-1.3 -2.9,-1.3 0,0 0.1,1.3 -1.2,2.8 -0.5,0.6 -1.2,1.2 -2.1,1.7 -2.8,1.7 -1.9,-4.3 -2.1,-4 -0.2,0.3 0.4,4.3 -3.2,6.5 -2.3,1.4 -1.5,-3.3 -1.5,-3.3 0,0 -1.3,3 -2.7,3.1 -0.3,0 -0.7,-0.1 -1.1,-0.5 -1.1,-1.2 -1.1,-3.2 -0.8,-4.9 0.3,-1.7 0.9,-3 0.9,-3 -0.2,1 -0.2,1.8 0.2,2.2 1.1,1.2 2.4,-1.8 2.5,-2.1 -0.1,0.4 -0.8,3.2 0.7,3.4 1.7,0.2 2.8,-1.5 3.2,-3.3 0.4,-1.7 1.3,-2.2 1.4,-2.2 0,0.1 -0.3,0.8 0.7,1 1.3,0.2 2.4,-1.2 2.6,-4.2 0.2,-2.6 1.1,-4.6 1.3,-5 -2.6,0.6 -4.7,-1.6 -5.8,-4.1 -0.7,-1.6 -0.5,-3.2 0,-4.5 0.4,-1.1 0.9,-1.8 0.9,-1.8 v -0.2 c 1.4,0 2.4,-0.6 2.4,-0.6 l 1.2,-0.1 c 1.2,0.7 2.7,0.7 2.9,0.7 -0.2,0.1 -2.4,1.4 -1.3,3.9 1.2,2.6 5.4,-0.1 5.4,-0.1 0,0 -1.8,2.8 0,4 3.2,2.2 6.6,-2.6 6.6,-2.6 0,0 0.2,3.1 1.7,3.5 1.6,0.4 3.5,-1 5.4,-5 1.8,-3.9 1.2,-8.6 1.2,-8.9 0.1,-0.3 0.1,-0.6 0.1,-0.9 0.4,0.5 2.9,3.7 4.2,10.6 1.4,7.4 -1.2,16.9 -3,16.6 -0.6,-0.1 -0.9,-0.6 -1,-1.2"
   id="path530" />
	<path
   class="st5"
   d="m 165.5,354.6 v 0 c 2.2,-1.1 6.4,-4.7 6.4,-4.7 l 0.2,-0.1 c 1.3,2.4 2.8,3.2 4,3.4 v 0.2 c 0,0 -4.2,5.9 -5.6,6.8 -1.3,0.8 -5.9,-2.5 -6.4,-3.5 -0.6,-0.9 1.4,-2.1 1.4,-2.1"
   id="path532" />
	<path
   class="st24"
   d="m 164,335.3 c -0.1,-0.9 0.3,-1.5 0.3,-1.5 0,-0.1 0,-0.1 0.4,0.1 1.9,0.6 5.5,-0.4 5.6,-0.4 l 0.1,-0.2 c 0.7,0.5 1.5,0.4 2.6,0.2 -0.1,0.2 -0.8,1.6 0.1,2.9 0.4,0.5 0.9,0.9 1.5,1.1 -0.4,0.2 -4.3,1.9 -7.1,1.1 -1.5,-0.4 -3.3,-1.7 -3.5,-3.3"
   id="path534" />
	<path
   class="st21"
   d="m 164,376.6 c 1,-1.5 1.7,-4.7 1.7,-4.7 v -0.1 c 1.5,-0.1 2.7,-3.1 2.7,-3.1 0,0 -0.8,4.7 1.5,3.3 3.5,-2.2 2.9,-6.2 3.2,-6.5 0.2,-0.3 -0.7,5.7 2.1,4 1,-0.6 1.6,-1.2 2.1,-1.7 l 0.1,0.1 c 0.1,1.6 -0.4,3.9 -1.6,5 -1.7,1.5 -3.5,-0.1 -3.5,-0.1 0,0 -0.1,4 -2.3,4.1 -0.1,0 -0.2,0 -0.3,0 -1.9,-0.2 -1.6,-3.2 -1.6,-3.2 -0.3,1.4 -1.2,4.6 -2.6,4.4 -1.3,-0.3 -1.5,-1.5 -1.5,-1.5"
   id="path536" />
	<path
   class="st25"
   d="m 164.8,305.1 c 0.9,-1.6 2.2,-1.1 2.7,-0.9 1.1,1 2.3,2.2 3.4,3.2 -0.5,-0.3 -1.3,-0.6 -2,0.1 -1.2,1.1 1.6,5 3.1,8 -0.2,-0.1 -1.7,-1.3 -2.5,-1.4 -0.9,-0.1 -1.4,-0.1 -1.4,-0.1 l -0.1,0.1 c -0.5,-0.5 -1,-1 -1.5,-1.5 -0.9,-1.7 -2.6,-5.9 -1.7,-7.5"
   id="path538" />
	<path
   class="st26"
   d="m 172.8,361.4 c -0.1,0 -1.1,0.5 -1.4,2.2 -0.4,1.8 -1.5,3.5 -3.2,3.3 -1.5,-0.2 -0.8,-3 -0.7,-3.4 -0.1,0.3 -1.4,3.3 -2.5,2.1 -0.4,-0.4 -0.4,-1.3 -0.2,-2.2 0.4,-2.1 1.6,-4.7 1.6,-4.7 1.5,1 3.3,1.9 4.1,1.4 1.3,-0.9 5.6,-6.8 5.6,-6.8 v -0.2 c 0.8,0.1 1.3,0 1.5,0 -0.2,0.4 -1,2.4 -1.3,5 -0.3,3 -1.3,4.4 -2.6,4.2 -1.1,-0.1 -0.9,-0.8 -0.9,-0.9"
   id="path540" />
	<path
   class="st10"
   d="m 166.1,406.1 c 0.1,-1.4 0,-3 -0.1,-4.6 0.5,2.7 2.3,11.3 4.4,13.1 -1.5,2.2 -3.6,4.1 -5,5 -2.3,1.5 0.4,-6.7 0.7,-13.5"
   id="path542" />
	<path
   class="st25"
   d="m 167,383.7 c -0.9,-0.1 -1.3,-1.4 -1.3,-1.4 0.1,-1.3 0.3,-4.1 0.2,-4.3 1.4,-0.5 2.1,-4.3 2.1,-4.3 0,0 -0.3,3 1.6,3.2 0,1.7 -0.2,4.7 -1.3,6 -0.1,0.1 -0.1,0.2 -0.2,0.2 -0.4,0.5 -0.7,0.6 -1.1,0.6"
   id="path544" />
	<path
   class="st26"
   d="m 168.2,383.1 c 0.3,-0.2 0.2,-0.3 0.3,-0.2 0,0 1.8,1.4 4.5,10.7 2,6.9 1.9,11.4 2.3,16.4 0,0 0,2 -0.8,3.8 -0.7,1.8 -2.3,3 -2.3,3 -0.2,-2.3 -0.2,-4.8 -0.1,-6.2 0.1,-0.3 0.1,-0.7 0.1,-1 -0.5,-17.3 -4.8,-25.3 -5.2,-26.1 0.4,0.2 0.7,0.1 1.2,-0.4"
   id="path546" />
	<path
   class="st27"
   d="m 168,340.2 c 0,0 0,0 0,0 -0.6,-0.9 -0.6,-1.6 -0.6,-1.6 v -0.1 c 2.8,0.7 6.7,-1 7.1,-1.1 0.9,0.3 1.9,0.3 1.9,0.3 0,0 -2.3,0.9 -1.5,3 0.3,0.6 0.8,1.1 1.3,1.4 l -1.2,0.1 c 0,0 -1,0.6 -2.4,0.6 -2.1,0 -3.8,-1.2 -4.6,-2.6"
   id="path548" />
	<path
   class="st28"
   d="m 172,315.5 c -1.6,-3.2 -4.3,-6.9 -3.1,-8 0.7,-0.6 1.5,-0.3 2,-0.1 3.1,3 3.9,3.8 7.5,9.8 0,0 -2.5,-3.2 -3.7,-2.5 -1.1,0.6 2.3,4.8 2.7,5.3 -0.3,-0.2 -1.6,-1.4 -2.3,-0.8 -0.7,0.6 0.2,1.5 1.1,2.3 0.8,0.7 2.1,1.9 2.2,2.1 -0.2,-0.1 -2.3,-1.3 -2.5,-0.2 -0.1,1.1 1.5,2.2 1.7,2.4 0.2,0.2 -1.1,-0.1 -1.1,-0.1 l -0.1,0.1 c -1,-1.6 -2.3,-3.6 -3.6,-5.5 -4.7,-6.8 -5,-6 -4.7,-6.3 0,0 0.6,0.1 1.4,0.1 0.8,0.1 2.3,1.3 2.5,1.4"
   id="path550" />
	<path
   class="st9"
   d="m 179.6,412.4 c 0.2,1.3 0.1,2.6 -0.2,3.8 -0.2,0 -3.5,-0.8 -4,-5.7 -0.5,-6.7 -0.7,-10.8 -2.4,-16.8 -0.7,-2.4 -2.8,-9.2 -4.6,-10.8 0.5,-0.6 0.8,-1.5 1,-2.3 0,0 0.3,0.6 0.7,0.7 0.5,0.9 6.1,10.8 9.4,30.7 0.1,0.1 0.1,0.3 0.1,0.4"
   id="path552" />
	<path
   class="st29"
   d="m 172.9,374.5 c 0,0.7 -0.4,3 -1,4.7 -0.3,0.8 -1,2.3 -1.8,2.1 -0.5,-0.1 -0.7,-0.7 -0.7,-0.7 0.4,-1.8 0.3,-3.7 0.3,-3.7 0.1,0 0.2,0 0.3,0 2.2,-0.1 2.3,-4.1 2.3,-4.1 0,0 1.8,1.5 3.5,0.1 0.3,-0.3 0.6,-0.6 0.8,-1 h 0.1 c 0,0 0,1 0.2,1.9 h -0.1 c 0,0.6 -0.4,2.3 -1,3.3 -0.3,0.5 -0.7,1 -1.3,1.1 -1.1,0.1 -1.5,-2.6 -1.6,-3.7"
   id="path554" />
	<path
   class="st29"
   d="m 174.9,330.7 c 0,0 0,0 0,0 0,0 0,0 0,0 z m -0.1,0 c -0.5,0.2 -1.8,0.8 -2.5,-0.4 -0.8,-1.5 1.2,-1.7 1.2,-1.7 0,0 -2.8,-1.1 -2.8,-2.2 0,-1.2 1.8,-0.9 1.8,-0.9 0,0 -2.7,-1.7 -2.4,-2.8 0.3,-1 2.1,0.1 2.3,0.2 -0.2,-0.2 -3.6,-3.8 -2.9,-4.7 0.7,-1 3.3,2 3.3,2 1.9,2.8 4.2,6.5 5.9,9.3 0.8,0.3 4,0.4 4.2,0.5 v 0.1 c -5.8,2 -5.8,2 -6,2.1 -0.6,0.2 -2.3,0.5 -2.8,-0.1 -0.5,-0.5 0.4,-1.1 0.7,-1.4"
   id="path556" />
	<path
   class="st30"
   d="m 170.1,381.3 c 0.5,0.1 1,-0.5 1.3,-1 0,0 4.7,3.5 8.4,13.5 3.2,8.6 4.6,12.8 4.7,16.4 0,0.6 0,1.2 -0.1,1.7 -0.4,4 -2.6,8.4 -2.6,8.4 h -0.1 c -1.2,-3.1 -2,-6.9 -2.2,-7.8 0,-0.2 0,-0.3 -0.1,-0.5 -3.2,-19.9 -8.8,-29.8 -9.3,-30.7"
   id="path558" />
	<path
   class="st8"
   d="m 171.4,380.2 c 0.2,-0.3 0.3,-0.7 0.5,-1.1 l 0.1,0.1 c 0,0 7.9,5.8 12.2,15.9 2.8,6.6 5.4,17.2 4.2,24.1 h -0.2 c 0,0 -0.3,-0.5 -1.7,-3.2 -1.4,-2.7 -2.1,-5.8 -2.1,-5.8 -0.1,-3.6 -1.5,-7.8 -4.7,-16.4 -3.6,-10.1 -8.3,-13.6 -8.3,-13.6"
   id="path560" />
	<path
   class="st23"
   d="m 189.5,397.8 c 1.3,3.8 2.4,7.9 2,11.8 -0.1,1.8 -1,4 -1,4 -1.6,-3.3 -2.7,-7.1 -2.8,-7.5 h -0.1 c -0.8,-3.8 -2,-7.7 -3.4,-10.9 C 179.9,385.1 172,379.3 172,379.3 l -0.1,-0.1 c 0.6,-1.7 1,-4 1,-4.7 0,0.6 0.3,3.2 1.3,3.6 l -0.1,0.1 c 1.5,1.2 12.2,9.8 15.4,19.6"
   id="path562" />
	<path
   class="st11"
   d="m 172.3,417 c 0,0 1.6,-1.2 2.3,-3 0.9,-2.3 0.7,-4.8 0.8,-3.5 0.5,4.9 3.7,5.7 4,5.7 -0.8,3.7 -3.2,6.5 -5.2,6 -1.1,-0.3 -1.7,-2.7 -1.9,-5.2"
   id="path564" />
	<path
   class="st31"
   d="m 174.4,337.3 c -0.5,-0.2 -1.1,-0.5 -1.5,-1.1 -0.9,-1.3 -0.2,-2.7 -0.1,-2.9 0.4,-0.1 0.8,-0.2 1.2,-0.4 v 0.2 c 0,0 0.1,1.1 1.3,1.4 1.1,0.3 2.1,0.1 2.2,0.1 -0.1,0.1 -1,0.7 0.4,1.4 1.4,0.8 4,-0.1 4,-0.1 0,0 -1.5,1.2 -0.3,2.1 1.2,0.9 6.3,-0.9 6.3,-0.9 0,0 -1.7,1.8 -0.3,2.7 1.3,0.9 4.5,-2 4.7,-2.2 -0.1,0.3 -1,3.7 0.3,4.3 1.3,0.6 5,-2.8 5.4,-4.2 0,0 0,-0.1 0,-0.1 0,0.3 0.6,5 -1.2,8.9 -1.8,4 -3.8,5.4 -5.4,5 -1.6,-0.4 -1.7,-3.5 -1.7,-3.5 0,0 -3.4,4.8 -6.6,2.6 -1.8,-1.2 0,-4 0,-4 0,0 -4.2,2.7 -5.4,0.1 -1.1,-2.5 1.1,-3.8 1.3,-3.9 -1.6,0 -3.6,-0.6 -4.2,-2.1 -0.9,-2.1 1.5,-3 1.5,-3 0,0 -0.9,0 -1.9,-0.4"
   id="path566" />
	<path
   class="st32"
   d="m 198.1,332.9 c 0.1,1.1 0.3,3.6 0,4.6 0,1.1 -4,5 -5.4,4.4 -1.3,-0.5 -0.4,-4 -0.3,-4.3 -0.2,0.2 -3.4,3.1 -4.7,2.2 -1.3,-0.9 0.3,-2.7 0.3,-2.7 0,0 -5.1,1.8 -6.3,0.9 -1.2,-0.9 0.3,-2.1 0.3,-2.1 0,0 -2.6,0.9 -4,0.1 -1.3,-0.7 -0.5,-1.4 -0.4,-1.4 -0.2,0 -1.2,0.2 -2.2,-0.1 -1.2,-0.3 -1.3,-1.4 -1.3,-1.4 v -0.2 c 0.8,-0.2 1.7,-0.5 2.8,-0.8 l 0.1,0.2 c 0.1,0.3 0.5,1.2 2,0.3 1.6,-1 4.1,-1.2 3.2,-0.9 -1,0.3 -1.9,1.6 -0.7,2.4 0.6,0.4 1.4,0.3 3.5,-0.9 2.1,-1.1 2.6,-0.6 2.6,-0.6 0,0 -2.2,1.4 -0.9,2 1,0.5 1.8,0 3.7,-1.7 1.9,-1.7 3.1,-1.5 3.1,-1.5 0,0 -3.4,-1.3 -5.1,-1.3 -8.1,-0.3 -7.5,-0.2 -7.5,-0.4 0,0 1.3,-1.9 2.9,-3.3 0.5,-0.5 2.3,-1.7 3.8,-2.4 h 0.1 c -0.1,0.3 -0.1,0.6 -0.1,0.8 0,1.1 1.2,1 2.7,-3.1 -0.5,1.2 -1.2,4.1 -0.6,4.5 0.6,0.4 1.9,-0.9 2.3,-2.6 0.3,-1.6 1.3,-3.4 1.4,-3.6 0.1,0.4 0.2,0.6 0.5,0.6 0.1,0 0.1,0 0.2,0 0,0 -1,3.6 0.3,5.1 1.3,1.6 3.2,1.6 3.3,1.6 h 0.1 c 0,0.1 0,0.1 0,0.2 0,0.6 0.1,1 0.4,1.4 -0.1,0.1 -1.6,1.3 -0.9,2.8 0.2,0.6 0.5,0.9 0.8,1.2 v 0"
   id="path568" />
	<path
   class="st7"
   d="m 174.2,378.1 c 0.3,0.1 0.5,0 0.8,-0.1 0.5,0.2 7.1,2.6 12.7,9.3 3.1,3.8 5.9,9.2 8.1,13.7 0.9,2.5 1.5,5.4 1.7,8.1 0,0 -1.5,0.8 -3.6,-0.9 -1.9,-1.5 -2.3,-2.4 -2.4,-2.6 -0.2,-2 -0.8,-4.4 -1.9,-7.8 -3.3,-9.8 -14,-18.4 -15.4,-19.6 v -0.1"
   id="path570" />
	<path
   class="st20"
   d="m 177.3,320.1 c -0.4,-0.5 -3.9,-4.7 -2.7,-5.3 1.2,-0.7 3.7,2.5 3.8,2.5 3.7,6 5.2,8.9 5.4,9.2 -1.7,1.4 -2.9,3.3 -2.9,3.3 v 0.1 c -1.7,-0.1 -2.2,-0.3 -2.2,-0.3 -2.5,-4.2 -2.4,-3.7 -2.2,-3.8 0,0 1.3,0.3 1.1,0.1 -0.2,-0.2 -1.9,-1.3 -1.7,-2.4 0.1,-1 2.2,0.1 2.5,0.2 -0.2,-0.1 -1.4,-1.3 -2.2,-2.1 -0.8,-0.8 -1.8,-1.7 -1.1,-2.3 0.6,-0.6 2,0.6 2.2,0.8"
   id="path572" />
	<path
   class="st33"
   d="m 175.8,377 c 0.2,0.1 4.6,1.1 11.2,5.7 6.2,4.3 10.7,11.3 12.6,17 0.1,0.2 0.2,0.4 0.2,0.6 1.3,4 -0.9,6.8 -0.9,6.8 h -0.1 c -2.6,-4.8 -6.5,-14.1 -11.3,-19.8 -5.6,-6.8 -12.1,-9.2 -12.7,-9.3 0.5,-0.2 0.8,-0.6 1,-1"
   id="path574" />
	<path
   class="st6"
   d="m 186.8,380 c 3.9,2.1 8.3,5.2 11.9,9.6 4.4,5.5 5.7,10.5 5.5,14.2 0,0 -0.7,0 -2.5,-1.1 -1,-0.6 -2,-2.8 -2.2,-3.1 -2,-5.6 -6.5,-12.7 -12.6,-17 -6.4,-4.5 -11.1,-5.7 -11.2,-5.7 0.2,-0.3 0.4,-0.7 0.5,-1 0.1,0.1 4.9,1 10.6,4.1"
   id="path576" />
	<path
   class="st11"
   d="m 204.3,362.5 c 0,0.1 0,0.2 -0.1,0.3 -0.7,2.9 -2.9,6.3 -5.6,8.8 -2.7,2.4 -3.9,1.9 -3.7,1.6 0.2,-0.2 1.5,-2.1 1.5,-2.1 V 371 c -0.5,0.1 -1,0.4 -1.5,0.9 -1,1.3 -2.4,4 -4.4,5.7 -2.5,2.1 -3.4,2.4 -3.7,2.4 -5.7,-3.1 -10.5,-4 -10.5,-4 0.4,-0.9 0.5,-1.9 0.5,-2.2 h 0.1 c 0.5,1.7 1.2,1.8 2.4,0.6 0.7,-0.7 1,-1.9 1.1,-2.9 0.5,0 4.5,-0.1 6.6,-1.1 2.4,-1.1 5,-4.1 5,-4.1 1,-0.1 0.3,-0.1 1.5,0.2 2.5,0.5 4.7,-3.8 4.7,-3.8 h 0.1 c 0.1,0.6 0.4,1.1 1,1.2 1.8,0.2 4.4,-9.2 3,-16.6 -1.3,-6.9 -3.8,-10.1 -4.2,-10.6 0.1,-1.6 -0.1,-3.7 -0.1,-3.7 v -0.1 c 1.2,0.7 2.6,-0.5 2.7,-0.6 0.2,-0.2 -0.8,1.6 0.7,2.4 0.8,0.4 1.7,-0.1 2.3,-0.6 0,0.2 0.4,1.4 1.7,1.8 1.1,0.4 2.3,-0.2 3,-0.7 0,0 0.3,1.1 1,1.2 0.6,0.1 1.1,0 1.7,-0.5 -0.1,0.3 -0.4,1 0,2.8 0.6,2.2 2.8,5.3 1.8,10.6 -0.9,5.3 -3.2,7.4 -4,7.7 -0.6,0.3 0.1,-2 0.4,-3 -0.6,1.6 -1.7,3.7 -2.9,5.6 -1.9,3.2 -2,3 -2.1,2.9"
   id="path578" />
	<path
   class="st18"
   d="m 180.6,369.6 c 0,1.4 -0.2,3.7 -1.2,4.7 -1.4,1.3 -1.8,0.8 -2.3,-0.2 -0.2,-0.4 -0.4,-1.4 -0.4,-2.3 h -0.1 c 0.9,-1.7 0.8,-3.9 0.8,-3.9 l -0.1,-0.1 c 1.3,-1.5 1.2,-2.8 1.2,-2.8 0,0 0.4,3.3 2.9,1.3 1.1,-0.9 1.1,-2.9 1,-4.2 h 0.1 c 0,0 1.8,6.1 0.1,7.3 -1.7,1.4 -2,0.2 -2,0.2"
   id="path580" />
	<path
   class="st25"
   d="m 176.8,332.1 c 0.2,-0.1 -0.2,0.1 6,-2.1 v -0.1 c 1.2,0 3.2,0.1 5.5,0.2 1.7,0.1 5.1,1.3 5.1,1.3 0,0 -1.2,-0.2 -3.1,1.5 -1.9,1.7 -2.7,2.2 -3.7,1.7 -1.3,-0.6 0.9,-2 0.9,-2 0,0 -0.5,-0.6 -2.6,0.6 -2.1,1.1 -2.9,1.3 -3.5,0.9 -1.2,-0.8 -0.2,-2.1 0.7,-2.4 0.9,-0.3 -1.6,0 -3.2,0.9 -1.6,1 -1.9,0 -2,-0.3 0.1,0.1 0,-0.1 -0.1,-0.2"
   id="path582" />
	<path
   class="st13"
   d="m 181.9,420.2 c 0,0 2.2,-4.3 2.6,-8.4 0.1,-0.6 0.1,-1.1 0.1,-1.7 0,0 0.7,3.2 2.1,5.8 1.4,2.7 1.7,3.2 1.7,3.2 h 0.2 c -0.4,2.4 -1.3,4.2 -2.7,5.2 -1.7,1.1 -3.1,-1.2 -4,-4.1 v 0"
   id="path584" />
	<path
   class="st7"
   d="m 193.3,320.1 c -0.1,0.2 -1.1,1.9 -1.4,3.6 -0.3,1.7 -1.6,3.1 -2.3,2.6 -0.6,-0.5 0.1,-3.3 0.6,-4.6 -1.5,4.2 -2.7,4.2 -2.7,3.2 0,-0.2 0,-0.4 0.1,-0.8 0.4,-1.8 1.7,-5.5 3.5,-8.7 2.1,-3.7 7.2,-8.5 7.2,-8.5 0.1,0.2 0.6,0.1 1.7,-0.5 1.7,-1 3.2,-1.3 3.4,-1.4 -0.3,0.2 -4.5,2.2 -6,4.5 -1.6,2.3 0.8,0.5 1.7,0.2 0.7,-0.3 1,-0.4 1.1,-0.4 -0.4,0.2 -3.2,2 -4.3,4 -1.1,2.2 -0.1,2.4 1.3,0.7 0.3,-0.3 0.8,-0.8 1.5,-1.3 -0.2,0.2 -1.4,2.1 -2.3,4.1 -0.8,2 -1.7,3.6 -2.4,3.8 -0.3,0.2 -0.6,0 -0.7,-0.5"
   id="path586" />
	<path
   class="st14"
   d="m 190.6,413.5 c 1,-2.7 1.2,-5.1 0.9,-7.9 0.1,0.2 0.6,1.1 2.4,2.6 2.1,1.8 3.6,0.9 3.6,0.9 0.3,3.8 -0.2,7.2 -2.2,8.7 -1.6,1.2 -3.3,-1.3 -4.7,-4.3"
   id="path588" />
	<path
   class="st10"
   d="m 194.4,325.8 c -1.3,-1.5 -0.3,-5 -0.3,-5.1 0.7,-0.2 1.6,-1.8 2.4,-3.8 0.8,-2 2.1,-3.9 2.3,-4.1 1.1,-0.9 2.2,-1.7 2.2,-1.7 0,0 0,0 0,0.1 0.7,1.5 1.8,-0.1 3.8,-1.3 1.6,-1 3.1,-1 3.1,-1 -0.5,1.6 1.7,1 2.6,0.8 0.9,-0.1 2.5,0.4 2.7,0.5 0,0.4 0.3,1 0.7,1.3 1.4,1.3 2.5,1.8 4.2,2.1 2.1,0.3 4.2,0.4 4.4,0.5 -0.2,0.4 -0.3,0.8 -0.8,1.1 -0.9,0.8 -1.9,0.6 -2,0.8 0,-0.6 -1.8,-0.1 -2.5,-0.3 -0.8,-0.2 -2.7,-0.2 -3.2,-0.4 -0.5,-0.2 -1.2,-0.6 -1.3,-0.1 -0.3,-0.5 -0.8,-1 -1.8,-1.2 -1.3,-0.2 -2.3,0.5 -2.6,1.7 0,0 -1.1,0.5 -1.7,0.7 -0.6,0.3 -0.9,1.3 -0.9,2.2 0,0.9 0,1.6 -0.6,2.1 v 0.1 c -1.8,0.8 -1.5,0.8 -2.1,1.6 -0.5,0.6 -0.8,1.4 -1.1,1.4 0,0 -1.6,-0.2 -2.2,1.6 -0.1,0.2 -0.1,0.3 -0.1,0.5 h -0.1 c 0,0 -1.5,0.1 -1.7,1.5 h -0.1 c -0.1,0 -2,0 -3.3,-1.6"
   id="path590" />
	<path
   class="st5"
   d="m 207.9,308.8 v 0 c 0,0 -1.5,0 -3.1,1 -2,1.3 -3.1,2.9 -3.8,1.3 0,0 0,0 0,-0.1 -0.8,0.6 -3.1,2.3 -3.7,3 -1.3,1.7 -2.4,1.4 -1.3,-0.7 1,-2 3.9,-3.8 4.3,-4 -0.1,0 -0.4,0.1 -1.1,0.4 -0.9,0.3 -3.3,2.1 -1.7,-0.2 1.5,-2.3 5.7,-4.3 6,-4.5 -0.2,0 -1.7,0.3 -3.4,1.4 -1.1,0.7 -1.6,0.7 -1.7,0.5 -0.2,-0.2 0.2,-0.9 0.7,-1.3 1.1,-1 4.1,-3.1 8.2,-2.4 4.1,0.7 7.2,3.1 7.2,3.1 -0.2,-0.3 -0.3,-1.7 1.3,-0.5 1.7,1.3 3.1,4.3 3.1,4.3 l -0.1,0.1 c -1.3,-1.2 -2.3,-2.4 -3,-2 -0.5,0.4 0.2,1.7 1.2,2.4 1,0.8 3,1.4 3,1.4 0,0 -2.1,-0.2 -4.8,-1.8 -1.5,-0.9 -2,-0.7 -2,-0.2 -0.1,0 -1.8,-0.6 -2.7,-0.5 -0.9,0.3 -3.1,1 -2.6,-0.7"
   id="path592" />
	<path
   class="st11"
   d="m 211.3,335.8 c 0,0 0,0 0,0 -0.7,0.5 -1.2,0.6 -1.7,0.5 -0.7,-0.1 -1,-1.2 -1,-1.3 -0.7,0.5 -1.8,1.1 -3,0.7 -1.3,-0.5 -1.6,-1.6 -1.7,-1.8 -0.6,0.5 -1.6,1.1 -2.3,0.6 -1.5,-0.8 -0.5,-2.6 -0.7,-2.4 -1.4,1.1 -2.8,1.3 -3.6,-0.4 -0.7,-1.6 0.8,-2.8 0.8,-2.8 l 0.1,-0.1 c 0.9,1.1 2.9,0.8 2.9,0.8 l 0.1,-0.1 c 0.6,1 1.9,0.6 2.8,0.3 0.6,-0.2 1.1,-0.5 1.2,-0.5 -0.1,0.1 -1.4,1.5 -0.5,2.8 1,1.3 2.7,0.3 2.9,0.1 0.5,0.5 1.3,0.6 2.2,0.1 0,0.1 0.1,0.9 0.5,1.1 0.5,0.3 1.1,0.6 1.8,-0.7 0,0 0.6,1.8 -0.3,2.6 -0.2,0.2 -0.4,0.4 -0.5,0.5"
   id="path594" />
	<path
   class="st13"
   d="m 197.8,327.6 c 0,-0.1 0,-0.1 0,-0.2 0.2,-1.4 1.7,-1.5 1.7,-1.5 h 0.1 c -0.1,1.5 1.4,1.9 1.4,1.9 -0.2,0.6 -0.1,1.4 0.2,1.9 l -0.1,0.1 c 0,0 -2,0.3 -2.9,-0.8 -0.3,-0.4 -0.5,-0.8 -0.4,-1.4"
   id="path596" />
	<path
   class="st15"
   d="m 199,407.1 c 0,0 2.2,-2.8 0.9,-6.8 -0.1,-0.2 -0.1,-0.4 -0.2,-0.6 0.1,0.3 1.2,2.5 2.1,3.1 1.8,1.1 2.5,1.1 2.5,1.1 -0.1,3.8 -1.8,6.1 -3.2,6 -0.6,-0.1 -1.3,-1.2 -2.1,-2.8 v 0"
   id="path598" />
	<path
   class="st13"
   d="m 201.8,323.8 c 0.1,0 0.3,0.1 1.6,0.2 -0.2,0.1 -1.7,1.1 -1.4,2.4 0,0.1 0,0.2 0.1,0.2 0,0 -0.9,0.2 -1.2,1.2 0,0 -1.5,-0.4 -1.4,-1.9 0,-0.1 0,-0.3 0.1,-0.5 0.6,-1.8 2.2,-1.6 2.2,-1.6"
   id="path600" />
	<path
   class="st13"
   d="m 200.9,327.8 c 0.3,-0.9 1.2,-1.2 1.2,-1.2 0.6,1.9 2.6,1 2.9,0.8 -0.2,0.5 -0.3,1.3 0.1,2 -0.1,0 -0.6,0.3 -1.2,0.5 -0.9,0.3 -2.3,0.8 -2.8,-0.3 -0.3,-0.4 -0.4,-1.2 -0.2,-1.8"
   id="path602" />
	<path
   class="st14"
   d="m 209.8,332.4 c -1.8,1 -3.2,-0.6 -2.4,-2.6 -0.5,0.3 -1.2,0.5 -1.9,-0.2 -0.5,-0.5 -0.7,-1.2 -0.4,-2.2 -1.3,0.7 -2.7,0.5 -3,-1 -0.3,-1.3 1.2,-2.3 1.4,-2.4 0.7,0 2.1,-0.2 3.2,-0.7 -0.2,0.2 -1.3,1.4 -0.3,2.3 1.1,0.9 2.5,0.1 3,-0.3 -0.5,0.5 -1.7,1.7 -0.5,2.8 0.8,0.7 1.7,0.2 2.5,-0.4 0,0 -1.1,1.4 -0.3,2.5 0.6,0.8 2.1,0.7 3.1,-0.5 -2,2.5 -1.7,2.5 -2,3.1 -0.7,1.3 -1.3,1 -1.8,0.7 -0.5,-0.2 -0.6,-1 -0.6,-1.1"
   id="path604" />
	<path
   class="st34"
   d="m 205.1,320.8 v 0 c 0.6,-0.6 0.6,-1.3 0.6,-2.2 0,-0.8 0.2,-1.9 0.9,-2.2 0.6,-0.3 1.7,-0.7 1.7,-0.7 -0.1,0.3 -0.1,0.6 -0.1,0.9 0,1.9 1.5,2.8 2.5,2.7 1.7,-0.1 2.2,-1.3 2.3,-1.5 0,0 0,0 0,0 0.1,-0.2 0.6,-1.1 0.3,-1.8 0,-0.1 -0.3,-0.7 -0.5,-1 0.1,-0.5 0.8,-0.1 1.3,0.1 0.5,0.2 2.4,0.3 3.2,0.4 0.8,0.2 2.5,-0.3 2.5,0.3 0,0 0,0.1 0,0.1 -0.1,0.5 -0.6,0.7 -2.7,1.3 -2.7,0.8 -2.4,1.5 -4.2,2.9 -0.8,0.6 -1.5,0.8 -2.4,0.9 -1.1,0.1 -1.4,0.3 -2.4,1.3 -0.9,0.9 -3.4,1.5 -4.6,1.5 -0.8,-0.1 -1.4,-0.1 -1.5,-0.2 0.3,-0.1 0.7,-0.9 1.1,-1.4 0.4,-0.6 0.1,-0.6 2,-1.4"
   id="path606" />
	<path
   class="st13"
   d="m 205.2,329.4 c 0,0 0,0 0,0 0.6,0.7 1.4,1 2.2,0.5 -0.1,0.2 -0.6,1.6 0.3,2.4 -0.2,0.1 -1.9,1.2 -2.9,-0.1 -1.1,-1.3 0.2,-2.7 0.4,-2.8"
   id="path608" />
	<path
   class="st15"
   d="m 211.3,327.7 c -0.7,0.6 -1.7,1 -2.5,0.4 -1.2,-1 0,-2.3 0.5,-2.8 0,0 0.1,-0.1 0.1,-0.1 0,0 -0.1,0.1 -0.1,0.1 -0.5,0.4 -1.9,1.2 -3,0.3 -1.1,-0.9 0,-2.1 0.3,-2.3 0.5,-0.2 1,-0.5 1.4,-0.8 1,-0.9 1.3,-1.1 2.4,-1.3 0.9,-0.1 1.6,-0.3 2.4,-0.9 0,0 -2.3,2 -1.3,3.6 0.9,1.5 2.2,-0.1 2.5,-0.3 -0.2,0.3 -1,1.7 0.2,2.8 1.3,1.1 3,-0.4 3.1,-0.5 -0.1,0.1 -0.4,0.5 -0.4,0.9 -0.8,0.6 -1.8,1.7 -2.7,3 -1,1.2 -2.6,1.3 -3.1,0.5 -0.9,-1.2 0.2,-2.6 0.2,-2.6"
   id="path610" />
	<path
   class="st35"
   d="m 210.7,315.9 c 0,-0.4 -0.1,-0.9 -0.2,-0.9 0,0 -0.5,0.1 -0.6,0.8 -0.1,0.7 0.3,1 0.4,0.8 0.1,-0.1 0.4,-0.2 0.4,-0.7 z m 2.2,2 c 0,0 0,0 0,0 0,0.1 -0.5,1.4 -2.2,1.4 -1,0 -2.5,-0.8 -2.5,-2.7 0,-1.6 1.1,-2.8 2.8,-2.6 1,0.1 1.5,0.6 1.8,1.2 0,0 0,0 0,0.1 0,0.3 0.1,0.5 0.4,0.7 0,0.1 0.1,0.1 0.1,0.2 0.1,0.6 -0.3,1.5 -0.4,1.7"
   id="path612" />
	<path
   class="st17"
   d="m 217.2,325.8 c -0.2,0.1 -1.9,1.6 -3.1,0.5 -1.2,-1.1 -0.3,-2.5 -0.2,-2.8 -0.2,0.3 -1.5,1.8 -2.5,0.3 -1,-1.6 1.3,-3.6 1.3,-3.6 1.8,-1.4 1.5,-2 4.2,-2.9 2.1,-0.6 2.7,-0.9 2.7,-1.3 0.3,0 1.3,0.3 2.2,1 0.8,0.6 1.8,1.1 3.2,1.3 -0.4,0.3 -1.9,1.4 -3.7,2.9 -2.2,1.7 -3.7,6.4 -4.3,6 -0.5,-0.2 -0.1,-0.9 0.2,-1.4"
   id="path614" />
	<path
   class="st7"
   d="m 213.8,311.5 c -0.9,-0.9 -1.3,-2.8 1.4,-1.2 2.7,1.6 4.8,1.8 4.8,1.8 0,0 -2,-0.6 -3,-1.4 -1,-0.8 -1.7,-2.1 -1.2,-2.4 0.8,-0.5 2,1.4 3.9,2.7 1.7,1.2 4.4,0.6 4.8,0.5 -1.3,1.1 -1.6,1.6 -2,2.5 h -0.1 c 0,0 -2.8,-0.2 -4.3,-0.5 -1.8,-0.2 -2.9,-0.7 -4.3,-2"
   id="path616" />
	<g
   id="g628">
		<defs
   id="defs619">
			<rect
   id="SVGID_17_"
   x="219"
   y="305.89999"
   width="34.599998"
   height="10.7" />
		</defs>
		<clipPath
   id="SVGID_2_">
			<use
   xlink:href="#SVGID_17_"
   style="overflow:visible"
   id="use621" />
		</clipPath>
		<g
   class="st36"
   clip-path="url(#SVGID_2_)"
   id="g626">
			<path
   class="st18"
   d="m 224.4,311.5 c 0.9,-0.7 0.9,-0.4 3.9,-0.2 3.5,0.2 9.4,-1.2 13.9,-3.2 4.5,-2 11.3,-2.2 11,-2.1 -0.3,0.1 -9.6,2.7 -12,3.8 -2.4,1.1 -8.9,3.7 -12.6,5 -3.5,1.2 -8.9,1.3 -9,1.3 0,0 0,-0.1 0,-0.1 0.1,-0.2 1.1,0 2,-0.8 1.1,-0.9 0.5,-1.9 2.8,-3.7"
   id="path624" />
		</g>
	</g>
	<path
   class="st29"
   d="m 225.1,318.4 c -1.4,-0.1 -2.4,-0.7 -3.2,-1.3 -1,-0.8 -2,-0.9 -2,-1 1,0 5.6,-0.1 8.8,-1.3 3.7,-1.3 10.1,-3.9 12.6,-5 2,-0.9 8.4,-2.8 11,-3.5 0,0 0.5,0.5 -1.1,1 -1.9,0.6 -11.9,3.6 -16.4,6.2 -5.7,3.4 -6.4,5.3 -9.7,4.9"
   id="path630" />
	<path
   d="m 166.9,317.5 c -0.1,0 -0.1,0 -0.1,-0.1 -0.8,-0.7 -4.9,-4.2 -4.1,-5.7 0.3,-0.5 0.6,-0.8 1.1,-0.9 0.8,-0.2 1.5,0.3 1.5,0.3 0.1,0.1 0.1,0.2 0.1,0.3 -0.1,0.1 -0.2,0.1 -0.3,0.1 -0.6,-0.3 -1.4,-0.5 -1.9,0.4 -0.5,0.9 2.1,3.6 4,5.1 0,0.2 -0.1,0.5 -0.3,0.5"
   id="path632" />
	<path
   d="m 176.9,332.4 c -4.7,1.2 -6.5,3.1 -8.6,-1.7 -0.5,-1.1 0,-2.4 0.2,-3 -0.6,-0.1 -1.9,-0.5 -2.4,-2.3 -0.3,-1.1 -0.3,-2.3 0.7,-2.8 -0.9,-0.8 -3.4,-3.2 -2.9,-5 0.2,-0.6 0.5,-0.9 0.9,-1.1 0.9,-0.3 2,0.5 2,0.5 0.2,0.2 -0.1,0.5 -0.3,0.3 0,0 -0.9,-0.7 -1.6,-0.4 -0.3,0.1 -0.5,0.4 -0.6,0.8 -0.5,1.5 2,3.9 3,4.7 0.2,0.1 0.1,0.4 -0.1,0.4 0,0 -0.4,0.1 -0.7,0.5 -0.3,0.4 -0.3,1.1 -0.1,1.9 0.6,2.2 2.2,2 2.3,2 0.2,0 0.3,0.2 0.2,0.4 0,0 -0.9,1.6 -0.4,2.9 1.9,4.4 3.2,2.6 8,1.4 0.6,0 0.7,0.4 0.4,0.5"
   id="path634" />
	<path
   d="m 210.1,315.9 c -0.1,0.4 0.1,0.6 0,0.6 0.2,-0.2 0.4,-0.3 0.4,-0.6 0,-0.2 0,-0.5 -0.1,-0.6 -0.1,0.1 -0.3,0.2 -0.3,0.6 z m 0.3,0.9 c -0.3,0.3 -1,-0.1 -0.8,-1.1 0.2,-0.8 0.8,-1.1 1.1,-0.9 0.2,0.2 0.3,0.7 0.3,1.1 -0.1,0.6 -0.4,0.8 -0.6,0.9"
   id="path636" />
	<path
   d="m 214.1,323.7 c -0.9,1.1 -2.1,1.5 -2.8,0.3 -1.1,-1.8 1.2,-3.8 1.3,-3.9 0.1,-0.1 0.2,-0.1 0.3,0 0.1,0.1 0.1,0.2 0,0.3 0,0 -2.2,1.8 -1.2,3.3 0.2,0.3 0.5,0.5 0.7,0.5 0.5,0 1,-0.4 1.4,-0.9 0.1,-0.2 0.6,0.1 0.3,0.4 0,0 0,0 0,0"
   id="path638" />
	<path
   d="m 217.4,326 c -2.8,2.4 -5.2,-0.2 -3.6,-2.6 0.1,-0.1 0.2,-0.1 0.3,-0.1 0.1,0.1 0.1,0.2 0.1,0.3 -0.2,0.4 -0.9,1.6 0.1,2.5 1.1,0.9 2.6,-0.3 2.8,-0.5 0.1,-0.1 0.2,-0.1 0.3,0 0.1,0.2 0.1,0.3 0,0.4"
   id="path640" />
	<path
   d="m 221.5,321.4 c -2.2,1.7 -3.6,6.6 -4.6,6 -0.6,-0.4 -0.3,-1.1 0.1,-1.7 0.1,-0.1 0.3,-0.2 0.4,0 0.1,0.1 0.1,0.2 0,0.3 -0.2,0.3 -0.5,0.8 -0.3,1 0.5,-0.2 2.1,-4.4 4.1,-6 2.1,-1.6 2.3,-1.8 3.8,-2.9 0.1,-0.1 0.2,-0.1 0.3,0 0.1,0.1 0.1,0.2 0,0.3 -1.6,1.3 -1.6,1.3 -3.8,3"
   id="path642" />
	<path
   d="m 197.6,327.6 c -0.1,0 -2.1,0 -3.5,-1.7 -1.3,-1.6 -0.4,-5.2 -0.4,-5.3 0.1,-0.3 0.5,-0.2 0.4,0.1 0,0 -0.9,3.5 0.3,4.9 1.2,1.5 3,1.5 3.1,1.5 0.1,0 0.2,0.1 0.2,0.2 0.2,0.2 0.1,0.3 -0.1,0.3"
   id="path644" />
	<g
   id="g656">
		<defs
   id="defs647">
			<rect
   id="SVGID_19_"
   x="219"
   y="305.20001"
   width="34.599998"
   height="11.4" />
		</defs>
		<clipPath
   id="SVGID_4_">
			<use
   xlink:href="#SVGID_19_"
   style="overflow:visible"
   id="use649" />
		</clipPath>
		<g
   class="st37"
   clip-path="url(#SVGID_4_)"
   id="g654">
			<path
   d="m 219.7,316.4 c -0.1,0 -0.2,-0.1 -0.2,-0.3 0,-0.2 0.2,-0.3 0.3,-0.2 2.8,-0.1 6.2,-0.3 8.9,-1.3 3.8,-1.3 10.3,-4 12.5,-5 1.8,-0.8 7.3,-2.4 10.2,-3.3 -2.3,0.2 -6.1,0.7 -9,2 -4.7,2.1 -10.6,3.4 -14,3.2 -3.1,-0.2 -3,-0.5 -3.8,0.2 -0.2,0.2 -0.5,-0.2 -0.3,-0.4 1,-0.8 1.1,-0.5 4.1,-0.3 3.3,0.2 9.2,-1.1 13.8,-3.1 4.3,-1.9 11,-2.3 11.2,-2.1 0.1,0.1 0.1,0.3 -0.1,0.4 -0.3,0.1 -9.5,2.7 -12,3.8 -2.3,1 -8.8,3.7 -12.6,5 -2.5,1 -6.5,1.4 -9,1.4"
   id="path652" />
		</g>
	</g>
	<path
   d="m 219.8,316.1 c -0.2,0.2 -0.5,0 -0.4,-0.2 0.1,-0.2 0.3,-0.2 0.6,-0.3 0.4,-0.1 0.9,-0.2 1.5,-0.6 0.4,-0.3 0.6,-0.7 0.7,-1.1 0.4,-1 0.8,-1.6 2,-2.6 0.1,-0.1 0.2,-0.1 0.3,0 0.1,0.1 0.1,0.2 0,0.3 -1.2,1 -1.5,1.4 -1.9,2.4 -0.2,0.4 -0.3,0.8 -0.8,1.2 -0.8,0.9 -1.7,0.8 -2,0.9"
   id="path658" />
	<path
   d="m 223.8,314.1 c -0.1,0.3 -0.5,0.1 -0.4,-0.2 0,0 0.4,-0.9 1.3,-1.1 0.9,-0.2 1.3,0.3 1.2,1 -0.1,0.3 -0.5,0.2 -0.4,-0.1 0.1,-0.3 -0.1,-0.6 -0.6,-0.4 -0.7,0.1 -1,0.8 -1.1,0.8"
   id="path660" />
	<path
   d="m 220,311.9 c 0.3,0.1 0.2,0.5 -0.1,0.5 -0.1,0 -2.2,-0.2 -4.9,-1.9 -1.2,-0.7 -1.5,-0.6 -1.6,-0.6 0,0 -0.1,0 -0.1,0.2 0,0.1 -0.1,0.2 -0.2,0.2 -0.1,0 -0.2,-0.1 -0.2,-0.2 0,-0.3 0.1,-0.5 0.3,-0.6 0.4,-0.2 1.1,0 2.1,0.6 0.5,0.3 0.9,0.5 1.3,0.7 -0.8,-0.6 -1.3,-1.5 -1.3,-2.1 0,-0.3 0.2,-0.5 0.3,-0.5 1,-0.7 2.2,1.3 4.2,2.7 1.6,1.1 4.3,0.5 4.6,0.5 0.3,-0.1 0.4,0.4 0.1,0.5 -0.3,0.1 -3.2,0.7 -5,-0.6 -1.7,-1.2 -3,-3.1 -3.6,-2.7 0,0 -0.1,0 -0.1,0.2 0,0.4 0.5,1.3 1.3,1.9 0.9,0.6 2.9,1.2 2.9,1.2"
   id="path662" />
	<path
   d="m 222.4,314.2 c -0.1,0 -3,-0.3 -4.4,-0.5 -1.8,-0.2 -3,-0.8 -4.3,-2.1 -0.4,-0.4 -0.7,-1 -0.7,-1.5 0,-0.1 0.1,-0.2 0.2,-0.2 0.1,0 0.2,0.1 0.2,0.2 0,0.3 0.3,0.9 0.6,1.2 2.2,2.1 3.6,2 8.4,2.4 0.3,0.1 0.2,0.5 0,0.5"
   id="path664" />
	<path
   d="m 225.9,318.6 c -1.5,0 -2.9,-0.4 -4.2,-1.4 -1,-0.7 -1.9,-0.9 -1.9,-0.9 -0.3,-0.1 -0.2,-0.5 0.1,-0.5 0,0 1,0.2 2.1,1 1.3,1 2.9,1.4 4.5,1.2 1.2,-0.1 2.2,-0.8 3.8,-1.9 4.6,-3.2 7,-4.7 19.5,-8.7 0.6,-0.2 2.2,-0.6 2.3,-1 0,0 0,0 0,-0.1 -0.1,-0.1 -0.1,-0.2 0,-0.3 0.2,-0.2 0.6,0.1 0.5,0.5 -0.1,0.7 -1.6,1 -2.6,1.3 -12.3,3.9 -14.7,5.3 -19.4,8.6 -2,1.6 -2.9,2.2 -4.7,2.2"
   id="path666" />
	<path
   d="m 219,310.1 c 0.1,0.3 -0.3,0.5 -0.4,0.2 0,0 -1.4,-3 -3,-4.2 -0.7,-0.5 -1,-0.5 -1,-0.4 -0.1,0.1 -0.1,0.5 0,0.6 0.1,0.1 0,0.2 -0.1,0.3 -0.1,0.1 -0.3,0 -0.3,-0.1 -0.2,-0.2 -0.3,-0.9 0.1,-1.2 0.5,-0.4 1.3,0.2 1.6,0.4 1.7,1.4 3,4.3 3.1,4.4"
   id="path668" />
	<path
   d="m 200.2,306.6 c -0.5,0.3 -1.7,1 -2,0.4 -0.3,-0.4 0.2,-1.2 0.7,-1.6 1.4,-1.2 4.4,-3.1 8.4,-2.4 4.1,0.7 7.2,3.1 7.3,3.2 0.1,0.1 0.1,0.2 0,0.3 -0.1,0.1 -0.2,0.1 -0.3,0 0,0 -3.1,-2.4 -7.1,-3.1 -3.8,-0.7 -6.6,1.2 -8,2.3 -0.5,0.4 -0.7,0.9 -0.6,1 0,0 0.3,0.1 1.4,-0.6 1.6,-1 3,-1.3 3.4,-1.4 0.1,0 0.2,0 0.3,0 0.2,0.1 0,0.4 -0.1,0.4 -0.1,0.2 -1.7,0.5 -3.4,1.5"
   id="path670" />
	<path
   d="m 197,310.9 c -0.1,0 -0.2,0 -0.3,-0.1 -0.2,-0.2 -0.1,-0.6 0.5,-1.4 1.6,-2.3 5.7,-4.3 6.1,-4.5 0.1,-0.1 0.3,0 0.3,0.1 0.1,0.1 0,0.3 -0.1,0.3 -0.2,0.1 -4.4,2.2 -5.9,4.4 -0.3,0.4 -0.4,0.6 -0.5,0.8 0.2,-0.1 0.7,-0.3 1,-0.5 0.4,-0.2 0.8,-0.5 2,-0.9 0.2,-0.1 0.5,0.2 0.3,0.4 0,0 0,0 -1.2,0.5 -0.5,0.1 -1.7,0.9 -2.2,0.9"
   id="path672" />
	<path
   d="m 197.4,314.3 c -0.4,0.5 -1.3,1.5 -1.9,1.1 -0.3,-0.2 -0.5,-0.7 0.2,-2.1 0.9,-1.9 3.4,-3.5 4.4,-4.1 l 0.2,0.4 c -1,0.6 -3.3,2.2 -4.2,3.9 -0.6,1.1 -0.5,1.5 -0.4,1.5 0.1,0 0.6,-0.1 1.3,-1 0.2,-0.3 0.7,-0.8 1.5,-1.4 0.1,-0.1 0.2,-0.1 0.3,0 0.1,0.1 0.1,0.2 0,0.3 -0.7,0.6 -1.2,1.1 -1.4,1.4"
   id="path674" />
	<path
   d="m 198.9,312.9 c -0.2,0.2 -0.5,-0.2 -0.3,-0.4 1,-0.8 2.2,-1.7 2.2,-1.7 0.1,-0.1 0.2,0 0.3,0.1 0.1,0.1 0,0.2 -0.1,0.3 0.1,0.1 -1.1,0.9 -2.1,1.7"
   id="path676" />
	<path
   d="m 193.9,321 c -0.4,0 -0.7,-0.3 -0.8,-0.8 -0.1,-0.7 0.2,-1.6 0.7,-2.6 0.1,-0.1 0.2,-0.1 0.3,-0.1 0.1,0.1 0.1,0.2 0.1,0.3 -0.5,0.9 -0.8,1.7 -0.7,2.3 0,0.3 0.2,0.5 0.4,0.4 0.5,-0.2 1.4,-1.6 2.3,-3.7 0.8,-2 2.1,-3.8 2.3,-4.2 0.2,-0.2 0.5,0.1 0.3,0.3 -0.2,0.3 -1.5,2.1 -2.2,4.1 -0.4,1 -1.6,4 -2.7,4"
   id="path678" />
	<path
   d="m 204.9,310 c -1.8,1.1 -3.3,3.1 -4.1,1.2 0,0 0,-0.1 0,-0.1 -0.5,-1.4 1.7,-2.5 3,-3 0.1,0 0.3,0 0.3,0.1 0,0.1 0,0.3 -0.1,0.3 -0.6,0.2 -2.4,1 -2.7,1.8 -0.1,0.2 -0.1,0.4 0,0.6 0.1,0.3 0.3,0.4 0.4,0.5 0.5,0.1 1.6,-1 3,-1.9 1.7,-1 3.2,-1.1 3.2,-1.1 0.1,0 0.2,0.1 0.2,0.2 0,0.1 -0.1,0.2 -0.2,0.2 -0.1,0.2 -1.4,0.2 -3,1.2"
   id="path680" />
	<path
   d="m 213.3,310 c 0.2,0.2 0,0.5 -0.3,0.4 -0.6,-0.2 -1.9,-0.5 -2.5,-0.4 -0.8,0.1 -2.2,0.5 -2.7,-0.1 -0.2,-0.2 -0.3,-0.6 -0.1,-1.1 0.6,-1.8 4.4,-0.6 4.8,-0.5 0.1,0 0.2,0.2 0.1,0.3 0,0.1 -0.2,0.2 -0.3,0.1 -1,-0.3 -3.8,-1 -4.2,0.2 -0.1,0.3 -0.1,0.5 0,0.6 0.3,0.4 1.8,0 2.3,-0.1 0.8,-0.1 2,0.3 2.8,0.5 0.1,0 0.1,0 0.1,0.1"
   id="path682" />
	<path
   d="m 190.4,326.5 c -0.3,0.1 -0.6,0.1 -0.8,0 -1,-0.7 0.5,-4.8 0.5,-4.8 0.5,-1.2 1.7,-4.4 1.7,-4.4 l 0.4,0.2 c 0,0 -1.2,3.1 -1.7,4.4 -0.6,1.6 -1.1,4 -0.7,4.3 0.1,0.1 0.2,0.1 0.4,0 0.6,-0.2 1.3,-1.2 1.5,-2.5 0.3,-1.6 1.2,-3.3 1.4,-3.6 0.1,-0.3 0.6,-0.1 0.4,0.2 0,0 -1.1,1.8 -1.4,3.5 -0.2,1.4 -1.1,2.4 -1.7,2.7"
   id="path684" />
	<path
   d="m 206.6,323.5 c -0.3,0 -0.3,-0.4 -0.1,-0.4 0.6,-0.2 1,-0.5 1.3,-0.7 1,-0.9 1.3,-1.2 2.5,-1.3 1.6,-0.2 2.3,-0.8 3.5,-2 0.7,-0.7 1.2,-1.2 3,-1.8 1.9,-0.6 2.5,-0.8 2.6,-1.1 0,0 0,-0.1 0,-0.1 -0.1,-0.1 -0.8,-0.1 -1.1,0 -1.3,0.1 -0.7,0 -2.6,-0.2 -0.8,-0.1 -1.5,-0.1 -1.9,-0.3 -0.2,-0.1 -0.7,-0.3 -0.8,-0.3 0,0 0,0.1 0,0.1 0,0.5 0.5,0.6 0.9,0.6 0.7,0.1 1,0.5 1.1,0.8 0,0.1 -0.1,0.2 -0.2,0.3 -0.1,0 -0.2,-0.1 -0.3,-0.2 0,0 -0.1,-0.4 -0.6,-0.4 -0.7,-0.1 -1.4,-0.4 -1.4,-1.1 0,-0.2 0.1,-0.4 0.3,-0.5 0.3,-0.1 0.5,-0.1 1.3,0.3 0.4,0.2 2.4,0.2 3.1,0.4 0.8,0.2 2.7,-0.4 2.7,0.5 0,0 0,0.1 0,0.1 -0.1,0.6 -0.8,0.9 -2.9,1.5 -1.8,0.5 -2.2,1 -2.8,1.6 -1.3,1.3 -2,1.9 -3.8,2.2 -1.1,0.1 -1.3,0.3 -2.2,1.2 -0.6,0.4 -1.5,0.8 -1.6,0.8"
   id="path686" />
	<path
   d="m 201,327.6 c 0.3,0.1 0.2,0.5 -0.1,0.4 -0.6,-0.2 -1.6,-0.8 -1.5,-2.1 0,-0.2 0,-0.4 0.1,-0.5 0.6,-2 2.4,-1.8 2.4,-1.8 0.1,0 0.3,0.1 1.6,0.2 0.6,0 2,-0.2 3.1,-0.6 0.1,0 0.3,0 0.3,0.1 0,0.1 0,0.3 -0.1,0.3 -1.1,0.4 -2.5,0.7 -3.3,0.7 -1,-0.1 -1.5,-0.1 -1.6,-0.2 -0.1,0 -1.4,-0.1 -1.9,1.5 0,0.1 -0.1,0.3 -0.1,0.4 -0.3,1.1 1,1.5 1.1,1.6"
   id="path688" />
	<path
   d="m 187.9,325.7 c -0.4,0 -0.6,-0.4 -0.6,-0.8 0,-0.2 0,-0.5 0.1,-0.8 0.4,-1.9 1.8,-5.7 3.5,-8.7 2.1,-3.7 7.2,-8.5 7.2,-8.6 0.2,-0.2 0.5,0.1 0.3,0.3 0,0 -5.1,4.8 -7.2,8.4 -1.8,3.3 -3.1,7 -3.4,8.6 -0.1,0.3 -0.1,0.6 -0.1,0.7 0,0.2 0.1,0.4 0.1,0.4 0.2,0 1,-0.5 2.1,-3.7 0,-0.1 0,-0.1 0.1,-0.2 0.1,-0.3 0.5,-0.2 0.4,0.1 -0.1,1.1 -1.4,4.3 -2.5,4.3"
   id="path690" />
	<path
   d="m 180.9,330 c -0.2,0 -0.3,-0.2 -0.2,-0.4 0.1,-0.1 1.3,-1.9 2.9,-3.3 0.5,-0.5 2.3,-1.7 3.9,-2.4 0.1,-0.1 0.3,0 0.3,0.1 0.1,0.1 0,0.3 -0.1,0.3 -1.6,0.7 -3.3,1.9 -3.7,2.3 l -0.1,-0.2 0.1,0.2 c -1.6,1.4 -2.9,3.2 -2.9,3.2 -0.1,0.1 -0.1,0.2 -0.2,0.2"
   id="path692" />
	<path
   d="m 198.7,322.3 c -0.5,0 -1,-0.3 -1.4,-0.7 -1.3,-1.6 0.4,-3.9 0.5,-4 0.1,-0.1 0.2,-0.1 0.3,0 0.1,0.1 0.1,0.2 0,0.3 0,0 -1.6,2.2 -0.5,3.4 0.3,0.4 0.7,0.6 1.1,0.6 0.8,0 1.5,-0.8 1.5,-0.8 0.1,-0.1 0.2,-0.1 0.3,0 0.1,0.1 0.1,0.2 0,0.3 0,0 -0.8,0.9 -1.8,0.9"
   id="path694" />
	<path
   d="m 212.9,318.1 c -0.2,0 -0.3,-0.2 -0.2,-0.4 0.3,-0.5 0.2,-0.6 1.1,-0.7 0.5,-0.1 0.6,-0.2 0.6,-0.1 0,-0.1 0.1,-0.2 0.2,-0.2 0.1,0 0.2,0.1 0.2,0.2 0,0.1 -0.1,0.5 -1,0.6 -0.5,0.1 -0.5,0.1 -0.6,0.3 0,0.1 -0.1,0.3 -0.3,0.3"
   id="path696" />
	<path
   d="m 213.1,318 c -0.1,0.3 -0.6,0.1 -0.4,-0.3 0.2,-0.3 0.6,0 0.4,0.3"
   id="path698" />
	<path
   d="m 212.7,317.8 c 0.4,-0.8 0.4,-1.3 0.3,-1.5 0,-0.1 -0.3,-0.7 -0.4,-0.9 -0.3,-0.4 -0.6,-0.9 -1.7,-1 -2.6,-0.3 -3.2,2.8 -1.8,4.2 0.4,0.4 1,0.7 1.5,0.7 1.6,-0.3 2,-1.4 2.1,-1.5 z m -2.1,1.8 c -1.3,0 -2.7,-1.1 -2.7,-3 0,-1.8 1.2,-3 3,-2.8 1.3,0.2 1.8,0.8 2.3,1.9 0.2,0.5 0.5,1 -0.1,2.1 0,0 0,0 0,0.1 -0.3,0.9 -1.2,1.7 -2.5,1.7"
   id="path700" />
	<path
   d="m 212.9,318.1 c -0.1,0 -0.2,-0.1 -0.2,-0.2 0,-0.2 0.3,-0.3 0.4,-0.2 0.1,0.1 0,0.4 -0.2,0.4"
   id="path702" />
	<path
   d="m 205.2,320.9 c -0.2,0.2 -0.5,-0.2 -0.3,-0.4 0.6,-0.4 0.6,-1 0.5,-1.9 0,-0.9 0.3,-2.1 1,-2.4 0.6,-0.3 1.7,-0.7 1.7,-0.7 l 0.2,0.4 c 0,0 -1.1,0.5 -1.7,0.7 -0.5,0.2 -0.7,1.1 -0.7,1.9 0,1 0,1.7 -0.7,2.4"
   id="path704" />
	<path
   d="m 202,324 c -0.3,0.2 -0.5,-0.3 -0.2,-0.4 0.1,-0.1 0.4,-0.4 0.5,-0.7 0.5,-0.8 0.3,-0.4 0.7,-1 0.5,-0.8 0.9,-0.8 1.7,-1.2 1.1,-0.5 1.9,-0.9 3,-1.4 0.1,-0.1 0.3,0 0.3,0.1 0.1,0.1 0,0.3 -0.1,0.3 -0.2,0.1 -1.9,0.9 -3,1.4 -0.9,0.4 -1.1,0.5 -1.5,1.1 -0.4,0.5 -0.2,0.2 -0.7,1 -0.3,0.3 -0.5,0.7 -0.7,0.8"
   id="path706" />
	<path
   d="m 206.4,323.3 c 0,0 0,-0.1 0,-0.1 0,0 0,0 0,0.1 z m 3.1,2.1 c -1,0.8 -2.3,1.1 -3.3,0.3 -0.9,-0.8 -0.6,-1.8 0.3,-2.7 0.2,-0.2 0.6,0.2 0.3,0.4 -0.2,0.2 -0.7,0.7 -0.6,1.3 0,0.3 0.1,0.5 0.4,0.7 1,0.8 2.3,0 2.7,-0.3 0,0 0.1,-0.1 0.1,-0.1 0,-0.1 0.1,-0.1 0.1,-0.1 0.2,-0.2 0.5,0.1 0.3,0.3 -0.1,0.1 -0.3,0.2 -0.3,0.2"
   id="path708" />
	<path
   d="m 209.7,328.6 c -0.9,0 -1.6,-0.8 -1.6,-1.6 0,-0.8 0.7,-1.6 1.3,-2 0.1,-0.1 0.2,-0.1 0.3,0 0.1,0.1 0.1,0.2 0,0.3 -0.9,0.8 -1.5,1.7 -0.7,2.5 0.7,0.6 1.5,0.1 2.2,-0.4 0.6,-0.5 1,-1 1,-1 0.1,-0.1 0.2,-0.1 0.3,0 0.1,0.1 0.1,0.2 0,0.3 -0.6,0.9 -1.8,1.9 -2.8,1.9"
   id="path710" />
	<path
   d="m 215.7,328.1 c -0.2,0.2 -0.5,-0.1 -0.3,-0.3 0.7,-0.8 1.3,-1.2 1.3,-1.3 0.2,-0.2 0.5,0.2 0.3,0.4 -0.1,0 -0.7,0.5 -1.3,1.2"
   id="path712" />
	<path
   d="m 214.2,329.7 c -0.2,0 -0.3,-0.3 -0.2,-0.4 0.1,-0.1 0.4,-0.6 1.3,-1.6 0.1,-0.1 0.2,-0.1 0.3,0 0.1,0.1 0.1,0.2 0,0.3 -1.1,1.3 -1.1,1.7 -1.4,1.7"
   id="path714" />
	<path
   d="m 212.1,330.9 c -1.8,0 -2.1,-1.9 -1,-3.4 0.1,-0.1 0.2,-0.1 0.3,0 0.1,0.1 0.1,0.2 0,0.3 0,0 -1,1.3 -0.3,2.2 0.4,0.6 1.7,0.7 2.8,-0.5 0.2,-0.2 0.5,0.1 0.3,0.3 -0.6,0.7 -1.4,1.1 -2.1,1.1"
   id="path716" />
	<path
   d="m 211,334 c -0.3,0 -0.5,-0.1 -0.8,-0.2 -0.2,-0.1 -0.6,-0.2 -0.7,-1.3 0,-0.1 0.1,-0.2 0.2,-0.2 0.1,0 0.2,0.1 0.2,0.2 0.1,0.7 0.3,0.8 0.3,0.9 h 0.1 c 0.5,0.2 0.9,0.4 1.4,-0.7 0.1,-0.1 0.2,-0.3 0.3,-0.5 0.4,-0.9 2.8,-3.8 3.2,-4.3 0.2,-0.2 0.5,0.1 0.3,0.3 -0.5,0.5 -2.8,3.4 -3.1,4.2 -0.2,0.6 -0.6,1.6 -1.4,1.6"
   id="path718" />
	<path
   d="m 209.9,332.6 c -2,1.1 -3.7,-0.6 -2.8,-2.8 0.1,-0.3 0.5,-0.1 0.4,0.2 -0.7,1.7 0.4,3.2 2.1,2.3 0.4,-0.2 0.7,-0.5 0.7,-0.5 0.1,-0.1 0.2,-0.1 0.3,0 0.1,0.1 0.1,0.2 0,0.3 0.1,0 -0.3,0.3 -0.7,0.5"
   id="path720" />
	<path
   d="m 207.3,330.1 c -0.2,0 -0.3,-0.2 -0.2,-0.3 0.1,-0.2 0.4,-0.2 0.4,0.1 0.1,0 0,0.2 -0.2,0.2"
   id="path722" />
	<path
   d="m 206.5,330.4 c -0.4,0 -0.8,-0.1 -1.2,-0.6 -0.7,-0.7 -0.7,-1.5 -0.4,-2.4 0.2,-0.4 0.4,-0.7 0.4,-0.8 0.1,-0.1 0.2,-0.1 0.3,-0.1 0.1,0.1 0.1,0.2 0.1,0.3 0,0 -0.2,0.3 -0.3,0.6 -0.2,0.7 -0.2,1.4 0.3,2 0.5,0.5 1,0.6 1.6,0.2 0,0 0,0 0,0 0.3,-0.2 0.5,-0.4 0.5,-0.4 0.2,-0.2 0.6,0 0.4,0.3 -0.5,0.5 -1.1,0.9 -1.7,0.9"
   id="path724" />
	<path
   d="m 205.1,327.6 c -1.5,0.8 -2.9,0.5 -3.3,-1.2 -0.3,-1.4 1,-2.4 1.4,-2.6 0.2,-0.2 0.4,-0.1 0.4,0.2 0,0.1 -0.1,0.2 -0.1,0.2 -0.4,0.2 -1.5,1.1 -1.3,2.2 0.1,0.5 0.4,1 0.8,1.2 0.7,0.3 1.6,-0.2 1.8,-0.3 0,0 0.1,0 0.1,0 0.1,-0.1 0.2,0 0.3,0.1 0.1,0 0.1,0.2 -0.1,0.2"
   id="path726" />
	<path
   d="m 202.3,330.5 c -1,0 -1.5,-0.6 -1.7,-1.5 -0.2,-1.3 0.4,-2.3 1.4,-2.6 0.1,0 0.2,0 0.3,0.2 0,0.1 0,0.3 -0.2,0.3 -0.7,0.2 -1.2,1 -1.1,2.1 0.3,1.9 2.2,1 4,0.3 0.2,-0.2 0.5,0.2 0.3,0.4 0,0 0,0 -0.1,0.1 -0.7,0.2 -2,0.7 -2.9,0.7"
   id="path728" />
	<path
   d="m 207.7,332.5 c -2.8,1.8 -4.9,-1.1 -2.7,-3.3 0.1,-0.1 0.2,-0.1 0.3,0 0.1,0.1 0.1,0.2 0,0.3 0,0 -1.3,1.4 -0.5,2.5 0.9,1.1 2.3,0.3 2.6,0 0.4,-0.1 0.6,0.3 0.3,0.5"
   id="path730" />
	<path
   d="m 200.4,330 c -1.7,0 -2.9,-0.7 -2.8,-2.4 0,-0.1 0,-0.2 0,-0.2 0.2,-1.2 1.3,-1.7 1.9,-1.7 0.3,0 0.4,0.4 0,0.5 0,0 -1.3,0.1 -1.5,1.4 0,0 0,0.1 0,0.1 -0.1,1.6 1.4,2 3,1.9 0.1,0 0.2,0.1 0.3,0.2 0,0.1 -0.1,0.2 -0.2,0.3 -0.1,-0.2 -0.4,-0.1 -0.7,-0.1"
   id="path732" />
	<path
   d="m 204.8,333.4 c -0.8,0.9 -2.2,2 -3.4,1.4 -1,-0.5 -1,-1.4 -0.9,-2 -1.4,0.9 -2.8,0.7 -3.5,-0.8 -0.8,-1.7 0.8,-3 0.9,-3.1 0.1,-0.1 0.2,-0.1 0.3,0 0.1,0.1 0.1,0.2 0,0.3 -0.1,0 -1.4,1.1 -0.7,2.5 0.7,1.5 2,1.4 3.3,0.3 0.1,-0.1 0.2,-0.1 0.3,0 0.2,0.1 0.1,0.3 0.1,0.4 -0.2,0.7 -0.3,1.5 0.6,2 0.7,0.4 1.5,-0.1 2.1,-0.6 0.4,-0.3 0.7,-0.7 0.7,-0.7 0.1,-0.1 0.2,-0.1 0.3,0 0,0 0,0.2 -0.1,0.3"
   id="path734" />
	<path
   d="m 206.3,336.1 c -1.3,0 -2.4,-1 -2.7,-2.1 -0.1,-0.3 0.3,-0.5 0.4,-0.2 0.1,0.1 0.2,1.3 1.6,1.7 1.1,0.4 2.2,-0.2 2.8,-0.7 0.4,-0.3 0.7,-0.6 0.7,-0.6 0.1,-0.1 0.2,-0.1 0.3,0 0.1,0.1 0.1,0.2 0,0.3 -0.8,0.9 -1.9,1.6 -3.1,1.6"
   id="path736" />
	<path
   d="m 211.3,336 c -0.2,0 -0.3,-0.3 -0.1,-0.4 0.1,-0.1 0.3,-0.2 0.4,-0.4 0.8,-0.7 0.3,-2.4 0.3,-2.4 0,-0.1 0,-0.3 0.1,-0.3 0.1,0 0.3,0 0.3,0.1 0,0.1 0.6,1.9 -0.4,2.9 -0.2,0.2 -0.3,0.3 -0.4,0.4 -0.1,0.1 -0.1,0.1 -0.2,0.1"
   id="path738" />
	<path
   d="m 211.4,335.9 c -0.6,0.5 -1.2,0.7 -1.9,0.6 -0.8,-0.2 -1.2,-1.3 -1.2,-1.4 0,-0.1 0,-0.2 0.2,-0.3 0.1,0 0.3,0 0.3,0.2 0.1,0.3 0.4,1 0.8,1.1 0.5,0.1 0.9,0 1.5,-0.5 0.1,-0.1 0.2,-0.1 0.3,0 0.2,0.1 0.1,0.3 0,0.3"
   id="path740" />
	<path
   d="m 184,326.3 c 0.1,0.3 -0.3,0.5 -0.4,0.2 -1.5,-2.7 -7.7,-13.2 -9.7,-15.7 -0.7,-0.8 -1.7,-1.8 -3.1,-3.3 -0.1,-0.1 -0.1,-0.2 0,-0.3 0.1,-0.1 0.2,-0.1 0.3,0 1.5,1.4 2.5,2.5 3.2,3.3 2,2.6 8,13 9.7,15.8"
   id="path742" />
	<path
   d="m 170.9,307.7 c -0.2,0 0.4,0.3 -5.9,-5.4 -2.6,-2.4 -2.7,-2.4 -4.2,-4.3 -0.9,-1.2 -2,-2.5 -2.5,-2.3 0,0 -0.1,0 -0.1,0.1 -0.2,0.8 1.3,3.9 1.9,5 0.1,0.1 0,0.3 -0.1,0.3 -0.1,0.1 -0.2,0 -0.3,-0.1 0,0 -2.3,-4.1 -1.9,-5.4 0.1,-0.2 0.2,-0.4 0.4,-0.4 0.8,-0.3 1.8,0.9 3,2.4 1.6,1.9 1.6,2 4.2,4.3 1.7,1.6 4.1,3.8 5.8,5.4 0,0.1 -0.1,0.4 -0.3,0.4"
   id="path744" />
	<path
   d="m 161.1,302.4 c 0.2,0.3 -0.2,0.5 -0.4,0.3 -0.5,-0.7 -0.8,-1.2 -1,-1.5 -0.2,-0.3 0.2,-0.5 0.4,-0.2 0.2,0.2 0.5,0.7 1,1.4"
   id="path746" />
	<path
   d="m 164.8,307.7 c 0.2,0.2 -0.2,0.5 -0.4,0.3 -0.1,-0.1 -2.7,-3.9 -3.7,-5.3 -0.1,-0.1 0,-0.2 0.1,-0.3 0.1,-0.1 0.3,0 0.3,0.1 2.1,3.1 3.2,4.6 3.5,5.1 0,0 0,0 0.1,0.1 h 0.1"
   id="path748" />
	<path
   d="m 164,307.3 c -0.2,0 0.1,0.2 -4.3,-6.1 -0.2,-0.2 0.2,-0.5 0.4,-0.3 l 4.1,6 c 0.1,0.2 0,0.4 -0.2,0.4"
   id="path750" />
	<path
   d="m 159.9,301.3 c -0.1,0 -0.2,-0.1 -0.3,-0.3 -0.1,-0.1 0,-0.3 0.1,-0.3 0.1,-0.1 0.3,0 0.3,0.1 0,0 0.1,0.1 0.1,0.2 0.1,0.1 0,0.3 -0.2,0.3"
   id="path752" />
	<path
   d="m 159,305.6 c 0.2,0.3 -0.2,0.6 -0.4,0.2 -3.9,-5.2 -2.7,-7.5 2.5,-3.4 0.1,0 0.1,0.1 0.1,0.1 0.3,0.2 -0.1,0.6 -0.3,0.3 -0.1,0 -2.1,-1.7 -3.4,-2 -2,-0.5 0.3,3.1 1.5,4.8 -0.1,-0.1 0,-0.1 0,0"
   id="path754" />
	<path
   d="m 166.7,312.4 c 0.1,0.3 -0.3,0.5 -0.4,0.2 0,0 -1.3,-2.5 -1.7,-4.8 -0.3,-1.3 -0.3,-2.2 0.1,-2.8 0.7,-1.4 2,-1.6 3.1,-0.9 0.1,0.1 0.1,0.2 0.1,0.3 -0.1,0.1 -0.2,0.1 -0.3,0.1 0,0 0,0 -0.1,-0.1 -0.5,-0.2 -1.6,-0.6 -2.4,0.8 -0.9,1.6 0.8,5.7 1.6,7.2"
   id="path756" />
	<path
   d="m 166.5,312.8 c -0.2,0 -0.4,-0.4 -0.1,-0.5 0.1,0 0.3,0 0.3,0.2 0.1,0.1 -0.1,0.3 -0.2,0.3"
   id="path758" />
	<path
   d="m 171.8,315.7 c 0,-0.1 0,-0.1 0,0 -1.7,-3.5 -4.4,-7 -3.1,-8.3 0.6,-0.5 1.4,-0.6 2.2,-0.1 0.1,0 0.5,0.3 0.5,0.4 0.2,0.2 -0.1,0.5 -0.3,0.4 0,0 -0.2,-0.1 -0.4,-0.3 -0.5,-0.3 -1.2,-0.5 -1.7,0 -1,0.9 1.7,4.8 3.2,7.7 l -0.4,0.2"
   id="path760" />
	<path
   d="m 171.8,315.7 c -1.1,-0.8 -1.9,-1.3 -2.4,-1.3 -0.9,-0.1 -1.4,-0.1 -1.4,-0.1 -0.1,0 -0.2,-0.1 -0.2,-0.3 0,-0.1 0.1,-0.2 0.3,-0.2 0,0 0.6,0.1 1.4,0.1 0.7,0.1 1.8,0.8 2.6,1.5 -0.2,0.1 -0.1,0.1 -0.3,0.3"
   id="path762" />
	<path
   d="m 177.6,320 c 0.2,0.2 -0.1,0.5 -0.4,0.3 -1,-1.2 -4,-4.9 -2.7,-5.6 1.3,-0.7 3.8,2.2 4,2.6 0.1,0.1 0.1,0.2 0,0.3 -0.1,0.1 -0.2,0.1 -0.3,0 -0.9,-1.2 -2.7,-2.9 -3.5,-2.4 0,0 -0.1,0.1 -0.1,0.1 -0.2,0.9 2.6,4.3 3,4.7"
   id="path764" />
	<path
   d="m 178.5,323.5 c 0.2,0.2 -0.1,0.6 -0.3,0.3 -0.2,-0.2 -2.1,-2 -2.2,-2.1 -0.9,-0.8 -2,-1.9 -1.1,-2.7 0.8,-0.6 2.1,0.4 2.6,0.8 0.1,0.1 0.1,0.2 0,0.3 -0.1,0.1 -0.2,0.1 -0.3,0 -0.7,-0.6 -1.6,-1.1 -2,-0.8 -0.1,0.1 -0.2,0.2 -0.2,0.3 0,0.5 0.7,1.2 1.3,1.7 0.1,0.3 2,2 2.2,2.2"
   id="path766" />
	<path
   d="m 177.5,326.1 c -0.2,0 -0.5,0 -1.1,-0.2 -0.1,0 -0.2,-0.2 -0.2,-0.3 0,-0.1 0.2,-0.2 0.3,-0.2 0.1,0 0.3,0.1 0.4,0.1 -0.6,-0.5 -1.4,-1.3 -1.3,-2.2 0,-0.3 0.2,-0.5 0.4,-0.5 0.6,-0.3 1.6,0.2 2.4,0.6 l -0.2,0.4 c -0.9,-0.5 -1.7,-0.7 -2,-0.6 0,0 -0.1,0.1 -0.1,0.2 -0.1,0.9 1.5,2 1.7,2.2 0.1,0.1 0.1,0.2 0,0.3 0,0.2 -0.1,0.2 -0.3,0.2"
   id="path768" />
	<path
   d="m 157.5,300.8 c -0.1,0 -0.1,0 -0.2,-0.1 -0.1,-0.1 -7.7,-9.8 -10.4,-12.7 -2.7,-2.9 -10.5,-12 -12.3,-14.7 -2.7,-3.9 -2.7,-7 -1.5,-11 0.1,-0.2 0.2,-0.7 0.7,-0.8 0.8,-0.1 1.8,1.5 4.2,5.5 6,10.3 7,11.2 20.1,28.4 0.2,0.2 -0.2,0.5 -0.4,0.3 -13.2,-17.3 -14.2,-18.3 -20.2,-28.5 -1.7,-2.8 -3.1,-5.3 -3.7,-5.3 -0.1,0 -0.2,0.2 -0.3,0.5 -1.2,3.9 -1.1,6.8 1.4,10.6 1.9,2.7 9.6,11.8 12.3,14.6 2.7,2.9 10.3,12.6 10.4,12.7 0.2,0.3 0.1,0.5 -0.1,0.5"
   id="path770" />
	<path
   d="m 155.4,303.5 c -0.1,0 -0.1,0 -0.2,-0.1 0,-0.1 -4.8,-5.7 -11.8,-11.9 -6.8,-6.1 -8.2,-8.9 -9.7,-12.7 -1.4,-3.4 -0.4,-7.3 -0.3,-7.4 0,-0.1 0.2,-0.2 0.3,-0.2 0.1,0 0.2,0.2 0.2,0.3 0,0 -1,3.9 0.3,7.1 1.5,3.7 2.8,6.5 9.6,12.5 7,6.3 11.8,11.9 11.8,12 0.1,0.2 0,0.4 -0.2,0.4"
   id="path772" />
	<path
   d="m 137.4,291.5 c 0.2,0.2 -0.2,0.5 -0.4,0.3 -0.6,-0.8 -3.7,-6.2 -3,-8.1 0.5,-1.3 1.4,-1.4 2,-1 0.1,0.1 0.1,0.2 0,0.3 -0.1,0.1 -0.2,0.1 -0.3,0 0,0 -0.3,-0.2 -0.6,-0.1 -0.3,0.1 -0.5,0.4 -0.7,0.9 -0.6,1.6 2.3,6.9 3,7.7"
   id="path774" />
	<path
   d="m 178.7,329.7 c -0.2,0 0,0.1 -2.5,-3.8 -2,-3.1 -5.3,-8.2 -7.7,-11 -0.8,-0.8 -2.1,-2.2 -2.2,-2.3 -3.1,-3.1 -7.3,-6.9 -11,-9.2 -2,-1.2 -2.7,-1.4 -5.5,-2.6 -1.1,-0.5 -1.8,-0.7 -1.9,-0.7 -0.1,0.1 0,0.6 0,1 0.1,1.8 5.3,6.3 6.6,7.4 l 4.6,4 -0.3,0.4 c -3.8,-3.3 -7.2,-6.1 -9.5,-8.7 -1.2,-1.3 -1.8,-2.3 -1.8,-3 -0.1,-0.7 -0.2,-1.2 0.1,-1.4 0.4,-0.3 1.2,0.2 4.9,1.7 5.3,2.2 11.7,8.3 15.7,12.4 l -0.2,0.2 0.2,-0.1 c 3,3 8.6,11.8 10.7,15.5 0,0 -0.1,0.2 -0.2,0.2"
   id="path776" />
	<path
   d="m 187.4,335.1 c -0.5,0 -1.3,-0.3 -1.3,-0.9 0,-0.5 0.6,-1.1 1,-1.4 -1.6,0 -4.2,2.6 -5.6,1.6 -0.9,-0.6 -0.8,-1.6 -0.1,-2.3 -0.7,0.2 -1.5,0.4 -2.1,0.8 -1,0.6 -2,0.7 -2.4,-0.4 0,-0.1 0,-0.3 0.1,-0.3 0.1,0 0.3,0 0.3,0.1 0.1,0.2 0.2,0.4 0.4,0.5 0.3,0.1 0.7,0 1.3,-0.3 1.2,-0.8 3.4,-1.2 3.6,-1 0.1,0.1 0.1,0.1 0.1,0.2 0,0.2 -0.2,0.2 -0.4,0.3 -0.5,0.2 -1,0.7 -1.1,1.1 -0.1,0.3 0.1,0.6 0.4,0.8 0.4,0.3 1.1,0.3 3.2,-0.9 2.1,-1.2 2.8,-0.7 2.9,-0.5 0.1,0.1 0.1,0.3 0,0.4 -0.5,0.3 -1.2,0.9 -1.2,1.3 0,0 0,0.2 0.3,0.3 1.7,0.8 3.3,-2.3 5.7,-3.1 -3.3,-1.1 -3.8,-1 -6.3,-1.1 -1.6,-0.1 -6.5,-0.1 -7.6,-0.6 -0.1,0 -0.2,-0.2 -0.1,-0.3 0.1,-0.1 0.2,-0.2 0.3,-0.1 1.4,0.5 6.4,0.5 9.6,0.6 1.7,0.1 5,1.3 5.1,1.3 0.3,0.1 0.1,0.5 -0.1,0.4 -2.3,0.1 -4.1,3.5 -6,3.5"
   id="path778" />
	<path
   d="m 158.6,316.7 c 0,0 -0.1,0 -0.1,0 -2.9,-1.6 -6.6,-4.3 -8.4,-7.1 -0.8,-1.3 -1.5,-2.8 -1.3,-4.3 0.1,-0.8 0.4,-1.2 0.4,-1.2 0.1,-0.1 0.2,-0.1 0.3,0 0.1,0.1 0.1,0.2 0,0.3 0,0 -0.3,0.3 -0.3,0.9 -0.2,1.4 0.5,2.8 1.2,4 1.8,2.8 5.4,5.4 8.2,7 0.3,0 0.2,0.4 0,0.4"
   id="path780" />
	<path
   d="m 160,320.5 c -0.2,0 -6.9,-3.3 -8.3,-5.3 -0.5,-0.6 -0.8,-1.4 -0.9,-2.3 -0.2,-1.4 0,-2.6 0,-2.6 0.1,-0.3 0.5,-0.2 0.5,0.1 -0.2,1.4 0,3.3 0.9,4.6 1.2,1.6 6.2,4.2 8,5.1 0.1,0.1 0,0.4 -0.2,0.4"
   id="path782" />
	<path
   d="m 163.6,325.7 c -0.1,0 0.1,0.1 -5,-2.1 -3.2,-1.4 -4,-2.3 -4.9,-3.7 -0.4,-0.6 -0.7,-1 -0.9,-2.1 -0.1,-0.9 -0.1,-1.6 -0.1,-1.6 0,-0.3 0.5,-0.3 0.5,0 0,0 -0.1,0.7 0.1,1.5 0.1,1 0.5,1.4 0.8,1.9 0.9,1.3 1.6,2.2 4.7,3.5 3.6,1.6 4.9,2.1 4.9,2.1 0.3,0.1 0.2,0.5 -0.1,0.5"
   id="path784" />
	<path
   d="m 156.7,325.9 c -0.1,0 -0.2,0 -0.2,-0.1 -0.9,-1.9 -0.4,-3.6 -0.4,-3.7 0,-0.1 0.2,-0.2 0.3,-0.1 0.1,0 0.2,0.2 0.1,0.3 0,0 -0.5,1.6 0.3,3.3 0.2,0.1 0,0.3 -0.1,0.3"
   id="path786" />
	<path
   d="m 163.8,330.2 c -0.9,0 -2.3,-0.2 -4.2,-1.3 -1.4,-0.8 -2.5,-1.7 -3.2,-3.1 -0.1,-0.1 0,-0.3 0.1,-0.3 0.1,-0.1 0.3,0 0.3,0.1 0.5,1 1.3,1.8 2.4,2.6 0.2,0.1 0.3,0.2 0.6,0.4 3.1,1.8 5,1.1 5,1.1 0.1,-0.1 0.3,0 0.3,0.1 0,0.1 0,0.3 -0.1,0.3 0,0 -0.4,0.1 -1.2,0.1"
   id="path788" />
	<path
   d="m 170.2,333.6 c -1.4,0.4 -4.2,0.9 -5.7,0.4 -1.9,-0.5 -4.4,-1.8 -5,-3.8 -0.3,-0.8 -0.1,-1.4 -0.1,-1.5 0,-0.1 0.2,-0.2 0.3,-0.2 0.1,0 0.2,0.2 0.2,0.3 -0.4,2.4 2.5,4 4.8,4.7 1.8,0.6 5.4,-0.4 5.4,-0.4 0.1,0 0.2,0 0.3,0.2 0,0.2 0,0.3 -0.2,0.3"
   id="path790" />
	<path
   d="m 168.9,338.9 c -0.9,0 -1.8,-0.1 -2.7,-0.6 -1.9,-1 -2.4,-2.2 -2.5,-3 -0.1,-0.9 0.3,-1.6 0.3,-1.7 0.1,-0.1 0.2,-0.1 0.3,-0.1 0.1,0.1 0.1,0.2 0.1,0.3 0,0 -0.3,0.6 -0.2,1.4 0.1,1 0.9,1.9 2.2,2.7 2.1,1.1 5.7,0.2 7.9,-0.8 0.2,-0.2 0.5,0.2 0.3,0.4 -0.1,0.1 -3.2,1.4 -5.7,1.4"
   id="path792" />
	<path
   d="m 168.1,340.1 c 0.2,0.3 -0.2,0.5 -0.4,0.2 -0.6,-0.9 -0.7,-1.7 -0.7,-1.7 0,-0.3 0.4,-0.3 0.5,0 0.1,0 0.1,0.7 0.6,1.5"
   id="path794" />
	<path
   d="m 172.3,342.9 c -1.9,0 -3.7,-1.2 -4.5,-2.6 -0.1,-0.1 0,-0.3 0.1,-0.3 0.1,-0.1 0.3,0 0.3,0.1 0.8,1.3 2.5,2.5 4.3,2.4 1.3,0 2.3,-0.6 2.3,-0.6 0.1,-0.1 0.3,0 0.3,0.1 0.1,0.1 0,0.3 -0.1,0.3 -0.6,0.3 -1.7,0.6 -2.7,0.6"
   id="path796" />
	<path
   d="m 170.3,333.2 c 0.3,0.1 0.1,0.6 -0.2,0.4 -1.8,-0.9 -6,-3.5 -6.5,-5.5 -0.2,-0.8 -0.3,-1.8 0.4,-2.1 -1.6,-1.1 -4.4,-3.4 -4.3,-5.4 0.1,-0.7 0.4,-1 1.1,-1.1 -0.9,-0.8 -2,-2 -2.4,-2.9 -1,-1.9 -0.2,-3.1 0.8,-3.2 -1.3,-1.5 -2.4,-3.6 -1,-5 2,-1.9 4.6,0.4 4.6,0.4 0.1,0.1 0.1,0.2 0,0.3 -0.1,0.1 -0.2,0.1 -0.3,0 -0.1,-0.1 -2.3,-2.1 -4,-0.5 -1.2,1.1 -0.1,2.9 0.6,3.9 0.4,0.5 0.7,0.8 0.7,0.8 0.1,0.1 0.1,0.2 0.1,0.3 0,0.1 -0.2,0.2 -0.3,0.1 -0.7,-0.1 -1.1,0.1 -1.3,0.6 -0.5,1.5 1.8,3.9 3.1,5 0.2,0.1 0.1,0.4 -0.2,0.4 -0.1,0 -1.1,-0.1 -1.2,0.7 -0.1,1.7 2.5,3.8 3.6,4.6 0.6,0.4 1,0.7 1,0.7 0.2,0.1 0.1,0.5 -0.2,0.4 0,0 -0.3,0 -0.5,0.1 -0.2,0.2 -0.3,0.8 -0.1,1.5 0.7,2.1 4.9,4.6 6.5,5.5"
   id="path798" />
	<path
   d="m 172.4,323.2 c -0.1,0 -0.1,0 -0.2,-0.1 0,0 0,0 -0.1,-0.1 -1.7,-1.8 -3.5,-4.1 -2.9,-5 0.7,-1 2.8,1.1 3.7,2 0.1,0.1 0.1,0.2 0,0.3 -0.1,0.1 -0.2,0.1 -0.3,0 -0.7,-0.8 -2.1,-2.1 -2.8,-2.1 -0.1,0 -0.1,0 -0.2,0.1 -0.2,0.4 0.5,1.9 2.9,4.4 0.2,0.2 0.1,0.5 -0.1,0.5"
   id="path800" />
	<path
   d="m 174.9,330.9 c -1.1,0.6 -2.2,0.6 -2.8,-0.5 -0.5,-0.9 -0.2,-1.5 0.7,-1.9 -0.9,-0.4 -2.3,-1.2 -2.3,-2.2 0,-0.7 0.5,-1.1 1.2,-1.1 -0.8,-0.6 -2.1,-1.7 -1.9,-2.6 0.1,-0.3 0.2,-0.4 0.5,-0.5 0.6,-0.2 1.5,0.2 2.2,0.6 l -0.3,0.4 c -0.5,-0.3 -1.7,-1 -1.9,-0.4 -0.2,0.7 1.3,1.9 2.3,2.5 0.2,0.1 0.1,0.5 -0.2,0.4 -0.2,0 -1,-0.1 -1.3,0.2 -0.1,0.1 -0.2,0.3 -0.2,0.5 0,0.7 1.6,1.6 2.6,2 0.2,0.1 0.2,0.4 -0.1,0.4 -0.2,0 -0.9,0.2 -1.1,0.6 -0.1,0.2 -0.1,0.5 0.1,0.8 0.5,1 1.6,0.6 2.1,0.3 0.1,-0.1 0.3,0 0.3,0.1 0.3,0.2 0.3,0.4 0.1,0.4"
   id="path802" />
	<path
   d="m 175.1,330.8 c -0.4,0.3 -0.6,-0.2 -0.3,-0.3 0,0 0.1,0 0.1,-0.1 0.1,-0.1 0.2,-0.1 0.3,0 0.1,0.2 0,0.4 -0.1,0.4"
   id="path804" />
	<path
   d="m 174.9,330.9 c -0.2,0 -0.3,-0.3 -0.1,-0.4 0,0 0.1,0 0.1,-0.1 0.3,-0.1 0.5,0.3 0.2,0.4 v 0 c -0.1,0.1 -0.2,0.1 -0.2,0.1"
   id="path806" />
	<path
   d="m 175,330.9 c -0.3,0.2 -0.6,-0.2 -0.3,-0.4 0.3,-0.2 0.6,0.2 0.3,0.4"
   id="path808" />
	<path
   d="m 175.2,332.6 c -1.5,0 -2.1,-1 -0.4,-2.1 0.1,-0.1 0.2,0 0.3,0.1 0.1,0.1 0,0.2 -0.1,0.3 -0.3,0.2 -1,0.7 -0.7,1 0.3,0.4 1.7,0.3 2.8,0 l 5.8,-2 c 0.1,0 0.3,0 0.3,0.1 0,0.1 0,0.3 -0.1,0.3 l -5.8,2 c -0.6,0.1 -1.5,0.3 -2.1,0.3"
   id="path810" />
	<path
   d="m 177.7,334.9 c 0,-0.1 0,-0.1 0,0 0,-0.1 0,-0.1 0,0 z m -1.1,0.1 c -0.4,0 -0.9,-0.1 -1.2,-0.2 -1.3,-0.4 -1.4,-1.6 -1.4,-1.6 0,-0.3 0.4,-0.4 0.5,0 0,0 0.1,1 1.1,1.2 0.4,0.1 1.1,0.2 2.1,0.1 0.2,-0.1 0.3,0.1 0.3,0.2 0,0.1 -0.1,0.2 -0.2,0.2 -0.3,0 -0.9,0.1 -1.2,0.1"
   id="path812" />
	<path
   d="m 188.2,340.2 c -0.7,0 -1.3,-0.6 -1.3,-1.2 -0.1,-0.5 0.2,-1 0.4,-1.4 -1.5,0.5 -4.8,1.4 -5.7,0.7 -0.7,-0.5 -0.7,-1.2 -0.3,-1.9 -0.9,0.2 -2.4,0.5 -3.4,-0.1 -1.1,-0.6 -1.1,-1.4 -0.4,-1.8 0.1,-0.1 0.2,0 0.3,0.1 0.1,0.1 0.1,0.2 -0.1,0.3 -0.5,0.4 -0.2,0.7 0.3,1.1 1.3,0.7 3.8,-0.1 3.8,-0.1 0.2,-0.1 0.4,0.2 0.2,0.4 0,0 -0.7,0.6 -0.7,1.1 0,0.2 0.1,0.4 0.4,0.6 0.8,0.6 4.1,-0.3 6,-1 0.2,-0.1 0.4,0.2 0.2,0.4 -0.2,0.3 -0.9,1.1 -0.8,1.7 0,0.3 0.2,0.5 0.4,0.6 0.8,0.6 2.8,-0.7 4.4,-2.2 0.2,-0.3 0.6,0 0.3,0.4 -0.9,0.9 -2.7,2.3 -4,2.3"
   id="path814" />
	<path
   d="m 193,342.2 c -1.7,0 -1.3,-2.9 -0.8,-4.6 l 0.4,0.1 c -0.4,1.6 -0.6,3.6 0.2,4 1.1,0.5 4.7,-2.7 5.1,-4.1 0,0 0,-0.1 0,-0.1 0,-0.1 0.1,-0.2 0.2,-0.2 0.1,0 0.2,0.1 0.2,0.2 0,1.2 -3.6,4.7 -5.3,4.7"
   id="path816" />
	<path
   d="m 198.1,337.7 c -0.2,0 -0.3,-0.1 -0.2,-0.3 0.3,-1 0.1,-3.5 0,-4.5 0,-0.3 0.4,-0.4 0.5,0 0.1,1.1 0.3,3.6 0,4.7 -0.1,0.1 -0.2,0.1 -0.3,0.1"
   id="path818" />
	<path
   d="m 192.1,351.7 c -1.6,0 -2.2,-1.6 -2.5,-3.2 -1,1.2 -3.9,4.1 -6.6,2.2 -1.4,-0.9 -0.9,-2.6 -0.4,-3.6 -1.9,1 -4.2,1.5 -5.1,-0.4 -1.2,-2.6 1.1,-4 1.3,-4.2 0,0 0.1,0 0.1,0 0.2,0 0.3,0.3 0.1,0.4 -0.4,0.2 -2.1,1.4 -1.1,3.6 0.2,0.5 0.5,0.8 1,0.9 1.6,0.5 4.1,-1.1 4.1,-1.1 0.2,-0.1 0.4,0.1 0.3,0.3 0,0 -1.6,2.6 -0.1,3.7 2.9,2 6.3,-2.5 6.3,-2.6 0.1,-0.2 0.4,-0.1 0.4,0.1 0,0 0.2,2.9 1.6,3.3 1.6,0.5 3.5,-1.3 5.1,-4.8 1.8,-3.8 1.2,-8.5 1.1,-8.8 0,-0.1 0.1,-0.2 0.2,-0.2 0.1,0 0.2,0.1 0.2,0.2 0,0.2 0.6,5 -1.2,9 -1.3,3.3 -3.1,5.2 -4.8,5.2"
   id="path820" />
	<path
   d="m 179,342.9 c -4.2,0 -5.8,-3.4 -3.5,-5.1 -1.1,-0.1 -2.1,-0.5 -2.7,-1.4 -1,-1.5 -0.2,-3 -0.1,-3.1 0.1,-0.2 0.3,-0.2 0.4,-0.1 0.1,0.1 0.1,0.2 0,0.3 -0.1,0.1 -0.8,1.4 0.1,2.7 0.3,0.4 0.7,0.8 1.3,1 0.9,0.3 1.8,0.3 1.8,0.3 0.3,0 0.3,0.4 0.1,0.4 0,0 -1,0.4 -1.4,1.3 -0.2,0.4 -0.2,0.9 0.1,1.4 0.6,1.4 2.5,1.9 3.9,1.9 0.1,0 0.2,0.1 0.2,0.2 0,0.1 -0.1,0.2 -0.2,0.2"
   id="path822" />
	<path
   d="m 149.9,300.4 c 0.2,0.2 0,0.6 -0.3,0.4 -2.5,-1.7 -13.1,-9.1 -15.5,-11 -2.5,-1.9 -11.8,-13 -14.7,-15.2 -2.7,-2.1 -4.8,-4.3 -5.8,-3.7 0,0 -0.3,0.2 -0.4,1.3 -0.4,3 0.3,9.6 1.7,11 0.9,0.9 2,2.2 3.6,3.8 0.1,0.1 0.1,0.2 0,0.3 -0.1,0.1 -0.2,0.1 -0.3,0 -1.6,-1.6 -2.7,-2.9 -3.6,-3.8 -1.6,-1.6 -2.2,-8.6 -1.8,-11.4 0.1,-1.2 0.4,-1.5 0.6,-1.6 1.3,-0.9 3.3,1.4 6.3,3.7 2.9,2.2 12.2,13.3 14.7,15.2 2.8,2.1 15.4,10.9 15.5,11"
   id="path824" />
	<path
   d="m 120.5,289.3 c -0.1,0 -0.1,0 -0.2,-0.1 -0.7,-0.6 -1.3,-1.2 -1.9,-1.8 -0.2,-0.2 0.1,-0.5 0.3,-0.3 0.6,0.6 1.3,1.2 1.9,1.8 0.2,0.1 0.1,0.4 -0.1,0.4"
   id="path826" />
	<path
   d="m 149,305.4 c -0.3,0 -15.6,-7.2 -24.3,-12.8 -1.3,-0.8 -2.7,-1.9 -4.1,-3.2 -0.2,-0.2 0.1,-0.6 0.3,-0.3 1.4,1.2 2.8,2.3 4.1,3.1 9.5,6.1 24,12.7 24.1,12.7 0.2,0.2 0.1,0.5 -0.1,0.5"
   id="path828" />
	<path
   d="m 150.1,309.7 c -0.3,0 -13.1,-4.5 -21.2,-8.6 -4,-2 -6.7,-3.4 -8.5,-4.4 -2.2,-1.3 -3.1,-2.1 -4,-3.1 -1.8,-2 -2.9,-7.2 -2.6,-9.3 0,-0.2 0.1,-0.3 0.3,-0.3 0.4,-0.1 1.2,0.1 4.5,3.1 0.4,0.3 1.8,1.6 2.2,2.1 0.1,0.1 0.1,0.2 0,0.3 -0.1,0.1 -0.2,0.1 -0.3,0 0.1,0.1 -0.8,-0.8 -2.1,-2 0,0 -0.1,-0.1 -0.1,-0.1 -3.2,-2.9 -3.9,-3 -4,-3 -0.3,2 0.8,7 2.4,8.9 0.9,1 1.8,1.8 3.9,3 1.7,1 4.4,2.4 8.4,4.4 9.1,4.6 21,8.5 21.1,8.6 0.4,0 0.3,0.4 0,0.4"
   id="path830" />
	<path
   d="m 124.7,305.8 c -0.1,0 -1.8,-0.7 -2,-0.8 -1.9,-0.8 -4.5,-6.9 -4.2,-8.3 0.2,-1.3 1.7,-0.8 2.4,-0.3 0.1,0.1 0.1,0.2 0.1,0.3 -0.1,0.1 -0.2,0.1 -0.3,0.1 0,0 -0.1,-0.1 -0.2,-0.1 -0.5,-0.3 -1,-0.3 -1.2,-0.2 -0.1,0.1 -0.2,0.2 -0.2,0.4 -0.2,1.1 2.2,7 4,7.8 0.4,0.2 1.1,0.4 1.9,0.7 0,0.1 0,0.4 -0.3,0.4"
   id="path832" />
	<path
   d="m 151,313.1 c -0.1,0 -11.8,-2.7 -11.9,-2.7 -3.5,-0.8 -10.6,-3.2 -14.3,-4.5 -0.1,0 -0.2,-0.2 -0.1,-0.3 0,-0.1 0.2,-0.2 0.3,-0.1 3.7,1.3 10.7,3.7 14.2,4.5 5.9,1.4 11.9,2.7 11.9,2.7 0.2,0 0.2,0.4 -0.1,0.4"
   id="path834" />
	<path
   d="m 153,318 c -5,0 -16.9,-1 -22.2,-3 -5.5,-2.1 -7.7,-6.3 -8.2,-8.6 -0.1,-0.4 0,-0.8 0.2,-1 0.3,-0.3 1,-0.4 1.9,-0.1 0.1,0 0.8,0.2 1,0.3 0.1,0 0.2,0.2 0.1,0.3 0,0.1 -0.2,0.2 -0.3,0.1 0,0 -0.3,-0.1 -0.8,-0.3 -0.2,-0.1 -1.3,-0.3 -1.6,0 -0.1,0.1 -0.1,0.3 -0.1,0.5 0.4,2.1 2.6,6.2 7.9,8.2 5.3,2 16.6,2.8 22,2.9 0.4,0.3 0.4,0.7 0.1,0.7"
   id="path836" />
	<path
   d="m 146.5,322.3 c -3.5,0.7 -9.8,1.6 -12.8,-0.5 -2.5,-1.8 -5.3,-5.2 -5,-6.5 0.3,-1.2 2.5,-0.6 3.2,-0.3 0.1,0 0.2,0.2 0.1,0.3 0,0.1 -0.2,0.2 -0.3,0.1 0,0 -0.1,0 -0.2,-0.1 -0.7,-0.2 -2.2,-0.6 -2.4,0 -0.2,0.9 2.1,4.1 4.8,6.1 2.8,2 9,1.1 12.4,0.4 4.7,-0.9 8.4,-0.6 9.1,-0.5 0,0 0.1,0 0.1,0 0.1,0 0.2,0.1 0.2,0.2 0,0.1 -0.1,0.2 -0.2,0.2 -0.1,0.1 -3.6,-0.5 -9,0.6"
   id="path838" />
	<path
   d="m 141.9,328.9 c -0.6,0 -1.3,0 -1.8,-0.1 -5.1,-0.7 -7.5,-5.3 -6.3,-6.4 0.6,-0.5 1.6,-0.2 1.7,-0.2 0.3,0.1 0.2,0.5 -0.1,0.4 -0.2,-0.1 -1,-0.2 -1.3,0.1 -0.2,0.1 -0.2,0.4 -0.1,0.8 0.3,1.3 2.1,4.3 6.2,4.9 0.2,0 0.4,0.1 0.7,0.1 4.4,0.3 6.1,-1.3 9,-1.9 2.7,-0.6 6.8,-1 6.8,-1 0.3,0 0.3,0.5 0,0.5 0,0 -4.1,0.5 -6.8,1 -2.5,0.4 -4.3,1.8 -8,1.8"
   id="path840" />
	<path
   d="m 143.9,335 c -2.1,0 -3.6,-1.1 -4.4,-2 -1,-1.1 -1.6,-2.4 -1.6,-3.1 0.1,-1.1 2,-1.5 2.2,-1.5 0.3,0 0.4,0.4 0.1,0.5 -0.5,0.1 -1.8,0.4 -1.8,1.1 0,0.4 0.4,1.6 1.4,2.7 0.8,0.9 2.2,1.9 4.2,1.9 3.8,0 7.4,-1.8 11.1,-3.4 2.3,-1 4.6,-1.2 4.7,-1.2 0.3,0 0.3,0.4 0,0.5 0,0 -2.4,0.2 -4.6,1.2 -3.6,1.4 -7.4,3.3 -11.3,3.3"
   id="path842" />
	<path
   d="m 149.5,341.1 c -0.6,0 -1.1,-0.2 -1.8,-0.3 -2.1,-0.5 -5.8,-3.4 -5.8,-4.6 0,-1.1 3.3,-1.8 4.3,-1.9 0.1,0 0.2,0.1 0.3,0.2 0,0.1 -0.1,0.2 -0.2,0.3 -1.9,0.3 -3.9,1 -3.9,1.5 0,0.8 3.3,3.6 5.4,4.1 2,0.5 2.2,0.8 6.8,-2 4.2,-2.5 5.1,-2.7 6,-2.9 0.6,-0.1 1.3,-0.4 3.4,-0.3 0,0.3 0,0.2 0,0.5 -1.9,-0.1 -2.5,0.1 -3.3,0.3 -3.5,0.6 -8.6,5.1 -11.2,5.1"
   id="path844" />
	<path
   d="m 155.5,346.2 c -0.8,0.4 -1.8,0.2 -2.7,-0.1 -1.9,-0.8 -3.7,-2.5 -3.9,-3.3 -0.3,-0.9 1.2,-1.9 2.5,-2.6 0.2,-0.1 0.4,0 0.4,0.2 0,0.1 -0.1,0.2 -0.2,0.2 0,0 0.1,0 0,0 -1.5,0.8 -2.3,1.6 -2.2,2 0.2,0.6 1.9,2.2 3.7,3 0.6,0.3 1.6,0.5 2.3,0.1 1.2,-0.6 5.5,-3.9 7.7,-4.7 1.9,-0.7 4.7,-1 5,-1.1 0.3,-0.1 0.4,0.4 0.1,0.4 -0.1,0 -2.9,0.3 -4.9,1.1 -2.4,0.9 -7.6,4.8 -7.8,4.8"
   id="path846" />
	<path
   d="m 159.8,350.2 c -2.5,0 -4.6,-1.1 -5.3,-1.7 -0.9,-0.8 -0.2,-1.9 0.7,-2.7 0,0 0.1,-0.1 0.1,-0.1 0.1,-0.1 0.2,-0.1 0.3,0 0.1,0.1 0.1,0.2 0,0.3 0,0 0,0 -0.1,0.1 -0.6,0.5 -1.3,1.4 -0.7,2 0.9,0.8 4.4,2.5 7.9,1.1 0.4,-0.1 -0.1,0.1 8.9,-4.7 l 0.2,0.4 c 0,0 -4.8,2.6 -8.4,4.4 -1.1,0.6 -2.3,0.9 -3.6,0.9"
   id="path848" />
	<path
   d="m 164,355.2 c -1.4,0 -3,-0.7 -3.9,-1.6 -0.5,-0.6 -0.7,-1.1 -0.5,-1.7 0.6,-1.5 2.8,-2.7 3.1,-2.8 0.1,0 0.3,0 0.3,0.1 0,0.1 0,0.2 -0.1,0.3 0,0 -0.1,0 -0.2,0.1 -0.7,0.4 -2.3,1.3 -2.7,2.5 -0.5,1.3 2.9,3.1 4.7,2.5 1.7,-0.5 5.5,-3.7 6.9,-4.8 0.1,-0.1 0.2,-0.1 0.3,0 0.1,0.1 0.1,0.2 0,0.3 -0.2,0.1 -4.2,3.6 -6.4,4.7 -0.5,0.3 -0.9,0.4 -1.5,0.4"
   id="path850" />
	<path
   d="m 170.5,360.4 c -1,0.6 -3.3,-0.7 -4.3,-1.4 -1,-0.7 -2.2,-1.7 -2.4,-2.2 -0.5,-1.1 1.4,-2.2 1.6,-2.3 0.1,-0.1 0.3,0 0.3,0.1 0.1,0.1 0,0.3 -0.1,0.3 -0.5,0.3 -1.7,1.1 -1.4,1.7 0.1,0.3 1,1.1 2.3,2 1.8,1.2 3.3,1.7 3.8,1.4 1.3,-0.8 5.5,-6.6 5.5,-6.7 0.2,-0.2 0.6,0 0.4,0.3 -0.2,0.2 -4.3,5.9 -5.7,6.8"
   id="path852" />
	<path
   d="m 176.7,353.5 c -2.5,0 -4.2,-2 -5.2,-4.3 -0.8,-1.7 -0.4,-3.5 -0.1,-4.6 0.4,-1.1 0.9,-1.9 0.9,-1.9 0.1,-0.1 0.2,-0.1 0.3,-0.1 0.1,0.1 0.1,0.2 0.1,0.3 0,0 -0.5,0.7 -0.8,1.8 -0.4,1.1 -0.7,2.7 0,4.3 0.8,1.8 2.2,3.6 4.2,3.9 0.5,0.1 0.9,0.1 1.4,0 0.3,-0.1 0.4,0.4 0.1,0.4 -0.2,0.2 -0.5,0.2 -0.9,0.2"
   id="path854" />
	<path
   d="m 165.5,366.2 c -0.2,0 -0.5,-0.1 -0.7,-0.3 -1.2,-1.2 0.7,-5.7 1.4,-7.2 0.1,-0.1 0.2,-0.2 0.3,-0.1 0.1,0.1 0.2,0.2 0.1,0.3 -0.6,1.2 -2.4,5.7 -1.4,6.7 0.2,0.2 0.4,0.2 0.5,0.2 0.5,-0.1 1.1,-0.9 1.6,-2.2 0.1,-0.3 0.6,-0.2 0.4,0.2 -0.4,0.8 -1.2,2.4 -2.2,2.4"
   id="path856" />
	<path
   d="m 171.6,363.7 c -0.4,1.8 -1.6,3.7 -3.5,3.5 -1.4,-0.2 -1.3,-2.3 -0.9,-3.6 0,-0.1 0.2,-0.2 0.3,-0.2 0.1,0 0.2,0.2 0.2,0.3 -0.3,1 -0.5,2.9 0.5,3.1 1.6,0.2 2.6,-1.4 3,-3.1 0.4,-1.9 1.5,-2.3 1.6,-2.4 0.1,0 0.3,0 0.3,0.1 0,0.1 0,0.3 -0.1,0.3 -0.1,0 -1,0.3 -1.4,2"
   id="path858" />
	<path
   d="m 173.8,362.7 c -0.4,0 -0.9,-0.1 -1.1,-0.5 -0.2,-0.3 -0.1,-0.8 0,-0.9 0.2,-0.2 0.5,0 0.4,0.2 -0.1,0.3 0,0.6 0.5,0.7 0.4,0.1 0.7,0 1,-0.2 0.7,-0.5 1.2,-1.9 1.4,-3.7 0.3,-3.1 1.3,-5.1 1.3,-5.2 0.1,-0.3 0.5,-0.1 0.4,0.2 0,0.1 -1,2.1 -1.3,5.1 -0.1,1.7 -0.8,4.3 -2.6,4.3"
   id="path860" />
	<path
   d="m 169.2,372.6 c -1.1,0 -1.2,-1.5 -1.1,-2.6 -1,1.6 -2.3,2.9 -3.6,1.5 -1,-1.1 -1.3,-2.8 -0.9,-5.1 0.3,-1.7 0.9,-3 0.9,-3.1 0,-0.1 0.2,-0.2 0.3,-0.1 0.1,0 0.2,0.2 0.1,0.3 0,0 -0.6,1.4 -0.9,3 -0.3,1.5 -0.4,3.5 0.7,4.7 0.3,0.3 0.6,0.4 0.9,0.4 1.1,-0.1 2.2,-2.1 2.5,-2.9 0.1,-0.3 0.5,-0.1 0.4,0.1 -0.2,1.1 -0.2,2.9 0.3,3.2 0.2,0.1 0.5,0.1 0.9,-0.2 3.5,-2.1 2.7,-6 3.1,-6.4 0.1,-0.1 0.2,-0.1 0.3,-0.1 0.2,0.1 0.2,0.2 0.2,0.8 0,0.9 -0.1,3 0.7,3.4 0.3,0.1 0.6,0.1 1.1,-0.2 0.8,-0.5 1.5,-1.1 2.1,-1.7 1.2,-1.4 1.1,-2.6 1.1,-2.6 0,-0.3 0.4,-0.4 0.5,0 0,0 0.2,1.4 0.9,1.7 0.4,0.2 0.9,0 1.6,-0.5 1.2,-0.9 1.1,-3.6 0.8,-5.1 -0.1,-0.3 0.4,-0.4 0.5,-0.1 0,0 0.1,0.5 0.2,1.2 0.1,1.5 0,3.5 -1.1,4.4 -1.2,1 -2.3,0.9 -2.9,-0.4 -0.5,1.6 -1.8,2.8 -3.2,3.6 -1.4,0.8 -2.2,0.1 -2.4,-1.5 -0.3,1.3 -1.1,2.9 -2.9,4.1 -0.6,0.1 -0.9,0.2 -1.1,0.2"
   id="path862" />
	<path
   d="m 199.4,364 c -0.6,0 -1.2,-0.4 -1.3,-1.4 -0.2,-1.3 0.2,-3 0.2,-3.1 0.1,-0.3 0.5,-0.2 0.4,0.1 -0.3,1.3 -0.6,3.8 0.7,3.9 0.2,0 0.4,-0.2 0.5,-0.3 1.7,-1.8 3.4,-9.8 2.2,-16.1 -1.3,-6.9 -3.8,-10.1 -4.2,-10.5 -0.1,-0.1 -0.1,-0.2 0,-0.3 0.1,-0.1 0.2,-0.1 0.3,0 0,0 0,0 0.1,0.1 0.5,0.6 2.9,3.8 4.2,10.7 1.4,6.9 -0.8,16.9 -3.1,16.9"
   id="path864" />
	<path
   d="m 194,366.7 c -0.4,0 -1,-0.2 -1.3,-0.3 -1.8,-0.6 -1.9,-1.5 -1.9,-1.6 0,-0.1 0.1,-0.2 0.2,-0.2 0.1,0 0.2,0.1 0.2,0.2 0,0 0.1,0.7 1.6,1.1 0.2,0.1 0.5,0.1 0.8,0.2 2.4,0.5 4.4,-3.7 4.4,-3.7 0.1,-0.1 0.2,-0.2 0.3,-0.1 0.1,0.1 0.2,0.2 0.1,0.3 -0.1,0.2 -1.9,4.1 -4.4,4.1"
   id="path866" />
	<path
   d="m 180.4,371.7 c -0.1,0 -0.2,-0.1 -0.2,-0.2 0,-0.1 0.1,-0.2 0.2,-0.2 0.2,0 4.4,-0.1 6.5,-1.1 2.3,-1.1 4.9,-4 5,-4 0.1,-0.1 0.2,-0.1 0.3,0 0.1,0.1 0.1,0.2 0,0.3 -0.1,0.1 -2.7,3 -5.1,4.2 -2.1,0.8 -6.2,0.9 -6.7,1"
   id="path868" />
	<path
   d="m 178,375.4 c -1.2,0 -1.6,-2.4 -1.6,-3.5 0,-0.1 0.1,-0.2 0.2,-0.2 0.1,0 0.2,0.1 0.2,0.2 0,0 0,1 0.3,1.9 0.1,0.4 0.4,1.1 0.8,1.2 0.3,0 0.7,-0.2 1.3,-0.7 1,-0.9 1.2,-3.2 1.2,-4.5 0,-0.3 0.4,-0.3 0.4,-0.1 0.3,0.7 1.2,0.1 1.7,-0.2 1.3,-0.9 0.3,-5.4 -0.2,-7.1 -0.1,-0.3 0.4,-0.4 0.4,-0.1 0.2,0.6 1.8,6.3 0.1,7.6 -0.6,0.4 -1.3,0.8 -2,0.5 0,1.4 -0.3,3.3 -1.3,4.3 -0.6,0.4 -1.1,0.7 -1.5,0.7"
   id="path870" />
	<path
   d="m 165.6,378.3 c -0.8,0 -1.7,-0.7 -1.8,-1.6 0,-0.1 0.1,-0.2 0.2,-0.3 0.1,0 0.2,0.1 0.3,0.2 0,0 0.2,1 1.2,1.2 1.2,0.2 2.1,-2.9 2.4,-4.2 0,-0.1 0.1,-0.2 0.3,-0.2 0.1,0 0.2,0.1 0.2,0.2 -0.1,1.4 0.3,3 1.7,2.9 2,-0.1 2,-3.8 2,-3.9 0,-0.2 0.2,-0.3 0.4,-0.2 0.1,0.1 1.7,1.4 3.2,0.1 1.2,-1 1.6,-3.2 1.5,-4.8 0,-0.1 0.1,-0.2 0.2,-0.2 0.1,0 0.2,0.1 0.2,0.2 0.1,1.7 -0.4,4 -1.7,5.1 -1.4,1.2 -2.8,0.6 -3.5,0.2 -0.2,1.9 -0.9,4.1 -2.8,3.9 -1.1,-0.1 -1.5,-1 -1.7,-1.9 -0.3,1.4 -1,3.3 -2.3,3.3"
   id="path872" />
	<path
   d="m 161.7,388.9 c -1.4,0 0,-3.5 0.4,-6 0.4,-2.4 -0.4,-4.6 -0.4,-7.1 0,-2.4 1.6,-9.2 1.7,-9.5 0.1,-0.3 0.5,-0.2 0.4,0.1 0,0.1 -1.7,7 -1.7,9.4 0,2.4 0.8,4.7 0.4,7.1 -0.3,1.8 -1.4,5 -0.9,5.4 0,0 0.1,0 0.3,0 1.6,-0.6 2.9,-2.6 3.3,-4.3 0.4,-1.6 0.5,-4.5 0.5,-6.1 0,-0.1 0.1,-0.2 0.2,-0.2 0.1,0 0.2,0.1 0.2,0.2 0,0 0,2.3 -0.2,4.2 -0.2,2 -0.6,3.7 -2.1,5.3 -0.6,0.6 -1.2,1 -1.8,1.2 -0.1,0.3 -0.2,0.3 -0.3,0.3"
   id="path874" />
	<path
   d="m 162.2,378.8 c -0.2,0 -0.3,-0.2 -0.2,-0.4 0.1,-0.1 0.8,-0.5 1.7,-1.9 0,0 0,-0.1 0,-0.1 0.9,-1.4 1.6,-4.6 1.6,-4.6 0,-0.1 0.2,-0.2 0.3,-0.2 0.1,0 0.2,0.1 0.2,0.3 0,0.1 -0.7,3.3 -1.7,4.8 0,0 0,0 0,0.1 -1,1.5 -1.8,2 -1.8,2 0,0 0,0 -0.1,0"
   id="path876" />
	<path
   d="m 167.2,383.9 c -0.8,0 -1.4,-0.9 -1.6,-1.6 0,-0.1 0,-0.3 0.1,-0.3 0.1,0 0.3,0 0.3,0.1 0.1,0.3 0.5,1.2 1.1,1.3 0.3,0 0.6,-0.1 1,-0.5 0.1,-0.1 0.1,-0.1 0.2,-0.2 0.4,-0.5 0.7,-1.2 0.9,-2.2 0.4,-1.7 0.3,-3.6 0.3,-3.6 0,-0.1 0.1,-0.2 0.2,-0.2 0.1,0 0.2,0.1 0.2,0.2 0,1.7 -0.2,4.8 -1.3,6.1 -0.1,0.1 -0.2,0.2 -0.3,0.3 -0.3,0.4 -0.7,0.6 -1.1,0.6"
   id="path878" />
	<path
   d="m 170.3,381.5 c -0.5,0 -0.9,-0.4 -1.1,-0.9 -0.1,-0.3 0.3,-0.5 0.4,-0.2 0.1,0.1 0.3,0.5 0.6,0.6 0.4,0.1 0.9,-0.6 1.1,-0.9 0.8,-1.3 1.5,-4.6 1.5,-5.6 0,-0.1 0.1,-0.2 0.2,-0.2 0.1,0 0.2,0.1 0.2,0.2 0,1.2 -1.1,7 -2.9,7"
   id="path880" />
	<path
   d="m 176.5,376.1 c -1.1,3.2 -3.5,3.4 -3.8,-1.6 -0.1,-0.4 0.5,-0.4 0.5,0 0.1,1.1 0.4,3.1 1.1,3.4 0.2,0.1 0.4,0 0.6,-0.1 0.6,-0.4 1,-1.3 1.2,-1.9 0.3,-0.9 0.5,-1.8 0.5,-2.2 0,-0.1 0.1,-0.2 0.2,-0.2 0.1,0 0.2,0.1 0.2,0.2 0.1,0.5 -0.2,1.5 -0.5,2.4"
   id="path882" />
	<path
   d="m 166,401.7 c -0.1,0 -0.2,-0.1 -0.2,-0.2 -0.5,-6.4 -2.2,-13.8 -2.2,-13.8 -0.1,-0.3 0.4,-0.4 0.5,-0.1 0,0.1 1.7,7.5 2.2,13.9 -0.1,0 -0.1,0.1 -0.3,0.2"
   id="path884" />
	<path
   d="m 164.9,420 c -1.8,0 0.6,-7.3 1,-13.9 0.1,-1.3 0,-2.8 -0.1,-4.6 0,-0.3 0.4,-0.4 0.5,0 0.1,1.8 0.2,3.4 0.1,4.7 -0.3,5.4 -2.2,12.9 -1.5,13.4 0.3,0.2 3.4,-2.5 5.3,-5.1 0.9,-1.3 1.9,-3 1.8,-4.6 -0.5,-17.1 -4.7,-25.1 -5.2,-26 0,-0.1 0,-0.1 0,-0.1 -0.1,-0.3 0.3,-0.5 0.4,-0.2 v 0.1 c 0.5,0.9 4.7,9 5.2,26.2 0.1,3.4 -4.1,8 -6.9,10 -0.2,0 -0.4,0.1 -0.6,0.1"
   id="path886" />
	<path
   d="m 170.4,414.8 c -0.1,0 -0.1,0 -0.2,-0.1 -2.1,-1.8 -3.9,-10.4 -4.4,-13.1 0,-0.2 0,-0.2 0,-0.2 -0.1,-0.3 0.4,-0.4 0.4,-0.1 0,0 0,0.2 0,0.2 0.5,2.6 2.3,11.1 4.3,12.9 0.2,0.1 0.1,0.4 -0.1,0.4"
   id="path888" />
	<path
   d="m 176.1,422 c -0.6,0.4 -1.3,0.6 -2,0.4 -2.6,-0.7 -2.3,-10 -2.2,-12.6 0,-0.1 0.1,-0.2 0.2,-0.2 0.1,0 0.2,0.1 0.2,0.2 0,0 0,0.4 0,1 -0.1,2.2 -0.2,10.6 1.9,11.2 2.4,0.6 6,-4.7 5,-10 -3.3,-19.8 -8.8,-29.5 -9.4,-30.6 0,-0.1 0,-0.1 0,-0.1 -0.1,-0.3 0.3,-0.5 0.4,-0.2 v 0.1 c 0.6,1.1 6.1,10.9 9.5,30.7 0,0.2 0,0.3 0.1,0.5 0.6,4 -1.4,8.3 -3.7,9.6"
   id="path890" />
	<path
   d="m 179.4,416.4 c -0.1,0 -3.6,-0.8 -4.1,-5.9 -0.5,-5.1 -0.4,-9.7 -2.4,-16.7 -2.6,-9.1 -4.4,-10.6 -4.5,-10.6 -0.1,-0.1 -0.1,-0.2 0,-0.3 0.1,-0.1 0.2,-0.1 0.3,0 0.1,0.1 1.9,1.5 4.6,10.8 2.1,7.1 1.9,12 2.4,16.8 0.5,4.8 3.6,5.5 3.7,5.5 0.1,0 0.2,0.1 0.2,0.2 0,0.1 -0.1,0.2 -0.2,0.2"
   id="path892" />
	<path
   d="m 172.5,417.2 c -0.2,0.2 -0.5,-0.2 -0.3,-0.4 0,0 1.5,-1.2 2.2,-2.9 0.7,-1.8 0.7,-3.7 0.7,-3.8 0,-0.1 0.1,-0.2 0.2,-0.2 0.1,0 0.2,0.1 0.2,0.2 0,0.1 0,2.1 -0.8,3.9 -0.6,1.9 -2.2,3.1 -2.2,3.2"
   id="path894" />
	<path
   d="m 182.1,420.3 c -0.1,0.3 -0.6,0.1 -0.4,-0.2 0,0 2.1,-4.3 2.5,-8.3 0.1,-0.5 0.1,-1.1 0.1,-1.7 -0.1,-3.6 -1.5,-8 -4.6,-16.3 -3.6,-9.8 -8.2,-13.3 -8.3,-13.4 -0.2,-0.2 0,-0.6 0.3,-0.4 0.2,0.1 4.8,3.6 8.4,13.6 3.1,8.4 4.6,12.8 4.7,16.5 0,0.6 0,1.2 -0.1,1.8 -0.5,4 -2.6,8.4 -2.6,8.4"
   id="path896" />
	<path
   d="m 188.3,419.4 c -0.1,0 -0.2,0 -0.2,-0.1 -1.7,-3.2 -2.9,-5.2 -3.8,-9.1 0,-0.1 0.1,-0.2 0.2,-0.3 0.1,0 0.2,0.1 0.3,0.2 0,0 0.7,3.2 2.1,5.8 l 1.7,3.2 c -0.1,0.1 -0.2,0.3 -0.3,0.3"
   id="path898" />
	<path
   d="m 185.8,424.6 c -3.2,2.1 -5.7,-8.4 -6.5,-12.1 0,-0.1 0,-0.2 0,-0.2 0,-0.1 0,-0.2 0.2,-0.3 0.1,0 0.2,0 0.3,0.2 0,0 0,0.1 0,0.2 0.6,3.1 3.1,13.6 5.7,11.8 1.3,-0.9 2.2,-2.6 2.6,-5.1 1.2,-6.9 -1.5,-17.5 -4.2,-24 -4.2,-9.9 -12,-15.7 -12.1,-15.8 -0.1,-0.1 -0.1,-0.2 0,-0.3 0.1,-0.1 0.2,-0.1 0.3,-0.1 0.1,0.1 8,5.9 12.2,16 2.8,6.6 5.4,17.3 4.3,24.2 -0.4,2.7 -1.3,4.5 -2.8,5.5"
   id="path900" />
	<path
   d="m 191.5,405.8 c -0.5,0 0.2,-1 -2.2,-8 -3.2,-9.5 -13.3,-17.9 -15.3,-19.5 -0.1,-0.1 -0.2,-0.1 -0.2,-0.1 -0.1,-0.1 -0.1,-0.2 0,-0.3 0.1,-0.1 0.2,-0.1 0.3,0 0,0 0.1,0 0.2,0.1 2,1.6 12.3,10.1 15.5,19.7 1,3.1 1.7,5.7 1.9,7.8 0,0.2 -0.1,0.3 -0.2,0.3"
   id="path902" />
	<path
   d="m 190.6,413.8 c -0.2,0 -0.3,-0.2 -0.2,-0.3 0.9,-2.5 1.3,-4.7 0.9,-7.8 0,-0.3 0.4,-0.4 0.5,-0.1 0.3,2.8 0.2,5.3 -0.9,8.1 -0.1,0 -0.2,0.1 -0.3,0.1"
   id="path904" />
	<path
   d="m 196.6,409.6 c -0.7,0 -1.7,-0.2 -2.8,-1.2 -0.7,-0.6 -2.2,-1.9 -2.5,-2.8 -0.1,-0.2 0.3,-0.5 0.4,-0.1 0.1,0.3 0.6,1.1 2.4,2.5 2,1.6 3.3,1 3.4,0.9 0.1,-0.1 0.3,0 0.3,0.1 0.1,0.1 0,0.3 -0.1,0.3 -0.1,0.1 -0.5,0.3 -1.1,0.3"
   id="path906" />
	<path
   d="m 199.1,407.3 c -0.2,0.2 -0.6,0 -0.4,-0.3 0,0 2.1,-2.8 0.8,-6.6 -0.1,-0.2 -0.1,-0.4 -0.2,-0.6 -1.7,-4.9 -6.1,-12.3 -12.5,-16.8 -6.3,-4.4 -11,-5.6 -11.1,-5.6 -0.3,-0.1 -0.2,-0.5 0.1,-0.4 0,0 4.9,1.3 11.2,5.7 6.6,4.6 11,12.1 12.7,17.1 0.1,0.2 0.2,0.4 0.2,0.7 1.5,3.8 -0.7,6.6 -0.8,6.8"
   id="path908" />
	<path
   d="m 195.4,418 c -2,1.5 -4,-2.1 -5.1,-4.4 -1.5,-3.2 -2.9,-7.5 -2.9,-7.7 0,-0.1 0.1,-0.2 0.2,-0.2 0.1,0 0.2,0.1 0.2,0.2 1,3.2 4.6,13.7 7.2,11.7 1.7,-1.3 2.5,-4.3 2.1,-8.5 -0.2,-2.6 -0.8,-5.4 -1.7,-8 0,-0.1 0,-0.3 0.1,-0.3 0.1,0 0.3,0 0.3,0.1 0.9,2.7 1.5,5.6 1.8,8.2 0.5,4.4 -0.3,7.5 -2.2,8.9"
   id="path910" />
	<path
   d="m 202.4,409.5 c -0.4,0.3 -0.9,0.6 -1.4,0.6 -2.4,-0.2 -7,-14.6 -13.6,-22.6 -5.5,-6.6 -11.9,-9 -12.6,-9.3 -0.3,-0.1 -0.2,-0.5 0.1,-0.5 0,0 0.1,0 0.1,0 0.7,0.2 7.1,2.6 12.8,9.4 6.4,7.7 11.4,22.3 13.3,22.4 0.3,0 0.7,-0.1 1,-0.4 0.8,-0.7 1.8,-2.5 1.9,-5.3 0.1,-2.6 -0.4,-7.8 -5.5,-14 -3.1,-3.8 -7.1,-7.1 -11.8,-9.6 -5.6,-3 -10.4,-3.9 -10.5,-3.9 -0.3,-0.1 -0.2,-0.5 0.1,-0.5 0,0 4.9,0.9 10.6,4 4.8,2.6 8.8,5.8 12,9.7 5.1,6.4 5.7,11.7 5.6,14.4 -0.2,2.9 -1.2,4.8 -2.1,5.6"
   id="path912" />
	<path
   d="m 204.2,404 c -0.2,0 -0.9,-0.1 -2.6,-1.1 -0.8,-0.5 -1.6,-2 -2.2,-3.2 -0.1,-0.2 0,-0.4 0.2,-0.4 0.1,0 0.2,0.1 0.2,0.2 0,0 0,0 0,0 0.7,1.5 1.5,2.6 2,2.9 1.6,1 2.3,1 2.3,1 0.4,0.1 0.5,0.6 0.1,0.6"
   id="path914" />
	<path
   d="m 209.3,357 c -0.2,0.1 -0.3,0.1 -0.4,0 -0.2,-0.2 -0.3,-0.6 0.5,-3.3 l 0.2,-0.5 c 0.1,-0.3 0.5,-0.1 0.4,0.2 -0.2,0.7 -0.8,2.5 -0.8,3.1 0.8,-0.5 2.9,-2.6 3.7,-7.5 0.9,-5.2 -1.2,-8.3 -1.8,-10.5 -0.5,-1.8 -0.2,-2.6 0,-3 0.2,-0.4 0.6,0 0.4,0.2 0,0 0,0 0,0 -0.1,0.2 -0.4,0.9 0.1,2.6 0.6,2.2 2.8,5.3 1.8,10.7 -1,5.5 -3.3,7.6 -4.1,8"
   id="path916" />
	<path
   d="m 204.4,362.8 c -0.3,0 -0.4,-0.4 -0.1,-0.5 0.1,-0.1 0.6,-0.6 2.2,-3.1 1.3,-2 2.4,-4.3 2.9,-5.5 0.5,-1.3 0.9,-2.3 0.9,-2.3 0,-0.1 0.2,-0.2 0.3,-0.1 0.1,0 0.2,0.2 0.1,0.3 0,0 -0.3,1 -0.9,2.3 -0.5,1.2 -1.5,3.6 -2.9,5.6 -2,3 -2.3,3.3 -2.5,3.3"
   id="path918" />
	<path
   d="m 195.4,373.7 c -0.6,0 -0.8,-0.3 -0.6,-0.6 0.2,-0.2 1.5,-2.1 1.5,-2.1 l 0.4,0.3 c 0,0 -1,1.5 -1.4,2 1.8,0.3 7.4,-5.1 8.7,-10.5 0.2,-0.6 0.8,-3 1.3,-3.3 0.3,-0.2 0.5,0.2 0.3,0.4 -0.4,0.4 -1,2.7 -1.1,3.1 -0.8,3 -3,6.5 -5.6,8.9 -1.7,1.4 -2.9,1.8 -3.5,1.8"
   id="path920" />
	<path
   d="m 186.8,380.2 c -0.3,0 -0.4,-0.2 -0.3,-0.4 0.1,-0.1 0.2,-0.1 0.3,-0.1 0.1,0 0.9,-0.1 3.5,-2.3 2,-1.6 3.5,-4.5 4.4,-5.7 0.4,-0.5 1,-0.9 1.6,-1 0.6,-0.1 1.1,-0.1 1.1,-0.1 0.1,0 0.2,0.1 0.2,0.3 0,0.1 -0.1,0.2 -0.3,0.2 0,0 -0.4,-0.1 -1,0.1 -0.5,0.1 -1,0.4 -1.3,0.9 -1,1.3 -2.4,4 -4.5,5.7 -0.6,0.6 -2.8,2.4 -3.7,2.4"
   id="path922" />
	<path
   d="m 187.5,376.3 c -1.4,0 -1.8,-2.3 0.5,-3.4 0.1,-0.1 0.3,0 0.3,0.1 0.1,0.1 0,0.3 -0.1,0.3 -1.6,0.7 -1.7,2.1 -1,2.4 1.3,0.6 3.2,-3.5 4,-3.3 0.2,0.1 0.2,0.4 0,0.5 -0.7,0.3 -2.2,3.4 -3.7,3.4"
   id="path924" />
	<path
   d="m 206.6,352.7 c -0.2,0 -0.3,-0.1 -0.4,-0.2 -0.3,-0.6 0.4,-2.3 0.3,-4 -0.1,-1.7 -0.6,-3.1 -0.6,-3.2 0,-0.1 0.1,-0.2 0.2,-0.2 0.1,0 0.2,0.1 0.2,0.2 0.1,0.5 0.5,1.9 0.6,3.2 0.1,0.9 -0.1,1.8 -0.2,2.5 -0.1,0.5 -0.2,1.1 -0.1,1.3 0.3,-0.2 1.1,-1.3 1.5,-3.2 0.4,-2.2 -0.2,-4.6 -0.2,-4.6 -0.1,-0.3 0.4,-0.4 0.4,-0.1 0,0.1 0.7,2.5 0.2,4.8 -0.4,1.7 -1.3,3.4 -1.9,3.5"
   id="path926" />
</g>
<path
   style="fill:#00ffff;stroke-width:0.608077"
   d="m 274.09783,375.66561 c 0.7564,-0.14545 1.85094,-0.13993 2.43231,0.0123 0.58138,0.15219 -0.0375,0.2712 -1.37526,0.26445 -1.33777,-0.007 -1.81344,-0.13128 -1.05705,-0.27672 z"
   id="path533" /></svg>
