<?xml version="1.0" encoding="UTF-8" standalone="no"?>
<!-- Generator: Adobe Illustrator 24.0.2, SVG Export Plug-In . SVG Version: 6.00 Build 0)  -->

<svg
   version="1.1"
   id="Capa_1"
   x="0px"
   y="0px"
   viewBox="60 200 620 210"
   xml:space="preserve"
   sodipodi:docname="Nav2.svg"
   inkscape:version="1.2.1 (9c6d41e410, 2022-07-14)"
   width="620"
   height="210"
   xmlns:inkscape="http://www.inkscape.org/namespaces/inkscape"
   xmlns:sodipodi="http://sodipodi.sourceforge.net/DTD/sodipodi-0.dtd"
   xmlns:xlink="http://www.w3.org/1999/xlink"
   xmlns="http://www.w3.org/2000/svg"
   xmlns:svg="http://www.w3.org/2000/svg"><defs
   id="defs4417" /><sodipodi:namedview
   id="namedview4415"
   pagecolor="#ffffff"
   bordercolor="#000000"
   borderopacity="0.25"
   inkscape:showpageshadow="2"
   inkscape:pageopacity="0.0"
   inkscape:pagecheckerboard="0"
   inkscape:deskcolor="#d1d1d1"
   showgrid="false"
   inkscape:zoom="0.78841288"
   inkscape:cx="286.01765"
   inkscape:cy="475.63911"
   inkscape:window-width="1920"
   inkscape:window-height="1017"
   inkscape:window-x="-8"
   inkscape:window-y="-8"
   inkscape:window-maximized="1"
   inkscape:current-layer="Capa_1"
   showguides="false" />
<style
   type="text/css"
   id="style3953">
	.st0{fill:none;stroke:#000000;stroke-width:4;stroke-miterlimit:10;}
	.st1{fill-rule:evenodd;clip-rule:evenodd;fill:#164F63;}
	.st2{font-family:'LinLibertine';}
	.st3{font-size:33.5286px;}
	.st4{letter-spacing:12.4;}
	.st5{font-size:15.0945px;}
	.st6{letter-spacing:2.9;}
	.st7{fill:#3747BA;}
	.st8{fill:#98C3F8;}
	.st9{fill:#87B5F1;}
	.st10{fill:#75A7EA;}
	.st11{fill:#649AE3;}
	.st12{fill:#538CDC;}
	.st13{fill:#417ED5;}
	.st14{fill:#3070CE;}
	.st15{fill:#5ECCCC;}
	.st16{fill:#6BCDB5;}
	.st17{fill:#4B84DD;}
	.st18{fill:#78CD9D;}
	.st19{fill:#86CE86;}
	.st20{fill:#93CE6F;}
	.st21{fill:#C4DB60;}
	.st22{fill:#CFE173;}
	.st23{fill:#FF7C68;}
	.st24{fill:#A0CF57;}
	.st25{fill:#F9493A;}
	.st26{fill:#001033;}
	.st27{fill:#FE7461;}
	.st28{fill:#212B4F;}
	.st29{fill:#ADCF40;}
	.st30{fill:#FA5240;}
	.st31{fill:#0B193C;}
	.st32{fill:#92BD38;}
	.st33{fill:#F75647;}
	.st34{fill:#FB6655;}
	.st35{fill:#162246;}
	.st36{fill:#FFCB5B;}
	.st37{fill:#FFAF3B;}
	.st38{fill:#41466B;}
	.st39{fill:#FFDD70;}
	.st40{fill:#060807;}
	.st41{clip-path:url(#SVGID_2_);}
	.st42{clip-path:url(#SVGID_4_);}
	.st43{clip-path:url(#SVGID_6_);}
	.st44{clip-path:url(#SVGID_8_);}
	.st45{clip-path:url(#SVGID_10_);}
	.st46{clip-path:url(#SVGID_12_);}
	.st47{clip-path:url(#SVGID_14_);}
	.st48{clip-path:url(#SVGID_16_);}
	.st49{clip-path:url(#SVGID_18_);}
	.st50{clip-path:url(#SVGID_20_);}
</style>
<rect
   id="XMLID_468_"
   x="248.33548"
   y="321.70001"
   class="st1"
   width="416.1828"
   height="1.5"
   style="stroke-width:2.21274" />
<text
   transform="scale(0.98244595,1.0178677)"
   class="st2 st3 st4"
   id="text3956"
   x="246.81401"
   y="300.35364"
   style="font-style:normal;font-variant:normal;font-weight:bold;font-stretch:normal;font-size:33.5286px;font-family:'Linux Libertine';-inkscape-font-specification:'Linux Libertine, Bold';font-variant-ligatures:normal;font-variant-caps:normal;font-variant-numeric:normal;font-variant-east-asian:normal;letter-spacing:12.4;stroke-width:0.982446">CASA COLIBRIES</text>
<text
   transform="scale(1.0239141,0.97664443)"
   class="st2 st5 st6"
   id="text3958"
   x="268.33398"
   y="359.85632"
   style="font-style:italic;font-variant:normal;font-weight:normal;font-stretch:normal;font-size:15.0945px;font-family:'Linux Libertine';-inkscape-font-specification:'Linux Libertine, Italic';font-variant-ligatures:normal;font-variant-caps:normal;font-variant-numeric:normal;font-variant-east-asian:normal;letter-spacing:2.9;stroke-width:1.02391">RESIDENCIA PARA ADULTOS MAYORES</text>
<g
   id="g4412">
	<path
   class="st8"
   d="m 69.8,222 c 1.3,-0.9 3.5,1.7 6.8,4.3 3.3,2.6 13.7,15.4 16.4,17.6 2.7,2.2 14.6,10.7 17.4,12.7 v 0.1 c -2.8,-1.2 -2.5,-1 -2.4,0.7 0.1,0.8 0.9,2 2,3.3 -0.4,0.4 -0.5,1.2 -0.5,1.3 -0.3,-0.1 -17,-8 -27.2,-14.8 -1.7,-1.1 -3.6,-2.7 -4.9,-3.9 -1.5,-1.5 -2.2,-2.1 -2.2,-2.2 -1.7,-1.8 -3.1,-3.4 -4.1,-4.4 -1.9,-2.2 -2.6,-13.8 -1.3,-14.7"
   id="path3960" />
	<path
   class="st9"
   d="m 70.4,237.8 c 0.2,-1.2 4.9,3.4 5,3.4 2.2,2.2 4.5,4.3 7,6 10.1,6.7 26.8,14.8 27.2,14.8 -0.2,1.6 0.6,3.4 1.4,4.8 l -0.2,0.1 c 0,0 -13.3,-4.6 -23.7,-10 -4.6,-2.4 -7.5,-4 -9.5,-5.1 -2.4,-1.5 -3.4,-2.3 -4.4,-3.6 -1.9,-2.1 -3.2,-7.9 -2.8,-10.4"
   id="path3962" />
	<path
   class="st10"
   d="m 98.5,267.8 c -4.7,-1.1 -15.7,-5 -18.3,-6.2 -2.1,-0.9 -4.8,-7.9 -4.6,-9.3 0.2,-1.1 1.4,-0.7 2,-0.4 0.1,-0.2 -0.8,-0.3 9.5,5.1 10.3,5.4 23.7,10 23.7,10 l 0.2,-0.1 c 0.2,0.4 0.5,0.8 0.8,1.1 0,0 -0.2,1.4 0,2.9 0,0.1 -6.7,-1.5 -13.3,-3.1"
   id="path3964" />
	<path
   class="st11"
   d="m 82.3,262.5 c 0.2,0 10.3,3.9 16.2,5.3 6.7,1.6 13.3,3.2 13.3,3.2 0.3,2 1.1,2.9 2.3,3.9 0,0 -0.1,0.8 0.1,1.8 -1.2,0.1 -17.8,-0.7 -24.9,-3.4 -6.4,-2.5 -8.6,-7.6 -9,-9.7 -0.3,-1.5 1,-1.4 2,-1.1"
   id="path3966" />
	<path
   class="st12"
   d="m 90.1,273.5 v 0 c 7.5,2.6 23.3,3.2 24.1,3.1 0.1,0.7 0.3,1.4 0.7,2 0.6,0.8 1,1.6 1.9,2.3 -0.7,-0.1 -4.8,-0.5 -10.1,0.6 -3.9,0.8 -10.9,1.9 -14.1,-0.5 -2.8,-2.1 -5.8,-6 -5.5,-7.3 0.2,-1.1 2.3,-0.4 3,-0.2"
   id="path3968" />
	<path
   class="st12"
   d="m 91.9,212.4 c 1.1,-3.6 4.7,6.8 13,18.7 2.5,3.6 14.6,19.9 14.6,19.9 -0.3,1.2 1.7,5.3 2.3,6.3 0.2,0.3 0.6,0.9 1.1,1.7 -0.6,-0.5 -2.6,-2 -3.8,-2.3 0,0 -8.6,-11.4 -11.7,-14.7 -3.1,-3.3 -11.7,-13.8 -13.8,-17 -2.9,-4.6 -3,-8.1 -1.7,-12.6"
   id="path3970" />
	<path
   class="st13"
   d="m 92.3,222.8 v 0 c 0.4,0.6 0.8,1.3 1.3,2.1 2.1,3.2 10.7,13.7 13.8,17 3.1,3.3 11.7,14.7 11.7,14.7 -0.4,-0.1 -0.8,-0.1 -1,0.2 -0.8,1.1 2,5.1 2.4,5.7 -1.3,-1 -2.5,-1.9 -3.7,-2.8 0,0 -5.3,-6.5 -13.2,-13.9 -7.6,-7 -9.1,-10.3 -10.8,-14.6 -1.7,-3.8 -0.5,-8.4 -0.5,-8.4"
   id="path3972" />
	<path
   class="st13"
   d="m 94.4,282 v 0 c 3.2,1 8.1,0.4 12.3,-0.4 5.3,-1.1 9.4,-0.7 10.1,-0.6 0.3,0.2 0.6,0.5 1,0.8 0,0 -0.6,1.9 0.4,4.1 -0.3,0 -4.6,0.5 -7.6,1.2 -3.1,0.7 -5.2,2.6 -10.1,2.3 -0.3,0 -0.5,-0.1 -0.8,-0.1 -4.4,-0.7 -6.8,-4 -7.1,-5.9 -0.5,-2.1 1.8,-1.4 1.8,-1.4"
   id="path3974" />
	<path
   class="st14"
   d="m 93,237.2 c 0.7,-1.9 1.9,-1 1.9,-1 l 0.1,-0.1 c 1.5,2.5 3.9,5.4 8.6,9.8 7.9,7.3 13.2,13.9 13.2,13.9 -2.3,-1.4 -3,-1.7 -6.3,-3.1 v -0.1 c 0,0 -9,-6.4 -14.2,-10.3 -0.7,-0.9 -4.1,-7.2 -3.3,-9.1"
   id="path3976" />
	<path
   class="st14"
   d="m 97.3,290.7 c 0.1,-1.2 2.3,-1.5 2.3,-1.5 0.2,0 0.5,0.1 0.8,0.1 5,0.4 7,-1.6 10.1,-2.3 3,-0.7 7.3,-1.2 7.6,-1.2 0.5,1 1.3,2.1 2.8,3.1 0.2,0.2 0.5,0.3 0.7,0.4 l -0.1,0.1 c 0,0 -0.2,0.6 0.1,1.5 h -0.1 c 0,0 -2.7,0.2 -5.2,1.4 -4.2,1.9 -8.2,3.9 -12.5,3.9 -4.3,0.2 -6.6,-4.4 -6.5,-5.5"
   id="path3978" />
	<path
   class="st14"
   d="m 101.8,298.1 c 0,-1.1 4.6,-2 4.6,-2 3.4,-0.6 6.6,-2.2 9.9,-3.7 2.6,-1.2 5,-1.3 5.2,-1.4 0.4,1.2 1.5,2.9 5,4.1 0,0.1 -0.4,0.8 -0.3,1.8 -0.3,0 -2.1,-0.1 -3.2,0.2 -1.3,0.4 -1.7,0.1 -7.1,3.5 -1.7,1.1 -2.9,1.7 -3.7,2.2 -2,0.9 -2.5,0.6 -4.1,0.2 -2.3,-0.4 -6.3,-3.8 -6.3,-4.9"
   id="path3980" />
	<path
   class="st15"
   d="m 113.3,258 c 3.9,1.7 8.6,5.6 11.7,8.5 0,0 -2.8,-2.6 -4.9,-0.5 -1.4,1.4 -0.3,3.6 0.6,4.9 0,0 -3.2,-2.9 -5.2,-4.6 -1.6,-1.4 -7.3,-6.6 -7.5,-8.8 -0.1,-2.2 -0.6,-2 5.3,0.5"
   id="path3982" />
	<path
   class="st16"
   d="m 109.6,262.1 c 0,-0.2 0.1,-0.9 0.5,-1.3 1.8,2.1 4.3,4.4 5.5,5.5 2,1.8 5.2,4.6 5.2,4.6 0.4,0.6 0.8,1 0.9,1 0.1,0.1 -1.3,-0.5 -1.7,0.9 -0.2,0.7 0,1.5 0.4,2.3 -3.2,-1.9 -7.3,-4.9 -9.3,-8.2 -1,-1.4 -1.7,-3.2 -1.5,-4.8"
   id="path3984" />
	<path
   class="st17"
   d="m 112.2,302.9 v 0 c 0.9,-0.5 2,-1.2 3.7,-2.2 5.4,-3.4 5.9,-3.2 7.1,-3.5 1.2,-0.3 2.9,-0.3 3.2,-0.2 0.2,1.9 2.2,3.4 3.8,3.7 v 0.1 c 0,0 0.1,0.9 0.7,1.9 -0.4,0 -3.5,0.5 -5.5,1.2 -2.5,1 -8,5.3 -8.6,5.4 -2.3,1.3 -6.7,-2.6 -7,-3.8 -0.3,-1 2.3,-2.4 2.6,-2.6"
   id="path3986" />
	<path
   class="st18"
   d="m 111.7,268 v 0 c 3,3.9 8.3,6.9 8.6,7.1 1,1.9 3.1,3.7 3.1,3.7 0,0 -1.2,-0.2 -1.6,0.7 -2.1,-1 -7.7,-4.1 -9.1,-6 -0.6,-0.8 -0.8,-1.7 -1,-2.6 -0.2,-1.5 0,-2.9 0,-2.9"
   id="path3988" />
	<path
   class="st19"
   d="m 116.8,281 c -0.9,-0.8 -1.3,-1.5 -1.9,-2.3 -0.4,-0.6 -0.6,-1.3 -0.7,-2 -0.2,-1 -0.1,-1.8 -0.1,-1.8 2.7,2.2 7.8,4.7 7.8,4.7 0,0.1 0,0.2 -0.1,0.3 -0.1,2 2.6,4.4 4.1,5.6 0,0 -1.4,-0.6 -5.5,-2.4 -1.2,-0.5 -2.6,-1.3 -3.6,-2.1"
   id="path3990" />
	<path
   class="st12"
   d="m 124.9,313.4 c -3.8,1.7 -8,-0.2 -9.1,-1.3 -1,-1 0.4,-2.4 0.8,-2.7 0.4,-0.1 6.2,-4.5 8.6,-5.4 2.1,-0.8 5.1,-1.2 5.5,-1.2 1,1.6 2.9,3 5.1,2.9 v 0.2 c 0,0 -0.6,0.9 -1,2.1 -9.9,5.4 -9.5,5.2 -9.9,5.4"
   id="path3992" />
	<path
   class="st20"
   d="m 117.7,281.7 v 0 c 1.3,0.8 3.1,1.6 8.2,3.8 0.7,0.5 1.1,0.8 1.1,0.8 0,0 -1.5,-0.3 -0.9,2.3 0.1,0.6 0.6,1.3 1.3,2 -0.2,0.2 -2.5,0.8 -5.9,-1.2 -0.2,-0.1 -0.4,-0.3 -0.7,-0.4 -1.4,-1 -2.3,-2.1 -2.8,-3.1 -0.9,-2.3 -0.3,-4.2 -0.3,-4.2"
   id="path3994" />
	<path
   class="st21"
   d="m 118,256.8 c 0.7,-1 3.9,1.3 4.8,2.1 1.1,1.7 4,6 4.1,6.1 h 0.2 c 0.5,2.3 1.7,5 1.9,5.5 -2.5,-2.6 -5.7,-5.7 -8.6,-8 -0.4,-0.6 -3.2,-4.6 -2.4,-5.7"
   id="path3996" />
	<path
   class="st22"
   d="m 127,265.1 c -0.6,-0.8 -2.3,-3.6 -5.2,-7.8 -0.6,-1 -3.2,-6.2 -2,-6.6 1.1,-0.4 3.2,3.2 5.3,5.3 0.9,0.9 3,2.8 5.2,4.9 -0.5,-0.2 -2,-0.8 -3,1 -0.4,0.7 -0.3,1.9 -0.1,3.1 l -0.2,0.1"
   id="path3998" />
	<path
   class="st23"
   d="m 119.9,272.7 c 0.5,-1.4 1.9,-0.8 1.7,-0.9 -0.1,0 -0.4,-0.4 -0.9,-1 -0.9,-1.3 -2.1,-3.4 -0.7,-4.8 2.1,-2.1 4.9,0.5 4.9,0.5 0.9,0.9 1.8,1.7 2.7,2.6 v 0 c 0,0 -1.6,-1.1 -2.5,0.6 -0.9,1.6 4.2,6 4.5,6.3 -0.2,-0.1 -2.2,-1.6 -2.9,0.5 -0.7,2.2 3.5,5.8 3.5,5.8 0,0 -1.8,0.4 -1.1,3.1 0.7,2.8 2.9,2.5 2.9,2.5 0,0 -1.1,2 -0.5,3.6 0.7,1.6 1.3,2.5 2,3 l -0.2,0.2 c -1.9,-1 -6.6,-4 -7.1,-6.2 -0.6,-2.6 0.9,-2.3 0.9,-2.3 -1.8,-1.2 -5.4,-4.1 -5.3,-6.4 0.1,-1.2 1.4,-1.1 1.6,-1.1 -1.5,-1.2 -4.2,-4.1 -3.5,-6"
   id="path4000" />
	<path
   class="st24"
   d="m 121.5,289.5 0.1,-0.1 c 3.7,2.2 5.8,1.3 5.8,1.3 l 0.1,-0.1 c 2.1,2.1 5.8,4.2 5.8,4.2 0,0 -4.1,1.1 -6.2,0.5 -2.1,-0.6 -4.8,-2.1 -5.4,-4.2 -0.3,-1 -0.2,-1.6 -0.2,-1.6"
   id="path4002" />
	<path
   class="st11"
   d="m 121.7,316.4 c 0.6,-1.5 2.5,-2.7 3.2,-3 1,-0.4 9.9,-5.5 10,-5.4 -0.5,1.4 -0.7,3.3 0.1,5.2 0.1,0.3 0.3,0.6 0.4,0.8 l -0.2,0.1 c -1.5,1.4 -5.9,5 -7.8,5.7 -2.3,0.7 -6.3,-1.6 -5.7,-3.4"
   id="path4004" />
	<path
   class="st25"
   d="m 124.5,352.4 c 0.3,-1.7 0.1,-3.4 -0.2,-5.1 0.1,-0.1 0.9,-0.7 2,-2.2 0,0 0,0 0.1,0 0,0 0.2,1.4 1.6,1.6 0.2,0 0.4,0 0.6,0 0,0 0,2.6 -0.2,4.9 -0.2,2.2 -0.7,4.2 -2.3,6 -0.6,0.6 -1.2,1.1 -1.9,1.4 -1.8,0.6 -0.2,-3.8 0.3,-6.6"
   id="path4006" />
	<path
   class="st26"
   d="m 124.1,344.1 c 0,-2.8 1.9,-11 1.9,-11 h 0.1 c -0.3,1.9 -0.4,4.2 0.9,5.7 0.4,0.4 0.8,0.6 1.2,0.6 v 0.1 c 0,0 -0.8,3.7 -1.9,5.4 0,0 0,0 0,0.1 -1,1.6 -1.9,2.2 -2,2.2 -0.1,-1 -0.2,-2 -0.2,-3.1"
   id="path4008" />
	<path
   class="st27"
   d="m 140.7,293.3 c -5.3,1.4 -7.1,3.5 -9.3,-1.8 -0.7,-1.6 0.5,-3.6 0.5,-3.6 0,0 -2.1,0.2 -2.9,-2.5 -0.7,-2.8 1.1,-3.1 1.1,-3.1 0,0 -4.1,-3.5 -3.5,-5.8 0.7,-2.1 2.7,-0.7 2.9,-0.5 -0.3,-0.3 -5.4,-4.7 -4.5,-6.3 0.9,-1.7 2.5,-0.6 2.5,-0.6 v 0 c 3.7,3.6 5.2,5.4 8.5,10.4 0,0 -2.9,-3.5 -3.7,-2.4 -0.7,1.1 3,5.2 3.3,5.5 -0.2,-0.1 -2.2,-1.5 -2.5,-0.3 -0.3,1.3 2.7,3.2 2.7,3.2 0,0 -2,-0.4 -2,1 0,1.4 3.1,2.6 3.1,2.6 0,0 -2.3,0.3 -1.3,2 0.8,1.4 2.2,0.7 2.8,0.4 -0.4,0.3 -1.3,1 -0.9,1.6 0.7,0.8 2.5,0.4 3.2,0.2"
   id="path4010" />
	<path
   class="st26"
   d="m 135.6,383.4 c 0,1.9 -1,4 -2.1,5.5 -2.3,-2.1 -4.3,-12.1 -4.9,-15.2 -0.6,-7.5 -2.5,-16.1 -2.5,-16.1 l -0.1,-0.1 c 0.9,-1 1.6,-2.3 2,-3.8 0.1,-0.6 0.3,-1.4 0.4,-2.2 0,0 0.5,1.5 1.4,1.6 0.4,1 5.2,10.3 5.8,30.3"
   id="path4012" />
	<path
   class="st28"
   d="m 164.8,328.6 v 0 c -0.1,0 -2.5,5 -5.3,4.5 -1.3,-0.3 -0.5,-0.3 -1.7,-0.2 0,0 -3,3.5 -5.6,4.8 -2.3,1.1 -6.8,1.3 -7.3,1.3 0.1,-1.1 0.1,-2.1 0.1,-2.1 0,0 0.4,1.3 2.3,-0.2 1.9,-1.4 -0.2,-8.5 -0.2,-8.5 H 147 c 0.1,1.5 0.1,3.8 -1.2,4.8 -2.8,2.2 -3.2,-1.6 -3.2,-1.6 0,0 0.1,1.5 -1.3,3.2 -0.5,0.7 -1.3,1.4 -2.4,2 -3.2,2 -2.1,-5 -2.4,-4.6 -0.3,0.4 0.4,5 -3.5,7.5 -2.6,1.6 -1.7,-3.8 -1.7,-3.8 0,0 -1.4,3.5 -3,3.6 -0.4,0 -0.8,-0.1 -1.2,-0.6 -1.3,-1.4 -1.2,-3.7 -0.9,-5.7 0.3,-1.9 1,-3.5 1.1,-3.5 -0.2,1.2 -0.2,2.1 0.2,2.6 1.3,1.3 2.6,-2 2.8,-2.4 -0.1,0.4 -0.9,3.7 0.8,3.9 1.9,0.2 3.2,-1.7 3.6,-3.8 0.4,-2 1.5,-2.5 1.6,-2.6 0,0.1 -0.3,0.9 0.8,1.2 1.5,0.3 2.7,-1.4 3,-4.8 0.3,-3.1 1.2,-5.4 1.4,-5.8 -2.9,0.7 -5.3,-1.9 -6.5,-4.7 -0.8,-1.9 -0.5,-3.8 -0.1,-5.2 0.4,-1.3 1,-2.1 1,-2.1 v -0.2 c 1.5,-0.1 2.7,-0.7 2.7,-0.7 l 1.4,-0.1 c 1.3,0.8 3,0.8 3.2,0.8 -0.2,0.1 -2.7,1.6 -1.4,4.5 1.3,3 6.1,-0.1 6.1,-0.1 0,0 -2,3.3 0,4.6 3.6,2.5 7.4,-3.1 7.4,-3.1 0,0 0.2,3.6 2,4.1 1.7,0.5 4,-1.1 6,-5.8 2,-4.5 1.4,-10 1.3,-10.3 0.1,-0.3 0.1,-0.7 0.1,-1.1 0.4,0.5 3.2,4.3 4.7,12.3 1.6,8.6 -1.3,19.6 -3.4,19.3 -0.8,0 -1.1,-0.6 -1.2,-1.4"
   id="path4014" />
	<path
   class="st10"
   d="m 128,319.4 v 0 c 2.5,-1.3 7.1,-5.4 7.1,-5.4 l 0.2,-0.1 c 1.4,2.8 3.2,3.7 4.4,3.9 v 0.2 c 0,0 -4.7,6.9 -6.2,7.8 -1.5,1 -6.7,-2.9 -7.2,-4.1 -0.5,-1 1.7,-2.3 1.7,-2.3"
   id="path4016" />
	<path
   class="st29"
   d="m 126.3,296.9 c -0.1,-1 0.3,-1.8 0.3,-1.8 0,-0.1 0,-0.1 0.4,0.1 2.1,0.7 6.2,-0.5 6.2,-0.5 l 0.2,-0.2 c 0.8,0.6 1.7,0.5 2.9,0.2 -0.1,0.3 -0.9,1.9 0.1,3.4 0.4,0.6 1,1 1.6,1.2 -0.4,0.2 -4.8,2.2 -7.9,1.3 -1.6,-0.3 -3.6,-1.8 -3.8,-3.7"
   id="path4018" />
	<path
   class="st26"
   d="m 126.3,344.9 c 1.1,-1.7 1.9,-5.4 1.9,-5.4 v -0.1 c 1.6,-0.1 3,-3.6 3,-3.6 0,0 -0.9,5.5 1.7,3.8 3.9,-2.5 3.3,-7.2 3.5,-7.5 0.3,-0.4 -0.8,6.6 2.4,4.6 1.1,-0.7 1.8,-1.4 2.4,-2 l 0.1,0.1 c 0.1,1.9 -0.4,4.5 -1.8,5.8 -2,1.7 -3.9,-0.1 -3.9,-0.1 0,0 -0.1,4.6 -2.5,4.7 -0.1,0 -0.2,0 -0.3,0 -2.1,-0.2 -1.8,-3.7 -1.8,-3.7 -0.3,1.7 -1.3,5.4 -2.9,5.1 -1.5,-0.2 -1.7,-1.6 -1.8,-1.7"
   id="path4020" />
	<path
   class="st30"
   d="m 127.2,262 c 1,-1.9 2.5,-1.3 3,-1 1.3,1.2 2.6,2.5 3.8,3.7 -0.6,-0.3 -1.5,-0.7 -2.2,0.1 -1.3,1.3 1.8,5.8 3.5,9.3 -0.2,-0.2 -1.9,-1.5 -2.8,-1.6 -1,-0.1 -1.6,-0.2 -1.6,-0.2 l -0.1,0.1 c -0.5,-0.5 -1.1,-1.1 -1.7,-1.8 -0.9,-2 -2.9,-6.8 -1.9,-8.6"
   id="path4022" />
	<path
   class="st31"
   d="m 136.2,327.3 c -0.1,0.1 -1.2,0.6 -1.6,2.6 -0.4,2.1 -1.7,4.1 -3.6,3.8 -1.7,-0.2 -0.9,-3.5 -0.8,-3.9 -0.2,0.4 -1.5,3.8 -2.8,2.4 -0.4,-0.5 -0.4,-1.5 -0.2,-2.6 0.4,-2.4 1.8,-5.4 1.8,-5.4 1.7,1.2 3.7,2.2 4.5,1.6 1.5,-1 6.2,-7.8 6.2,-7.8 v -0.2 c 0.9,0.2 1.5,0 1.6,0 -0.2,0.5 -1.1,2.8 -1.4,5.8 -0.3,3.5 -1.5,5.1 -3,4.8 -0.9,-0.1 -0.7,-1 -0.7,-1.1"
   id="path4024" />
	<path
   class="st15"
   d="m 128.7,379.2 c 0.1,-1.6 0,-3.5 -0.1,-5.4 0.6,3.1 2.6,13.1 4.9,15.2 -1.7,2.5 -4.1,4.8 -5.6,5.8 -2.6,1.8 0.4,-7.7 0.8,-15.6"
   id="path4026" />
	<path
   class="st30"
   d="m 129.8,353.1 c -1,-0.1 -1.4,-1.6 -1.5,-1.6 0.2,-1.5 0.3,-4.7 0.2,-5 1.6,-0.6 2.4,-5 2.4,-5 0,0 -0.3,3.5 1.8,3.7 0,2 -0.3,5.4 -1.5,7 -0.1,0.1 -0.1,0.2 -0.2,0.3 -0.5,0.5 -0.9,0.7 -1.2,0.6"
   id="path4028" />
	<path
   class="st31"
   d="m 131,352.5 c 0.3,-0.3 0.2,-0.3 0.3,-0.2 0,0 2.1,1.6 5.1,12.5 2.3,8.1 2.1,13.3 2.6,19.1 0,0 0,2.3 -0.8,4.5 -0.8,2.1 -2.6,3.5 -2.6,3.5 -0.2,-2.7 -0.2,-5.6 -0.2,-7.2 0.1,-0.4 0.1,-0.8 0.1,-1.2 -0.6,-20 -5.3,-29.4 -5.8,-30.3 0.4,0 0.8,-0.2 1.3,-0.7"
   id="path4030" />
	<path
   class="st32"
   d="m 130.8,302.7 c 0,0 0,0 0,0 -0.6,-1 -0.7,-1.9 -0.7,-1.9 v -0.1 c 3.2,0.8 7.5,-1.1 7.9,-1.3 1,0.4 2.1,0.3 2.1,0.3 0,0 -2.6,1.1 -1.6,3.5 0.3,0.7 0.8,1.2 1.5,1.6 l -1.4,0.1 c 0,0 -1.2,0.7 -2.7,0.7 -2.2,0.1 -4.2,-1.3 -5.1,-2.9"
   id="path4032" />
	<path
   class="st33"
   d="m 135.3,274 c -1.8,-3.7 -4.8,-8 -3.5,-9.3 0.7,-0.7 1.7,-0.4 2.2,-0.1 3.5,3.5 4.3,4.4 8.4,11.4 0,0 -2.8,-3.7 -4.2,-2.9 -1.3,0.7 2.6,5.6 3.1,6.1 -0.3,-0.3 -1.8,-1.6 -2.6,-1 -0.8,0.7 0.2,1.8 1.2,2.7 0.9,0.9 2.3,2.2 2.5,2.4 -0.2,-0.1 -2.6,-1.5 -2.8,-0.3 -0.2,1.3 1.7,2.6 1.9,2.8 0.2,0.2 -1.2,-0.1 -1.2,-0.1 l -0.1,0.1 c -1.2,-1.9 -2.6,-4.2 -4.1,-6.4 -5.2,-7.9 -5.6,-7 -5.3,-7.3 0,0 0.6,0.1 1.6,0.2 0.9,0.2 2.7,1.5 2.9,1.7"
   id="path4034" />
	<path
   class="st14"
   d="m 143.8,386.5 c 0.2,1.5 0.1,3 -0.2,4.4 -0.3,-0.1 -3.9,-0.9 -4.4,-6.6 -0.6,-7.8 -0.8,-12.5 -2.7,-19.5 -0.8,-2.7 -3.1,-10.7 -5.2,-12.5 0.5,-0.7 0.9,-1.7 1.1,-2.7 0,0 0.3,0.7 0.8,0.8 0.6,1 6.8,12.6 10.6,35.6 0,0.2 0,0.3 0,0.5"
   id="path4036" />
	<path
   class="st34"
   d="m 136.3,342.5 c 0,0.8 -0.4,3.5 -1.1,5.4 -0.3,0.9 -1.1,2.7 -2,2.5 -0.5,-0.1 -0.8,-0.8 -0.8,-0.8 0.4,-2.1 0.4,-4.3 0.4,-4.3 0.1,0 0.2,0 0.3,0 2.5,-0.1 2.5,-4.7 2.5,-4.7 0,0 2,1.8 3.9,0.1 0.4,-0.3 0.7,-0.7 0.9,-1.2 h 0.1 c 0,0 0,1.1 0.3,2.2 h -0.1 c 0,0.7 -0.5,2.6 -1.2,3.8 -0.3,0.6 -0.8,1.2 -1.4,1.3 -1.2,0.1 -1.7,-3 -1.8,-4.3"
   id="path4038" />
	<path
   class="st34"
   d="m 138.5,291.6 c 0.1,0 0.1,0 0,0 0.1,0 0.1,0 0,0 z m 0,0.1 c -0.5,0.3 -2,1 -2.8,-0.4 -0.9,-1.7 1.3,-2 1.3,-2 0,0 -3.1,-1.2 -3.1,-2.6 0,-1.4 2,-1 2,-1 0,0 -3.1,-2 -2.7,-3.2 0.3,-1.2 2.4,0.1 2.5,0.3 -0.2,-0.3 -4,-4.4 -3.3,-5.5 0.7,-1.1 3.7,2.4 3.7,2.4 2.2,3.3 4.8,7.5 6.6,10.7 0.9,0.4 4.5,0.5 4.7,0.5 v 0.2 c -6.5,2.3 -6.4,2.3 -6.7,2.4 -0.7,0.2 -2.6,0.6 -3.2,-0.1 -0.4,-0.7 0.6,-1.5 1,-1.7"
   id="path4040" />
	<path
   class="st35"
   d="m 133.2,350.4 c 0.6,0.2 1.2,-0.6 1.5,-1.2 0,0 5.2,4.1 9.4,15.6 3.6,10 5.1,14.9 5.2,19.1 0,0.7 0,1.3 -0.1,2 -0.4,4.7 -2.9,9.7 -2.9,9.7 h -0.1 c -1.3,-3.6 -2.2,-8 -2.4,-9.1 0,-0.2 0,-0.4 -0.1,-0.5 -3.7,-23.1 -9.9,-34.6 -10.5,-35.6"
   id="path4042" />
	<path
   class="st13"
   d="m 134.7,349.2 c 0.2,-0.4 0.4,-0.8 0.5,-1.3 l 0.2,0.1 c 0,0 8.8,6.7 13.6,18.4 3.1,7.6 6.1,19.9 4.7,28 h -0.2 c 0,0 -0.3,-0.6 -1.9,-3.7 -1.6,-3.1 -2.3,-6.8 -2.3,-6.8 -0.1,-4.2 -1.7,-9.1 -5.2,-19.1 -4.2,-11.6 -9.4,-15.6 -9.4,-15.6"
   id="path4044" />
	<path
   class="st28"
   d="m 155,369.5 c 1.4,4.4 2.6,9.1 2.3,13.7 -0.2,2.1 -1.1,4.6 -1.1,4.6 -1.7,-3.8 -3.1,-8.3 -3.2,-8.7 h -0.1 c -0.9,-4.4 -2.3,-8.9 -3.8,-12.7 C 144.3,354.7 135.5,348 135.5,348 l -0.2,-0.1 c 0.7,-2 1.1,-4.6 1.1,-5.4 0,0.7 0.3,3.8 1.4,4.2 l -0.1,0.1 c 1.6,1.3 13.6,11.3 17.3,22.7"
   id="path4046" />
	<path
   class="st16"
   d="m 135.7,391.8 c 0,0 1.8,-1.4 2.6,-3.5 1,-2.6 0.8,-5.6 0.9,-4 0.6,5.7 4.2,6.6 4.4,6.6 -0.9,4.3 -3.6,7.5 -5.8,6.9 -1.3,-0.3 -1.9,-3 -2.1,-6"
   id="path4048" />
	<path
   class="st36"
   d="m 138,299.3 c -0.6,-0.2 -1.2,-0.6 -1.6,-1.2 -1,-1.6 -0.2,-3.1 -0.1,-3.4 0.4,-0.1 0.9,-0.3 1.3,-0.4 v 0.2 c 0,0 0.1,1.3 1.4,1.7 1.2,0.4 2.3,0.1 2.5,0.1 -0.1,0.1 -1.1,0.8 0.4,1.7 1.6,0.9 4.5,-0.2 4.5,-0.2 0,0 -1.6,1.4 -0.3,2.5 1.3,1 7,-1.1 7,-1.1 0,0 -1.9,2.1 -0.4,3.1 1.4,1 5,-2.4 5.3,-2.6 -0.1,0.3 -1.1,4.3 0.3,4.9 1.5,0.6 5.6,-3.2 6.1,-4.9 0,-0.1 0,-0.1 0,-0.2 0,0.3 0.7,5.8 -1.3,10.3 -2.1,4.7 -4.3,6.3 -6,5.8 -1.8,-0.5 -2,-4.1 -2,-4.1 0,0 -3.8,5.6 -7.4,3.1 -2,-1.4 0,-4.6 0,-4.6 0,0 -4.8,3.1 -6.1,0.1 -1.3,-2.9 1.2,-4.4 1.4,-4.5 -1.8,0 -4,-0.7 -4.7,-2.4 -1,-2.4 1.6,-3.5 1.6,-3.5 0,0 -0.8,0 -1.9,-0.4"
   id="path4050" />
	<path
   class="st37"
   d="m 164.5,294.2 c 0.1,1.3 0.3,4.1 0,5.4 0,1.3 -4.5,5.8 -6.1,5.1 -1.4,-0.6 -0.4,-4.6 -0.3,-4.9 -0.3,0.2 -3.8,3.6 -5.3,2.6 -1.5,-1.1 0.4,-3.1 0.4,-3.1 0,0 -5.7,2.1 -7,1.1 -1.3,-1 0.3,-2.5 0.3,-2.5 0,0 -2.9,1.1 -4.5,0.2 -1.5,-0.9 -0.6,-1.6 -0.4,-1.7 -0.2,0 -1.3,0.3 -2.5,-0.1 -1.3,-0.4 -1.4,-1.7 -1.4,-1.7 v -0.2 c 0.9,-0.3 1.9,-0.6 3.1,-0.9 l 0.2,0.3 c 0.1,0.3 0.5,1.4 2.3,0.3 1.8,-1.1 4.6,-1.4 3.6,-1.1 -1.1,0.3 -2.2,1.8 -0.8,2.8 0.7,0.5 1.5,0.3 3.9,-1 2.3,-1.3 2.9,-0.7 2.9,-0.7 0,0 -2.5,1.6 -1,2.3 1.1,0.5 2,0 4.1,-2 2.1,-2 3.5,-1.7 3.5,-1.7 0,0 -3.8,-1.5 -5.7,-1.5 -9.1,-0.3 -8.4,-0.3 -8.4,-0.5 0,0 1.4,-2.1 3.3,-3.8 0.5,-0.5 2.6,-2 4.2,-2.8 h 0.1 c -0.1,0.4 -0.1,0.7 -0.1,0.9 0,1.3 1.3,1.2 3.1,-3.7 -0.5,1.4 -1.4,4.7 -0.7,5.3 0.7,0.5 2.2,-1 2.5,-3 0.3,-1.9 1.4,-3.9 1.6,-4.1 0.1,0.5 0.3,0.7 0.6,0.7 0.1,0 0.1,0 0.2,0 0,0 -1.1,4.1 0.4,5.9 1.5,1.8 3.6,1.8 3.7,1.8 h 0.2 c 0,0.1 0,0.1 0,0.2 0,0.7 0.1,1.2 0.4,1.6 -0.1,0.1 -1.8,1.5 -1,3.3 0,0.5 0.3,0.9 0.6,1.2 v 0"
   id="path4052" />
	<path
   class="st12"
   d="m 137.8,346.7 c 0.3,0.1 0.6,0 0.9,-0.1 0.6,0.2 7.9,3 14.2,10.9 3.5,4.4 6.6,10.6 9.1,16 1,2.9 1.7,6.3 2,9.4 0,0 -1.7,1 -4.1,-1.1 -2.1,-1.8 -2.6,-2.8 -2.7,-3.1 -0.3,-2.3 -0.9,-5.2 -2.2,-9.1 -3.7,-11.4 -15.6,-21.4 -17.3,-22.7 l 0.1,-0.2"
   id="path4054" />
	<path
   class="st25"
   d="m 141.3,279.3 c -0.5,-0.6 -4.3,-5.4 -3.1,-6.1 1.4,-0.8 4.2,2.9 4.2,2.9 4.1,7 5.8,10.3 6.1,10.7 -1.9,1.6 -3.3,3.8 -3.3,3.8 v 0.1 c -2,-0.2 -2.5,-0.4 -2.5,-0.4 -2.8,-4.8 -2.7,-4.2 -2.4,-4.4 0,0 1.4,0.4 1.2,0.1 -0.2,-0.2 -2.1,-1.5 -1.9,-2.8 0.1,-1.2 2.5,0.1 2.8,0.3 -0.2,-0.2 -1.6,-1.6 -2.5,-2.4 -0.9,-0.9 -2,-2 -1.2,-2.7 0.8,-0.7 2.3,0.7 2.6,0.9"
   id="path4056" />
	<path
   class="st38"
   d="m 139.6,345.4 c 0.2,0.1 5.1,1.3 12.5,6.6 6.9,5 12,13.2 14.2,19.7 0.1,0.2 0.2,0.5 0.2,0.7 1.4,4.7 -1,7.9 -1,7.9 h -0.1 c -3,-5.6 -7.3,-16.4 -12.6,-23 -6.3,-7.8 -13.6,-10.6 -14.2,-10.9 0.4,-0.1 0.7,-0.5 1,-1"
   id="path4058" />
	<path
   class="st11"
   d="m 151.9,348.8 c 4.4,2.4 9.3,6 13.3,11.2 4.9,6.4 6.4,12.2 6.2,16.5 0,0 -0.8,0 -2.8,-1.2 -1.1,-0.7 -2.2,-3.3 -2.4,-3.6 C 164,365.2 159,357 152,352 c -7.2,-5.2 -12.5,-6.6 -12.5,-6.6 0.2,-0.4 0.4,-0.8 0.6,-1.2 0,0 5.4,1.1 11.8,4.6"
   id="path4060" />
	<path
   class="st16"
   d="m 171.5,328.6 c 0,0.1 -0.1,0.2 -0.1,0.3 -0.8,3.4 -3.2,7.4 -6.2,10.2 -3,2.8 -4.3,2.2 -4.1,1.9 0.2,-0.3 1.6,-2.5 1.6,-2.5 v -0.2 c -0.5,0.1 -1.2,0.4 -1.7,1.1 -1.1,1.5 -2.7,4.7 -5,6.6 -2.8,2.4 -3.8,2.7 -4.1,2.7 -6.4,-3.6 -11.8,-4.6 -11.8,-4.6 0.4,-1.1 0.6,-2.2 0.6,-2.6 h 0.1 c 0.6,2 1.3,2.1 2.7,0.7 0.8,-0.8 1.1,-2.2 1.3,-3.4 0.5,0 5,-0.1 7.3,-1.3 2.6,-1.3 5.6,-4.8 5.6,-4.8 1.2,-0.1 0.4,-0.1 1.7,0.2 2.9,0.6 5.2,-4.4 5.2,-4.4 h 0.1 c 0.1,0.7 0.5,1.3 1.2,1.4 2.1,0.3 5,-10.7 3.4,-19.3 -1.5,-8 -4.3,-11.7 -4.7,-12.3 0.1,-1.9 -0.1,-4.3 -0.1,-4.3 v -0.1 c 1.3,0.8 2.9,-0.6 3.1,-0.8 0.2,-0.2 -0.9,1.8 0.8,2.8 0.9,0.5 1.9,-0.1 2.6,-0.7 0,0.2 0.4,1.6 1.9,2.1 1.3,0.5 2.6,-0.2 3.3,-0.8 0,0 0.4,1.3 1.2,1.4 0.6,0.1 1.2,0 1.9,-0.6 -0.2,0.3 -0.5,1.2 0.1,3.2 0.7,2.5 3.1,6.1 2,12.3 -1.1,6.1 -3.6,8.5 -4.5,8.9 -0.6,0.3 0.1,-2.3 0.5,-3.5 -0.7,1.8 -1.9,4.3 -3.2,6.5 -2.5,4.3 -2.6,3.9 -2.7,3.9"
   id="path4062" />
	<path
   class="st23"
   d="m 144.9,336.9 c 0.1,1.6 -0.3,4.3 -1.4,5.5 -1.5,1.5 -2.1,1 -2.5,-0.2 -0.2,-0.5 -0.5,-1.6 -0.5,-2.7 h -0.1 c 1,-1.9 0.9,-4.6 0.9,-4.6 l -0.1,-0.1 c 1.4,-1.7 1.3,-3.2 1.3,-3.2 0,0 0.4,3.8 3.2,1.6 1.3,-1 1.3,-3.3 1.2,-4.8 h 0.1 c 0,0 2,7.1 0.2,8.5 -1.9,1.2 -2.3,0 -2.3,0"
   id="path4064" />
	<path
   class="st30"
   d="m 140.7,293.3 c 0.3,-0.1 -0.3,0.1 6.7,-2.4 v -0.2 c 1.4,0.1 3.5,0.1 6.2,0.2 1.9,0.1 5.7,1.5 5.7,1.5 0,0 -1.4,-0.2 -3.5,1.7 -2.1,2 -3,2.5 -4.1,2 -1.5,-0.8 1,-2.3 1,-2.3 0,0 -0.6,-0.6 -2.9,0.7 -2.4,1.3 -3.2,1.5 -3.9,1 -1.4,-1 -0.2,-2.4 0.8,-2.8 1.1,-0.3 -1.8,0 -3.6,1.1 -1.8,1.1 -2.2,0 -2.3,-0.3 0.1,0.1 -0.1,-0.2 -0.1,-0.2"
   id="path4066" />
	<path
   class="st18"
   d="m 146.4,395.6 c 0,0 2.4,-5 2.9,-9.7 0.1,-0.7 0.1,-1.3 0.1,-2 0,0 0.7,3.7 2.3,6.8 1.6,3.1 1.9,3.7 1.9,3.7 h 0.2 c -0.5,2.8 -1.4,4.9 -3.1,6 -1.7,1.2 -3.2,-1.5 -4.3,-4.8 v 0"
   id="path4068" />
	<path
   class="st12"
   d="m 159.2,279.3 c -0.1,0.2 -1.2,2.2 -1.6,4.1 -0.3,2 -1.8,3.6 -2.5,3 -0.7,-0.5 0.1,-3.8 0.6,-5.3 -1.7,4.9 -3,4.9 -3,3.7 0,-0.2 0,-0.5 0.1,-0.9 0.4,-2.1 1.9,-6.4 3.9,-10.1 2.3,-4.3 8.1,-9.9 8.1,-9.9 0.1,0.2 0.7,0.2 1.9,-0.6 1.9,-1.2 3.6,-1.6 3.8,-1.6 -0.4,0.2 -5,2.6 -6.8,5.2 -1.8,2.7 0.9,0.6 1.9,0.2 0.8,-0.3 1.1,-0.4 1.2,-0.5 -0.4,0.3 -3.6,2.3 -4.8,4.7 -1.2,2.5 -0.1,2.8 1.4,0.9 0.3,-0.4 0.9,-1 1.6,-1.5 -0.2,0.3 -1.6,2.4 -2.5,4.8 -0.9,2.3 -1.9,4.2 -2.7,4.4 -0.1,0.2 -0.5,0.1 -0.6,-0.6"
   id="path4070" />
	<path
   class="st19"
   d="m 156.1,387.8 c 1.2,-3.1 1.4,-5.9 1,-9.2 0.1,0.2 0.7,1.3 2.7,3.1 2.4,2.1 4.1,1.1 4.1,1.1 0.4,4.4 -0.3,8.4 -2.5,10.1 -1.8,1.2 -3.7,-1.6 -5.3,-5.1"
   id="path4072" />
	<path
   class="st15"
   d="m 160.4,286 c -1.4,-1.8 -0.4,-5.8 -0.4,-5.9 0.8,-0.3 1.8,-2.1 2.7,-4.4 0.9,-2.4 2.4,-4.5 2.6,-4.8 1.2,-1 2.5,-2 2.5,-2 0,0 0,0 0,0.1 0.8,1.8 2,-0.1 4.3,-1.5 1.8,-1.2 3.5,-1.2 3.5,-1.1 -0.6,1.9 1.9,1.1 2.9,1 1,-0.1 2.8,0.5 3,0.6 0,0.5 0.3,1.1 0.7,1.6 1.5,1.5 2.8,2.1 4.7,2.4 2.3,0.3 4.7,0.5 4.9,0.6 -0.2,0.5 -0.4,0.9 -0.9,1.3 -1,0.9 -2.1,0.7 -2.2,0.9 0,-0.6 -2,-0.1 -2.8,-0.3 -0.8,-0.2 -3,-0.2 -3.6,-0.5 -0.5,-0.3 -1.3,-0.7 -1.4,-0.1 -0.4,-0.6 -0.9,-1.2 -2,-1.3 -1.5,-0.2 -2.6,0.6 -3,1.9 0,0 -1.2,0.6 -1.9,0.9 -0.7,0.3 -1,1.5 -1,2.5 0,1.1 0,1.8 -0.7,2.5 v 0.1 c -2.1,0.9 -1.7,1 -2.4,1.9 -0.5,0.7 -0.9,1.6 -1.3,1.6 0,0 -1.8,-0.2 -2.4,1.9 -0.1,0.2 -0.1,0.4 -0.1,0.5 H 166 c 0,0 -1.7,0.2 -1.9,1.8 h -0.2 c 0.1,-0.4 -2.1,-0.4 -3.5,-2.2"
   id="path4074" />
	<path
   class="st10"
   d="m 175.5,266.2 v 0 c 0,0 -1.7,0 -3.5,1.2 -2.3,1.5 -3.5,3.3 -4.3,1.5 0,0 0,0 0,-0.1 -0.9,0.7 -3.5,2.6 -4.2,3.5 -1.5,2 -2.7,1.7 -1.4,-0.9 1.2,-2.4 4.4,-4.4 4.8,-4.7 -0.1,0 -0.5,0.2 -1.2,0.5 -1,0.4 -3.7,2.4 -1.9,-0.2 1.7,-2.6 6.4,-5 6.8,-5.2 -0.2,0 -1.9,0.4 -3.8,1.6 -1.2,0.8 -1.8,0.8 -1.9,0.6 -0.2,-0.3 0.2,-1 0.7,-1.5 1.3,-1.1 4.6,-3.6 9.2,-2.8 4.6,0.8 8,3.6 8,3.6 -0.2,-0.4 -0.4,-2 1.5,-0.5 1.9,1.5 3.4,5 3.4,5 l -0.1,0.1 c -1.5,-1.3 -2.6,-2.8 -3.4,-2.3 -0.6,0.4 0.2,1.9 1.4,2.8 1.2,0.9 3.4,1.6 3.4,1.6 0,0 -2.3,-0.2 -5.3,-2.1 -1.7,-1.1 -2.3,-0.8 -2.3,-0.2 -0.2,0 -2,-0.7 -3,-0.5 -1,0.1 -3.4,0.9 -2.9,-1"
   id="path4076" />
	<path
   class="st16"
   d="m 179.4,297.5 c -0.1,0 -0.1,0 0,0 -0.8,0.6 -1.3,0.8 -2,0.6 -0.8,-0.2 -1.2,-1.4 -1.2,-1.5 -0.8,0.6 -2.1,1.3 -3.3,0.8 -1.5,-0.6 -1.8,-1.9 -1.9,-2.1 -0.7,0.6 -1.7,1.2 -2.6,0.7 -1.7,-0.9 -0.5,-3 -0.8,-2.8 -1.5,1.3 -3.2,1.5 -4.1,-0.4 -0.8,-1.8 0.9,-3.2 0.9,-3.2 l 0.1,-0.1 c 1,1.2 3.2,0.9 3.2,0.9 l 0.1,-0.1 c 0.6,1.2 2.2,0.7 3.2,0.3 0.7,-0.3 1.3,-0.5 1.4,-0.6 -0.1,0.2 -1.6,1.8 -0.6,3.2 1.1,1.5 3,0.3 3.3,0.1 0.5,0.6 1.4,0.7 2.4,0.1 0,0.2 0.1,1 0.5,1.2 0.6,0.3 1.2,0.7 2,-0.8 0,0 0.6,2 -0.4,3 0.1,0.5 -0.1,0.6 -0.2,0.7"
   id="path4078" />
	<path
   class="st18"
   d="m 164.2,288 c 0,-0.1 0,-0.1 0,-0.2 0.2,-1.6 1.9,-1.8 1.9,-1.8 h 0.1 c -0.1,1.7 1.5,2.2 1.6,2.2 -0.2,0.7 -0.1,1.6 0.2,2.1 l -0.1,0.1 c 0,0 -2.3,0.3 -3.2,-0.9 -0.4,-0.3 -0.6,-0.8 -0.5,-1.5"
   id="path4080" />
	<path
   class="st20"
   d="m 165.5,380.4 c 0,0 2.4,-3.3 1,-7.9 -0.1,-0.2 -0.2,-0.5 -0.2,-0.8 0.1,0.3 1.3,2.9 2.4,3.6 2,1.3 2.8,1.2 2.8,1.2 -0.2,4.4 -2,7.1 -3.5,7 -0.7,-0.1 -1.5,-1.2 -2.5,-3.1 v 0"
   id="path4082" />
	<path
   class="st18"
   d="m 168.7,283.6 c 0.1,0 0.3,0.1 1.8,0.2 -0.2,0.1 -1.9,1.3 -1.5,2.8 0,0.1 0,0.2 0.1,0.3 0,0 -1,0.3 -1.3,1.3 0,0 -1.7,-0.5 -1.5,-2.2 0,-0.2 0,-0.4 0.1,-0.5 0.5,-2.1 2.3,-1.9 2.3,-1.9"
   id="path4084" />
	<path
   class="st18"
   d="m 167.7,288.3 c 0.3,-1.1 1.3,-1.4 1.3,-1.4 0.7,2.3 2.9,1.1 3.3,0.9 -0.2,0.6 -0.3,1.5 0.2,2.3 -0.1,0 -0.7,0.3 -1.4,0.6 -1,0.4 -2.5,0.9 -3.2,-0.3 -0.3,-0.5 -0.4,-1.4 -0.2,-2.1"
   id="path4086" />
	<path
   class="st19"
   d="m 177.6,293.6 c -2.1,1.2 -3.6,-0.7 -2.7,-3 -0.5,0.4 -1.3,0.6 -2.2,-0.3 -0.6,-0.6 -0.8,-1.4 -0.4,-2.5 -1.5,0.8 -3,0.6 -3.4,-1.2 -0.4,-1.5 1.3,-2.7 1.5,-2.8 0.8,0 2.3,-0.2 3.6,-0.8 -0.2,0.3 -1.5,1.6 -0.3,2.7 1.2,1.1 2.8,0.1 3.4,-0.4 -0.6,0.5 -1.9,2 -0.6,3.2 0.9,0.8 2,0.2 2.8,-0.4 0,0 -1.2,1.7 -0.4,2.9 0.6,0.9 2.4,0.8 3.5,-0.6 -2.2,2.9 -1.9,2.9 -2.3,3.6 -0.8,1.6 -1.4,1.1 -2,0.9 -0.4,-0.2 -0.4,-1.1 -0.5,-1.3"
   id="path4088" />
	<path
   class="st39"
   d="m 172.4,280.1 v 0 c 0.7,-0.7 0.7,-1.5 0.7,-2.5 0,-1 0.3,-2.2 1,-2.5 0.7,-0.3 1.9,-0.9 1.9,-0.9 -0.1,0.3 -0.1,0.7 -0.1,1.1 0,2.2 1.7,3.2 2.8,3.2 1.9,-0.1 2.5,-1.5 2.6,-1.7 0,0 0,0 -0.1,0.1 0.1,-0.2 0.6,-1.3 0.3,-2 0,-0.1 -0.3,-0.8 -0.5,-1.1 0.1,-0.5 0.9,-0.1 1.4,0.1 0.6,0.3 2.7,0.3 3.6,0.5 0.8,0.2 2.8,-0.3 2.8,0.3 0,0 0,0.1 0,0.1 -0.1,0.5 -0.7,0.8 -3.1,1.6 -3,1 -2.7,1.7 -4.7,3.3 -0.9,0.7 -1.7,0.9 -2.7,1.1 -1.2,0.2 -1.6,0.4 -2.7,1.5 -1,1 -3.8,1.8 -5.1,1.7 -0.9,-0.1 -1.5,-0.2 -1.7,-0.2 0.4,-0.2 0.7,-1 1.2,-1.6 0.7,-1.1 0.3,-1.2 2.4,-2.1"
   id="path4090" />
	<path
   class="st18"
   d="m 172.5,290.1 c 0,0 0,0 0,0 0.7,0.9 1.5,1.2 2.4,0.5 -0.1,0.2 -0.7,1.9 0.3,2.8 -0.2,0.2 -2.1,1.4 -3.3,-0.1 -1,-1.4 0.4,-3 0.6,-3.2"
   id="path4092" />
	<path
   class="st20"
   d="m 179.3,288.1 c -0.8,0.7 -1.9,1.2 -2.8,0.4 -1.3,-1.2 0,-2.7 0.6,-3.2 0.1,0 0.1,-0.1 0.1,-0.1 0,0 -0.1,0.1 -0.1,0.1 -0.6,0.5 -2.2,1.4 -3.4,0.4 -1.2,-1 0,-2.4 0.3,-2.7 0.6,-0.2 1.2,-0.6 1.5,-0.9 1.1,-1.1 1.4,-1.3 2.7,-1.5 1,-0.1 1.8,-0.4 2.7,-1.1 0,0 -2.6,2.3 -1.4,4.2 1.1,1.7 2.5,-0.1 2.8,-0.4 -0.2,0.3 -1.2,2 0.2,3.2 1.4,1.3 3.3,-0.4 3.5,-0.6 -0.1,0.1 -0.4,0.6 -0.5,1 -0.9,0.7 -2,1.9 -3.1,3.5 -1.2,1.4 -2.9,1.5 -3.5,0.6 -0.8,-1.2 0.4,-2.9 0.4,-2.9"
   id="path4094" />
	<path
   class="st40"
   d="m 178.7,274.5 c 0,-0.5 -0.1,-1.1 -0.3,-1 0,0 -0.6,0.1 -0.7,0.9 -0.2,0.8 0.3,1.2 0.5,1 0.2,-0.2 0.5,-0.4 0.5,-0.9 z m 2.4,2.3 c 0,0 0,-0.1 0,0 0,0.1 -0.6,1.6 -2.5,1.7 -1.1,0 -2.8,-1 -2.8,-3.2 0,-1.9 1.2,-3.2 3.1,-3 1.2,0.2 1.7,0.7 2,1.3 0,0 0,0 0,0.1 0,0.4 0.1,0.6 0.4,0.8 0,0.1 0.1,0.2 0.1,0.3 0.4,0.7 -0.2,1.8 -0.3,2"
   id="path4096" />
	<path
   class="st22"
   d="m 186,286 c -0.2,0.2 -2.1,1.9 -3.5,0.6 -1.4,-1.2 -0.4,-2.9 -0.2,-3.2 -0.2,0.3 -1.7,2.1 -2.8,0.4 -1.2,-1.9 1.4,-4.2 1.4,-4.2 2,-1.6 1.7,-2.3 4.7,-3.3 2.4,-0.8 3,-1 3.1,-1.5 0.3,0 1.5,0.4 2.5,1.1 0.9,0.7 2,1.3 3.6,1.5 -0.4,0.4 -2.1,1.7 -4.2,3.3 -2.4,1.9 -4.1,7.4 -4.8,7 -0.6,-0.4 -0.2,-1.2 0.2,-1.7"
   id="path4098" />
	<path
   class="st12"
   d="m 182.2,269.3 c -1,-1 -1.4,-3.3 1.5,-1.4 3,1.9 5.3,2.1 5.3,2.1 0,0 -2.3,-0.7 -3.4,-1.6 -1.1,-0.9 -2,-2.4 -1.4,-2.8 0.9,-0.6 2.3,1.6 4.4,3.1 1.9,1.3 5,0.7 5.4,0.6 -1.5,1.2 -1.8,1.8 -2.2,2.9 h -0.1 c 0,0 -3.1,-0.3 -4.8,-0.5 -1.9,-0.3 -3.2,-0.9 -4.7,-2.4"
   id="path4100" />
	<g
   id="g4112">
		<defs
   id="defs4103">
			<rect
   id="SVGID_9_"
   x="188"
   y="262.79999"
   width="38.799999"
   height="12.4" />
		</defs>
		<clipPath
   id="SVGID_2_">
			<use
   xlink:href="#SVGID_9_"
   style="overflow:visible"
   id="use4105" />
		</clipPath>
		<g
   class="st41"
   clip-path="url(#SVGID_2_)"
   id="g4110">
			<path
   class="st23"
   d="m 194,269.4 c 1,-0.9 1,-0.5 4.4,-0.3 3.9,0.2 10.6,-1.4 15.6,-3.7 5,-2.3 12.6,-2.5 12.3,-2.4 -0.3,0.1 -10.7,3.2 -13.5,4.4 -2.7,1.2 -9.9,4.3 -14.1,5.8 -3.9,1.4 -10,1.6 -10.1,1.5 0,0 0,-0.1 0,-0.1 0.1,-0.3 1.2,0 2.2,-1 1.4,-1 0.7,-2.2 3.2,-4.2"
   id="path4108" />
		</g>
	</g>
	<path
   class="st34"
   d="m 194.8,277.3 c -1.5,-0.2 -2.7,-0.8 -3.6,-1.5 -1.1,-0.9 -2.2,-1.1 -2.2,-1.2 1.2,0 6.2,-0.2 9.9,-1.5 4.1,-1.5 11.4,-4.6 14.1,-5.8 2.2,-1 9.5,-3.2 12.3,-4.1 0,0 0.6,0.6 -1.2,1.2 -2.2,0.8 -13.3,4.2 -18.4,7.2 -6.4,4 -7.2,6.3 -10.9,5.7"
   id="path4114" />
	<path
   d="m 129.6,276.3 c -0.1,0 -0.1,0 -0.2,-0.1 -0.9,-0.8 -5.5,-4.9 -4.5,-6.6 0.3,-0.5 0.7,-0.9 1.2,-1 0.9,-0.2 1.7,0.3 1.7,0.3 0.1,0.1 0.2,0.2 0.1,0.4 -0.1,0.1 -0.2,0.2 -0.4,0.1 -0.6,-0.3 -1.6,-0.6 -2.2,0.5 -0.6,1.1 2.4,4.2 4.4,6 0.2,0.1 0.1,0.4 -0.1,0.4"
   id="path4116" />
	<path
   d="m 140.8,293.6 c -5.3,1.4 -7.3,3.6 -9.6,-2 -0.5,-1.3 0,-2.8 0.3,-3.4 -0.7,-0.1 -2.1,-0.6 -2.7,-2.7 -0.3,-1.3 -0.3,-2.6 0.8,-3.3 -1,-0.9 -3.8,-3.8 -3.2,-5.8 0.2,-0.7 0.6,-1.1 1.1,-1.3 1,-0.3 2.2,0.6 2.3,0.6 0.3,0.3 -0.1,0.6 -0.3,0.4 0,0 -1,-0.8 -1.8,-0.5 -0.3,0.1 -0.6,0.4 -0.7,0.9 -0.5,1.7 2.3,4.5 3.4,5.5 0.2,0.1 0.1,0.4 -0.1,0.5 0,0 -0.5,0.1 -0.8,0.6 -0.3,0.5 -0.3,1.2 -0.1,2.2 0.7,2.5 2.5,2.3 2.6,2.3 0.2,0 0.4,0.2 0.3,0.4 0,0 -1.1,1.9 -0.4,3.3 2.1,5.1 3.6,3 9,1.6 0.1,0.1 0.3,0.6 -0.1,0.7"
   id="path4118" />
	<path
   d="m 178,274.4 c -0.1,0.5 0.1,0.7 0.1,0.7 0.2,-0.2 0.4,-0.3 0.4,-0.7 0,-0.3 0,-0.6 -0.1,-0.7 -0.2,0.1 -0.4,0.3 -0.4,0.7 z m 0.4,1.1 c -0.4,0.4 -1.1,-0.1 -0.9,-1.2 0.2,-1 0.9,-1.3 1.2,-1.1 0.3,0.2 0.3,0.9 0.3,1.3 -0.1,0.6 -0.4,0.8 -0.6,1"
   id="path4120" />
	<path
   d="m 182.5,283.5 c -1,1.3 -2.3,1.8 -3.2,0.4 -1.3,-2 1.4,-4.4 1.5,-4.5 0.1,-0.1 0.3,-0.1 0.4,0 0.1,0.1 0.1,0.3 0,0.4 0,0 -2.4,2.1 -1.4,3.8 0.2,0.4 0.5,0.6 0.8,0.6 0.5,0 1.1,-0.5 1.5,-1 0.2,-0.4 0.7,0 0.4,0.3 0,0 0,0 0,0"
   id="path4122" />
	<path
   d="m 186.1,286.2 c -3.1,2.8 -5.9,-0.2 -4.1,-3 0.1,-0.1 0.2,-0.2 0.4,-0.1 0.1,0.1 0.2,0.2 0.1,0.4 -0.3,0.4 -1,1.8 0.1,2.9 1.2,1.1 2.9,-0.3 3.2,-0.6 0.1,-0.1 0.3,-0.1 0.4,0 0.1,0.1 0.1,0.3 -0.1,0.4"
   id="path4124" />
	<path
   d="m 190.8,280.8 c -2.5,2 -4,7.7 -5.1,7 -0.7,-0.4 -0.4,-1.3 0.1,-2 0.1,-0.1 0.3,-0.2 0.4,0 0.1,0.1 0.1,0.3 0,0.4 -0.2,0.3 -0.6,0.9 -0.3,1.2 0.6,-0.2 2.4,-5.2 4.6,-7 2.3,-1.8 2.6,-2 4.3,-3.4 0.1,-0.1 0.3,-0.1 0.4,0.1 0.1,0.1 0.1,0.3 0,0.4 -2,1.4 -2,1.4 -4.4,3.3"
   id="path4126" />
	<path
   d="m 164,288.1 c -0.1,0 -2.3,0 -3.9,-1.9 -1.5,-1.9 -0.5,-6 -0.4,-6.2 0.1,-0.3 0.6,-0.2 0.5,0.1 0,0 -1,4 0.3,5.7 1.4,1.7 3.4,1.7 3.5,1.7 0.1,0 0.3,0.1 0.3,0.3 0,0.1 -0.1,0.3 -0.3,0.3"
   id="path4128" />
	<g
   id="g4140">
		<defs
   id="defs4131">
			<rect
   id="SVGID_11_"
   x="188"
   y="262"
   width="38.799999"
   height="13.2" />
		</defs>
		<clipPath
   id="SVGID_4_">
			<use
   xlink:href="#SVGID_11_"
   style="overflow:visible"
   id="use4133" />
		</clipPath>
		<g
   class="st42"
   clip-path="url(#SVGID_4_)"
   id="g4138">
			<path
   d="m 188.7,275 c -0.2,0 -0.3,-0.1 -0.3,-0.3 0,-0.2 0.2,-0.3 0.4,-0.2 3.1,-0.1 7,-0.4 9.9,-1.5 4.2,-1.5 11.5,-4.7 14,-5.8 2,-0.9 8.2,-2.8 11.4,-3.8 -2.5,0.2 -6.8,0.8 -10.1,2.3 -5.3,2.4 -11.9,3.9 -15.7,3.7 -3.4,-0.2 -3.3,-0.5 -4.2,0.2 -0.3,0.2 -0.6,-0.2 -0.3,-0.4 1.1,-0.9 1.2,-0.6 4.6,-0.4 3.7,0.3 10.4,-1.3 15.5,-3.6 4.8,-2.2 12.3,-2.6 12.6,-2.4 0.2,0.1 0.1,0.4 -0.1,0.5 -0.4,0.1 -10.7,3.1 -13.4,4.4 -2.5,1.2 -9.8,4.3 -14.1,5.8 -2.9,1 -7.3,1.5 -10.2,1.5"
   id="path4136" />
		</g>
	</g>
	<path
   d="m 188.9,274.7 c -0.2,0.3 -0.6,0 -0.4,-0.3 0.1,-0.2 0.4,-0.3 0.7,-0.3 0.4,-0.1 1,-0.2 1.6,-0.7 0.5,-0.4 0.6,-0.8 0.8,-1.2 0.5,-1.2 0.9,-1.8 2.3,-3 0.1,-0.1 0.3,-0.1 0.4,0 0.1,0.1 0.1,0.3 0,0.4 -1.4,1.2 -1.7,1.7 -2.1,2.8 -0.2,0.5 -0.4,1 -0.9,1.4 -1.1,0.9 -2.1,0.8 -2.4,0.9"
   id="path4142" />
	<path
   d="m 193.4,272.4 c -0.1,0.3 -0.6,0.1 -0.5,-0.2 0,0 0.5,-1 1.4,-1.3 1,-0.3 1.5,0.4 1.3,1.2 -0.1,0.4 -0.6,0.2 -0.5,-0.1 0.1,-0.4 -0.1,-0.7 -0.7,-0.5 -0.6,0.1 -1,0.9 -1,0.9"
   id="path4144" />
	<path
   d="m 189.1,269.8 c 0.3,0.1 0.2,0.6 -0.1,0.5 -0.1,0 -2.4,-0.3 -5.5,-2.2 -1.3,-0.8 -1.7,-0.7 -1.8,-0.7 0,0 -0.1,0.1 -0.1,0.2 0,0.2 -0.1,0.3 -0.3,0.3 -0.1,0 -0.3,-0.1 -0.3,-0.3 0,-0.3 0.1,-0.6 0.4,-0.7 0.4,-0.3 1.2,0 2.3,0.7 0.5,0.3 1,0.6 1.5,0.8 -0.9,-0.7 -1.5,-1.8 -1.5,-2.5 0,-0.4 0.2,-0.5 0.3,-0.6 1.1,-0.8 2.5,1.5 4.7,3.1 1.8,1.3 4.8,0.6 5.2,0.6 0.4,-0.1 0.5,0.4 0.1,0.5 -0.4,0.1 -3.6,0.8 -5.6,-0.6 -1.9,-1.4 -3.4,-3.6 -4.1,-3.1 0,0 -0.1,0.1 -0.1,0.2 0,0.5 0.6,1.5 1.5,2.2 1.2,0.9 3.4,1.6 3.4,1.6"
   id="path4146" />
	<path
   d="m 191.7,272.5 c -0.1,0 -3.4,-0.3 -4.9,-0.5 -2,-0.3 -3.3,-1 -4.8,-2.5 -0.5,-0.5 -0.8,-1.2 -0.8,-1.8 0,-0.1 0.1,-0.3 0.3,-0.3 0.1,0 0.3,0.1 0.3,0.3 0,0.4 0.3,1 0.7,1.4 2.5,2.5 4,2.3 9.4,2.8 0.2,0.1 0.2,0.6 -0.2,0.6"
   id="path4148" />
	<path
   d="m 195.7,277.6 c -1.7,0 -3.3,-0.5 -4.7,-1.6 -1.1,-0.8 -2.1,-1 -2.1,-1.1 -0.3,-0.1 -0.2,-0.6 0.1,-0.5 0,0 1.2,0.2 2.4,1.1 1.5,1.1 3.2,1.6 5,1.4 1.4,-0.1 2.4,-0.9 4.2,-2.2 5.1,-3.8 7.8,-5.5 21.9,-10.1 0.7,-0.2 2.4,-0.7 2.5,-1.2 0,0 0,-0.1 0,-0.1 -0.1,-0.1 -0.1,-0.3 0,-0.4 0.2,-0.3 0.6,0.1 0.5,0.5 -0.2,0.8 -1.8,1.2 -2.9,1.6 -13.8,4.5 -16.5,6.2 -21.7,10 -2.1,1.9 -3.1,2.6 -5.2,2.6"
   id="path4150" />
	<path
   d="m 188,267.7 c 0.1,0.3 -0.3,0.5 -0.5,0.2 0,0 -1.5,-3.4 -3.4,-4.9 -0.7,-0.6 -1.1,-0.6 -1.2,-0.5 -0.1,0.1 -0.1,0.6 0,0.7 0.1,0.1 0,0.3 -0.1,0.4 -0.1,0.1 -0.3,0 -0.4,-0.1 -0.2,-0.3 -0.3,-1 0.1,-1.4 0.5,-0.5 1.5,0.2 1.8,0.5 2.1,1.6 3.6,5 3.7,5.1"
   id="path4152" />
	<path
   d="m 166.9,263.7 c -0.6,0.4 -1.9,1.1 -2.2,0.5 -0.3,-0.5 0.3,-1.4 0.8,-1.8 1.6,-1.4 4.9,-3.7 9.4,-2.8 4.6,0.8 8,3.5 8.2,3.7 0.1,0.1 0.1,0.3 0,0.4 -0.1,0.1 -0.3,0.1 -0.4,0.1 0,0 -3.5,-2.7 -7.9,-3.6 -4.2,-0.8 -7.4,1.4 -9,2.7 -0.5,0.5 -0.7,1 -0.7,1.1 0,0 0.3,0.1 1.6,-0.7 1.8,-1.1 3.4,-1.5 3.8,-1.6 0.1,0 0.2,0 0.3,0 0.2,0.2 0,0.5 -0.1,0.5 -0.1,0 -1.9,0.3 -3.8,1.5"
   id="path4154" />
	<path
   d="m 163.3,268.7 c -0.1,0 -0.2,0 -0.3,-0.1 -0.2,-0.3 -0.1,-0.7 0.5,-1.6 1.8,-2.7 6.3,-5 6.9,-5.3 0.1,-0.1 0.3,0 0.3,0.1 0.1,0.1 0,0.3 -0.1,0.4 -0.2,0.1 -5,2.5 -6.7,5.1 -0.3,0.5 -0.5,0.8 -0.5,0.9 0.3,-0.1 0.8,-0.4 1.1,-0.6 0.5,-0.3 0.9,-0.5 2.3,-1 0.3,-0.1 0.5,0.2 0.3,0.4 -0.1,0 0,0 -1.4,0.5 -0.5,0.3 -1.8,1.2 -2.4,1.2"
   id="path4156" />
	<path
   d="m 163.8,272.5 c -0.5,0.6 -1.5,1.7 -2.1,1.3 -0.3,-0.2 -0.5,-0.8 0.3,-2.4 1.1,-2.2 3.8,-4.1 4.9,-4.8 l 0.3,0.5 c -1.1,0.7 -3.7,2.5 -4.7,4.6 -0.6,1.3 -0.5,1.7 -0.4,1.7 0.1,0 0.6,-0.1 1.4,-1.2 0.3,-0.4 0.8,-0.9 1.7,-1.6 0.1,-0.1 0.3,-0.1 0.4,0 0.1,0.1 0.1,0.3 0,0.4 -1,0.7 -1.6,1.2 -1.8,1.5"
   id="path4158" />
	<path
   d="m 165.4,271 c -0.3,0.2 -0.6,-0.2 -0.3,-0.4 1.2,-1 2.5,-2 2.5,-2 0.1,-0.1 0.3,-0.1 0.4,0.1 0.1,0.1 0.1,0.3 -0.1,0.4 0,0 -1.3,0.9 -2.5,1.9"
   id="path4160" />
	<path
   d="m 159.8,280.3 c -0.5,0 -0.8,-0.4 -0.8,-0.9 -0.1,-0.8 0.2,-1.9 0.8,-3 0.1,-0.1 0.2,-0.2 0.4,-0.1 0.1,0.1 0.2,0.2 0.1,0.4 -0.6,1 -0.8,2 -0.7,2.6 0,0.4 0.2,0.5 0.4,0.5 0.6,-0.2 1.5,-1.8 2.5,-4.3 0.9,-2.3 2.3,-4.4 2.6,-4.9 0.2,-0.3 0.6,0.1 0.4,0.4 -0.3,0.4 -1.6,2.4 -2.5,4.7 -0.5,1.2 -1.9,4.6 -3.2,4.6"
   id="path4162" />
	<path
   d="m 172.2,267.6 c -2,1.3 -3.7,3.6 -4.6,1.4 0,0 0,-0.1 0,-0.1 -0.6,-1.6 1.9,-2.9 3.4,-3.5 0.1,0 0.3,0 0.3,0.2 0,0.1 0,0.3 -0.2,0.3 -0.7,0.3 -2.6,1.1 -3.1,2.1 -0.1,0.2 -0.1,0.5 0,0.7 0.2,0.3 0.3,0.5 0.5,0.6 0.6,0.2 1.8,-1.2 3.4,-2.2 1.9,-1.2 3.5,-1.2 3.6,-1.2 0.1,0 0.3,0.1 0.3,0.3 0,0.2 -0.1,0.3 -0.3,0.3 0,0 -1.6,0 -3.3,1.1"
   id="path4164" />
	<path
   d="m 181.6,267.6 c 0.2,0.2 0,0.6 -0.3,0.4 -0.7,-0.2 -2.1,-0.6 -2.8,-0.5 -0.9,0.1 -2.5,0.6 -3.1,-0.1 -0.2,-0.3 -0.3,-0.7 -0.1,-1.3 0.7,-2 4.9,-0.7 5.4,-0.5 0.1,0 0.2,0.2 0.2,0.3 0,0.1 -0.2,0.2 -0.3,0.2 -1.2,-0.4 -4.3,-1.1 -4.7,0.2 -0.1,0.3 -0.1,0.6 0,0.7 0.4,0.4 2,0 2.6,-0.1 0.9,-0.1 2.3,0.3 3.1,0.5 0,0.1 0,0.1 0,0.2"
   id="path4166" />
	<path
   d="m 155.9,286.8 c -0.3,0.1 -0.6,0.1 -0.9,-0.1 -1.1,-0.8 0.6,-5.5 0.6,-5.6 0.5,-1.4 1.9,-5.1 1.9,-5.1 l 0.5,0.2 c 0,0 -1.4,3.6 -1.9,5.1 -0.7,1.9 -1.2,4.6 -0.8,5 0.1,0.1 0.2,0.1 0.4,0 0.6,-0.3 1.5,-1.5 1.7,-2.9 0.3,-1.9 1.4,-3.8 1.6,-4.2 0.1,-0.4 0.7,-0.1 0.5,0.2 0,0 -1.2,2.1 -1.5,4 -0.4,1.8 -1.3,3.1 -2.1,3.4"
   id="path4168" />
	<path
   d="m 174.1,283.3 c -0.3,0 -0.4,-0.4 -0.1,-0.5 0.6,-0.3 1.1,-0.6 1.4,-0.9 1.1,-1.1 1.5,-1.4 2.8,-1.5 1.8,-0.3 2.6,-1 4,-2.4 0.8,-0.8 1.3,-1.4 3.4,-2.1 2.2,-0.7 2.8,-1 2.9,-1.3 0,0 0,-0.1 0,-0.1 -0.1,-0.1 -0.9,-0.1 -1.3,-0.1 -1.5,0.1 -0.8,0 -2.9,-0.2 -0.9,-0.1 -1.7,-0.1 -2.2,-0.4 -0.2,-0.1 -0.8,-0.4 -0.9,-0.3 0,0 0,0.1 0,0.1 0,0.5 0.5,0.7 1.1,0.7 0.8,0.1 1.1,0.6 1.2,0.9 0,0.1 -0.1,0.3 -0.2,0.3 -0.1,0 -0.3,-0.1 -0.3,-0.2 0,0 -0.1,-0.4 -0.7,-0.5 -0.8,-0.1 -1.6,-0.4 -1.5,-1.3 0,-0.2 0.1,-0.4 0.3,-0.5 0.3,-0.2 0.6,-0.1 1.5,0.3 0.5,0.2 2.7,0.3 3.5,0.5 0.9,0.2 3,-0.5 3,0.6 0,0 0,0.1 0,0.1 -0.1,0.7 -0.8,1 -3.2,1.8 -2,0.6 -2.4,1.1 -3.2,1.9 -1.4,1.5 -2.3,2.2 -4.3,2.5 -1.2,0.2 -1.5,0.3 -2.5,1.4 -0.7,0.7 -1.7,1.2 -1.8,1.2"
   id="path4170" />
	<path
   d="m 167.8,288 c 0.3,0.1 0.2,0.6 -0.1,0.5 -0.7,-0.2 -1.8,-1 -1.7,-2.5 0,-0.2 0.1,-0.4 0.1,-0.6 0.7,-2.3 2.7,-2.1 2.7,-2.1 0.1,0 0.3,0.1 1.8,0.2 0.7,0 2.2,-0.2 3.5,-0.7 0.1,-0.1 0.3,0 0.3,0.2 0.1,0.1 0,0.3 -0.1,0.3 -1.2,0.5 -2.8,0.9 -3.7,0.8 -1.1,-0.1 -1.7,-0.2 -1.8,-0.2 -0.1,0 -1.6,-0.2 -2.2,1.7 0,0.2 -0.1,0.3 -0.1,0.5 -0.2,1.4 1.2,1.9 1.3,1.9"
   id="path4172" />
	<path
   d="m 153.2,285.9 c -0.5,0 -0.7,-0.5 -0.7,-1 0,-0.2 0,-0.6 0.1,-1 0.5,-2.3 2.1,-6.7 3.9,-10.1 2.3,-4.3 8.1,-9.9 8.1,-9.9 0.3,-0.2 0.6,0.2 0.4,0.4 -0.1,0.1 -5.7,5.6 -8,9.8 -2,3.8 -3.5,8.1 -3.9,10 -0.1,0.4 -0.1,0.7 -0.1,0.8 0,0.3 0.1,0.4 0.2,0.4 0.2,0 1.1,-0.6 2.4,-4.3 0,-0.1 0,-0.1 0.1,-0.2 0.1,-0.3 0.6,-0.2 0.5,0.2 -0.4,1.2 -1.8,4.9 -3,4.9"
   id="path4174" />
	<path
   d="m 145.3,290.8 c -0.2,0 -0.3,-0.2 -0.2,-0.4 0.1,-0.1 1.5,-2.2 3.3,-3.8 0.5,-0.5 2.6,-2 4.3,-2.8 0.1,-0.1 0.3,0 0.3,0.1 0.1,0.1 0,0.3 -0.1,0.4 -1.7,0.8 -3.7,2.2 -4.1,2.7 l -0.2,-0.2 0.1,0.3 c -1.8,1.6 -3.2,3.7 -3.2,3.7 -0.1,-0.1 -0.1,0 -0.2,0"
   id="path4176" />
	<path
   d="m 165.2,281.9 c -0.6,0 -1.1,-0.3 -1.6,-0.9 -1.5,-1.8 0.5,-4.6 0.5,-4.7 0.1,-0.1 0.2,-0.1 0.4,-0.1 0.1,0.1 0.1,0.3 0.1,0.4 0,0 -1.8,2.5 -0.6,4 0.4,0.4 0.8,0.7 1.2,0.7 0.9,0 1.7,-1 1.7,-1 0.1,-0.1 0.3,-0.1 0.4,0 0.1,0.1 0.1,0.3 0,0.4 0,0.1 -0.9,1.2 -2.1,1.2"
   id="path4178" />
	<path
   d="m 181.2,277 c -0.2,0 -0.3,-0.2 -0.2,-0.4 0.4,-0.6 0.2,-0.7 1.3,-0.9 0.5,-0.1 0.7,-0.2 0.7,-0.2 0,-0.1 0.1,-0.3 0.3,-0.3 0.1,0 0.3,0.1 0.3,0.3 0,0.1 -0.1,0.6 -1.1,0.7 -0.6,0.1 -0.6,0.1 -0.7,0.3 -0.4,0.3 -0.4,0.5 -0.6,0.5"
   id="path4180" />
	<path
   d="m 181.3,276.9 c -0.2,0.3 -0.7,0.1 -0.4,-0.3 0.2,-0.4 0.7,0 0.4,0.3"
   id="path4182" />
	<path
   d="m 180.9,276.6 c 0.5,-1 0.4,-1.5 0.3,-1.8 0,-0.1 -0.3,-0.8 -0.5,-1.1 -0.3,-0.5 -0.7,-1 -1.9,-1.2 -2.9,-0.4 -3.5,3.3 -2,4.9 0.5,0.5 1.2,0.8 1.7,0.8 1.8,-0.1 2.4,-1.4 2.4,-1.6 z m -2.3,2.1 c -1.5,0 -3,-1.3 -3,-3.4 0,-2.1 1.3,-3.5 3.4,-3.2 1.5,0.2 2.1,1 2.6,2.2 0.2,0.6 0.5,1.1 -0.1,2.5 0,0 0,0.1 0,0.1 -0.4,0.9 -1.5,1.8 -2.9,1.8"
   id="path4184" />
	<path
   d="m 181.2,277 c -0.1,0 -0.3,-0.1 -0.3,-0.3 0,-0.2 0.3,-0.4 0.5,-0.2 0.1,0.2 0,0.5 -0.2,0.5"
   id="path4186" />
	<path
   d="m 172.5,280.2 c -0.3,0.2 -0.6,-0.2 -0.3,-0.4 0.6,-0.5 0.6,-1.2 0.6,-2.2 0,-1.1 0.3,-2.4 1.1,-2.8 0.7,-0.3 1.9,-0.9 1.9,-0.9 l 0.2,0.5 c 0,0 -1.2,0.5 -1.9,0.9 -0.6,0.2 -0.8,1.3 -0.8,2.2 0,1.1 0,2 -0.8,2.7"
   id="path4188" />
	<path
   d="m 168.9,283.8 c -0.4,0.2 -0.6,-0.3 -0.2,-0.5 0.2,-0.1 0.4,-0.5 0.6,-0.8 0.6,-0.9 0.3,-0.4 0.7,-1.1 0.6,-0.9 1,-1 1.9,-1.4 1.3,-0.6 2.1,-1 3.3,-1.7 0.1,-0.1 0.3,0 0.3,0.1 0.1,0.1 0,0.3 -0.1,0.4 -0.2,0.1 -2.1,1.1 -3.3,1.7 -1,0.5 -1.3,0.5 -1.7,1.2 -0.4,0.6 -0.2,0.2 -0.7,1.1 -0.3,0.5 -0.5,0.9 -0.8,1"
   id="path4190" />
	<path
   d="m 173.8,283 c 0,-0.1 0,-0.1 0,-0.1 0,0 0,0.1 0,0.1 z m 3.5,2.5 c -1.2,0.9 -2.6,1.3 -3.7,0.4 -1,-0.9 -0.6,-2.1 0.3,-3.1 0.2,-0.3 0.6,0.2 0.3,0.4 -0.2,0.2 -0.7,0.8 -0.7,1.5 0,0.3 0.1,0.6 0.4,0.8 1.1,1 2.5,0.1 3.1,-0.4 0,0 0.1,-0.1 0.1,-0.1 0.1,-0.1 0.1,-0.1 0.2,-0.1 0.2,-0.2 0.6,0.1 0.4,0.4 -0.1,0 -0.3,0.2 -0.4,0.2"
   id="path4192" />
	<path
   d="m 177.5,289.2 c -1,0 -1.8,-0.9 -1.8,-1.8 0,-0.9 0.8,-1.9 1.4,-2.4 0.1,-0.1 0.3,-0.1 0.4,0.1 0.1,0.1 0.1,0.3 -0.1,0.4 -1,0.9 -1.7,2 -0.7,2.9 0.8,0.7 1.7,0.1 2.4,-0.4 0.6,-0.5 1.1,-1.2 1.1,-1.2 0.1,-0.1 0.3,-0.1 0.4,0 0.1,0.1 0.1,0.3 0,0.4 -0.6,0.8 -1.9,2 -3.1,2"
   id="path4194" />
	<path
   d="m 184.2,288.6 c -0.2,0.3 -0.6,-0.1 -0.4,-0.4 0.8,-0.9 1.5,-1.4 1.5,-1.5 0.3,-0.2 0.6,0.2 0.3,0.4 0.1,0.1 -0.6,0.7 -1.4,1.5"
   id="path4196" />
	<path
   d="m 182.6,290.5 c -0.2,0 -0.3,-0.3 -0.2,-0.5 0.1,-0.1 0.5,-0.8 1.4,-1.8 0.1,-0.1 0.3,-0.1 0.4,0 0.1,0.1 0.1,0.3 0,0.4 -1.3,1.4 -1.3,1.9 -1.6,1.9"
   id="path4198" />
	<path
   d="m 180.2,291.9 c -2,0 -2.3,-2.2 -1.1,-3.9 0.1,-0.1 0.3,-0.1 0.4,-0.1 0.1,0.1 0.1,0.3 0.1,0.4 0,0 -1.1,1.5 -0.4,2.6 0.5,0.7 1.9,0.8 3.1,-0.6 0.2,-0.3 0.6,0.1 0.4,0.4 -0.7,0.7 -1.6,1.2 -2.5,1.2"
   id="path4200" />
	<path
   d="m 179,295.4 c -0.3,0 -0.6,-0.1 -0.8,-0.3 -0.2,-0.1 -0.6,-0.2 -0.8,-1.6 0,-0.1 0.1,-0.3 0.3,-0.3 0.1,0 0.3,0.1 0.3,0.3 0.1,0.8 0.3,1 0.4,1 h 0.1 c 0.6,0.3 1,0.5 1.6,-0.8 0.1,-0.2 0.2,-0.4 0.3,-0.6 0.4,-1.1 3.1,-4.5 3.6,-5 0.2,-0.2 0.6,0.1 0.4,0.4 -0.5,0.6 -3.1,3.9 -3.5,4.9 -0.5,0.9 -1,2 -1.9,2"
   id="path4202" />
	<path
   d="m 177.8,293.9 c -2.3,1.3 -4.1,-0.7 -3.1,-3.3 0.1,-0.3 0.6,-0.1 0.5,0.2 -0.8,2 0.5,3.7 2.4,2.6 0.5,-0.3 0.8,-0.6 0.8,-0.6 0.1,-0.1 0.3,-0.1 0.4,0 0.1,0.1 0.1,0.3 0,0.4 -0.2,0 -0.5,0.4 -1,0.7"
   id="path4204" />
	<path
   d="m 174.9,290.9 c -0.2,0 -0.3,-0.2 -0.2,-0.4 0.1,-0.3 0.5,-0.2 0.5,0.1 0,0.2 -0.1,0.3 -0.3,0.3"
   id="path4206" />
	<path
   d="m 173.9,291.3 c -0.4,0 -0.9,-0.2 -1.4,-0.7 -0.7,-0.8 -0.8,-1.8 -0.5,-2.8 0.2,-0.5 0.4,-0.9 0.4,-0.9 0.1,-0.1 0.2,-0.1 0.4,-0.1 0.1,0.1 0.1,0.3 0.1,0.4 0,0 -0.2,0.3 -0.4,0.7 -0.3,0.8 -0.2,1.7 0.3,2.3 0.6,0.6 1.2,0.7 1.8,0.3 0,0 0,0 0.1,0 0.3,-0.2 0.5,-0.5 0.5,-0.5 0.2,-0.3 0.6,0.1 0.4,0.3 -0.3,0.5 -1,1 -1.7,1"
   id="path4208" />
	<path
   d="m 172.4,288.1 c -1.7,0.9 -3.3,0.6 -3.7,-1.4 -0.4,-1.6 1.2,-2.8 1.6,-3.1 0.2,-0.2 0.5,-0.1 0.5,0.2 0,0.1 -0.1,0.2 -0.1,0.2 -0.4,0.3 -1.7,1.3 -1.4,2.5 0.1,0.6 0.4,1.1 0.9,1.3 0.8,0.3 1.8,-0.2 2,-0.3 0,0 0.1,0 0.1,-0.1 0.1,-0.1 0.3,0 0.3,0.1 0,0.3 0,0.5 -0.2,0.6"
   id="path4210" />
	<path
   d="m 169.2,291.4 c -1.1,0 -1.7,-0.7 -1.9,-1.8 -0.2,-1.5 0.5,-2.7 1.6,-3 0.1,0 0.3,0 0.3,0.2 0,0.1 0,0.3 -0.2,0.3 -0.8,0.2 -1.4,1.1 -1.2,2.4 0.3,2.2 2.5,1.2 4.4,0.3 0.2,-0.2 0.6,0.2 0.3,0.4 0,0 -0.1,0 -0.1,0.1 -0.7,0.5 -2.1,1.1 -3.2,1.1"
   id="path4212" />
	<path
   d="m 175.3,293.7 c -3.1,2.1 -5.5,-1.3 -3,-3.8 0.1,-0.1 0.3,-0.1 0.4,0 0.1,0.1 0.1,0.3 0,0.4 0,0 -1.5,1.6 -0.5,2.9 1,1.3 2.6,0.3 3,0.1 0.2,-0.2 0.5,0.3 0.1,0.4"
   id="path4214" />
	<path
   d="m 167.1,290.8 c -1.9,0 -3.3,-0.8 -3.2,-2.8 0,-0.1 0,-0.2 0,-0.3 0.2,-1.4 1.5,-1.9 2.1,-2 0.3,0 0.4,0.5 0,0.5 0,0 -1.5,0.2 -1.7,1.6 0,0 0,0.1 0,0.1 -0.1,1.9 1.5,2.4 3.3,2.2 0.1,0 0.3,0.1 0.3,0.2 0,0.1 -0.1,0.3 -0.2,0.3 0.1,0.2 -0.2,0.2 -0.6,0.2"
   id="path4216" />
	<path
   d="m 172,294.7 c -0.9,1.1 -2.5,2.3 -3.8,1.6 -1.1,-0.6 -1.1,-1.7 -1,-2.4 -1.6,1.1 -3.1,0.8 -3.9,-0.9 -0.9,-2 1,-3.5 1,-3.5 0.1,-0.1 0.3,-0.1 0.4,0 0.1,0.1 0.1,0.3 0,0.4 -0.1,0.1 -1.5,1.3 -0.8,2.9 0.8,1.7 2.2,1.6 3.6,0.4 0.1,-0.1 0.2,-0.1 0.3,0 0.2,0.1 0.1,0.3 0.1,0.5 -0.2,0.8 -0.3,1.7 0.6,2.3 0.8,0.4 1.7,-0.2 2.3,-0.7 0.5,-0.4 0.8,-0.8 0.8,-0.8 0.1,-0.1 0.3,-0.1 0.4,0 0.1,-0.1 0.1,0.1 0,0.2"
   id="path4218" />
	<path
   d="m 173.8,297.9 c -1.4,0 -2.7,-1.1 -3,-2.5 -0.2,-0.4 0.4,-0.5 0.5,-0.2 0.1,0.1 0.3,1.5 1.7,2 1.2,0.5 2.5,-0.3 3.1,-0.8 0.5,-0.4 0.8,-0.7 0.8,-0.7 0.1,-0.1 0.3,-0.1 0.4,0 0.1,0.1 0.1,0.3 0,0.4 -1,1 -2.2,1.8 -3.5,1.8"
   id="path4220" />
	<path
   d="m 179.4,297.8 c -0.2,0 -0.4,-0.3 -0.2,-0.5 0.1,-0.1 0.3,-0.2 0.5,-0.4 0.9,-0.9 0.3,-2.7 0.3,-2.8 0,-0.1 0,-0.3 0.2,-0.3 0.1,0 0.3,0 0.3,0.2 0,0.1 0.7,2.2 -0.5,3.3 -0.2,0.2 -0.3,0.3 -0.5,0.5 0,0 -0.1,0 -0.1,0"
   id="path4222" />
	<path
   d="m 179.5,297.7 c -0.7,0.6 -1.3,0.8 -2.2,0.7 -0.9,-0.2 -1.3,-1.6 -1.3,-1.6 0,-0.1 0,-0.3 0.2,-0.3 0.1,0 0.3,0 0.3,0.2 0.1,0.3 0.4,1.1 1,1.3 0.5,0.1 1,0.1 1.7,-0.6 0.1,-0.1 0.3,-0.1 0.4,0 0,0.1 0,0.2 -0.1,0.3"
   id="path4224" />
	<path
   d="m 148.7,286.5 c 0.2,0.3 -0.3,0.6 -0.5,0.3 -1.7,-3.2 -8.6,-15.4 -10.9,-18.2 -0.7,-0.9 -1.9,-2.1 -3.5,-3.8 -0.1,-0.1 -0.1,-0.3 0,-0.4 0.1,-0.1 0.3,-0.1 0.4,0 1.6,1.7 2.8,2.9 3.6,3.8 2.4,3 9.1,15 10.9,18.3"
   id="path4226" />
	<path
   d="m 134,264.9 c -0.2,0 0.4,0.4 -6.6,-6.3 -2.9,-2.7 -3,-2.8 -4.8,-5 -1.1,-1.3 -2.3,-2.9 -2.8,-2.6 0,0 -0.1,0.1 -0.1,0.1 -0.3,1 1.4,4.6 2.1,5.8 0.1,0.1 0,0.3 -0.1,0.4 -0.1,0.1 -0.3,0 -0.4,-0.1 0,0 -2.6,-4.8 -2.2,-6.3 0.1,-0.2 0.2,-0.4 0.4,-0.5 0.9,-0.3 2,1 3.4,2.8 1.8,2.2 1.8,2.3 4.7,5 2,1.8 4.6,4.4 6.5,6.2 0.3,0.2 0.2,0.5 -0.1,0.5"
   id="path4228" />
	<path
   d="m 123.1,258.8 c 0.2,0.3 -0.2,0.6 -0.4,0.3 -0.6,-0.8 -0.9,-1.4 -1.1,-1.7 -0.2,-0.3 0.3,-0.6 0.4,-0.3 0.2,0.3 0.5,0.8 1.1,1.7"
   id="path4230" />
	<path
   d="m 127.2,264.9 c 0.2,0.3 -0.2,0.6 -0.4,0.3 -0.1,-0.1 -3,-4.5 -4.1,-6.1 -0.1,-0.1 0,-0.3 0.1,-0.4 0.1,-0.1 0.3,-0.1 0.4,0.1 2.4,3.6 3.6,5.3 4,5.9 0,0 0,0 0.1,0.1 l -0.1,0.1"
   id="path4232" />
	<path
   d="m 126.4,264.5 c -0.2,0 0.1,0.2 -4.8,-7 -0.2,-0.3 0.2,-0.6 0.4,-0.3 l 4.6,6.9 c 0.1,0.1 0,0.4 -0.2,0.4"
   id="path4234" />
	<path
   d="m 121.8,257.5 c -0.2,0 -0.2,-0.1 -0.4,-0.3 -0.1,-0.1 0,-0.3 0.1,-0.4 0.1,-0.1 0.3,0 0.4,0.1 0,0.1 0.1,0.1 0.1,0.2 0.1,0.2 0,0.4 -0.2,0.4"
   id="path4236" />
	<path
   d="m 120.7,262.4 c 0.3,0.3 -0.2,0.7 -0.5,0.3 -4.4,-6.1 -3.1,-8.7 2.8,-4 0.1,0 0.1,0.1 0.1,0.1 0.3,0.2 -0.1,0.7 -0.4,0.4 -0.1,0 -2.4,-2 -3.8,-2.3 -2.1,-0.6 0.4,3.7 1.8,5.5 0,0 0,0 0,0"
   id="path4238" />
	<path
   d="m 129.3,270.4 c 0.2,0.3 -0.3,0.6 -0.5,0.2 0,0 -1.4,-2.9 -2,-5.5 -0.3,-1.5 -0.3,-2.6 0.1,-3.3 0.8,-1.6 2.2,-1.8 3.5,-1.1 0.1,0.1 0.2,0.2 0.1,0.4 -0.1,0.1 -0.2,0.2 -0.4,0.1 0,0 0,0 -0.1,-0.1 -0.5,-0.3 -1.8,-0.7 -2.6,0.9 -0.9,1.8 1.1,6.6 1.9,8.4"
   id="path4240" />
	<path
   d="m 129.1,270.8 c -0.3,0 -0.4,-0.5 -0.1,-0.6 0.1,0 0.3,0 0.3,0.2 0.1,0.2 0,0.4 -0.2,0.4"
   id="path4242" />
	<path
   d="m 135.1,274.2 c 0,0 0,-0.1 0,0 -2,-4 -5,-8.2 -3.5,-9.6 0.6,-0.6 1.5,-0.7 2.5,-0.1 0.1,0 0.5,0.3 0.6,0.4 0.3,0.2 -0.1,0.6 -0.3,0.4 0,0 -0.2,-0.2 -0.5,-0.3 -0.5,-0.3 -1.3,-0.6 -1.9,0 -1.1,1.1 1.9,5.5 3.5,9 l -0.4,0.2"
   id="path4244" />
	<path
   d="m 135.1,274.2 c -1.2,-0.9 -2.2,-1.5 -2.7,-1.6 -1,-0.1 -1.6,-0.2 -1.6,-0.2 -0.1,0 -0.2,-0.1 -0.2,-0.3 0,-0.1 0.1,-0.3 0.3,-0.2 0,0 0.6,0.1 1.6,0.2 0.8,0.1 2,1 3,1.7 -0.3,0.2 -0.2,0.2 -0.4,0.4"
   id="path4246" />
	<path
   d="m 141.5,279.2 c 0.2,0.2 -0.1,0.6 -0.4,0.3 -1.1,-1.4 -4.5,-5.7 -3,-6.5 1.5,-0.8 4.2,2.6 4.5,3 0.1,0.1 0.1,0.3 0,0.4 -0.1,0.1 -0.3,0.1 -0.4,0 -1,-1.3 -3,-3.3 -3.9,-2.8 0,0 -0.1,0.1 -0.1,0.2 -0.2,1 3,5 3.3,5.4"
   id="path4248" />
	<path
   d="m 142.6,283.3 c 0.2,0.2 -0.1,0.6 -0.4,0.4 -0.2,-0.2 -2.3,-2.3 -2.5,-2.4 -1,-0.9 -2.2,-2.2 -1.2,-3.1 0.9,-0.7 2.3,0.4 2.9,1 0.1,0.1 0.1,0.3 0,0.4 -0.1,0.1 -0.3,0.1 -0.4,0 -0.8,-0.7 -1.8,-1.3 -2.2,-1 -0.1,0.1 -0.2,0.2 -0.2,0.4 0,0.6 0.8,1.4 1.4,1.9 0.3,0.2 2.4,2.2 2.6,2.4"
   id="path4250" />
	<path
   d="m 141.5,286.3 c -0.2,0 -0.6,-0.1 -1.2,-0.2 -0.1,0 -0.2,-0.2 -0.2,-0.3 0,-0.1 0.2,-0.2 0.3,-0.2 0.1,0 0.3,0.1 0.4,0.1 -0.6,-0.6 -1.6,-1.5 -1.4,-2.5 0,-0.4 0.2,-0.5 0.4,-0.6 0.6,-0.3 1.8,0.2 2.7,0.7 l -0.3,0.5 c -1,-0.6 -1.9,-0.9 -2.2,-0.7 0,0 -0.1,0.1 -0.1,0.2 -0.1,1.1 1.6,2.3 1.9,2.6 0.1,0.1 0.1,0.3 0,0.4 0,0 -0.1,0 -0.3,0"
   id="path4252" />
	<path
   d="m 119,256.9 c -0.1,0 -0.2,0 -0.2,-0.1 -0.1,-0.1 -8.6,-11.4 -11.6,-14.7 -3,-3.3 -11.7,-13.9 -13.8,-17.1 -3,-4.6 -3,-8.2 -1.7,-12.7 0.1,-0.2 0.2,-0.9 0.8,-0.9 0.9,-0.1 2,1.8 4.7,6.4 6.7,12 7.9,13.1 22.6,33 0.2,0.3 -0.2,0.6 -0.4,0.3 -14.8,-20.1 -16,-21.3 -22.6,-33.1 -1.9,-3.3 -3.5,-6.2 -4.1,-6.2 -0.1,0 -0.2,0.2 -0.3,0.5 -1.3,4.5 -1.2,7.9 1.6,12.3 2.1,3.1 10.7,13.7 13.8,17 3,3.3 11.6,14.6 11.7,14.7 -0.1,0.3 -0.3,0.6 -0.5,0.6"
   id="path4254" />
	<path
   d="m 116.7,260 c -0.1,0 -0.1,0 -0.2,-0.1 0,-0.1 -5.4,-6.6 -13.2,-13.8 -7.6,-7 -9.2,-10.3 -10.9,-14.7 -1.5,-3.9 -0.4,-8.4 -0.4,-8.6 0,-0.1 0.2,-0.2 0.3,-0.2 0.1,0 0.2,0.2 0.2,0.3 0,0 -1.1,4.5 0.4,8.3 1.7,4.3 3.2,7.5 10.8,14.6 7.9,7.3 13.2,13.8 13.2,13.9 0.2,0.1 0,0.3 -0.2,0.3"
   id="path4256" />
	<path
   d="m 96.5,246.1 c 0.2,0.3 -0.2,0.6 -0.4,0.3 -0.7,-0.9 -4.2,-7.3 -3.4,-9.4 0.6,-1.5 1.5,-1.7 2.3,-1.1 0.1,0.1 0.1,0.3 0,0.4 -0.1,0.1 -0.3,0.1 -0.4,0 0,0 -0.3,-0.2 -0.6,-0.1 -0.3,0.1 -0.6,0.4 -0.8,1 -0.7,1.9 2.6,8 3.3,8.9"
   id="path4258" />
	<path
   d="m 142.8,290.5 c -0.3,0 0,0.1 -2.8,-4.4 -2.2,-3.7 -5.9,-9.5 -8.7,-12.8 -0.8,-1 -2.4,-2.5 -2.5,-2.6 -3.4,-3.6 -8.2,-8 -12.3,-10.6 -2.2,-1.4 -3,-1.7 -6.1,-3 -1.2,-0.5 -2,-0.9 -2.2,-0.8 -0.1,0.1 0,0.7 0.1,1.2 0.2,2.1 5.9,7.3 7.4,8.6 l 5.2,4.6 -0.3,0.4 c -4.2,-3.8 -8.1,-7.1 -10.7,-10.1 -1.3,-1.5 -2,-2.7 -2.1,-3.5 -0.1,-0.8 -0.2,-1.4 0.1,-1.6 0.5,-0.4 1.4,0.2 5.4,1.9 5.9,2.5 13.1,9.6 17.6,14.4 l -0.2,0.2 0.2,-0.1 c 3.4,3.5 9.6,13.7 12,18 0.2,0 0.1,0.2 -0.1,0.2"
   id="path4260" />
	<path
   d="m 152.5,296.7 c -0.6,0 -1.5,-0.4 -1.5,-1.1 0,-0.6 0.6,-1.3 1.1,-1.6 -1.8,0.1 -4.7,3 -6.3,1.8 -1,-0.7 -0.9,-1.8 -0.1,-2.6 -0.7,0.2 -1.6,0.5 -2.4,1 -1.1,0.7 -2.2,0.8 -2.7,-0.5 0,-0.1 0,-0.3 0.2,-0.3 0.1,-0.1 0.3,0 0.3,0.2 0.1,0.2 0.2,0.5 0.5,0.6 0.3,0.1 0.8,0 1.4,-0.4 1.4,-0.9 3.8,-1.4 4.1,-1.2 0.1,0.1 0.1,0.2 0.1,0.3 0,0.2 -0.2,0.3 -0.4,0.3 -0.6,0.2 -1.2,0.8 -1.3,1.3 -0.1,0.4 0.1,0.7 0.5,1 0.5,0.4 1.2,0.3 3.6,-1 2.4,-1.4 3.1,-0.8 3.2,-0.6 0.1,0.1 0.1,0.3 -0.1,0.4 -0.6,0.4 -1.4,1.1 -1.3,1.5 0,0.1 0,0.2 0.3,0.4 1.9,0.9 3.7,-2.7 6.4,-3.6 -3.7,-1.3 -4.2,-1.1 -7.1,-1.2 -1.8,-0.1 -7.3,-0.2 -8.5,-0.7 -0.1,-0.1 -0.2,-0.2 -0.1,-0.4 0.1,-0.1 0.2,-0.2 0.3,-0.1 1.6,0.5 7.2,0.6 10.8,0.7 1.9,0.1 5.6,1.5 5.8,1.5 0.3,0.1 0.2,0.6 -0.1,0.5 -2.5,-0.1 -4.5,3.8 -6.7,3.8"
   id="path4262" />
	<path
   d="m 120.3,275.3 c 0,0 -0.1,0 -0.1,0 -3.2,-1.8 -7.3,-5 -9.4,-8.3 -0.8,-1.5 -1.6,-3.3 -1.4,-5 0.1,-0.9 0.5,-1.4 0.5,-1.4 0.1,-0.1 0.3,-0.1 0.4,0 0.1,0.1 0.1,0.3 0,0.4 0,0 -0.3,0.4 -0.4,1.1 -0.2,1.6 0.6,3.3 1.4,4.6 2,3.3 6.1,6.3 9.2,8.1 0.1,0.2 0,0.5 -0.2,0.5"
   id="path4264" />
	<path
   d="m 121.8,279.8 c -0.2,0 -7.7,-3.9 -9.3,-6.1 -0.5,-0.7 -0.9,-1.7 -1,-2.7 -0.3,-1.6 0,-3 0,-3 0.1,-0.4 0.6,-0.2 0.5,0.1 -0.3,1.6 0,3.9 1,5.3 1.4,1.9 6.9,4.9 9,5.9 0.2,0.1 0.1,0.5 -0.2,0.5"
   id="path4266" />
	<path
   d="m 125.9,285.8 c -0.1,0 0.1,0.1 -5.6,-2.5 -3.5,-1.6 -4.4,-2.7 -5.5,-4.3 -0.4,-0.7 -0.8,-1.2 -1,-2.4 -0.2,-1 -0.1,-1.8 -0.1,-1.8 0,-0.4 0.6,-0.3 0.5,0.1 0,0 -0.1,0.8 0.1,1.7 0.2,1.2 0.5,1.7 0.9,2.2 1,1.5 1.8,2.5 5.3,4.1 4,1.8 5.5,2.4 5.5,2.4 0.3,0.1 0.2,0.5 -0.1,0.5"
   id="path4268" />
	<path
   d="m 118.1,286.1 c -0.1,0 -0.2,-0.1 -0.2,-0.2 -1,-2.2 -0.4,-4.2 -0.4,-4.3 0,-0.1 0.2,-0.2 0.3,-0.2 0.1,0 0.2,0.2 0.2,0.3 0,0 -0.6,1.8 0.4,3.9 0,0.3 -0.1,0.5 -0.3,0.5"
   id="path4270" />
	<path
   d="m 126.1,291.1 c -1,0 -2.6,-0.3 -4.7,-1.5 -1.5,-1 -2.8,-2 -3.5,-3.7 -0.1,-0.1 0,-0.3 0.1,-0.4 0.1,-0.1 0.3,0 0.3,0.1 0.5,1.1 1.4,2.1 2.7,3 0.2,0.1 0.3,0.2 0.7,0.4 3.5,2.1 5.6,1.3 5.6,1.3 0.1,-0.1 0.3,0 0.3,0.1 0.1,0.1 0,0.3 -0.1,0.4 0,0.1 -0.5,0.3 -1.4,0.3"
   id="path4272" />
	<path
   d="m 133.3,295 c -1.6,0.4 -4.7,1 -6.4,0.5 -2.2,-0.6 -4.9,-2.1 -5.6,-4.4 -0.3,-1 -0.1,-1.7 -0.1,-1.7 0,-0.1 0.2,-0.2 0.3,-0.2 0.1,0 0.2,0.2 0.2,0.3 -0.4,2.7 2.8,4.7 5.4,5.4 2,0.6 6,-0.5 6.1,-0.5 0.1,0 0.3,0 0.3,0.2 0.1,0.2 0,0.4 -0.2,0.4"
   id="path4274" />
	<path
   d="m 131.8,301.1 c -1,0 -2.1,-0.2 -3,-0.7 -2.1,-1.2 -2.7,-2.6 -2.8,-3.5 -0.1,-1.1 0.3,-1.9 0.3,-1.9 0.1,-0.1 0.2,-0.2 0.4,-0.1 0.1,0.1 0.2,0.2 0.1,0.4 0,0 -0.4,0.7 -0.3,1.6 0.1,1.2 1,2.3 2.5,3.1 2.4,1.3 6.4,0.2 8.9,-0.9 0.3,-0.2 0.5,0.2 0.3,0.4 -0.1,0.2 -3.6,1.6 -6.4,1.6"
   id="path4276" />
	<path
   d="m 131,302.6 c 0.2,0.3 -0.3,0.6 -0.4,0.3 -0.7,-1.1 -0.7,-2 -0.7,-2 0,-0.4 0.5,-0.4 0.5,0 -0.1,-0.1 0,0.7 0.6,1.7"
   id="path4278" />
	<path
   d="m 135.6,305.8 c -2.2,0 -4.1,-1.4 -5.1,-3 -0.1,-0.1 0,-0.3 0.1,-0.4 0.1,-0.1 0.3,0 0.4,0.1 0.9,1.5 2.8,2.9 4.9,2.7 1.5,-0.1 2.6,-0.7 2.6,-0.7 0.1,-0.1 0.3,0 0.4,0.1 0.1,0.1 0,0.3 -0.1,0.4 -0.8,0.5 -2,0.8 -3.2,0.8"
   id="path4280" />
	<path
   d="m 133.4,294.5 c 0.3,0.2 0.1,0.6 -0.2,0.5 -2,-1.1 -6.7,-4.1 -7.3,-6.3 -0.2,-0.9 -0.3,-2.1 0.5,-2.5 -1.8,-1.3 -4.9,-4 -4.8,-6.3 0.1,-0.8 0.5,-1.2 1.2,-1.3 -1,-0.9 -2.2,-2.3 -2.7,-3.4 -1.1,-2.1 -0.2,-3.5 0.9,-3.7 -1.4,-1.7 -2.7,-4.2 -1.1,-5.8 2.2,-2.2 5.2,0.5 5.2,0.5 0.1,0.1 0.1,0.3 0,0.4 -0.1,0.1 -0.3,0.1 -0.4,0 -0.1,-0.1 -2.6,-2.4 -4.5,-0.5 -1.3,1.3 -0.1,3.4 0.7,4.5 0.4,0.6 0.7,0.9 0.8,1 0.1,0.1 0.2,0.2 0.1,0.3 0,0.1 -0.2,0.2 -0.3,0.2 -0.7,-0.1 -1.2,0.1 -1.4,0.7 -0.6,1.8 2.1,4.6 3.4,5.8 0.2,0.2 0.1,0.5 -0.2,0.5 -0.2,0 -1.2,-0.1 -1.3,0.9 -0.1,2 2.8,4.4 4,5.4 0.6,0.5 1.1,0.8 1.1,0.8 0.2,0.2 0.1,0.5 -0.2,0.5 0,0 -0.3,-0.1 -0.5,0.2 -0.3,0.3 -0.3,0.9 -0.1,1.8 0.6,1.9 5.3,4.8 7.1,5.8"
   id="path4282" />
	<path
   d="m 135.7,282.9 c -0.1,0 -0.1,0 -0.2,-0.1 0,0 -0.1,-0.1 -0.1,-0.1 -1.9,-2.1 -3.9,-4.8 -3.3,-5.8 0.8,-1.2 3.1,1.2 4.1,2.3 0.1,0.1 0.1,0.3 0,0.4 -0.1,0.1 -0.3,0.1 -0.4,0 -0.8,-1 -2.4,-2.5 -3.1,-2.5 -0.1,0 -0.1,0 -0.2,0.1 -0.3,0.4 0.6,2.2 3.2,5.1 0.4,0.3 0.3,0.6 0,0.6"
   id="path4284" />
	<path
   d="m 138.6,291.9 c -1.2,0.7 -2.4,0.7 -3.1,-0.5 -0.5,-1 -0.2,-1.8 0.8,-2.2 -1,-0.5 -2.6,-1.4 -2.6,-2.5 0,-0.8 0.5,-1.2 1.3,-1.3 -0.9,-0.7 -2.4,-2 -2.1,-3 0.1,-0.3 0.3,-0.5 0.5,-0.6 0.6,-0.3 1.7,0.2 2.4,0.7 l -0.3,0.4 c -0.6,-0.4 -1.9,-1.1 -2.1,-0.4 -0.2,0.8 1.5,2.2 2.6,2.9 0.2,0.2 0.1,0.6 -0.2,0.5 -0.3,-0.1 -1.1,-0.1 -1.5,0.2 -0.1,0.1 -0.2,0.3 -0.2,0.5 0,0.9 1.8,1.9 2.9,2.4 0.3,0.1 0.2,0.5 -0.1,0.5 -0.3,0 -1,0.2 -1.3,0.7 -0.1,0.2 -0.1,0.6 0.1,0.9 0.6,1.1 1.8,0.7 2.4,0.3 0.1,-0.1 0.3,0 0.4,0.1 0.3,0.2 0.2,0.3 0.1,0.4"
   id="path4286" />
	<path
   d="m 138.8,291.8 c -0.4,0.3 -0.6,-0.2 -0.4,-0.4 0,0 0.1,-0.1 0.1,-0.1 0.1,-0.1 0.2,-0.1 0.3,0 0.2,0.2 0.1,0.4 0,0.5"
   id="path4288" />
	<path
   d="m 138.5,291.9 c -0.3,0 -0.4,-0.3 -0.1,-0.5 0,0 0.1,-0.1 0.1,-0.1 0.3,-0.1 0.5,0.3 0.2,0.5 v 0 c -0.1,0.1 -0.1,0.1 -0.2,0.1"
   id="path4290" />
	<path
   d="m 138.7,291.9 c -0.3,0.2 -0.6,-0.3 -0.3,-0.5 0.3,-0.2 0.6,0.3 0.3,0.5"
   id="path4292" />
	<path
   d="m 138.8,293.9 c -1.7,0 -2.4,-1.2 -0.5,-2.4 0.1,-0.1 0.3,0 0.4,0.1 0.1,0.1 0,0.3 -0.1,0.4 -0.3,0.2 -1.1,0.8 -0.8,1.2 0.4,0.5 1.9,0.3 3.1,-0.1 l 6.5,-2.3 c 0.1,-0.1 0.3,0 0.3,0.2 0,0.1 0,0.3 -0.2,0.3 l -6.5,2.3 c -0.4,0.1 -1.4,0.3 -2.2,0.3"
   id="path4294" />
	<path
   d="m 141.7,296.5 c 0,0 0.1,0 0.1,-0.1 -0.1,0 -0.1,0 -0.1,0.1 z m -1.3,0.1 c -0.5,0 -1,-0.1 -1.4,-0.2 -1.5,-0.4 -1.6,-1.8 -1.6,-1.9 0,-0.3 0.5,-0.4 0.5,-0.1 0,0 0.1,1.1 1.2,1.4 0.5,0.1 1.3,0.3 2.3,0.1 0.2,-0.1 0.4,0.1 0.4,0.2 0,0.1 -0.1,0.2 -0.2,0.3 -0.1,0.1 -0.9,0.2 -1.2,0.2"
   id="path4296" />
	<path
   d="m 153.5,302.7 c -0.8,0 -1.4,-0.6 -1.5,-1.4 -0.1,-0.6 0.2,-1.2 0.5,-1.7 -1.7,0.6 -5.3,1.7 -6.4,0.8 -0.7,-0.6 -0.8,-1.4 -0.3,-2.2 -1,0.3 -2.7,0.5 -3.9,-0.1 -1.2,-0.7 -1.2,-1.6 -0.4,-2.1 0.1,-0.1 0.3,-0.1 0.4,0.1 0.1,0.1 0.1,0.3 -0.1,0.4 -0.6,0.4 -0.2,0.9 0.4,1.2 1.5,0.8 4.3,-0.2 4.3,-0.2 0.3,-0.1 0.5,0.3 0.3,0.5 0,0 -0.8,0.7 -0.7,1.3 0,0.3 0.1,0.5 0.4,0.7 0.9,0.7 4.6,-0.3 6.8,-1.1 0.3,-0.1 0.5,0.2 0.3,0.4 -0.3,0.3 -1,1.2 -0.9,2 0,0.3 0.2,0.6 0.5,0.8 0.9,0.6 3.1,-0.9 4.9,-2.5 0.2,-0.3 0.7,0.1 0.3,0.4 -1.4,1 -3.5,2.7 -4.9,2.7"
   id="path4298" />
	<path
   d="m 158.8,304.9 c -1.9,0 -1.4,-3.4 -1,-5.3 l 0.5,0.2 c -0.5,1.9 -0.7,4.2 0.2,4.6 1.3,0.5 5.3,-3.1 5.7,-4.7 0,0 0,-0.1 0,-0.1 0,-0.1 0.1,-0.3 0.3,-0.3 0.1,0 0.3,0.1 0.3,0.3 0,1.3 -4,5.3 -6,5.3"
   id="path4300" />
	<path
   d="m 164.5,299.8 c -0.2,0 -0.3,-0.2 -0.3,-0.3 0.3,-1.2 0.1,-4 0,-5.3 0,-0.3 0.5,-0.4 0.5,-0.1 0.1,1.3 0.3,4.2 0,5.5 0,0.1 -0.1,0.2 -0.2,0.2"
   id="path4302" />
	<path
   d="m 157.8,316 c -1.8,0 -2.5,-1.9 -2.8,-3.8 -1.1,1.4 -4.3,4.7 -7.4,2.6 -1.5,-1.1 -1,-3.1 -0.5,-4.2 -2.1,1.1 -4.7,1.8 -5.7,-0.5 -1.4,-3 1.2,-4.7 1.5,-4.9 0,0 0.1,0 0.1,0 0.3,0 0.4,0.4 0.1,0.5 -0.4,0.3 -2.4,1.6 -1.3,4.2 0.2,0.5 0.6,0.9 1.1,1.1 1.8,0.5 4.6,-1.3 4.6,-1.3 0.2,-0.2 0.5,0.1 0.4,0.4 0,0 -1.8,3.1 -0.1,4.3 3.3,2.3 7,-2.9 7,-3 0.1,-0.2 0.5,-0.1 0.5,0.1 0,0 0.2,3.4 1.8,3.8 1.8,0.5 3.9,-1.5 5.7,-5.6 2,-4.4 1.3,-9.9 1.3,-10.2 0,-0.1 0.1,-0.3 0.3,-0.3 0.1,0 0.3,0.1 0.3,0.3 0,0.2 0.7,5.9 -1.3,10.5 -1.7,3.8 -3.7,6 -5.6,6"
   id="path4304" />
	<path
   d="m 143.2,305.8 c -4.8,0 -6.6,-3.9 -3.9,-5.9 -1.2,-0.1 -2.4,-0.6 -3,-1.6 -1.1,-1.7 -0.2,-3.5 -0.1,-3.6 0.1,-0.3 0.3,-0.3 0.4,-0.2 0.1,0.1 0.1,0.3 0,0.4 -0.1,0.2 -0.9,1.7 0.1,3.1 0.3,0.5 0.8,0.9 1.5,1.1 1,0.4 2,0.3 2,0.3 0.3,0 0.4,0.4 0.1,0.5 0,0 -1.1,0.5 -1.5,1.5 -0.2,0.5 -0.2,1.1 0.1,1.7 0.6,1.6 2.8,2.2 4.4,2.2 0.1,0 0.3,0.1 0.3,0.3 -0.2,0.1 -0.3,0.2 -0.4,0.2"
   id="path4306" />
	<path
   d="m 110.6,256.4 c 0.3,0.2 0,0.6 -0.3,0.4 -2.8,-2 -14.7,-10.6 -17.4,-12.7 -2.7,-2.2 -13.2,-15.1 -16.4,-17.6 -3,-2.4 -5.4,-5 -6.5,-4.2 0,0 -0.3,0.2 -0.4,1.5 -0.4,3.5 0.3,11.1 1.9,12.8 1,1.1 2.3,2.6 4.1,4.4 0.1,0.1 0.1,0.3 0,0.4 -0.1,0.1 -0.3,0.1 -0.4,0 -1.8,-1.8 -3.1,-3.3 -4.1,-4.4 -1.8,-1.9 -2.4,-9.9 -2,-13.2 0.2,-1.4 0.5,-1.7 0.7,-1.9 1.5,-1 3.7,1.6 7.1,4.3 3.3,2.6 13.7,15.4 16.4,17.6 3,2.3 17.2,12.5 17.3,12.6"
   id="path4308" />
	<path
   d="m 77.5,243.6 c -0.1,0 -0.1,0 -0.2,-0.1 -0.7,-0.7 -1.5,-1.4 -2.2,-2.1 -0.2,-0.2 0.1,-0.6 0.4,-0.4 0.7,0.7 1.4,1.4 2.2,2.1 0.2,0.2 0.1,0.5 -0.2,0.5"
   id="path4310" />
	<path
   d="m 109.5,262.3 c -0.3,0 -17.5,-8.3 -27.2,-14.9 -1.5,-1 -3,-2.2 -4.6,-3.7 -0.3,-0.2 0.1,-0.6 0.3,-0.4 1.6,1.4 3.1,2.7 4.6,3.6 10.7,7.1 26.9,14.7 27,14.8 0.2,0.2 0.2,0.6 -0.1,0.6"
   id="path4312" />
	<path
   d="m 110.8,267.2 c -0.4,0 -14.7,-5.3 -23.8,-10 -4.5,-2.4 -7.5,-4 -9.5,-5.2 -2.5,-1.5 -3.4,-2.4 -4.5,-3.6 -2,-2.3 -3.2,-8.4 -2.9,-10.8 0,-0.2 0.1,-0.3 0.3,-0.4 0.4,-0.2 1.3,0.2 5,3.6 0.4,0.4 2,1.9 2.5,2.5 0.1,0.1 0.1,0.3 0,0.4 -0.1,0.1 -0.3,0.1 -0.4,0 0.1,0.1 -0.9,-0.9 -2.4,-2.3 -0.1,0 -0.1,-0.1 -0.1,-0.1 -3.6,-3.4 -4.4,-3.5 -4.5,-3.5 -0.3,2.3 0.9,8.2 2.7,10.3 1,1.2 2,2 4.4,3.5 2,1.2 4.9,2.8 9.5,5.1 10.2,5.3 23.5,9.9 23.6,10 0.5,0.1 0.4,0.5 0.1,0.5"
   id="path4314" />
	<path
   d="m 82.3,262.8 c -0.1,0 -2,-0.8 -2.2,-0.9 -2.1,-1 -5,-8 -4.7,-9.6 0.3,-1.5 1.9,-0.9 2.7,-0.4 0.1,0.1 0.2,0.2 0.1,0.4 -0.1,0.1 -0.2,0.2 -0.4,0.1 0,0 -0.1,-0.1 -0.3,-0.2 -0.6,-0.3 -1.1,-0.4 -1.4,-0.3 -0.1,0.1 -0.2,0.2 -0.3,0.4 -0.2,1.3 2.5,8.2 4.4,9 0.4,0.2 1.2,0.5 2.1,0.9 0.4,0.2 0.3,0.6 0,0.6"
   id="path4316" />
	<path
   d="m 111.8,271.2 c -0.1,0 -13.3,-3.1 -13.4,-3.2 -4,-0.9 -11.9,-3.7 -16,-5.3 -0.1,-0.1 -0.2,-0.2 -0.2,-0.3 0,-0.1 0.2,-0.2 0.3,-0.2 4.1,1.6 12,4.3 16,5.2 6.7,1.6 13.3,3.2 13.3,3.2 0.3,0.2 0.3,0.6 0,0.6"
   id="path4318" />
	<path
   d="m 114,276.9 c -5.6,0 -18.9,-1.2 -24.9,-3.4 -6.2,-2.4 -8.7,-7.4 -9.2,-9.9 -0.1,-0.5 0,-0.9 0.2,-1.1 0.4,-0.4 1.1,-0.4 2.1,-0.2 0.1,0 0.9,0.3 1.1,0.4 0.1,0.1 0.2,0.2 0.1,0.4 -0.1,0.1 -0.2,0.2 -0.3,0.1 0,0 -0.4,-0.2 -0.9,-0.3 -0.3,-0.1 -1.4,-0.4 -1.8,0 -0.1,0.1 -0.2,0.3 -0.1,0.6 0.5,2.5 2.9,7.2 8.8,9.5 6,2.3 18.6,3.3 24.7,3.4 0.6,0 0.6,0.5 0.2,0.5"
   id="path4320" />
	<path
   d="m 106.7,281.8 c -4,0.8 -11,1.9 -14.3,-0.6 -2.8,-2.1 -5.9,-6 -5.6,-7.6 0.3,-1.4 2.8,-0.7 3.6,-0.4 0.1,0.1 0.2,0.2 0.1,0.4 -0.1,0.1 -0.2,0.2 -0.3,0.1 0,0 -0.1,0 -0.2,-0.1 -0.7,-0.3 -2.5,-0.7 -2.7,0 -0.2,1.1 2.4,4.8 5.4,7 3.1,2.3 10.1,1.3 13.9,0.5 5.3,-1.1 9.4,-0.7 10.2,-0.6 0,0 0.1,0 0.1,0 0.1,0 0.3,0.1 0.3,0.3 0,0.1 -0.1,0.3 -0.3,0.3 -0.2,0.2 -4.2,-0.5 -10.2,0.7"
   id="path4322" />
	<path
   d="m 101.6,289.6 c -0.6,0 -1.4,0 -2,-0.1 -5.7,-0.8 -8.4,-6.2 -7,-7.5 0.6,-0.6 1.8,-0.3 1.9,-0.2 0.3,0.1 0.2,0.6 -0.1,0.5 -0.3,-0.1 -1.1,-0.2 -1.4,0.1 -0.2,0.2 -0.2,0.5 -0.1,0.9 0.3,1.6 2.3,5 6.9,5.6 0.2,0 0.5,0.1 0.8,0.1 4.9,0.4 6.9,-1.5 10.1,-2.2 3.1,-0.7 7.6,-1.2 7.7,-1.2 0.4,0 0.3,0.5 0,0.5 0,0 -4.6,0.5 -7.6,1.2 -3,0.6 -5,2.3 -9.2,2.3"
   id="path4324" />
	<path
   d="m 103.8,296.6 c -2.4,0 -4,-1.3 -5,-2.4 -1.2,-1.3 -1.8,-2.8 -1.7,-3.6 0.1,-1.3 2.3,-1.7 2.5,-1.7 0.3,-0.1 0.4,0.5 0.1,0.5 -0.6,0.1 -2,0.5 -2.1,1.2 0,0.5 0.5,1.9 1.6,3.1 0.9,1 2.5,2.2 4.7,2.2 4.3,-0.1 8.3,-2 12.4,-3.9 2.5,-1.1 5.2,-1.4 5.3,-1.4 0.3,0 0.4,0.5 0,0.5 0,0 -2.6,0.3 -5.1,1.4 -4,1.9 -8.3,4.1 -12.7,4.1"
   id="path4326" />
	<path
   d="m 110.1,303.7 c -0.6,0 -1.2,-0.2 -2,-0.4 -2.3,-0.5 -6.5,-4 -6.5,-5.3 0,-1.3 3.7,-2 4.8,-2.2 0.1,0 0.3,0.1 0.3,0.2 0,0.1 -0.1,0.3 -0.2,0.3 -2.1,0.4 -4.4,1.2 -4.4,1.7 0,0.9 3.8,4.2 6.1,4.8 2.3,0.5 2.4,0.9 7.6,-2.4 4.7,-2.9 5.7,-3.2 6.7,-3.4 0.7,-0.2 1.5,-0.4 3.8,-0.4 0,0.3 0,0.2 0,0.5 -2.1,-0.1 -2.8,0.2 -3.7,0.4 -3.9,1 -9.6,6.2 -12.5,6.2"
   id="path4328" />
	<path
   d="m 116.8,309.6 c -0.9,0.5 -2,0.3 -3,-0.1 -2.1,-0.9 -4.2,-2.9 -4.4,-3.8 -0.3,-1.1 1.3,-2.2 2.8,-3 0.2,-0.1 0.4,0 0.4,0.2 0,0.1 -0.1,0.3 -0.3,0.3 0,0 0.1,0 0,0 -1.7,0.9 -2.6,1.8 -2.5,2.3 0.2,0.6 2.1,2.6 4.1,3.4 0.7,0.3 1.8,0.6 2.5,0.2 1.4,-0.8 6.2,-4.5 8.6,-5.4 2.1,-0.8 5.3,-1.2 5.6,-1.2 0.4,-0.1 0.4,0.4 0.1,0.5 -0.1,0 -3.3,0.4 -5.5,1.2 -2.3,0.9 -8.1,5.4 -8.4,5.4"
   id="path4330" />
	<path
   d="m 121.6,314.3 c -2.8,0 -5.2,-1.3 -6,-2 -1,-0.9 -0.2,-2.3 0.8,-3.1 0,0 0.1,-0.1 0.1,-0.1 0.1,-0.1 0.3,-0.1 0.4,0 0.1,0.1 0.1,0.3 0,0.4 0,0 0,0 -0.1,0.1 -0.7,0.6 -1.5,1.7 -0.8,2.3 1,0.9 5,2.9 8.8,1.2 0.4,-0.2 -0.1,0.1 9.9,-5.4 l 0.2,0.5 c 0,0 -5.4,3 -9.4,5.2 -1.1,0.6 -2.4,0.9 -3.9,0.9"
   id="path4332" />
	<path
   d="m 126.4,320.1 c -1.6,0 -3.4,-0.9 -4.3,-1.9 -0.6,-0.6 -0.8,-1.3 -0.6,-1.9 0.6,-1.7 3.1,-3.1 3.5,-3.3 0.1,-0.1 0.3,0 0.3,0.1 0.1,0.1 0,0.3 -0.1,0.3 0,0 -0.1,0 -0.2,0.1 -0.7,0.4 -2.5,1.6 -3.1,2.9 -0.6,1.5 3.3,3.6 5.3,2.9 1.9,-0.6 6.2,-4.3 7.7,-5.6 0.1,-0.1 0.3,-0.1 0.4,0 0.1,0.1 0.1,0.3 0,0.4 -0.2,0.2 -4.7,4.2 -7.2,5.4 -0.6,0.5 -1,0.6 -1.7,0.6"
   id="path4334" />
	<path
   d="m 133.7,326.1 c -1.1,0.7 -3.7,-0.9 -4.8,-1.6 -1.1,-0.8 -2.5,-1.9 -2.7,-2.5 -0.6,-1.3 1.5,-2.6 1.8,-2.7 0.1,-0.1 0.3,0 0.4,0.1 0.1,0.1 0,0.3 -0.1,0.4 -0.5,0.3 -1.9,1.3 -1.6,2 0.2,0.4 1.2,1.3 2.6,2.3 2,1.4 3.7,2 4.3,1.6 1.4,-1 6.1,-7.7 6.2,-7.8 0.2,-0.3 0.6,0 0.4,0.3 -0.4,0.3 -5,6.9 -6.5,7.9"
   id="path4336" />
	<path
   d="m 140.6,318.2 c -2.8,0 -4.7,-2.4 -5.9,-5 -0.9,-2 -0.5,-4 -0.1,-5.4 0.4,-1.3 1,-2.2 1,-2.2 0.1,-0.1 0.2,-0.2 0.4,-0.1 0.1,0.1 0.2,0.3 0.1,0.4 0,0 -0.5,0.8 -0.9,2.1 -0.4,1.3 -0.7,3.2 0,5 0.9,2.1 2.4,4.2 4.7,4.6 0.5,0.1 1,0.1 1.5,0 0.4,-0.1 0.5,0.4 0.2,0.5 -0.2,0 -0.6,0.1 -1,0.1"
   id="path4338" />
	<path
   d="m 128,332.9 c -0.2,0 -0.5,-0.1 -0.8,-0.4 -1.3,-1.4 0.8,-6.6 1.5,-8.3 0.1,-0.1 0.2,-0.2 0.3,-0.1 0.1,0.1 0.2,0.2 0.1,0.4 -0.6,1.4 -2.6,6.6 -1.6,7.7 0.2,0.2 0.4,0.2 0.5,0.2 0.5,-0.1 1.2,-1.1 1.8,-2.6 0.1,-0.4 0.7,-0.2 0.5,0.2 -0.3,1 -1.2,2.9 -2.3,2.9"
   id="path4340" />
	<path
   d="m 134.9,330 c -0.4,2.1 -1.8,4.3 -3.9,4.1 -1.6,-0.2 -1.5,-2.6 -1,-4.2 0,-0.1 0.2,-0.2 0.3,-0.2 0.1,0 0.2,0.2 0.2,0.3 -0.3,1.2 -0.6,3.4 0.6,3.6 1.8,0.2 2.9,-1.7 3.3,-3.6 0.5,-2.2 1.6,-2.7 1.8,-2.8 0.1,-0.1 0.3,0 0.3,0.2 0,0.1 0,0.3 -0.1,0.3 -0.1,-0.1 -1.1,0.3 -1.5,2.3"
   id="path4342" />
	<path
   d="m 137.4,328.8 c -0.5,0 -1,-0.2 -1.3,-0.6 -0.2,-0.4 -0.2,-0.9 0,-1 0.2,-0.2 0.5,0 0.4,0.3 -0.1,0.4 0,0.7 0.6,0.8 0.4,0.1 0.8,0 1.1,-0.3 0.8,-0.6 1.4,-2.2 1.6,-4.3 0.3,-3.6 1.4,-5.9 1.5,-6 0.1,-0.3 0.6,-0.2 0.5,0.2 0,0.1 -1.1,2.4 -1.4,5.9 -0.3,1.9 -1,5 -3,5"
   id="path4344" />
	<path
   d="m 132.1,340.3 c -1.2,0 -1.3,-1.8 -1.3,-3 -1.1,1.9 -2.6,3.4 -4,1.8 -1.1,-1.3 -1.4,-3.2 -1,-5.9 0.3,-1.9 1,-3.5 1,-3.6 0.1,-0.1 0.2,-0.2 0.3,-0.1 0.1,0.1 0.2,0.2 0.1,0.4 0,0 -0.7,1.6 -1,3.5 -0.3,1.7 -0.4,4 0.8,5.4 0.3,0.3 0.6,0.5 1,0.5 1.2,-0.1 2.4,-2.5 2.8,-3.4 0.1,-0.3 0.5,-0.2 0.5,0.1 -0.2,1.2 -0.3,3.3 0.4,3.8 0.2,0.1 0.5,0.1 1,-0.2 3.9,-2.5 3.1,-7 3.5,-7.5 0.1,-0.1 0.2,-0.1 0.3,-0.1 0.2,0.1 0.2,0.2 0.2,0.9 0,1 -0.1,3.4 0.7,3.9 0.3,0.2 0.7,0.1 1.2,-0.2 0.9,-0.6 1.7,-1.2 2.3,-2 1.3,-1.6 1.2,-3 1.2,-3 0,-0.3 0.5,-0.4 0.5,-0.1 0,0 0.2,1.6 1,2 0.4,0.2 1,0 1.8,-0.6 1.4,-1.1 1.2,-4.2 0.9,-5.9 -0.1,-0.4 0.4,-0.5 0.5,-0.1 0,0 0.1,0.6 0.2,1.4 0.1,1.7 0,4 -1.3,5.1 -1.4,1.1 -2.6,1.1 -3.3,-0.5 -0.5,1.8 -2,3.3 -3.6,4.2 -1.5,1 -2.4,0.1 -2.7,-1.8 -0.4,1.6 -1.2,3.4 -3.3,4.7 -0.1,0.1 -0.4,0.3 -0.7,0.3"
   id="path4346" />
	<path
   d="m 166,330.3 c -0.6,0 -1.3,-0.5 -1.5,-1.6 -0.3,-1.5 0.2,-3.5 0.2,-3.6 0.1,-0.4 0.6,-0.2 0.5,0.1 -0.3,1.5 -0.7,4.4 0.7,4.5 0.2,0 0.5,-0.2 0.6,-0.4 1.9,-2.1 3.8,-11.3 2.5,-18.6 -1.5,-8 -4.3,-11.7 -4.7,-12.2 -0.1,-0.1 -0.1,-0.3 0,-0.4 0.1,-0.1 0.3,-0.1 0.4,0 0,0 0,0 0.1,0.1 0.5,0.7 3.3,4.5 4.7,12.4 1.6,8.1 -0.9,19.7 -3.5,19.7"
   id="path4348" />
	<path
   d="m 159.9,333.4 c -0.4,0 -1.1,-0.2 -1.5,-0.3 -2,-0.7 -2.1,-1.7 -2.1,-1.8 0,-0.1 0.1,-0.3 0.2,-0.3 0.1,0 0.3,0.1 0.3,0.3 0,0 0.1,0.8 1.8,1.3 0.3,0.1 0.6,0.2 0.9,0.2 2.6,0.5 4.9,-4.2 4.9,-4.3 0.1,-0.1 0.2,-0.2 0.3,-0.1 0.1,0.1 0.2,0.2 0.1,0.4 0,0.2 -2.1,4.6 -4.9,4.6"
   id="path4350" />
	<path
   d="m 144.7,339.2 c -0.1,0 -0.2,-0.1 -0.2,-0.3 0,-0.1 0.1,-0.3 0.3,-0.3 0.2,0 4.9,-0.1 7.2,-1.3 2.6,-1.3 5.5,-4.7 5.6,-4.7 0.1,-0.1 0.3,-0.1 0.4,0 0.1,0.1 0.1,0.3 0,0.4 -0.1,0.1 -3.1,3.5 -5.7,4.8 -2.4,1.3 -7,1.4 -7.6,1.4"
   id="path4352" />
	<path
   d="m 142,343.5 c -1.3,0 -1.8,-2.7 -1.8,-4.1 0,-0.1 0.1,-0.3 0.3,-0.3 0.1,0 0.3,0.1 0.3,0.3 0,0 0,1.1 0.3,2.2 0.1,0.4 0.4,1.3 0.9,1.4 0.3,0.1 0.8,-0.2 1.4,-0.8 1.1,-1.1 1.4,-3.7 1.3,-5.3 0,-0.3 0.4,-0.4 0.5,-0.1 0.4,0.8 1.4,0.1 1.9,-0.3 1.4,-1.1 0.3,-6.3 -0.3,-8.2 -0.1,-0.3 0.4,-0.5 0.5,-0.2 0.2,0.7 2,7.3 0.1,8.8 -0.6,0.5 -1.5,1 -2.2,0.6 0,1.6 -0.4,3.9 -1.5,5 -0.7,0.7 -1.2,1 -1.7,1"
   id="path4354" />
	<path
   d="m 128.2,346.9 c -0.9,0 -1.9,-0.8 -2,-1.9 0,-0.1 0.1,-0.3 0.2,-0.3 0.1,0 0.3,0.1 0.3,0.2 0,0 0.2,1.2 1.4,1.4 1.4,0.2 2.4,-3.4 2.6,-4.9 0,-0.1 0.2,-0.2 0.3,-0.2 0.1,0 0.2,0.1 0.2,0.3 -0.1,1.6 0.3,3.5 1.9,3.4 2.2,-0.1 2.3,-4.4 2.3,-4.5 0,-0.2 0.3,-0.3 0.4,-0.2 0.1,0.1 1.9,1.6 3.6,0.1 1.3,-1.2 1.8,-3.7 1.7,-5.5 0,-0.1 0.1,-0.3 0.3,-0.3 0.1,0 0.3,0.1 0.3,0.3 0.1,2 -0.4,4.7 -1.9,6 -1.6,1.4 -3.2,0.7 -3.9,0.2 -0.2,2.2 -1,4.7 -3.1,4.5 -1.2,-0.1 -1.7,-1.2 -1.9,-2.2 -0.5,1.4 -1.4,3.6 -2.7,3.6"
   id="path4356" />
	<path
   d="m 123.8,359.2 c -1.6,0 0,-4.1 0.5,-6.9 0.5,-2.7 -0.4,-5.4 -0.4,-8.2 0,-2.8 1.8,-10.7 1.9,-11 0.1,-0.3 0.6,-0.2 0.5,0.1 0,0.1 -1.9,8.1 -1.9,10.9 0,2.8 0.9,5.4 0.4,8.3 -0.3,2 -1.5,5.8 -1.1,6.3 0,0 0.1,0 0.3,0 1.8,-0.7 3.2,-3 3.7,-5 0.4,-1.8 0.6,-5.3 0.6,-7.1 0,-0.1 0.1,-0.3 0.3,-0.3 0.1,0 0.3,0.1 0.3,0.3 0,0 0,2.6 -0.3,4.9 -0.2,2.3 -0.7,4.3 -2.4,6.2 -0.6,0.7 -1.3,1.2 -2,1.4 -0.2,0.1 -0.3,0.1 -0.4,0.1"
   id="path4358" />
	<path
   d="m 124.3,347.5 c -0.2,0 -0.3,-0.3 -0.2,-0.5 0.1,-0.1 0.9,-0.5 1.9,-2.2 0,0 0,-0.1 0,-0.1 1.1,-1.7 1.8,-5.3 1.8,-5.3 0,-0.1 0.2,-0.2 0.3,-0.2 0.1,0 0.2,0.2 0.2,0.3 0,0.2 -0.8,3.8 -1.9,5.5 0,0 0,0.1 0,0.1 -1.1,1.7 -2,2.3 -2,2.3 0.1,0.1 0,0.1 -0.1,0.1"
   id="path4360" />
	<path
   d="m 129.9,353.4 c -0.9,0 -1.5,-1 -1.8,-1.8 0,-0.1 0,-0.3 0.2,-0.3 0.1,0 0.3,0 0.3,0.2 0.1,0.4 0.6,1.4 1.2,1.5 0.3,0 0.7,-0.1 1.1,-0.5 0.1,-0.1 0.1,-0.1 0.2,-0.3 0.4,-0.6 0.8,-1.4 1,-2.6 0.4,-2 0.4,-4.2 0.4,-4.2 0,-0.1 0.1,-0.3 0.3,-0.3 0.1,0 0.3,0.1 0.3,0.3 0,2 -0.3,5.5 -1.5,7.1 -0.1,0.1 -0.2,0.2 -0.3,0.3 -0.5,0.4 -1,0.6 -1.4,0.6"
   id="path4362" />
	<path
   d="m 133.4,350.7 c -0.6,0 -1,-0.5 -1.2,-1 -0.1,-0.3 0.3,-0.5 0.5,-0.2 0.1,0.2 0.3,0.6 0.6,0.7 0.5,0.1 1,-0.6 1.2,-1.1 0.8,-1.5 1.6,-5.3 1.6,-6.6 0,-0.1 0.1,-0.3 0.3,-0.3 0.1,0 0.3,0.1 0.3,0.3 -0.1,1.4 -1.3,8.2 -3.3,8.2"
   id="path4364" />
	<path
   d="m 140.3,344.3 c -1.3,3.7 -3.9,4 -4.3,-1.9 -0.1,-0.4 0.5,-0.5 0.5,0 0.1,1.2 0.4,3.6 1.3,3.9 0.2,0.1 0.4,0 0.6,-0.1 0.6,-0.4 1.1,-1.5 1.4,-2.2 0.4,-1 0.6,-2.1 0.6,-2.5 0,-0.2 0.1,-0.3 0.3,-0.3 0.1,0 0.3,0.1 0.3,0.3 0,0.6 -0.3,1.8 -0.7,2.8"
   id="path4366" />
	<path
   d="m 128.6,374 c -0.1,0 -0.2,-0.1 -0.3,-0.2 -0.6,-7.4 -2.5,-16 -2.5,-16.1 -0.1,-0.3 0.4,-0.5 0.5,-0.1 0,0.1 1.9,8.7 2.5,16.2 0.1,0.1 0,0.2 -0.2,0.2"
   id="path4368" />
	<path
   d="m 127.4,395.3 c -2,0 0.7,-8.5 1.1,-16.1 0.1,-1.5 0,-3.3 -0.1,-5.4 0,-0.3 0.5,-0.4 0.5,0 0.2,2.1 0.2,3.9 0.1,5.4 -0.3,6.2 -2.5,15 -1.7,15.6 0.3,0.2 3.9,-2.9 6,-5.9 1,-1.5 2.1,-3.5 2.1,-5.4 -0.6,-19.9 -5.3,-29.2 -5.8,-30.2 0,-0.1 -0.1,-0.1 -0.1,-0.1 -0.1,-0.3 0.3,-0.5 0.5,-0.2 v 0.1 c 0.5,1 5.3,10.4 5.9,30.4 0.1,4 -4.6,9.3 -7.8,11.6 -0.3,0.1 -0.5,0.2 -0.7,0.2"
   id="path4370" />
	<path
   d="m 133.5,389.3 c -0.1,0 -0.1,0 -0.2,-0.1 -2.3,-2.1 -4.4,-12.1 -5,-15.3 0,-0.2 0,-0.2 0,-0.2 -0.1,-0.3 0.4,-0.5 0.5,-0.1 0,0 0,0.2 0,0.3 0.6,3.1 2.6,12.9 4.8,15 0.2,0.1 0.1,0.4 -0.1,0.4"
   id="path4372" />
	<path
   d="m 139.9,397.7 c -0.7,0.4 -1.5,0.7 -2.2,0.4 -2.9,-0.8 -2.6,-11.6 -2.5,-14.6 0,-0.1 0.1,-0.3 0.3,-0.3 0.1,0 0.3,0.1 0.2,0.3 0,0 0,0.4 0,1.1 -0.1,2.5 -0.2,12.3 2.1,13 2.7,0.7 6.7,-5.5 5.7,-11.6 -3.7,-23 -9.9,-34.3 -10.5,-35.5 0,-0.1 0,-0.1 0,-0.1 -0.1,-0.3 0.3,-0.6 0.5,-0.2 v 0.1 c 0.7,1.2 6.9,12.7 10.6,35.7 0,0.2 0.1,0.4 0.1,0.6 0.5,4.6 -1.8,9.5 -4.3,11.1"
   id="path4374" />
	<path
   d="m 143.6,391.2 c -0.2,0 -4.1,-0.9 -4.6,-6.9 -0.6,-6 -0.4,-11.2 -2.7,-19.4 -2.9,-10.5 -5,-12.3 -5,-12.3 -0.1,-0.1 -0.1,-0.3 -0.1,-0.4 0.1,-0.1 0.3,-0.1 0.4,-0.1 0.1,0.1 2.2,1.8 5.2,12.6 2.3,8.3 2.2,13.9 2.7,19.5 0.5,5.6 4.1,6.4 4.2,6.4 0.1,0 0.2,0.1 0.2,0.3 -0.1,0.2 -0.2,0.3 -0.3,0.3"
   id="path4376" />
	<path
   d="m 135.8,392 c -0.3,0.2 -0.6,-0.2 -0.3,-0.4 0,0 1.7,-1.4 2.5,-3.4 0.8,-2.1 0.8,-4.3 0.8,-4.4 0,-0.2 0.1,-0.3 0.3,-0.3 0.1,0 0.3,0.1 0.3,0.3 0,0.1 -0.1,2.4 -0.9,4.5 -0.8,2.3 -2.6,3.7 -2.7,3.7"
   id="path4378" />
	<path
   d="m 146.6,395.7 c -0.2,0.3 -0.6,0.1 -0.5,-0.2 0,-0.1 2.4,-5 2.8,-9.6 0.1,-0.6 0.1,-1.3 0.1,-2 -0.1,-4.2 -1.7,-9.3 -5.2,-19 -4.1,-11.3 -9.2,-15.5 -9.3,-15.5 -0.3,-0.2 0,-0.6 0.3,-0.4 0.2,0.2 5.3,4.2 9.5,15.8 3.5,9.8 5.1,14.8 5.2,19.1 0,0.7 0,1.4 -0.1,2 -0.4,4.7 -2.8,9.7 -2.8,9.8"
   id="path4380" />
	<path
   d="m 153.5,394.6 c -0.1,0 -0.2,-0.1 -0.2,-0.1 -1.9,-3.7 -3.3,-6 -4.3,-10.5 0,-0.1 0.1,-0.3 0.2,-0.3 0.1,0 0.3,0.1 0.3,0.2 0,0 0.8,3.7 2.3,6.7 l 1.9,3.7 c 0.1,0.1 0,0.3 -0.2,0.3"
   id="path4382" />
	<path
   d="m 150.8,400.6 c -3.6,2.5 -6.4,-9.7 -7.2,-14.1 0,-0.2 0,-0.2 0,-0.2 0,-0.1 0.1,-0.3 0.2,-0.3 0.1,0 0.3,0.1 0.3,0.2 0,0 0,0.1 0.1,0.3 0.7,3.6 3.5,15.7 6.4,13.7 1.5,-1 2.5,-3 3,-5.9 1.3,-8 -1.6,-20.3 -4.7,-27.8 -4.7,-11.5 -13.5,-18.3 -13.5,-18.3 -0.1,-0.1 -0.1,-0.3 -0.1,-0.4 0.1,-0.1 0.2,-0.1 0.4,-0.1 0.1,0.1 8.9,6.9 13.7,18.5 3.2,7.7 6.1,20 4.8,28.1 -0.7,3.1 -1.8,5.2 -3.4,6.3"
   id="path4384" />
	<path
   d="m 157.1,378.8 c -0.6,0 0.2,-1.2 -2.4,-9.2 -3.5,-11 -14.9,-20.8 -17.2,-22.6 -0.1,-0.1 -0.2,-0.2 -0.2,-0.2 -0.1,-0.1 -0.1,-0.3 0,-0.4 0.1,-0.1 0.3,-0.1 0.4,0 0,0 0.1,0 0.2,0.1 2.3,1.9 13.8,11.7 17.4,22.9 1.2,3.6 1.9,6.6 2.2,9.1 -0.1,0.2 -0.2,0.3 -0.4,0.3"
   id="path4386" />
	<path
   d="m 156.1,388.1 c -0.2,0 -0.3,-0.2 -0.2,-0.4 1,-2.9 1.4,-5.4 1,-9.1 0,-0.4 0.5,-0.4 0.5,-0.1 0.4,3.2 0.2,6.2 -1,9.4 -0.1,0.1 -0.2,0.2 -0.3,0.2"
   id="path4388" />
	<path
   d="m 162.9,383.2 c -0.8,0 -1.9,-0.3 -3.2,-1.4 -0.8,-0.7 -2.5,-2.2 -2.8,-3.2 -0.1,-0.3 0.3,-0.6 0.5,-0.1 0.1,0.3 0.7,1.3 2.7,2.9 2.2,1.9 3.7,1.1 3.8,1.1 0.1,-0.1 0.3,0 0.4,0.1 0.1,0.1 0,0.3 -0.1,0.4 -0.2,0 -0.6,0.2 -1.3,0.2"
   id="path4390" />
	<path
   d="m 165.7,380.5 c -0.2,0.3 -0.6,0 -0.4,-0.3 0,0 2.3,-3.2 0.9,-7.7 -0.1,-0.2 -0.2,-0.5 -0.2,-0.7 -1.9,-5.7 -6.8,-14.3 -14.1,-19.6 -7.1,-5.1 -12.4,-6.5 -12.4,-6.5 -0.3,-0.1 -0.2,-0.6 0.1,-0.5 0.1,0 5.4,1.5 12.6,6.6 7.4,5.3 12.3,14 14.2,19.8 0.1,0.3 0.2,0.5 0.3,0.8 1.5,4.7 -0.9,8 -1,8.1"
   id="path4392" />
	<path
   d="m 161.6,393 c -2.3,1.7 -4.5,-2.5 -5.7,-5.1 -1.7,-3.7 -3.2,-8.7 -3.2,-8.9 0,-0.1 0.1,-0.3 0.3,-0.3 0.2,0 0.3,0.1 0.3,0.3 1.1,3.7 5.1,15.9 8.1,13.6 1.9,-1.5 2.8,-5 2.4,-9.8 -0.2,-3 -0.9,-6.3 -1.9,-9.3 0,-0.1 0,-0.3 0.2,-0.3 0.1,0 0.3,0 0.3,0.2 1,3.1 1.7,6.4 2,9.5 0.2,4.9 -0.7,8.5 -2.8,10.1"
   id="path4394" />
	<path
   d="m 169.4,383.1 c -0.4,0.4 -1,0.7 -1.5,0.6 -2.7,-0.2 -7.8,-17 -15.2,-26.2 -6.2,-7.7 -13.4,-10.5 -14.1,-10.8 -0.3,-0.1 -0.2,-0.5 0.1,-0.5 0,0 0.1,0 0.1,0 0.8,0.3 8,3.1 14.3,10.9 7.2,9 12.7,25.8 14.9,26 0.4,0 0.8,-0.1 1.2,-0.5 0.9,-0.9 2,-2.9 2.1,-6.2 0.1,-3 -0.5,-9 -6.1,-16.3 -3.5,-4.5 -7.9,-8.2 -13.2,-11.1 -6.3,-3.5 -11.7,-4.6 -11.7,-4.6 -0.3,-0.1 -0.2,-0.6 0.1,-0.5 0,0 5.5,1.1 11.9,4.6 5.4,3 9.9,6.8 13.4,11.3 5.8,7.4 6.4,13.6 6.3,16.7 -0.4,3.5 -1.6,5.7 -2.6,6.6"
   id="path4396" />
	<path
   d="m 171.4,376.8 c -0.2,0 -1,-0.1 -2.9,-1.3 -0.9,-0.6 -1.8,-2.3 -2.5,-3.7 -0.1,-0.2 0,-0.4 0.2,-0.4 0.1,0 0.3,0.1 0.3,0.3 0,-0.1 0,-0.1 0,0 0.8,1.8 1.6,3 2.3,3.4 1.8,1.2 2.6,1.2 2.6,1.2 0.3,-0.1 0.4,0.5 0,0.5"
   id="path4398" />
	<path
   d="m 177.1,322.2 c -0.2,0.1 -0.3,0.1 -0.5,0 -0.2,-0.2 -0.4,-0.7 0.6,-3.8 l 0.2,-0.6 c 0.1,-0.3 0.6,-0.2 0.5,0.2 -0.3,0.8 -0.9,2.9 -0.9,3.6 0.9,-0.5 3.2,-3 4.2,-8.7 1,-6.1 -1.4,-9.6 -2,-12.2 -0.6,-2 -0.3,-3 0,-3.5 0.3,-0.5 0.7,0 0.4,0.3 0,0 0,0 0,0.1 -0.1,0.2 -0.4,1.1 0.1,3 0.7,2.5 3.1,6.2 2.1,12.4 -1.2,6.3 -3.8,8.8 -4.7,9.2"
   id="path4400" />
	<path
   d="m 171.6,328.9 c -0.3,0 -0.4,-0.4 -0.1,-0.5 0.1,-0.1 0.7,-0.7 2.5,-3.5 1.5,-2.3 2.7,-5 3.2,-6.4 0.6,-1.5 1,-2.6 1,-2.6 0,-0.1 0.2,-0.2 0.3,-0.2 0.1,0 0.2,0.2 0.2,0.3 0,0 -0.4,1.1 -1,2.7 -0.6,1.4 -1.7,4.1 -3.3,6.5 -2.2,3.4 -2.6,3.7 -2.8,3.7"
   id="path4402" />
	<path
   d="m 161.5,341.5 c -0.6,0 -0.9,-0.4 -0.7,-0.7 0.2,-0.3 1.6,-2.5 1.6,-2.5 l 0.4,0.3 c 0,0 -1.1,1.7 -1.5,2.3 2,0.4 8.3,-5.9 9.8,-12.2 0.2,-0.7 0.9,-3.5 1.5,-3.9 0.3,-0.2 0.6,0.3 0.3,0.4 -0.5,0.4 -1.2,3.1 -1.3,3.6 -0.8,3.5 -3.3,7.5 -6.3,10.3 -1.8,2 -3.1,2.4 -3.8,2.4"
   id="path4404" />
	<path
   d="m 151.9,349.1 c -0.3,0 -0.4,-0.3 -0.3,-0.4 0.1,-0.1 0.2,-0.2 0.4,-0.1 0.1,0 1,-0.2 4,-2.7 2.2,-1.9 3.9,-5.2 4.9,-6.6 0.5,-0.6 1.1,-1 1.8,-1.2 0.7,-0.2 1.3,-0.1 1.3,-0.1 0.1,0 0.2,0.2 0.2,0.3 0,0.1 -0.2,0.2 -0.3,0.2 0,0 -0.5,-0.1 -1.1,0.1 -0.6,0.1 -1.1,0.5 -1.5,1 -1.1,1.5 -2.7,4.7 -5,6.7 -0.9,0.7 -3.4,2.8 -4.4,2.8"
   id="path4406" />
	<path
   d="m 152.7,344.6 c -1.6,0 -2,-2.7 0.6,-3.9 0.1,-0.1 0.3,0 0.3,0.1 0.1,0.1 0,0.3 -0.1,0.4 -1.8,0.8 -1.9,2.5 -1.1,2.8 1.5,0.7 3.6,-4.1 4.5,-3.9 0.3,0.1 0.2,0.5 0,0.5 -0.8,0.4 -2.5,4 -4.2,4"
   id="path4408" />
	<path
   d="m 174.1,317.2 c -0.2,0 -0.4,-0.1 -0.5,-0.2 -0.4,-0.7 0.4,-2.7 0.3,-4.7 -0.1,-2 -0.7,-3.6 -0.7,-3.7 0,-0.1 0.1,-0.3 0.3,-0.3 0.2,0 0.3,0.1 0.3,0.3 0.2,0.6 0.6,2.2 0.7,3.7 0.1,1 -0.1,2.1 -0.2,2.9 -0.1,0.6 -0.2,1.2 -0.1,1.5 0.3,-0.2 1.2,-1.5 1.6,-3.7 0.5,-2.5 -0.2,-5.3 -0.2,-5.3 -0.1,-0.3 0.4,-0.5 0.5,-0.1 0,0.1 0.8,2.9 0.3,5.6 -0.6,1.9 -1.6,3.8 -2.3,4"
   id="path4410" />
</g>
</svg>
